<?xml version="1.0" encoding="UTF-8"?>
<!--Generator: Apple Native CoreSVG 149-->
<!DOCTYPE svg
PUBLIC "-//W3C//DTD SVG 1.1//EN"
       "http://www.w3.org/Graphics/SVG/1.1/DTD/svg11.dtd">
<svg version="1.1" xmlns="http://www.w3.org/2000/svg" xmlns:xlink="http://www.w3.org/1999/xlink" width="3300" height="2200">
 <!--glyph: "uni1001D9.medium", point size: 100.000000, font version: "Version 16.0d18e1", template writer version: "8"-->
 <g id="Notes">
  <rect height="2200" id="artboard" style="fill:white;opacity:1" width="3300" x="0" y="0"/>
  <line id="" style="fill:none;stroke:black;opacity:1;stroke-width:0.5;" x1="263" x2="3036" y1="292" y2="292"/>
  <text style="stroke:none;fill:black;font-family:-apple-system,&quot;SF Pro Display&quot;,&quot;SF Pro Text&quot;,Helvetica,sans-serif;font-weight:bold;" transform="matrix(1 0 0 1 263 322)">Weight/Scale Variations</text>
  <text style="stroke:none;fill:black;font-family:-apple-system,&quot;SF Pro Display&quot;,&quot;SF Pro Text&quot;,Helvetica,sans-serif;text-anchor:middle;" transform="matrix(1 0 0 1 559.711 322)">Ultralight</text>
  <text style="stroke:none;fill:black;font-family:-apple-system,&quot;SF Pro Display&quot;,&quot;SF Pro Text&quot;,Helvetica,sans-serif;text-anchor:middle;" transform="matrix(1 0 0 1 856.422 322)">Thin</text>
  <text style="stroke:none;fill:black;font-family:-apple-system,&quot;SF Pro Display&quot;,&quot;SF Pro Text&quot;,Helvetica,sans-serif;text-anchor:middle;" transform="matrix(1 0 0 1 1153.13 322)">Light</text>
  <text style="stroke:none;fill:black;font-family:-apple-system,&quot;SF Pro Display&quot;,&quot;SF Pro Text&quot;,Helvetica,sans-serif;text-anchor:middle;" transform="matrix(1 0 0 1 1449.84 322)">Regular</text>
  <text style="stroke:none;fill:black;font-family:-apple-system,&quot;SF Pro Display&quot;,&quot;SF Pro Text&quot;,Helvetica,sans-serif;text-anchor:middle;" transform="matrix(1 0 0 1 1746.56 322)">Medium</text>
  <text style="stroke:none;fill:black;font-family:-apple-system,&quot;SF Pro Display&quot;,&quot;SF Pro Text&quot;,Helvetica,sans-serif;text-anchor:middle;" transform="matrix(1 0 0 1 2043.27 322)">Semibold</text>
  <text style="stroke:none;fill:black;font-family:-apple-system,&quot;SF Pro Display&quot;,&quot;SF Pro Text&quot;,Helvetica,sans-serif;text-anchor:middle;" transform="matrix(1 0 0 1 2339.98 322)">Bold</text>
  <text style="stroke:none;fill:black;font-family:-apple-system,&quot;SF Pro Display&quot;,&quot;SF Pro Text&quot;,Helvetica,sans-serif;text-anchor:middle;" transform="matrix(1 0 0 1 2636.69 322)">Heavy</text>
  <text style="stroke:none;fill:black;font-family:-apple-system,&quot;SF Pro Display&quot;,&quot;SF Pro Text&quot;,Helvetica,sans-serif;text-anchor:middle;" transform="matrix(1 0 0 1 2933.4 322)">Black</text>
  <line id="" style="fill:none;stroke:black;opacity:1;stroke-width:0.5;" x1="263" x2="3036" y1="1903" y2="1903"/>
  <g id="" transform="matrix(1 0 0 1 263 1933)">
   <path d="M9.24805 0.830078C13.5547 0.830078 17.1387-2.74414 17.1387-7.05078C17.1387-11.3574 13.5449-14.9316 9.23828-14.9316C4.94141-14.9316 1.36719-11.3574 1.36719-7.05078C1.36719-2.74414 4.95117 0.830078 9.24805 0.830078ZM9.24805-0.654297C5.70312-0.654297 2.87109-3.49609 2.87109-7.05078C2.87109-10.6055 5.69336-13.4473 9.23828-13.4473C12.793-13.4473 15.6348-10.6055 15.6445-7.05078C15.6543-3.49609 12.8027-0.654297 9.24805-0.654297ZM6.39648-6.31836L8.50586-6.31836L8.50586-4.19922C8.50586-3.75977 8.79883-3.45703 9.22852-3.45703C9.67773-3.45703 9.9707-3.75977 9.9707-4.19922L9.9707-6.31836L12.0996-6.31836C12.5391-6.31836 12.8418-6.61133 12.8418-7.04102C12.8418-7.48047 12.5391-7.7832 12.0996-7.7832L9.9707-7.7832L9.9707-9.89258C9.9707-10.3418 9.67773-10.6445 9.22852-10.6445C8.79883-10.6445 8.50586-10.3418 8.50586-9.89258L8.50586-7.7832L6.39648-7.7832C5.94727-7.7832 5.64453-7.48047 5.64453-7.04102C5.64453-6.61133 5.94727-6.31836 6.39648-6.31836Z"/>
  </g>
  <g id="" transform="matrix(1 0 0 1 281.506 1933)">
   <path d="M11.709 2.91016C17.1582 2.91016 21.6699-1.61133 21.6699-7.05078C21.6699-12.5 17.1484-17.0117 11.6992-17.0117C6.25977-17.0117 1.74805-12.5 1.74805-7.05078C1.74805-1.61133 6.26953 2.91016 11.709 2.91016ZM11.709 1.25C7.09961 1.25 3.41797-2.44141 3.41797-7.05078C3.41797-11.6602 7.08984-15.3516 11.6992-15.3516C16.3086-15.3516 20-11.6602 20.0098-7.05078C20.0195-2.44141 16.3184 1.25 11.709 1.25ZM7.98828-6.23047L10.8789-6.23047L10.8789-3.32031C10.8789-2.83203 11.2109-2.5 11.6895-2.5C12.1777-2.5 12.5195-2.83203 12.5195-3.32031L12.5195-6.23047L15.4297-6.23047C15.918-6.23047 16.25-6.5625 16.25-7.04102C16.25-7.5293 15.918-7.87109 15.4297-7.87109L12.5195-7.87109L12.5195-10.7617C12.5195-11.2695 12.1777-11.6016 11.6895-11.6016C11.2109-11.6016 10.8789-11.2598 10.8789-10.7617L10.8789-7.87109L7.98828-7.87109C7.48047-7.87109 7.14844-7.5293 7.14844-7.04102C7.14844-6.5625 7.49023-6.23047 7.98828-6.23047Z"/>
  </g>
  <g id="" transform="matrix(1 0 0 1 304.924 1933)">
   <path d="M14.9707 5.66406C21.9336 5.66406 27.6953-0.0976562 27.6953-7.05078C27.6953-14.0137 21.9238-19.7754 14.9609-19.7754C8.00781-19.7754 2.25586-14.0137 2.25586-7.05078C2.25586-0.0976562 8.01758 5.66406 14.9707 5.66406ZM14.9707 3.84766C8.93555 3.84766 4.08203-1.01562 4.08203-7.05078C4.08203-13.0957 8.92578-17.9492 14.9609-17.9492C21.0059-17.9492 25.8594-13.0957 25.8691-7.05078C25.8789-1.01562 21.0156 3.84766 14.9707 3.84766ZM10.0586-6.14258L14.0625-6.14258L14.0625-2.12891C14.0625-1.5918 14.4336-1.2207 14.9512-1.2207C15.4883-1.2207 15.8594-1.5918 15.8594-2.12891L15.8594-6.14258L19.8828-6.14258C20.4102-6.14258 20.791-6.51367 20.791-7.03125C20.791-7.56836 20.4199-7.94922 19.8828-7.94922L15.8594-7.94922L15.8594-11.9531C15.8594-12.5098 15.4883-12.8809 14.9512-12.8809C14.4336-12.8809 14.0625-12.5 14.0625-11.9531L14.0625-7.94922L10.0586-7.94922C9.50195-7.94922 9.13086-7.56836 9.13086-7.03125C9.13086-6.51367 9.51172-6.14258 10.0586-6.14258Z"/>
  </g>
  <text style="stroke:none;fill:black;font-family:-apple-system,&quot;SF Pro Display&quot;,&quot;SF Pro Text&quot;,Helvetica,sans-serif;font-weight:bold;" transform="matrix(1 0 0 1 263 1953)">Design Variations</text>
  <text style="stroke:none;fill:black;font-family:-apple-system,&quot;SF Pro Display&quot;,&quot;SF Pro Text&quot;,Helvetica,sans-serif;" transform="matrix(1 0 0 1 263 1971)">Symbols are supported in up to nine weights and three scales.</text>
  <text style="stroke:none;fill:black;font-family:-apple-system,&quot;SF Pro Display&quot;,&quot;SF Pro Text&quot;,Helvetica,sans-serif;" transform="matrix(1 0 0 1 263 1989)">For optimal layout with text and other symbols, vertically align</text>
  <text style="stroke:none;fill:black;font-family:-apple-system,&quot;SF Pro Display&quot;,&quot;SF Pro Text&quot;,Helvetica,sans-serif;" transform="matrix(1 0 0 1 263 2007)">symbols with the adjacent text.</text>
  <line id="" style="fill:none;stroke:#00AEEF;stroke-width:0.5;opacity:1.0;" x1="776" x2="776" y1="1919" y2="1933"/>
  <g id="" transform="matrix(1 0 0 1 776 1933)">
   <path d="M3.31055 0.126953C3.82812 0.126953 4.08203-0.0683594 4.26758-0.605469L5.52734-4.0625L11.2891-4.0625L12.5488-0.605469C12.7344-0.0683594 12.9883 0.126953 13.4961 0.126953C14.0137 0.126953 14.3457-0.185547 14.3457-0.673828C14.3457-0.839844 14.3164-0.986328 14.2383-1.20117L9.6582-13.3887C9.43359-13.9941 9.0332-14.2871 8.4082-14.2871C7.80273-14.2871 7.39258-13.9941 7.17773-13.3984L2.59766-1.19141C2.51953-0.976562 2.49023-0.830078 2.49023-0.664062C2.49023-0.175781 2.80273 0.126953 3.31055 0.126953ZM6.00586-5.53711L8.37891-12.1094L8.42773-12.1094L10.8008-5.53711Z"/>
  </g>
  <line id="" style="fill:none;stroke:#00AEEF;stroke-width:0.5;opacity:1.0;" x1="792.836" x2="792.836" y1="1919" y2="1933"/>
  <text style="stroke:none;fill:black;font-family:-apple-system,&quot;SF Pro Display&quot;,&quot;SF Pro Text&quot;,Helvetica,sans-serif;font-weight:bold;" transform="matrix(1 0 0 1 776 1953)">Margins</text>
  <text style="stroke:none;fill:black;font-family:-apple-system,&quot;SF Pro Display&quot;,&quot;SF Pro Text&quot;,Helvetica,sans-serif;" transform="matrix(1 0 0 1 776 1971)">Leading and trailing margins on the left and right side of each symbol</text>
  <text style="stroke:none;fill:black;font-family:-apple-system,&quot;SF Pro Display&quot;,&quot;SF Pro Text&quot;,Helvetica,sans-serif;" transform="matrix(1 0 0 1 776 1989)">can be adjusted by modifying the x-location of the margin guidelines.</text>
  <text style="stroke:none;fill:black;font-family:-apple-system,&quot;SF Pro Display&quot;,&quot;SF Pro Text&quot;,Helvetica,sans-serif;" transform="matrix(1 0 0 1 776 2007)">Modifications are automatically applied proportionally to all</text>
  <text style="stroke:none;fill:black;font-family:-apple-system,&quot;SF Pro Display&quot;,&quot;SF Pro Text&quot;,Helvetica,sans-serif;" transform="matrix(1 0 0 1 776 2025)">scales and weights.</text>
  <g id="" transform="matrix(1 0 0 1 1289 1933)">
   <path d="M2.8418 1.86523L4.54102 3.57422C5.40039 4.44336 6.38672 4.38477 7.31445 3.35938L17.4902-7.85156C17.7539-7.76367 18.0273-7.7832 18.3398-7.8418L19.4043-8.03711L20.0684-7.36328L20.0293-6.80664C19.9902-6.30859 20.1172-5.92773 20.6055-5.44922L21.3672-4.70703C21.8457-4.22852 22.4609-4.19922 22.9297-4.66797L25.8398-7.58789C26.3086-8.05664 26.2891-8.65234 25.8105-9.13086L25.0391-9.89258C24.5605-10.3711 24.1895-10.5273 23.7109-10.4883L23.1348-10.4395L22.4902-11.0742L22.7344-12.1973C22.8613-12.7637 22.7051-13.2031 22.1191-13.7891L19.9219-15.9766C16.582-19.2969 12.1484-19.2188 9.25781-16.3281C8.83789-15.918 8.80859-15.3418 9.04297-14.9512C9.27734-14.5898 9.73633-14.3555 10.3809-14.5215C11.8457-14.8633 13.3691-14.9219 14.7949-13.9844L14.209-12.5293C14.0137-12.0508 13.9844-11.6504 14.1113-11.2891L3.04688-0.898438C2.06055 0.0195312 1.98242 0.996094 2.8418 1.86523ZM10.752-15.957C13.1836-17.7344 16.4746-17.4316 18.7012-15.2051L21.1328-12.793C21.3672-12.5586 21.4062-12.373 21.3379-12.0312L21.0156-10.5469L22.5195-9.0625L23.5059-9.12109C23.7598-9.13086 23.8379-9.11133 24.0332-8.91602L24.6094-8.33984L22.168-5.89844L21.5918-6.47461C21.3965-6.66992 21.3672-6.74805 21.377-7.01172L21.4453-7.98828L19.9512-9.47266L18.4277-9.21875C18.1055-9.15039 17.959-9.17969 17.7148-9.41406L15.7129-11.416C15.459-11.6504 15.4297-11.8164 15.5859-12.1875L16.4648-14.2773C14.9023-15.7324 12.8711-16.3574 10.8398-15.7617C10.6836-15.7227 10.625-15.8496 10.752-15.957ZM5.27344 2.30469L4.10156 1.14258C3.63281 0.683594 3.74023 0.341797 4.14062-0.0195312L14.9512-10.1953L16.416-8.71094L6.42578 2.27539C6.07422 2.67578 5.74219 2.77344 5.27344 2.30469Z"/>
  </g>
  <text style="stroke:none;fill:black;font-family:-apple-system,&quot;SF Pro Display&quot;,&quot;SF Pro Text&quot;,Helvetica,sans-serif;font-weight:bold;" transform="matrix(1 0 0 1 1289 1953)">Exporting</text>
  <text style="stroke:none;fill:black;font-family:-apple-system,&quot;SF Pro Display&quot;,&quot;SF Pro Text&quot;,Helvetica,sans-serif;" transform="matrix(1 0 0 1 1289 1971)">Symbols should be outlined when exporting to ensure the</text>
  <text style="stroke:none;fill:black;font-family:-apple-system,&quot;SF Pro Display&quot;,&quot;SF Pro Text&quot;,Helvetica,sans-serif;" transform="matrix(1 0 0 1 1289 1989)">design is preserved when submitting to Xcode.</text>
  <text id="template-version" style="stroke:none;fill:black;font-family:-apple-system,&quot;SF Pro Display&quot;,&quot;SF Pro Text&quot;,Helvetica,sans-serif;text-anchor:end;" transform="matrix(1 0 0 1 3036 1933)">Template v.2.0</text>
  <text style="stroke:none;fill:black;font-family:-apple-system,&quot;SF Pro Display&quot;,&quot;SF Pro Text&quot;,Helvetica,sans-serif;text-anchor:end;" transform="matrix(1 0 0 1 3036 1951)">Requires Xcode 12 or greater</text>
  <text style="stroke:none;fill:black;font-family:-apple-system,&quot;SF Pro Display&quot;,&quot;SF Pro Text&quot;,Helvetica,sans-serif;text-anchor:end;" transform="matrix(1 0 0 1 3036 1969)">Generated from cloud.sun.bolt.fill</text>
  <text style="stroke:none;fill:black;font-family:-apple-system,&quot;SF Pro Display&quot;,&quot;SF Pro Text&quot;,Helvetica,sans-serif;text-anchor:end;" transform="matrix(1 0 0 1 3036 1987)">Typeset at 100 points</text>
  <text style="stroke:none;fill:black;font-family:-apple-system,&quot;SF Pro Display&quot;,&quot;SF Pro Text&quot;,Helvetica,sans-serif;" transform="matrix(1 0 0 1 263 726)">Small</text>
  <text style="stroke:none;fill:black;font-family:-apple-system,&quot;SF Pro Display&quot;,&quot;SF Pro Text&quot;,Helvetica,sans-serif;" transform="matrix(1 0 0 1 263 1156)">Medium</text>
  <text style="stroke:none;fill:black;font-family:-apple-system,&quot;SF Pro Display&quot;,&quot;SF Pro Text&quot;,Helvetica,sans-serif;" transform="matrix(1 0 0 1 263 1586)">Large</text>
 </g>
 <g id="Guides">
  <g id="H-reference" style="fill:#27AAE1;stroke:none;" transform="matrix(1 0 0 1 339 696)">
   <path d="M0.976562 0L3.66211 0L12.9883-24.4629L45.752-24.4629L55.127 0L57.7637 0L30.6152-70.459L28.125-70.459ZM29.3457-67.1387L29.4434-67.1387L44.873-26.709L13.8672-26.709Z"/>
  </g>
  <line id="Baseline-S" style="fill:none;stroke:#27AAE1;opacity:1;stroke-width:0.5;" x1="263" x2="3036" y1="696" y2="696"/>
  <line id="Capline-S" style="fill:none;stroke:#27AAE1;opacity:1;stroke-width:0.5;" x1="263" x2="3036" y1="625.541" y2="625.541"/>
  <g id="H-reference" style="fill:#27AAE1;stroke:none;" transform="matrix(1 0 0 1 339 1126)">
   <path d="M0.976562 0L3.66211 0L12.9883-24.4629L45.752-24.4629L55.127 0L57.7637 0L30.6152-70.459L28.125-70.459ZM29.3457-67.1387L29.4434-67.1387L44.873-26.709L13.8672-26.709Z"/>
  </g>
  <line id="Baseline-M" style="fill:none;stroke:#27AAE1;opacity:1;stroke-width:0.5;" x1="263" x2="3036" y1="1126" y2="1126"/>
  <line id="Capline-M" style="fill:none;stroke:#27AAE1;opacity:1;stroke-width:0.5;" x1="263" x2="3036" y1="1055.54" y2="1055.54"/>
  <g id="H-reference" style="fill:#27AAE1;stroke:none;" transform="matrix(1 0 0 1 339 1556)">
   <path d="M0.976562 0L3.66211 0L12.9883-24.4629L45.752-24.4629L55.127 0L57.7637 0L30.6152-70.459L28.125-70.459ZM29.3457-67.1387L29.4434-67.1387L44.873-26.709L13.8672-26.709Z"/>
  </g>
  <line id="Baseline-L" style="fill:none;stroke:#27AAE1;opacity:1;stroke-width:0.5;" x1="263" x2="3036" y1="1556" y2="1556"/>
  <line id="Capline-L" style="fill:none;stroke:#27AAE1;opacity:1;stroke-width:0.5;" x1="263" x2="3036" y1="1485.54" y2="1485.54"/>
  <line id="left-margin" style="fill:none;stroke:#00AEEF;stroke-width:0.5;opacity:1.0;" x1="1382.75" x2="1382.75" y1="1030.79" y2="1150.12"/>
  <line id="right-margin" style="fill:none;stroke:#FF3B30;stroke-width:0.5;opacity:1.0;" x1="1516.93" x2="1516.93" y1="1030.79" y2="1150.12"/>
 </g>
 <g id="Symbols">
  <g id="Black-L" transform="matrix(1 0 0 1 2842.24 1556)">
   <path d="M138.623-104.785C142.725-104.785 146.045-108.301 146.045-112.354L146.045-123.193C146.045-127.344 142.725-130.713 138.623-130.713C134.521-130.713 131.152-127.344 131.152-123.193L131.152-112.354C131.152-108.301 134.521-104.785 138.623-104.785ZM97.998-92.4805C100.977-89.502 105.762-89.502 108.594-92.3828C111.475-95.2637 111.377-99.9512 108.496-102.93L100.928-110.693C98.0957-113.672 93.1641-113.574 90.2832-110.693C87.4023-107.812 87.5-103.027 90.3809-100.195ZM168.652-92.2852C171.533-89.4043 176.367-89.502 179.297-92.4316L186.963-100.049C189.893-102.93 189.893-107.764 187.012-110.645C184.131-113.525 179.346-113.477 176.416-110.547L168.701-102.93C165.771-100.049 165.771-95.166 168.652-92.2852ZM157.812-35.8398C166.016-41.6504 171.436-51.416 171.436-62.4512C171.436-80.5176 156.787-95.1172 138.721-95.1172C126.953-95.1172 116.602-88.9648 111.328-80.3223C114.258-77.4902 116.748-74.1699 118.799-70.166C138.428-69.043 154.395-55.1758 157.812-35.8398ZM39.1113 7.32422L114.844 7.32422C133.301 7.32422 147.266-7.03125 147.266-26.0254C147.266-45.8008 132.422-60.2539 112.061-60.2051C105.615-72.3145 93.2617-83.1055 73.3398-83.1055C50.6836-83.1055 32.0801-66.3574 30.2246-44.1895C18.7012-41.1133 11.2793-31.25 11.2793-18.9453C11.2793-3.32031 22.5586 7.32422 39.1113 7.32422ZM188.525-54.9805L199.316-54.9805C203.467-54.9805 206.885-58.252 206.885-62.3535C206.885-66.4551 203.467-69.873 199.316-69.873L188.525-69.873C184.424-69.873 180.957-66.4551 180.957-62.3535C180.957-58.252 184.424-54.9805 188.525-54.9805ZM176.367-14.1113C179.297-11.1816 184.082-11.1328 186.963-14.0137C189.844-16.8945 189.697-21.6309 186.816-24.6094L179.248-32.373C176.416-35.3027 171.484-35.2539 168.604-32.373C165.723-29.4922 165.82-24.707 168.701-21.8262ZM97.8027 29.7363L83.1055 29.7363L88.2324 19.873C88.9648 18.5059 88.3789 17.4316 86.9629 17.4316L68.6035 17.4316C66.7969 17.4316 66.1621 18.0664 65.625 19.3848L56.8848 39.2578C56.25 40.7715 56.7871 41.7969 58.4473 41.7969L70.459 41.7969L61.8164 62.7441C61.4258 63.5742 61.6699 64.3066 62.207 64.5508C62.793 64.7461 63.4766 64.5996 64.1602 63.9648L98.7305 32.959C100.195 31.6895 99.707 29.7363 97.8027 29.7363Z"/>
  </g>
  <g id="Heavy-L" transform="matrix(1 0 0 1 2546.7 1556)">
   <path d="M136.084-103.662C139.795-103.662 142.822-106.787 142.822-110.498L142.822-122.217C142.822-125.977 139.795-129.053 136.084-129.053C132.373-129.053 129.346-125.977 129.346-122.217L129.346-110.498C129.346-106.787 132.373-103.662 136.084-103.662ZM96.7285-91.4062C99.3652-88.7207 103.76-88.7207 106.299-91.3086C108.887-93.8965 108.838-98.1445 106.201-100.83L97.9492-109.229C95.3613-111.914 90.9668-111.865 88.3789-109.229C85.7422-106.641 85.8398-102.344 88.4277-99.707ZM165.918-91.2598C168.506-88.6719 172.9-88.7207 175.537-91.3574L183.838-99.6582C186.475-102.246 186.475-106.592 183.887-109.229C181.25-111.816 177.002-111.768 174.316-109.131L165.967-100.83C163.33-98.2422 163.33-93.8477 165.918-91.2598ZM154.346-34.8145C162.891-40.7227 168.457-50.4883 168.457-61.5723C168.457-79.3945 154.004-93.7988 136.182-93.7988C124.414-93.7988 114.111-87.5488 108.936-78.6621C111.768-75.8789 114.209-72.6074 116.211-68.7012C136.035-67.4805 151.27-53.9062 154.346-34.8145ZM38.5742 6.15234L112.549 6.15234C130.811 6.15234 144.727-7.95898 144.727-26.5137C144.727-45.6055 130.078-59.7168 110.156-59.668C103.418-72.3145 90.918-82.4707 72.1191-82.4707C50.0977-82.4707 31.7871-65.918 29.9805-44.1406C18.6035-41.0645 11.2793-31.3965 11.2793-19.3848C11.2793-4.19922 22.3633 6.15234 38.5742 6.15234ZM184.961-54.834L196.729-54.834C200.439-54.834 203.516-57.8125 203.516-61.5234C203.516-65.2344 200.439-68.3105 196.729-68.3105L184.961-68.3105C181.299-68.3105 178.174-65.2344 178.174-61.5234C178.174-57.8125 181.299-54.834 184.961-54.834ZM174.268-13.8184C176.953-11.1816 181.201-11.1816 183.838-13.7695C186.426-16.3574 186.328-20.6543 183.74-23.3398L175.439-31.6895C172.9-34.3262 168.457-34.3262 165.869-31.6895C163.281-29.1016 163.379-24.7559 165.967-22.168ZM95.459 28.8086L81.3965 28.8086L86.7676 18.6035C87.5 17.2363 86.9141 16.1621 85.498 16.1621L68.7988 16.1621C67.041 16.1621 66.4062 16.7969 65.8691 18.1152L57.3242 37.5977C56.6406 39.1113 57.2754 40.0879 58.9355 40.0879L70.4102 40.0879L61.9629 60.5957C61.5723 61.4746 61.7676 62.1582 62.3535 62.4023C62.9395 62.6465 63.623 62.5 64.3066 61.8164L96.4355 31.9824C97.8516 30.7129 97.3145 28.8086 95.459 28.8086Z"/>
  </g>
  <g id="Bold-L" transform="matrix(1 0 0 1 2251.28 1556)">
   <path d="M133.301-102.393C136.523-102.393 139.209-105.176 139.209-108.398L139.209-121.143C139.209-124.463 136.523-127.148 133.301-127.148C130.029-127.148 127.344-124.463 127.344-121.143L127.344-108.398C127.344-105.176 130.029-102.393 133.301-102.393ZM95.2637-90.1855C97.6074-87.793 101.465-87.8418 103.711-90.0879C105.957-92.3828 105.957-96.1426 103.662-98.4863L94.6289-107.617C92.334-109.961 88.5254-109.912 86.2305-107.617C83.9355-105.322 83.9844-101.514 86.2793-99.2188ZM162.842-90.0879C165.088-87.793 168.994-87.793 171.289-90.1367L180.322-99.1699C182.666-101.465 182.666-105.273 180.371-107.568C178.076-109.863 174.316-109.863 171.973-107.52L162.891-98.4863C160.547-96.1914 160.596-92.3828 162.842-90.0879ZM150.488-33.6914C159.375-39.6484 165.088-49.4141 165.088-60.5957C165.088-78.1738 150.928-92.334 133.35-92.334C121.582-92.334 111.377-85.9863 106.25-76.8555C109.033-74.0234 111.377-70.8984 113.33-67.0898C133.301-65.7227 147.852-52.4414 150.488-33.6914ZM37.9395 4.83398L110.01 4.83398C128.027 4.83398 141.846-8.98438 141.846-27.0508C141.846-45.459 127.441-59.082 107.959-59.082C101.025-72.3145 88.3301-81.7871 70.8008-81.7871C49.3652-81.7871 31.4941-65.4785 29.6387-44.043C18.457-40.9668 11.2793-31.543 11.2793-19.9219C11.2793-5.22461 22.1191 4.83398 37.9395 4.83398ZM181.006-54.6387L193.75-54.6387C197.021-54.6387 199.707-57.2754 199.756-60.5469C199.756-63.8184 197.021-66.5039 193.75-66.5039L181.006-66.5039C177.783-66.5039 175-63.8184 175-60.5469C175-57.2754 177.783-54.6387 181.006-54.6387ZM171.973-13.5254C174.268-11.1816 178.027-11.1816 180.322-13.4766C182.617-15.7715 182.568-19.5312 180.273-21.875L171.24-30.957C168.994-33.252 165.137-33.252 162.842-30.957C160.547-28.6621 160.596-24.8535 162.891-22.5586ZM92.8223 27.7832L79.541 27.7832L85.1074 17.1875C85.8398 15.8203 85.2539 14.7461 83.8379 14.7461L69.043 14.7461C67.2852 14.7461 66.6992 15.3809 66.1133 16.6992L57.8125 35.6934C57.1289 37.207 57.8125 38.1836 59.4238 38.1836L70.4102 38.1836L62.1094 58.252C61.7188 59.1309 61.9141 59.8145 62.5 60.0586C63.0859 60.3027 63.7695 60.1074 64.4531 59.4238L93.8477 30.9082C95.166 29.5898 94.6777 27.7832 92.8223 27.7832Z"/>
  </g>
  <g id="Semibold-L" transform="matrix(1 0 0 1 1955.47 1556)">
   <path d="M131.348-101.514C134.326-101.514 136.719-104.053 136.719-106.934L136.719-120.41C136.719-123.389 134.326-125.83 131.348-125.83C128.369-125.83 125.928-123.389 125.928-120.41L125.928-106.934C125.928-104.053 128.369-101.514 131.348-101.514ZM94.2871-89.3066C96.4355-87.207 99.9023-87.207 101.953-89.3066C104.004-91.3574 104.004-94.7754 101.904-96.875L92.334-106.494C90.2832-108.594 86.8164-108.545 84.7656-106.494C82.666-104.395 82.666-100.977 84.7656-98.877ZM160.742-89.2578C162.793-87.207 166.309-87.207 168.408-89.3066L177.93-98.8281C180.029-100.928 180.029-104.395 177.93-106.494C175.879-108.545 172.461-108.545 170.361-106.445L160.742-96.875C158.691-94.8242 158.691-91.3574 160.742-89.2578ZM147.803-32.959C156.934-38.916 162.744-48.6816 162.744-59.9121C162.744-77.3438 148.779-91.3574 131.396-91.3574C119.629-91.3574 109.424-84.9121 104.395-75.5859C107.129-72.7539 109.424-69.6777 111.377-65.9668C131.445-64.502 145.459-51.4648 147.803-32.959ZM37.5 3.90625L108.252 3.90625C126.123 3.90625 139.893-9.7168 139.893-27.3926C139.893-45.3125 125.635-58.6914 106.494-58.6914C99.3164-72.3145 86.5723-81.3477 69.873-81.3477C48.877-81.3477 31.2988-65.1367 29.4434-43.9941C18.3594-40.918 11.2793-31.6406 11.2793-20.2637C11.2793-5.95703 21.9238 3.90625 37.5 3.90625ZM178.271-54.541L191.748-54.541C194.727-54.541 197.119-56.9336 197.119-59.9121C197.168-62.8418 194.727-65.2832 191.748-65.2832L178.271-65.2832C175.342-65.2832 172.852-62.8418 172.852-59.9121C172.852-56.9336 175.342-54.541 178.271-54.541ZM170.361-13.2812C172.461-11.1816 175.83-11.2305 177.93-13.2812C179.98-15.3809 179.98-18.7988 177.881-20.8496L168.311-30.4688C166.26-32.5195 162.793-32.5195 160.742-30.4688C158.643-28.3691 158.691-24.9023 160.742-22.8516ZM91.0645 27.0996L78.2227 27.0996L83.9844 16.2109C84.7168 14.8438 84.1309 13.7695 82.7148 13.7695L69.2383 13.7695C67.4805 13.7695 66.8457 14.4531 66.3086 15.7227L58.1055 34.375C57.4707 35.8887 58.1543 36.8652 59.7656 36.8652L70.4102 36.8652L62.207 56.6406C61.8164 57.5195 62.0117 58.1543 62.5977 58.3984C63.1836 58.6426 63.916 58.4961 64.5508 57.7637L92.041 30.1758C93.3594 28.8574 92.8223 27.0996 91.0645 27.0996Z"/>
  </g>
  <g id="Medium-L" transform="matrix(1 0 0 1 1659.42 1556)">
   <path d="M129.883-100.879C132.617-100.879 134.863-103.174 134.863-105.859L134.863-119.824C134.863-122.607 132.617-124.805 129.883-124.805C127.148-124.805 124.902-122.607 124.902-119.824L124.902-105.859C124.902-103.174 127.148-100.879 129.883-100.879ZM93.5059-88.6719C95.5078-86.7188 98.7305-86.7676 100.586-88.6719C102.441-90.5762 102.49-93.7012 100.586-95.6543L90.625-105.615C88.6719-107.568 85.5469-107.568 83.6426-105.615C81.7383-103.711 81.7383-100.537 83.6426-98.6328ZM159.131-88.6719C161.035-86.7676 164.258-86.7188 166.211-88.6719L176.123-98.584C178.027-100.537 178.027-103.711 176.123-105.615C174.219-107.52 171.094-107.568 169.141-105.615L159.18-95.6543C157.227-93.75 157.275-90.5762 159.131-88.6719ZM145.801-32.373C155.127-38.3789 160.986-48.0957 160.986-59.4238C160.986-76.709 147.168-90.5762 129.883-90.5762C118.115-90.5762 108.008-84.082 102.979-74.6094C105.664-71.8262 107.959-68.7988 109.863-65.1367C130.029-63.623 143.652-50.7324 145.801-32.373ZM37.207 3.22266L106.934 3.22266C124.658 3.22266 138.379-10.2539 138.379-27.6855C138.379-45.2148 124.268-58.3496 105.322-58.3984C98.0469-72.3145 85.2051-80.957 69.1406-80.957C48.5352-80.957 31.1035-64.8926 29.2969-43.9453C18.3105-40.8691 11.2793-31.7383 11.2793-20.5566C11.2793-6.44531 21.8262 3.22266 37.207 3.22266ZM176.221-54.4434L190.234-54.4434C192.92-54.4434 195.166-56.6406 195.166-59.375C195.215-62.1094 192.92-64.3555 190.234-64.3555L176.221-64.3555C173.535-64.3555 171.24-62.1094 171.24-59.375C171.24-56.6406 173.535-54.4434 176.221-54.4434ZM169.141-13.1348C171.094-11.1816 174.17-11.2305 176.123-13.1348C178.027-15.0391 178.027-18.2129 176.074-20.1172L166.113-30.0781C164.209-31.9336 161.035-31.9824 159.131-30.0781C157.227-28.125 157.227-24.9512 159.18-23.0469ZM89.6484 26.5625L77.2461 26.5625L83.1055 15.4785C83.8379 14.1113 83.252 13.0371 81.8848 13.0371L69.3848 13.0371C67.627 13.0371 66.9922 13.6719 66.4551 14.9902L58.3984 33.3496C57.7148 34.9121 58.4473 35.8398 60.0098 35.8398L70.3613 35.8398L62.2559 55.4199C61.9141 56.25 62.1094 56.9336 62.6953 57.1777C63.2812 57.4219 63.9648 57.2266 64.5996 56.543L90.7227 29.5898C91.9434 28.2715 91.4551 26.5625 89.6484 26.5625Z"/>
  </g>
  <g id="Regular-L" transform="matrix(1 0 0 1 1363.61 1556)">
   <path d="M127.93-100C130.371-100 132.373-102.051 132.373-104.395L132.373-119.141C132.373-121.533 130.371-123.535 127.93-123.535C125.537-123.535 123.486-121.533 123.486-119.141L123.486-104.395C123.486-102.051 125.537-100 127.93-100ZM92.5293-87.8418C94.2871-86.084 97.168-86.1328 98.8281-87.8418C100.488-89.5508 100.537-92.334 98.8281-94.043L88.3789-104.541C86.6211-106.25 83.8867-106.201 82.1777-104.541C80.4688-102.832 80.4199-100 82.1777-98.291ZM157.08-87.8418C158.691-86.1328 161.621-86.084 163.33-87.8418L173.73-98.291C175.439-100 175.439-102.832 173.73-104.541C172.021-106.201 169.238-106.25 167.529-104.541L157.08-94.043C155.371-92.334 155.42-89.5508 157.08-87.8418ZM143.164-31.5918C152.734-37.6953 158.691-47.3633 158.691-58.7402C158.691-75.8789 145.02-89.5996 127.93-89.5996C116.162-89.5996 106.104-83.0078 101.123-73.3398C103.76-70.5566 106.006-67.5781 107.91-64.0137C128.174-62.4023 141.309-49.707 143.164-31.5918ZM36.7676 2.29492L105.225 2.29492C122.754 2.29492 136.426-10.9375 136.426-28.0273C136.426-45.0684 122.461-57.9102 103.857-58.0078C96.3867-72.3145 83.4473-80.5176 68.2617-80.5176C48.0469-80.5176 30.9082-64.5996 29.0527-43.8965C18.2129-40.7715 11.2793-31.8359 11.2793-20.8984C11.2793-7.17773 21.6797 2.29492 36.7676 2.29492ZM173.486-54.3457L188.232-54.3457C190.625-54.3457 192.578-56.2988 192.627-58.7402C192.627-61.1816 190.625-63.1348 188.232-63.1348L173.486-63.1348C171.143-63.1348 169.092-61.1816 169.092-58.7402C169.092-56.2988 171.143-54.3457 173.486-54.3457ZM167.529-12.8906C169.238-11.1816 172.021-11.2305 173.73-12.9395C175.439-14.6484 175.439-17.4316 173.73-19.1406L163.232-29.541C161.572-31.2012 158.74-31.25 157.08-29.541C155.371-27.832 155.371-25 157.08-23.291ZM87.8906 25.8789L75.9277 25.8789L81.9824 14.502C82.7148 13.1348 82.1289 12.1094 80.7617 12.1094L69.5312 12.1094C67.7734 12.1094 67.1875 12.7441 66.6504 14.0137L58.6914 32.0801C58.0078 33.5938 58.7891 34.5703 60.3516 34.5703L70.3613 34.5703L62.3535 53.8086C62.0117 54.6387 62.207 55.3223 62.793 55.5664C63.3789 55.8105 64.1113 55.6152 64.6973 54.8828L88.916 28.8574C90.1367 27.5391 89.6484 25.8789 87.8906 25.8789Z"/>
  </g>
  <g id="Light-L" transform="matrix(1 0 0 1 1067.37 1556)">
   <path d="M127.344-99.6094C129.15-99.6094 130.713-101.172 130.713-102.93L130.713-119.092C130.713-120.898 129.15-122.412 127.344-122.412C125.537-122.412 123.975-120.898 123.975-119.092L123.975-102.93C123.975-101.172 125.537-99.6094 127.344-99.6094ZM93.5059-87.4512C94.8242-86.1816 96.9727-86.1816 98.2422-87.4512C99.4629-88.7207 99.5117-90.8691 98.2422-92.1387L86.7188-103.613C85.4004-104.932 83.3496-104.883 82.0801-103.613C80.8105-102.344 80.7617-100.244 82.0801-98.9258ZM156.445-87.4512C157.715-86.1816 159.863-86.1816 161.182-87.4512L172.607-98.9258C173.926-100.244 173.877-102.344 172.607-103.613C171.338-104.883 169.287-104.932 167.92-103.613L156.445-92.1387C155.176-90.8691 155.225-88.7207 156.445-87.4512ZM141.211-31.0059C151.123-36.8164 157.52-46.6309 157.52-58.3496C157.52-75.1953 144.092-88.623 127.344-88.623C115.088-88.623 104.736-81.4453 100.195-71.0938C102.783-68.2129 104.98-65.1855 106.787-61.7676C126.416-60.2539 139.111-47.9004 141.211-31.0059ZM35.9375 2.34375L104.688 2.34375C121.826 2.34375 135.254-10.5957 135.254-27.1484C135.254-43.7988 121.533-56.2988 103.223-56.2988C95.6543-70.9961 82.9102-79.1504 67.7246-79.1504C47.9004-79.1504 31.1035-63.2324 29.3945-42.5781C18.3105-39.5508 11.2793-30.8105 11.2793-20.0684C11.2793-6.83594 21.3379 2.34375 35.9375 2.34375ZM171.777-55.0293L187.939-55.0293C189.795-55.0293 191.211-56.543 191.26-58.3496C191.309-60.2051 189.795-61.6699 187.939-61.6699L171.777-61.6699C169.971-61.6699 168.457-60.2051 168.457-58.3496C168.457-56.543 169.971-55.0293 171.777-55.0293ZM167.92-13.0371C169.287-11.7188 171.338-11.7676 172.607-13.0371C173.877-14.3066 173.926-16.4062 172.607-17.7246L161.133-29.1504C159.814-30.4199 157.715-30.4199 156.445-29.1504C155.176-27.8809 155.176-25.7324 156.445-24.4629ZM85.0098 26.6113L73.877 26.6113L80.2734 14.5996C81.0059 13.2324 80.4688 12.207 79.0527 12.207L70.459 12.207C68.7012 12.207 68.0664 12.8418 67.5293 14.1113L59.7656 31.8359C59.082 33.4473 59.9121 34.375 61.4746 34.375L70.7031 34.375L62.8418 53.2227C62.5 54.1504 62.6953 54.834 63.3301 55.0781C63.916 55.3223 64.6484 55.127 65.2344 54.2969L86.1816 29.5898C87.3047 28.1738 86.7676 26.6113 85.0098 26.6113Z"/>
  </g>
  <g id="Thin-L" transform="matrix(1 0 0 1 771.266 1556)">
   <path d="M126.514-99.1211C127.539-99.1211 128.467-100 128.467-100.928L128.467-119.092C128.467-120.068 127.539-120.898 126.514-120.898C125.537-120.898 124.609-120.068 124.609-119.092L124.609-100.928C124.609-100 125.537-99.1211 126.514-99.1211ZM155.664-86.9629C156.348-86.2305 157.568-86.2305 158.301-86.9629L171.094-99.8047C171.875-100.586 171.826-101.709 171.094-102.393C170.41-103.125 169.287-103.223 168.506-102.393L155.664-89.5996C154.932-88.8672 154.932-87.6465 155.664-86.9629ZM94.7754-86.9629C95.5078-86.2305 96.7285-86.2305 97.4121-86.9629C98.1445-87.6465 98.1445-88.8672 97.4121-89.5996L84.5703-102.393C83.7891-103.223 82.666-103.125 81.9824-102.393C81.25-101.709 81.2012-100.586 81.9824-99.8047ZM138.672-30.1758C149.072-35.6445 156.006-45.6543 156.006-57.8613C156.006-74.2676 142.871-87.4023 126.514-87.4023C113.623-87.4023 102.93-79.3945 98.9258-68.0664C101.416-65.1367 103.613-62.0117 105.322-58.7402C124.072-57.3242 136.182-45.459 138.672-30.1758ZM34.8145 2.34375L104.004 2.34375C120.557 2.34375 133.691-10.1562 133.691-26.0254C133.691-42.0898 120.264-54.1016 102.344-54.0527C94.6289-69.1895 82.2266-77.3438 67.0898-77.3438C47.7539-77.3438 31.3965-61.4258 29.7852-40.8203C18.457-37.9395 11.2793-29.4434 11.2793-18.8965C11.2793-6.44531 20.9473 2.34375 34.8145 2.34375ZM169.482-56.0059L187.598-56.0059C188.721-56.0059 189.453-56.8359 189.502-57.8613C189.6-58.8379 188.721-59.668 187.598-59.668L169.482-59.668C168.457-59.668 167.627-58.8379 167.627-57.8613C167.627-56.8359 168.457-56.0059 169.482-56.0059ZM168.506-13.1836C169.287-12.4023 170.41-12.5 171.094-13.1836C171.826-13.916 171.875-15.0391 171.094-15.8203L158.301-28.6621C157.568-29.3457 156.348-29.3457 155.664-28.6621C154.932-27.9297 154.932-26.709 155.664-26.0254ZM81.2012 27.5879L71.1426 27.5879L78.0273 14.7949C78.7598 13.4277 78.2227 12.3047 76.7578 12.3047L71.7285 12.3047C69.873 12.3047 69.2383 12.9395 68.7012 14.3066L61.1328 31.543C60.4492 33.2031 61.4258 34.1309 62.9883 34.1309L71.1914 34.1309L63.5254 52.4902C63.1348 53.4668 63.3789 54.1504 64.0137 54.3945C64.6484 54.6387 65.4297 54.4434 66.0156 53.5645L82.5684 30.5176C83.5938 29.0527 82.959 27.5879 81.2012 27.5879Z"/>
  </g>
  <g id="Ultralight-L" transform="matrix(1 0 0 1 474.848 1556)">
   <path d="M126.123-98.8281C126.709-98.8281 127.295-99.4141 127.295-99.9023L127.295-119.043C127.295-119.678 126.709-120.166 126.123-120.166C125.537-120.166 124.951-119.678 124.951-119.043L124.951-99.9023C124.951-99.4141 125.537-98.8281 126.123-98.8281ZM95.459-86.6699C95.8496-86.2793 96.582-86.2793 97.0215-86.6699C97.4609-87.1094 97.4609-87.8418 97.0215-88.2812L83.4961-101.807C82.959-102.295 82.3242-102.246 81.8848-101.807C81.4941-101.367 81.3965-100.732 81.8848-100.195ZM155.225-86.6699C155.664-86.2793 156.396-86.2793 156.836-86.6699L170.361-100.195C170.85-100.732 170.752-101.367 170.361-101.807C169.922-102.246 169.287-102.295 168.75-101.807L155.225-88.2812C154.834-87.8418 154.785-87.1094 155.225-86.6699ZM137.354-29.7852C147.998-35.0586 155.225-45.166 155.225-57.5684C155.225-73.8281 142.285-86.7676 126.123-86.7676C112.842-86.7676 102.002-78.3691 98.291-66.5527C100.732-63.5254 102.93-60.4004 104.59-57.2266C122.852-55.8594 134.717-44.2383 137.354-29.7852ZM34.2285 2.39258L103.662 2.39258C119.922 2.39258 132.861-9.91211 132.861-25.4395C132.861-41.2109 119.58-52.9785 101.904-52.8809C94.0918-68.2617 81.8359-76.416 66.748-76.416C47.6562-76.416 31.4941-60.498 30.0293-39.8926C18.5547-37.1094 11.2793-28.7598 11.2793-18.3594C11.2793-6.20117 20.7031 2.39258 34.2285 2.39258ZM168.311-56.4941L187.451-56.4941C188.135-56.4941 188.525-56.9824 188.623-57.5684C188.721-58.2031 188.135-58.6426 187.451-58.6426L168.311-58.6426C167.676-58.6426 167.236-58.2031 167.236-57.5684C167.236-56.9824 167.676-56.4941 168.311-56.4941ZM168.75-13.2812C169.287-12.7441 169.922-12.8418 170.361-13.2812C170.752-13.6719 170.85-14.3555 170.361-14.8438L156.836-28.3691C156.396-28.8086 155.664-28.8086 155.225-28.3691C154.834-27.9785 154.834-27.2461 155.225-26.8066ZM79.248 28.125L69.7754 28.125L76.9043 14.8926C77.5879 13.5254 77.0508 12.3535 75.5859 12.3535L72.3633 12.3535C70.5078 12.3535 69.873 12.9883 69.2871 14.4043L61.8652 31.3965C61.1328 33.1055 62.207 33.9844 63.7207 33.9844L71.4355 33.9844L63.8672 52.1484C63.4277 53.125 63.6719 53.8574 64.3555 54.0527C64.9902 54.2969 65.8203 54.0527 66.3574 53.1738L80.7129 31.0059C81.6895 29.541 81.0059 28.125 79.248 28.125Z"/>
  </g>
  <g id="Black-M" transform="matrix(1 0 0 1 2861.43 1126)">
   <path d="M110.498-90.4785C113.867-90.4785 116.65-93.3594 116.65-96.7285L116.65-104.688C116.65-108.105 113.867-110.938 110.498-110.938C107.129-110.938 104.346-108.105 104.346-104.688L104.346-96.7285C104.346-93.3594 107.129-90.4785 110.498-90.4785ZM78.2227-80.8594C80.6641-78.418 84.5703-78.3691 86.9629-80.7129C89.3555-83.1055 89.209-87.0117 86.8652-89.502L81.3477-95.2148C79.0039-97.6562 74.8535-97.6074 72.5098-95.2148C70.1172-92.8223 70.2148-88.8672 72.6074-86.5234ZM134.082-80.6641C136.475-78.2715 140.479-78.418 142.822-80.8105L148.486-86.377C150.928-88.7695 150.928-92.7734 148.535-95.166C146.191-97.5098 142.236-97.4609 139.795-95.0195L134.131-89.502C131.689-87.1094 131.689-83.0566 134.082-80.6641ZM125.928-36.7188C132.08-41.0156 136.328-48.6816 136.328-57.2754C136.328-71.4355 124.756-82.9102 110.596-82.9102C101.27-82.9102 93.0176-77.9297 89.0137-71.1914C91.3574-68.9453 93.3105-66.2598 94.9707-63.0371C109.619-62.4023 122.656-51.4648 125.928-36.7188ZM30.6152-0.683594L91.7969-0.683594C106.201-0.683594 116.943-11.9629 116.943-27.002C116.943-42.9688 105.273-54.4922 89.1113-54.3945C84.3262-63.2324 75.0977-72.4121 58.2031-72.4121C40.0879-72.4121 25.3418-59.1797 23.9746-41.5527C14.7461-39.2578 8.74023-31.3965 8.74023-21.5332C8.74023-9.08203 17.5781-0.683594 30.6152-0.683594ZM149.951-51.123L157.861-51.123C161.328-51.123 164.16-53.8086 164.16-57.2266C164.16-60.5957 161.328-63.4277 157.861-63.4277L149.951-63.4277C146.582-63.4277 143.701-60.5957 143.701-57.2266C143.701-53.8086 146.582-51.123 149.951-51.123ZM139.697-19.3359C142.139-16.8945 146.094-16.8457 148.486-19.2383C150.879-21.582 150.732-25.4883 148.34-27.9785L142.822-33.6914C140.527-36.1328 136.377-36.084 134.033-33.6914C131.641-31.2988 131.738-27.3926 134.131-25ZM77.3926 16.748L65.5762 16.748L69.4336 9.27734C70.0195 8.20312 69.5801 7.32422 68.457 7.32422L53.3691 7.32422C51.9531 7.32422 51.416 7.8125 50.9766 8.88672L44.043 24.707C43.5547 25.8789 43.9941 26.6602 45.3125 26.6602L54.834 26.6602L47.998 43.2129C47.7051 43.8965 47.8516 44.4824 48.291 44.6777C48.7305 44.873 49.3164 44.7266 49.8535 44.2383L78.1738 19.2871C79.3457 18.3105 78.9062 16.748 77.3926 16.748Z"/>
  </g>
  <g id="Heavy-M" transform="matrix(1 0 0 1 2565.86 1126)">
   <path d="M107.91-89.3066C110.986-89.3066 113.525-91.9922 113.525-95.0684L113.525-103.613C113.525-106.787 110.986-109.375 107.91-109.375C104.785-109.375 102.246-106.787 102.246-103.613L102.246-95.0684C102.246-91.9922 104.785-89.3066 107.91-89.3066ZM76.5137-79.7852C78.7598-77.5391 82.4219-77.4902 84.5703-79.6875C86.7676-81.8359 86.6699-85.4492 84.5215-87.6953L78.5156-93.8477C76.3672-96.0938 72.6074-96.0449 70.4102-93.8477C68.2129-91.6504 68.3105-88.0371 70.5078-85.8398ZM131.25-79.6387C133.398-77.4414 137.109-77.5391 139.307-79.7363L145.361-85.7422C147.607-87.9395 147.607-91.6016 145.41-93.7988C143.213-95.9961 139.6-95.9473 137.354-93.7012L131.299-87.6953C129.053-85.5469 129.053-81.7871 131.25-79.6387ZM122.656-35.791C129.053-40.1855 133.301-47.8027 133.301-56.4453C133.301-70.4102 121.973-81.7383 108.008-81.7383C98.7305-81.7383 90.625-76.8066 86.6211-69.9707C88.8672-67.7734 90.8203-65.1855 92.4316-62.0605C107.422-61.2305 119.824-50.5371 122.656-35.791ZM30.2246-1.95312L89.4531-1.95312C103.711-1.95312 114.453-13.0371 114.453-27.7344C114.453-43.1152 102.979-54.3457 87.1582-54.248C82.1777-63.623 72.7051-72.1191 57.0312-72.1191C39.4043-72.1191 25-59.082 23.584-41.8457C14.5508-39.502 8.74023-31.8359 8.74023-22.2656C8.74023-10.1562 17.4316-1.95312 30.2246-1.95312ZM146.533-50.7812L155.078-50.7812C158.203-50.7812 160.791-53.2715 160.791-56.3965C160.791-59.4727 158.203-62.0605 155.078-62.0605L146.533-62.0605C143.408-62.0605 140.771-59.4727 140.771-56.3965C140.771-53.2715 143.408-50.7812 146.533-50.7812ZM137.305-18.9941C139.551-16.748 143.164-16.6992 145.361-18.8965C147.559-21.0938 147.461-24.6582 145.264-26.9531L139.258-33.0566C137.109-35.3027 133.35-35.2539 131.201-33.0566C129.004-30.9082 129.102-27.2461 131.299-25.0488ZM75.5859 15.5273L64.2578 15.5273L68.3105 7.8125C68.8477 6.78711 68.4082 5.9082 67.2852 5.9082L53.3691 5.9082C51.9531 5.9082 51.4648 6.44531 51.0254 7.4707L44.2383 22.9004C43.75 24.0723 44.1895 24.8535 45.5078 24.8535L54.6875 24.8535L47.998 41.0645C47.7051 41.748 47.9004 42.2852 48.3398 42.4805C48.7793 42.6758 49.3164 42.5293 49.8535 42.041L76.3672 18.0664C77.4902 17.041 77.0508 15.5273 75.5859 15.5273Z"/>
  </g>
  <g id="Bold-M" transform="matrix(1 0 0 1 2270.45 1126)">
   <path d="M104.98-88.0371C107.764-88.0371 110.059-90.4297 110.059-93.2129L110.059-102.441C110.059-105.322 107.764-107.617 104.98-107.617C102.148-107.617 99.8535-105.322 99.8535-102.441L99.8535-93.2129C99.8535-90.4297 102.148-88.0371 104.98-88.0371ZM74.6582-78.5645C76.709-76.5137 79.9805-76.5137 81.9336-78.4668C83.8867-80.4688 83.8379-83.6914 81.8848-85.6934L75.3418-92.334C73.3887-94.3359 70.0684-94.2871 68.1152-92.334C66.1133-90.3809 66.1621-87.1094 68.1641-85.1074ZM128.027-78.4668C129.98-76.4648 133.301-76.5137 135.303-78.5156L141.846-85.0586C143.848-87.0117 143.848-90.332 141.895-92.2852C139.941-94.2871 136.67-94.2383 134.668-92.2363L128.076-85.6934C126.074-83.7402 126.123-80.4199 128.027-78.4668ZM118.994-34.7168C125.635-39.3066 129.98-46.875 129.98-55.4688C129.98-69.2871 118.848-80.4199 105.029-80.4199C95.9473-80.4199 87.9883-75.5371 83.9355-68.6035C86.1328-66.4551 88.0371-63.9648 89.5996-60.9375C104.932-59.9609 116.65-49.4629 118.994-34.7168ZM29.7852-3.41797L86.8164-3.41797C100.928-3.41797 111.67-14.3066 111.67-28.5645C111.67-43.2617 100.391-54.1504 85.0098-54.1016C79.7363-64.0137 70.0195-71.7773 55.6641-71.7773C38.6719-71.7773 24.6094-58.9844 23.1445-42.1387C14.4043-39.7461 8.74023-32.2754 8.74023-23.0469C8.74023-11.377 17.2852-3.41797 29.7852-3.41797ZM142.676-50.3906L151.904-50.3906C154.736-50.3906 157.08-52.6367 157.08-55.4199C157.08-58.252 154.736-60.5469 151.904-60.5469L142.676-60.5469C139.893-60.5469 137.5-58.252 137.5-55.4199C137.5-52.6367 139.893-50.3906 142.676-50.3906ZM134.619-18.6035C136.67-16.6016 139.893-16.6016 141.846-18.5547C143.848-20.5078 143.75-23.7793 141.797-25.7812L135.254-32.373C133.35-34.375 129.98-34.3262 128.027-32.373C126.025-30.4199 126.123-27.1484 128.076-25.1465ZM73.584 14.209L62.793 14.209L66.9922 6.25C67.5293 5.17578 67.0898 4.3457 66.0156 4.3457L53.3691 4.3457C51.9531 4.3457 51.5137 4.83398 51.0742 5.85938L44.4824 20.8496C43.9941 22.0215 44.4336 22.8027 45.7031 22.8027L54.5898 22.8027L47.998 38.6719C47.7539 39.3066 47.9004 39.8438 48.3398 40.0391C48.7793 40.2344 49.3164 40.0879 49.8535 39.5996L74.3164 16.6504C75.3906 15.6738 75 14.209 73.584 14.209Z"/>
  </g>
  <g id="Semibold-M" transform="matrix(1 0 0 1 1974.61 1126)">
   <path d="M102.979-87.1582C105.566-87.1582 107.715-89.3555 107.715-91.9434L107.715-101.66C107.715-104.297 105.566-106.396 102.979-106.396C100.391-106.396 98.2422-104.297 98.2422-101.66L98.2422-91.9434C98.2422-89.3555 100.391-87.1582 102.979-87.1582ZM73.3887-77.6855C75.2441-75.8301 78.3203-75.8301 80.127-77.6855C81.8848-79.4922 81.8848-82.4707 80.0781-84.3262L73.1445-91.2598C71.3379-93.1152 68.3105-93.1152 66.5039-91.2598C64.6484-89.4531 64.6973-86.4258 66.5527-84.6191ZM125.879-77.6367C127.637-75.8301 130.713-75.8301 132.568-77.6855L139.453-84.5703C141.309-86.377 141.309-89.4531 139.453-91.2598C137.646-93.0664 134.668-93.0664 132.812-91.2109L125.879-84.3262C124.023-82.5195 124.072-79.4434 125.879-77.6367ZM116.455-34.0332C123.291-38.6719 127.637-46.1914 127.637-54.834C127.637-68.5059 116.65-79.4922 103.027-79.4922C93.9941-79.4922 86.1328-74.6582 82.1289-67.6758C84.2773-65.5273 86.084-63.1348 87.5977-60.1562C103.271-59.082 114.502-48.7793 116.455-34.0332ZM29.4922-4.39453L85.0098-4.39453C99.0234-4.39453 109.766-15.1367 109.766-29.1504C109.766-43.4082 98.584-54.0039 83.4961-54.0039C78.0762-64.2578 68.2129-71.5332 54.7852-71.5332C38.1836-71.5332 24.3164-58.8867 22.8516-42.334C14.2578-39.9414 8.74023-32.6172 8.74023-23.6328C8.74023-12.207 17.1875-4.39453 29.4922-4.39453ZM140.039-50.0977L149.756-50.0977C152.344-50.0977 154.492-52.1973 154.492-54.7852C154.492-57.4219 152.344-59.5215 149.756-59.5215L140.039-59.5215C137.451-59.5215 135.254-57.4219 135.254-54.7852C135.254-52.1973 137.451-50.0977 140.039-50.0977ZM132.812-18.3105C134.619-16.4551 137.646-16.5039 139.453-18.3105C141.26-20.1172 141.26-23.1445 139.404-24.9512L132.52-31.8848C130.713-33.6914 127.637-33.6914 125.83-31.8848C124.023-30.0781 124.072-27.0508 125.879-25.2441ZM72.168 13.3301L61.7676 13.3301L66.0645 5.12695C66.6504 4.10156 66.2109 3.27148 65.1367 3.27148L53.3691 3.27148C52.002 3.27148 51.5137 3.75977 51.0742 4.78516L44.6289 19.4824C44.1406 20.6543 44.6289 21.3867 45.8496 21.3867L54.4922 21.3867L48.0469 36.9629C47.7539 37.6465 47.9004 38.1836 48.3398 38.3789C48.7793 38.5254 49.3164 38.4277 49.8535 37.8906L72.9492 15.7227C73.9746 14.6973 73.584 13.3301 72.168 13.3301Z"/>
  </g>
  <g id="Medium-M" transform="matrix(1 0 0 1 1678.59 1126)">
   <path d="M101.465-86.5234C103.906-86.5234 105.859-88.5742 105.859-90.9668L105.859-101.025C105.859-103.516 103.906-105.518 101.465-105.518C99.0234-105.518 97.0215-103.516 97.0215-101.025L97.0215-90.9668C97.0215-88.5742 99.0234-86.5234 101.465-86.5234ZM72.4121-77.0508C74.1699-75.293 77.0508-75.3418 78.7109-77.0508C80.3711-78.7598 80.4199-81.543 78.7109-83.252L71.5332-90.4785C69.8242-92.1875 66.9922-92.1875 65.2832-90.4785C63.5742-88.7695 63.5742-85.9375 65.2832-84.2285ZM124.17-77.0508C125.879-75.3418 128.76-75.293 130.518-77.0508L137.598-84.1797C139.355-85.9375 139.355-88.7695 137.646-90.4785C135.938-92.1875 133.105-92.1875 131.396-90.4297L124.219-83.252C122.461-81.5918 122.51-78.7598 124.17-77.0508ZM114.502-33.4473C121.533-38.2324 125.879-45.7031 125.879-54.3457C125.879-67.8711 115.039-78.8086 101.465-78.8086C92.5293-78.8086 84.7656-74.0234 80.7129-66.9922C82.8125-64.8438 84.6191-62.5 86.1328-59.6191C101.953-58.3984 112.842-48.2422 114.502-33.4473ZM29.2969-5.17578L83.6426-5.17578C97.5586-5.17578 108.301-15.7715 108.301-29.5898C108.301-43.5059 97.2168-53.9062 82.3242-53.9551C76.8066-64.502 66.7969-71.3379 54.0527-71.3379C37.793-71.3379 24.1211-58.8379 22.6562-42.4805C14.1602-40.0391 8.74023-32.8613 8.74023-24.0723C8.74023-12.8418 17.0898-5.17578 29.2969-5.17578ZM138.037-49.9023L148.096-49.9023C150.537-49.9023 152.539-51.8555 152.539-54.2969C152.539-56.7383 150.537-58.7402 148.096-58.7402L138.037-58.7402C135.645-58.7402 133.594-56.7383 133.594-54.2969C133.594-51.8555 135.645-49.9023 138.037-49.9023ZM131.396-18.1152C133.105-16.4062 135.889-16.4062 137.598-18.1152C139.307-19.8242 139.307-22.6562 137.598-24.3652L130.42-31.543C128.711-33.2031 125.879-33.252 124.17-31.543C122.461-29.834 122.51-26.9531 124.219-25.293ZM71.1426 12.5977L61.0352 12.5977L65.3809 4.29688C65.9668 3.27148 65.5273 2.44141 64.4531 2.44141L53.3691 2.44141C52.002 2.44141 51.5625 2.97852 51.123 3.95508L44.7266 18.4082C44.2383 19.5801 44.7266 20.3613 45.9961 20.3613L54.3945 20.3613L48.0469 35.7422C47.7539 36.377 47.9004 36.9141 48.3398 37.1094C48.8281 37.2559 49.3164 37.1582 49.8535 36.6211L71.875 14.9902C72.9004 13.9648 72.5098 12.5977 71.1426 12.5977Z"/>
  </g>
  <g id="Regular-M" transform="matrix(1 0 0 1 1382.75 1126)">
   <path d="M99.4629-85.6445C101.709-85.6445 103.516-87.5488 103.516-89.6973L103.516-100.244C103.516-102.49 101.709-104.297 99.4629-104.297C97.2168-104.297 95.4102-102.49 95.4102-100.244L95.4102-89.6973C95.4102-87.5488 97.2168-85.6445 99.4629-85.6445ZM71.1426-76.2207C72.7539-74.6094 75.3906-74.6582 76.9043-76.2207C78.418-77.7832 78.4668-80.3711 76.9043-81.8848L69.3848-89.4531C67.7734-91.0156 65.2344-91.0156 63.6719-89.4531C62.1094-87.8906 62.1094-85.3027 63.6719-83.7402ZM122.021-76.2207C123.535-74.6582 126.172-74.6094 127.783-76.2207L135.254-83.7402C136.816-85.3027 136.768-87.8906 135.254-89.4531C133.691-91.0156 131.152-91.0156 129.541-89.4531L122.021-81.8848C120.459-80.3711 120.508-77.7832 122.021-76.2207ZM112.012-32.7637C119.189-37.5977 123.633-45.0684 123.633-53.6621C123.633-67.0898 112.891-77.8809 99.4629-77.8809C90.625-77.8809 82.959-73.1445 78.9062-66.0645C80.957-63.9648 82.7148-61.6699 84.1797-58.8379C100.293-57.5195 110.693-47.5098 112.012-32.7637ZM29.0039-6.15234L81.8359-6.15234C95.6543-6.15234 106.396-16.6016 106.396-30.127C106.396-43.6035 95.459-53.7598 80.8594-53.8574C75.1465-64.7461 64.9902-71.0938 53.1738-71.0938C37.3047-71.0938 23.8281-58.7402 22.3633-42.7246C14.0625-40.2344 8.74023-33.2031 8.74023-24.6094C8.74023-13.6719 16.9922-6.15234 29.0039-6.15234ZM135.4-49.6094L145.947-49.6094C148.145-49.6094 149.951-51.416 150-53.6621C150-55.9082 148.145-57.7148 145.947-57.7148L135.4-57.7148C133.203-57.7148 131.348-55.9082 131.348-53.6621C131.348-51.416 133.203-49.6094 135.4-49.6094ZM129.541-17.8223C131.152-16.2598 133.691-16.3086 135.254-17.8711C136.768-19.4336 136.816-22.0215 135.254-23.584L127.686-31.0547C126.123-32.5684 123.584-32.6172 122.021-31.0547C120.459-29.4922 120.459-26.9043 122.021-25.3418ZM69.7266 11.7188L60.0098 11.7188L64.502 3.22266C65.0879 2.14844 64.6484 1.36719 63.5742 1.36719L53.3691 1.36719C52.002 1.36719 51.5625 1.9043 51.123 2.83203L44.873 17.041C44.3848 18.2129 44.9219 18.9453 46.1426 18.9453L54.3457 18.9453L48.0469 34.082C47.8027 34.7168 47.9004 35.2539 48.3887 35.4004C48.8281 35.5957 49.3652 35.4492 49.8047 34.9121L70.459 14.0625C71.4844 13.0371 71.1426 11.7188 69.7266 11.7188Z"/>
  </g>
  <g id="Light-M" transform="matrix(1 0 0 1 1086.46 1126)">
   <path d="M98.9258-85.3027C100.635-85.3027 102.002-86.7188 102.002-88.3301L102.002-100.244C102.002-101.904 100.635-103.271 98.9258-103.271C97.2656-103.271 95.8496-101.904 95.8496-100.244L95.8496-88.3301C95.8496-86.7188 97.2656-85.3027 98.9258-85.3027ZM72.0215-75.8789C73.2422-74.6582 75.2441-74.707 76.3672-75.8789C77.5391-77.0508 77.5391-79.0039 76.3672-80.1758L67.9199-88.623C66.6992-89.8438 64.7949-89.7949 63.623-88.623C62.4512-87.4512 62.4023-85.498 63.623-84.3262ZM121.484-75.8789C122.656-74.707 124.658-74.6582 125.83-75.8789L134.229-84.3262C135.449-85.498 135.4-87.4512 134.229-88.623C133.057-89.7949 131.152-89.8438 129.932-88.623L121.484-80.1758C120.312-79.0039 120.361-77.0508 121.484-75.8789ZM110.303-32.2266C117.822-36.8164 122.607-44.3848 122.607-53.3203C122.607-66.5039 112.061-77.0508 98.9258-77.0508C89.6484-77.0508 81.7383-71.7285 78.0273-64.0137C80.0781-61.8652 81.7871-59.5215 83.2031-56.7871C98.7305-55.5664 108.74-45.8496 110.303-32.2266ZM28.2227-6.10352L81.3477-6.10352C94.8242-6.10352 105.322-16.3086 105.322-29.3457C105.322-42.4316 94.5801-52.2949 80.2734-52.2949C74.4629-63.5254 64.502-69.873 52.7344-69.873C37.207-69.873 24.0234-57.5195 22.6562-41.5039C14.1602-39.1113 8.74023-32.2754 8.74023-23.8281C8.74023-13.3789 16.6992-6.10352 28.2227-6.10352ZM133.887-50.293L145.752-50.293C147.412-50.293 148.779-51.6602 148.779-53.3203C148.828-55.0293 147.412-56.3965 145.752-56.3965L133.887-56.3965C132.227-56.3965 130.811-55.0293 130.811-53.3203C130.811-51.6602 132.227-50.293 133.887-50.293ZM129.932-17.9688C131.152-16.748 133.057-16.7969 134.229-17.9688C135.4-19.1895 135.449-21.0938 134.229-22.2656L125.781-30.7129C124.609-31.8359 122.656-31.8848 121.484-30.7129C120.312-29.541 120.312-27.5391 121.484-26.3672ZM67.1875 12.3535L58.2031 12.3535L62.9883 3.32031C63.5254 2.29492 63.0859 1.46484 62.0117 1.46484L54.1992 1.46484C52.832 1.46484 52.3438 1.95312 51.9043 2.97852L45.8496 16.8457C45.3125 18.0664 45.9473 18.7988 47.168 18.7988L54.6387 18.7988L48.4863 33.5938C48.1934 34.2773 48.3887 34.7656 48.8281 34.9609C49.3164 35.1562 49.8535 35.0098 50.3418 34.4238L68.0176 14.6973C68.9453 13.623 68.5547 12.3535 67.1875 12.3535Z"/>
  </g>
  <g id="Thin-M" transform="matrix(1 0 0 1 790.285 1126)">
   <path d="M98.2422-84.8145C99.2188-84.8145 100-85.6934 100-86.5723L100-100.195C100-101.172 99.2188-101.953 98.2422-101.953C97.2656-101.953 96.4355-101.172 96.4355-100.195L96.4355-86.5723C96.4355-85.6934 97.2656-84.8145 98.2422-84.8145ZM73.1934-75.4395C73.877-74.7559 75-74.7559 75.6836-75.4395C76.3184-76.123 76.3672-77.2461 75.6836-77.8809L66.0156-87.5488C65.2832-88.2812 64.209-88.2324 63.5254-87.5488C62.8418-86.8652 62.793-85.791 63.5254-85.0586ZM120.801-75.4395C121.436-74.7559 122.607-74.7559 123.291-75.4395L132.91-85.0586C133.643-85.791 133.594-86.8652 132.91-87.5488C132.227-88.2324 131.152-88.2812 130.469-87.5488L120.801-77.8809C120.117-77.2461 120.117-76.123 120.801-75.4395ZM108.008-31.4941C115.967-35.791 121.24-43.5059 121.24-52.8809C121.24-65.6738 110.986-75.9277 98.2422-75.9277C88.3301-75.9277 80.127-69.9219 76.9043-61.3281C78.9062-59.082 80.5664-56.6895 81.9336-54.1016C96.6309-52.9785 106.152-43.7012 108.008-31.4941ZM27.1973-6.10352L80.7617-6.10352C93.7012-6.10352 103.955-15.8691 103.955-28.3203C103.955-40.918 93.457-50.3418 79.4922-50.293C73.5352-61.9629 63.8672-68.2617 52.1484-68.2617C37.0117-68.2617 24.2676-55.9082 22.998-39.9414C14.2578-37.6953 8.74023-31.0547 8.74023-22.8516C8.74023-12.9883 16.3086-6.10352 27.1973-6.10352ZM131.836-51.123L145.459-51.123C146.484-51.123 147.217-51.9043 147.266-52.8809C147.314-53.8086 146.484-54.5898 145.459-54.5898L131.836-54.5898C130.859-54.5898 130.078-53.8086 130.078-52.8809C130.078-51.9043 130.859-51.123 131.836-51.123ZM130.469-18.1152C131.152-17.3828 132.227-17.4316 132.91-18.1152C133.594-18.7988 133.643-19.873 132.91-20.6055L123.291-30.2246C122.607-30.9082 121.484-30.9082 120.801-30.2246C120.117-29.5898 120.117-28.418 120.801-27.7344ZM63.7695 13.2324L55.7129 13.2324L60.9863 3.51562C61.5234 2.44141 61.084 1.5625 59.9609 1.5625L55.3223 1.5625C53.9062 1.5625 53.418 2.09961 52.9785 3.125L47.0703 16.6016C46.5332 17.8711 47.2656 18.5547 48.4863 18.5547L55.0781 18.5547L49.0723 32.9102C48.7793 33.6426 48.9746 34.1797 49.4629 34.375C49.9512 34.5703 50.5371 34.375 50.9766 33.7402L64.7949 15.5273C65.5762 14.4043 65.1367 13.2324 63.7695 13.2324Z"/>
  </g>
  <g id="Ultralight-M" transform="matrix(1 0 0 1 493.866 1126)">
   <path d="M97.8516-84.6191C98.4863-84.6191 99.0234-85.1562 99.0234-85.6934L99.0234-100.195C99.0234-100.781 98.4863-101.27 97.8516-101.27C97.2656-101.27 96.7285-100.781 96.7285-100.195L96.7285-85.6934C96.7285-85.1562 97.2656-84.6191 97.8516-84.6191ZM73.7793-75.1953C74.1699-74.7559 74.9023-74.7559 75.293-75.1953C75.7324-75.5859 75.7324-76.3184 75.293-76.7578L65.0391-87.0117C64.5508-87.5 63.916-87.4023 63.4766-87.0117C63.0859-86.5723 63.0371-85.9375 63.4766-85.4492ZM120.41-75.1953C120.85-74.7559 121.582-74.7559 121.973-75.1953L132.227-85.4492C132.715-85.9375 132.666-86.5723 132.227-87.0117C131.836-87.4023 131.201-87.5 130.713-87.0117L120.41-76.7578C120.02-76.3184 120.02-75.5859 120.41-75.1953ZM106.836-31.1035C115.039-35.3027 120.508-43.0664 120.508-52.6367C120.508-65.2832 110.449-75.3418 97.8516-75.3418C87.6953-75.3418 79.3457-68.9453 76.3672-59.9609C78.2715-57.666 79.9805-55.2246 81.25-52.7344C95.5566-51.6602 104.834-42.5781 106.836-31.1035ZM26.709-6.10352L80.4199-6.10352C93.1152-6.10352 103.223-15.6738 103.223-27.7832C103.223-40.1367 92.8711-49.3164 79.1016-49.2676C73.0469-61.1328 63.5254-67.4316 51.8066-67.4316C36.9629-67.4316 24.3652-55.0781 23.1934-39.1113C14.3555-36.9629 8.74023-30.4199 8.74023-22.3145C8.74023-12.793 16.1133-6.10352 26.709-6.10352ZM130.811-51.5625L145.312-51.5625C145.996-51.5625 146.387-52.0508 146.436-52.6367C146.533-53.2227 145.996-53.7109 145.312-53.7109L130.811-53.7109C130.176-53.7109 129.736-53.2227 129.736-52.6367C129.736-52.0508 130.176-51.5625 130.811-51.5625ZM130.713-18.2129C131.201-17.7246 131.836-17.7734 132.227-18.2129C132.666-18.6035 132.715-19.2383 132.227-19.7266L121.973-30.0293C121.582-30.4199 120.85-30.4199 120.41-30.0293C120.02-29.5898 120.02-28.8574 120.41-28.4668ZM62.0117 13.7207L54.4922 13.7207L59.9121 3.56445C60.498 2.49023 60.0586 1.66016 58.9355 1.66016L55.9082 1.66016C54.4434 1.66016 53.9551 2.14844 53.5156 3.22266L47.7539 16.4551C47.168 17.7734 47.998 18.457 49.1699 18.457L55.2734 18.457L49.3652 32.5684C49.0723 33.3496 49.2676 33.8867 49.7559 34.082C50.2441 34.2773 50.8789 34.082 51.3184 33.3984L63.1348 15.918C63.8672 14.7949 63.3789 13.7207 62.0117 13.7207Z"/>
  </g>
  <g id="Black-S" transform="matrix(1 0 0 1 2877.1 696)">
   <path d="M86.377-78.418C89.0137-78.418 91.1621-80.6641 91.1621-83.3008L91.1621-89.5508C91.1621-92.2363 89.0137-94.4336 86.377-94.4336C83.7402-94.4336 81.5918-92.2363 81.5918-89.5508L81.5918-83.3008C81.5918-80.6641 83.7402-78.418 86.377-78.418ZM61.1328-70.8984C63.0371-68.9941 66.1133-68.9453 67.9688-70.8008C69.8242-72.6562 69.7266-75.6836 67.8711-77.6367L63.5254-82.1289C61.7188-84.0332 58.4961-83.9844 56.6406-82.1289C54.7852-80.2734 54.8828-77.1973 56.7383-75.3418ZM104.834-70.752C106.689-68.8965 109.814-68.9941 111.67-70.8496L116.113-75.2441C118.018-77.0996 118.018-80.2246 116.162-82.0801C114.307-83.9355 111.23-83.8867 109.326-81.9824L104.883-77.6367C102.979-75.7812 102.979-72.6074 104.834-70.752ZM98.4375-36.3281C103.271-39.6973 106.592-45.7031 106.592-52.4414C106.592-63.5254 97.5586-72.5098 86.4746-72.5098C79.1504-72.5098 72.7051-68.6035 69.5801-63.3301C71.3867-61.5723 72.9492-59.4727 74.2188-56.9824C85.7422-56.4453 95.8984-47.9004 98.4375-36.3281ZM23.9746-8.25195L71.7285-8.25195C83.0078-8.25195 91.4551-17.0898 91.4551-28.8574C91.4551-41.3086 82.3242-50.3418 69.6777-50.2441C65.918-57.2266 58.6426-64.3555 45.5078-64.3555C31.3477-64.3555 19.8242-54.0039 18.75-40.2344C11.5234-38.4277 6.83594-32.2754 6.83594-24.5605C6.83594-14.8438 13.7695-8.25195 23.9746-8.25195ZM117.236-47.6562L123.486-47.6562C126.172-47.6562 128.369-49.7559 128.369-52.3926C128.369-55.0293 126.172-57.2266 123.486-57.2266L117.236-57.2266C114.6-57.2266 112.354-55.0293 112.354-52.3926C112.354-49.7559 114.6-47.6562 117.236-47.6562ZM109.277-22.7539C111.182-20.8496 114.258-20.8008 116.113-22.6562C117.969-24.5117 117.871-27.5391 116.016-29.4922L111.67-33.9844C109.863-35.8887 106.641-35.8398 104.785-33.9844C102.93-32.1289 103.027-29.0527 104.883-27.1973ZM60.5469 5.37109L51.2695 5.37109L54.3457-0.488281C54.7852-1.31836 54.4434-2.00195 53.5645-2.00195L41.7969-2.00195C40.6738-2.00195 40.2832-1.61133 39.9414-0.78125L34.5215 11.5723C34.1309 12.5 34.4727 13.1348 35.498 13.1348L42.9199 13.1348L37.5977 26.0742C37.3535 26.6113 37.5 27.0508 37.8418 27.1973C38.1836 27.3438 38.623 27.2461 39.0625 26.8555L61.1328 7.37305C62.0605 6.5918 61.7188 5.37109 60.5469 5.37109Z"/>
  </g>
  <g id="Heavy-S" transform="matrix(1 0 0 1 2581.22 696)">
   <path d="M84.4238-77.5879C86.9141-77.5879 88.9648-79.6875 88.9648-82.1777L88.9648-88.7695C88.9648-91.2598 86.9141-93.3594 84.4238-93.3594C81.9336-93.3594 79.9316-91.2598 79.9316-88.7695L79.9316-82.1777C79.9316-79.6875 81.9336-77.5879 84.4238-77.5879ZM59.7656-70.1172C61.5234-68.3105 64.4531-68.2617 66.2109-70.0195C67.9199-71.7773 67.8711-74.6094 66.1133-76.4648L61.5234-81.2012C59.8145-82.959 56.7871-82.9102 55.0293-81.2012C53.3203-79.4434 53.3691-76.5137 55.127-74.7559ZM102.686-69.9707C104.443-68.2617 107.373-68.3105 109.131-70.0684L113.818-74.707C115.625-76.4648 115.625-79.3945 113.867-81.1523C112.109-82.9102 109.229-82.8613 107.422-81.0547L102.734-76.4648C100.977-74.707 100.977-71.7285 102.686-69.9707ZM96.0938-35.6934C101.074-39.1602 104.395-45.1172 104.395-51.8066C104.395-62.793 95.5078-71.6797 84.5215-71.6797C77.3438-71.6797 70.9961-67.9199 67.8223-62.6465C69.5801-60.8887 71.0938-58.8867 72.3633-56.4453C84.2285-55.7617 93.9453-47.3633 96.0938-35.6934ZM23.7793-9.22852L69.9707-9.22852C81.2012-9.22852 89.6484-17.9688 89.6484-29.4922C89.6484-41.5527 80.6641-50.3906 68.2617-50.293C64.3555-57.6172 56.8848-64.2578 44.6289-64.2578C30.8594-64.2578 19.5312-54.0527 18.4082-40.5762C11.377-38.7207 6.83594-32.7148 6.83594-25.1953C6.83594-15.6738 13.6719-9.22852 23.7793-9.22852ZM114.746-47.3145L121.338-47.3145C123.877-47.3145 125.928-49.3164 125.928-51.8066C125.928-54.2969 123.877-56.3477 121.338-56.3477L114.746-56.3477C112.305-56.3477 110.156-54.2969 110.156-51.8066C110.156-49.3164 112.305-47.3145 114.746-47.3145ZM107.373-22.4609C109.18-20.7031 112.061-20.6543 113.818-22.4121C115.576-24.1699 115.479-27.002 113.721-28.8574L109.131-33.5449C107.422-35.3027 104.395-35.3027 102.686-33.5449C100.928-31.7871 100.977-28.9062 102.734-27.1484ZM59.4727 4.39453L50.4883 4.39453L53.6133-1.61133C54.0527-2.44141 53.7109-3.07617 52.832-3.07617L41.6992-3.07617C40.5762-3.07617 40.2344-2.68555 39.8926-1.9043L34.5703 10.2051C34.1797 11.1328 34.5215 11.7676 35.5469 11.7676L42.8223 11.7676L37.5488 24.4629C37.3047 25 37.4512 25.4395 37.793 25.5859C38.1348 25.7324 38.5742 25.6348 39.0137 25.2441L60.0098 6.34766C60.9375 5.56641 60.5957 4.39453 59.4727 4.39453Z"/>
  </g>
  <g id="Bold-S" transform="matrix(1 0 0 1 2285.44 696)">
   <path d="M82.2754-76.6602C84.6191-76.6602 86.5234-78.6133 86.5234-80.9082L86.5234-87.8418C86.5234-90.2344 84.6191-92.1387 82.2754-92.1387C79.9805-92.1387 78.0762-90.2344 78.0762-87.8418L78.0762-80.9082C78.0762-78.6133 79.9805-76.6602 82.2754-76.6602ZM58.2031-69.1895C59.9121-67.5293 62.6465-67.5293 64.2578-69.1406C65.8691-70.8008 65.8203-73.4375 64.209-75.1465L59.2773-80.127C57.666-81.7871 54.9316-81.7383 53.2715-80.127C51.6602-78.4668 51.709-75.7812 53.3203-74.1211ZM100.342-69.1406C101.953-67.5293 104.736-67.5293 106.348-69.1895L111.279-74.0723C112.939-75.7324 112.939-78.4668 111.279-80.0781C109.668-81.7383 106.982-81.6895 105.322-80.0293L100.391-75.1465C98.7305-73.4863 98.7305-70.752 100.342-69.1406ZM93.5059-34.9609C98.6816-38.5742 101.953-44.4824 101.953-51.123C101.953-62.0117 93.2129-70.8008 82.3242-70.8008C75.293-70.8008 69.1406-67.0898 65.918-61.8652C67.627-60.1562 69.0918-58.252 70.3125-55.8594C82.5195-55.0293 91.7969-46.7773 93.5059-34.9609ZM23.5352-10.3516L68.0176-10.3516C79.1992-10.3516 87.6465-18.9453 87.6465-30.2246C87.6465-41.8457 78.7598-50.3906 66.6504-50.3906C62.5488-58.1055 54.8828-64.1602 43.7012-64.1602C30.3223-64.1602 19.1895-54.1504 18.0664-40.9668C11.2305-39.0625 6.83594-33.2031 6.83594-25.9277C6.83594-16.6504 13.623-10.3516 23.5352-10.3516ZM112.061-46.9238L118.994-46.9238C121.289-46.9238 123.242-48.7793 123.242-51.123C123.242-53.4668 121.289-55.3711 118.994-55.3711L112.061-55.3711C109.717-55.3711 107.764-53.4668 107.764-51.123C107.764-48.7793 109.717-46.9238 112.061-46.9238ZM105.322-22.168C106.982-20.5078 109.668-20.5078 111.279-22.1191C112.891-23.7793 112.842-26.4648 111.23-28.0762L106.299-33.0566C104.736-34.668 101.953-34.668 100.342-33.0566C98.6816-31.4453 98.7305-28.7109 100.391-27.0996ZM58.2031 3.32031L49.6094 3.32031L52.832-2.83203C53.2715-3.66211 52.9297-4.29688 52.0508-4.29688L41.6016-4.29688C40.5273-4.29688 40.1367-3.90625 39.7949-3.125L34.6191 8.69141C34.2285 9.61914 34.5703 10.2051 35.5957 10.2051L42.6758 10.2051L37.5 22.7051C37.3047 23.1934 37.4023 23.6328 37.7441 23.7793C38.0859 23.9258 38.5254 23.8281 38.916 23.4375L58.7891 5.22461C59.6191 4.44336 59.3262 3.32031 58.2031 3.32031Z"/>
  </g>
  <g id="Semibold-S" transform="matrix(1 0 0 1 1989.38 696)">
   <path d="M80.8105-76.0254C83.0078-76.0254 84.8145-77.8809 84.8145-80.0781L84.8145-87.2559C84.8145-89.502 83.0078-91.3086 80.8105-91.3086C78.5645-91.3086 76.8066-89.502 76.8066-87.2559L76.8066-80.0781C76.8066-77.8809 78.5645-76.0254 80.8105-76.0254ZM57.1777-68.6035C58.7891-66.9922 61.377-67.041 62.8906-68.5547C64.4043-70.1172 64.4043-72.6562 62.8418-74.2188L57.7637-79.3945C56.2012-80.957 53.6133-80.9082 52.0996-79.3945C50.5371-77.832 50.5371-75.2441 52.0996-73.6816ZM98.7305-68.5547C100.244-66.9922 102.881-66.9922 104.443-68.6035L109.521-73.6816C111.084-75.2441 111.084-77.832 109.521-79.3457C108.008-80.9082 105.469-80.9082 103.857-79.3457L98.7305-74.2188C97.168-72.6562 97.2168-70.1172 98.7305-68.5547ZM91.748-34.4238C97.0215-38.1836 100.293-44.043 100.293-50.6836C100.293-61.4746 91.6016-70.166 80.8105-70.166C73.9258-70.166 67.8711-66.5527 64.5508-61.3281C66.2598-59.668 67.6758-57.7637 68.9453-55.4199C81.3965-54.541 90.2832-46.3379 91.748-34.4238ZM23.3398-11.1328L66.6992-11.1328C77.7832-11.1328 86.2793-19.6289 86.2793-30.7617C86.2793-42.041 77.4902-50.4395 65.5762-50.4395C61.3281-58.3984 53.5156-64.0625 43.0176-64.0625C29.9316-64.0625 18.9941-54.1504 17.8223-41.2109C11.1328-39.2578 6.83594-33.4961 6.83594-26.416C6.83594-17.334 13.5254-11.1328 23.3398-11.1328ZM110.156-46.6797L117.334-46.6797C119.531-46.6797 121.338-48.4375 121.338-50.6348C121.338-52.8809 119.531-54.6875 117.334-54.6875L110.156-54.6875C107.959-54.6875 106.104-52.8809 106.104-50.6348C106.104-48.4375 107.959-46.6797 110.156-46.6797ZM103.857-21.9238C105.42-20.3613 107.959-20.3613 109.521-21.9238C111.084-23.4863 111.035-26.0254 109.473-27.5879L104.395-32.7148C102.832-34.2285 100.244-34.2773 98.7305-32.7148C97.168-31.1523 97.168-28.6133 98.7305-27.0508ZM57.373 2.53906L48.9746 2.53906L52.2461-3.66211C52.6855-4.49219 52.3438-5.12695 51.5137-5.12695L41.5039-5.12695C40.4785-5.12695 40.0879-4.73633 39.7461-3.95508L34.668 7.66602C34.2773 8.54492 34.6191 9.13086 35.5957 9.13086L42.5781 9.13086L37.5 21.4355C37.2559 21.9727 37.4023 22.3633 37.7441 22.5098C38.0859 22.6562 38.4766 22.5586 38.8672 22.168L57.9102 4.44336C58.7402 3.66211 58.4961 2.53906 57.373 2.53906Z"/>
  </g>
  <g id="Medium-S" transform="matrix(1 0 0 1 1693.16 696)">
   <path d="M79.6875-75.5371C81.7871-75.5371 83.5449-77.3438 83.5449-79.3945L83.5449-86.7676C83.5449-88.916 81.7871-90.6738 79.6875-90.6738C77.5391-90.6738 75.8301-88.916 75.8301-86.7676L75.8301-79.3945C75.8301-77.3438 77.5391-75.5371 79.6875-75.5371ZM56.3965-68.1152C57.9102-66.6016 60.4004-66.6504 61.8652-68.1152C63.3301-69.5801 63.3301-72.0215 61.8652-73.5352L56.5918-78.8086C55.127-80.3223 52.6367-80.3223 51.1719-78.8086C49.6582-77.3438 49.707-74.8535 51.1719-73.3887ZM97.5098-68.1152C98.9258-66.6016 101.465-66.6016 102.979-68.1152L108.203-73.3398C109.668-74.8535 109.668-77.3438 108.203-78.8086C106.738-80.3223 104.297-80.2734 102.783-78.8086L97.5098-73.5352C95.9961-72.0703 96.0449-69.5801 97.5098-68.1152ZM90.3809-34.0332C95.752-37.8906 99.0234-43.7012 99.0234-50.293C99.0234-61.0352 90.4297-69.6777 79.6875-69.6777C72.8516-69.6777 66.8945-66.1621 63.5742-60.8887C65.2344-59.2773 66.6504-57.4219 67.8711-55.127C80.5176-54.1504 89.1602-46.0449 90.3809-34.0332ZM23.2422-11.6699L65.6738-11.6699C76.7578-11.6699 85.2539-20.1172 85.2539-31.1035C85.2539-42.1387 76.4648-50.4395 64.6973-50.4883C60.4004-58.6426 52.4902-64.0137 42.5293-64.0137C29.6387-64.0137 18.7988-54.1992 17.627-41.4062C11.0352-39.4531 6.83594-33.7402 6.83594-26.8066C6.83594-17.8223 13.4766-11.6699 23.2422-11.6699ZM108.74-46.4355L116.113-46.4355C118.213-46.4355 119.922-48.1934 119.922-50.293C119.971-52.4414 118.213-54.1504 116.113-54.1504L108.74-54.1504C106.641-54.1504 104.834-52.4414 104.834-50.293C104.834-48.1934 106.641-46.4355 108.74-46.4355ZM102.783-21.7773C104.248-20.2637 106.689-20.3125 108.203-21.7773C109.668-23.291 109.668-25.7324 108.154-27.1973L102.93-32.4707C101.416-33.9355 98.9746-33.9355 97.4609-32.4707C95.9961-30.957 95.9961-28.5156 97.5098-27.002ZM56.7383 1.95312L48.5352 1.95312L51.8066-4.29688C52.2461-5.12695 51.9043-5.76172 51.0742-5.76172L41.4551-5.76172C40.4297-5.76172 40.0879-5.37109 39.7461-4.58984L34.668 6.88477C34.2773 7.76367 34.6191 8.34961 35.6445 8.34961L42.4805 8.34961L37.4512 20.5078C37.2559 21.0449 37.3535 21.4355 37.6953 21.582C38.0371 21.7285 38.4277 21.6309 38.8672 21.2402L57.2754 3.85742C58.1055 3.07617 57.8125 1.95312 56.7383 1.95312Z"/>
  </g>
  <g id="Regular-S" transform="matrix(1 0 0 1 1397.09 696)">
   <path d="M78.2227-74.9023C80.2246-74.9023 81.8848-76.5625 81.8848-78.5645L81.8848-86.1816C81.8848-88.1836 80.2246-89.8438 78.2227-89.8438C76.2207-89.8438 74.5605-88.1836 74.5605-86.1816L74.5605-78.5645C74.5605-76.5625 76.2207-74.9023 78.2227-74.9023ZM95.8984-67.5293C97.2656-66.1133 99.6582-66.0645 101.074-67.5293L106.445-72.9492C107.861-74.3652 107.861-76.709 106.445-78.0762C105.078-79.4922 102.783-79.4922 101.367-78.0762L95.8984-72.6562C94.4824-71.2402 94.5312-68.9453 95.8984-67.5293ZM55.3223-67.5293C56.7871-66.0645 59.1797-66.1133 60.5469-67.5293C61.9141-68.9453 61.9629-71.2402 60.5469-72.6562L55.0781-78.0762C53.6621-79.4922 51.3672-79.4922 49.9512-78.0762C48.5352-76.709 48.5352-74.3652 49.9512-72.9492ZM88.623-33.5449C94.0918-37.5 97.3633-43.2617 97.3633-49.8535C97.3633-60.498 88.8672-69.043 78.2227-69.043C71.4844-69.043 65.625-65.625 62.2559-60.4004C63.916-58.7402 65.2832-56.9824 66.4551-54.7363C79.3457-53.6621 87.6953-45.6543 88.623-33.5449ZM23.0957-12.4512L64.3555-12.4512C75.3418-12.4512 83.8867-20.8008 83.8867-31.6406C83.8867-42.334 75.1953-50.4395 63.623-50.5371C59.2285-58.9355 51.123-63.916 41.8945-63.916C29.2969-63.916 18.6035-54.248 17.3828-41.6504C10.9375-39.6973 6.83594-34.082 6.83594-27.2949C6.83594-18.457 13.4277-12.4512 23.0957-12.4512ZM106.885-46.1914L114.502-46.1914C116.455-46.1914 118.115-47.8516 118.115-49.8535C118.115-51.8555 116.455-53.5156 114.502-53.5156L106.885-53.5156C104.883-53.5156 103.223-51.8555 103.223-49.8535C103.223-47.8516 104.883-46.1914 106.885-46.1914ZM101.367-21.5332C102.783-20.166 105.078-20.2148 106.445-21.582C107.861-22.998 107.861-25.3418 106.445-26.709L100.977-32.1289C99.6094-33.4961 97.3145-33.5449 95.8984-32.1289C94.4824-30.7129 94.4824-28.3691 95.8984-26.9531ZM55.9082 1.2207L47.9492 1.2207L51.2695-5.17578C51.709-6.00586 51.3672-6.5918 50.5371-6.5918L41.4062-6.5918C40.3809-6.5918 40.0391-6.20117 39.6973-5.46875L34.7168 5.81055C34.3262 6.73828 34.668 7.27539 35.6445 7.27539L42.3828 7.27539L37.4023 19.2871C37.207 19.8242 37.3047 20.2148 37.6465 20.3613C38.0371 20.5078 38.4277 20.4102 38.8184 19.9707L56.3965 3.07617C57.2266 2.29492 56.9824 1.2207 55.9082 1.2207Z"/>
  </g>
  <g id="Light-S" transform="matrix(1 0 0 1 1100.74 696)">
   <path d="M77.7344-74.6094C79.248-74.6094 80.5176-75.8789 80.5176-77.3438L80.5176-86.1816C80.5176-87.6953 79.248-88.916 77.7344-88.916C76.2207-88.916 74.9512-87.6953 74.9512-86.1816L74.9512-77.3438C74.9512-75.8789 76.2207-74.6094 77.7344-74.6094ZM56.1035-67.2363C57.1777-66.1133 59.0332-66.1621 60.0586-67.2363C61.084-68.2617 61.1328-70.0195 60.0586-71.0938L53.7598-77.3926C52.6855-78.4668 50.9766-78.4668 49.9023-77.3926C48.8281-76.3184 48.8281-74.5605 49.9023-73.4375ZM95.4102-67.2363C96.4355-66.1621 98.2422-66.1133 99.3652-67.2363L105.566-73.4375C106.641-74.5605 106.641-76.3184 105.566-77.3926C104.492-78.4668 102.783-78.4668 101.66-77.3926L95.4102-71.0938C94.3359-70.0195 94.3848-68.2617 95.4102-67.2363ZM87.0605-33.0566C92.8711-36.7676 96.4355-42.6758 96.4355-49.5605C96.4355-59.9609 88.1348-68.3105 77.7344-68.3105C70.6055-68.3105 64.502-64.3555 61.4746-58.5938C63.0859-56.8848 64.4531-55.0781 65.5762-52.9297C77.9785-51.9043 85.9863-44.1895 87.0605-33.0566ZM22.4121-12.4512L63.916-12.4512C74.6094-12.4512 82.9102-20.5078 82.9102-30.9082C82.9102-41.3086 74.4629-49.1699 63.1348-49.2188C58.5938-57.8613 50.7324-62.8418 41.4551-62.8418C29.1992-62.8418 18.75-53.1738 17.627-40.625C11.0352-38.7207 6.83594-33.252 6.83594-26.6113C6.83594-18.2129 13.1836-12.4512 22.4121-12.4512ZM105.469-46.7773L114.307-46.7773C115.82-46.7773 117.041-47.998 117.041-49.5605C117.041-51.0742 115.82-52.2949 114.307-52.2949L105.469-52.2949C104.004-52.2949 102.734-51.0742 102.734-49.5605C102.734-47.998 104.004-46.7773 105.469-46.7773ZM101.66-21.6309C102.783-20.5566 104.492-20.6055 105.566-21.6797C106.641-22.7539 106.641-24.5117 105.566-25.5859L99.3164-31.8359C98.2422-32.8613 96.4844-32.8613 95.4102-31.8359C94.3359-30.7617 94.3359-28.9551 95.4102-27.8809ZM53.6133 1.80664L46.2891 1.80664L49.9512-5.07812C50.3906-5.9082 50.0488-6.49414 49.1699-6.49414L42.1387-6.49414C41.0645-6.49414 40.7227-6.10352 40.3809-5.37109L35.5469 5.66406C35.1562 6.5918 35.5957 7.12891 36.5723 7.12891L42.6758 7.12891L37.8418 18.8477C37.5977 19.3848 37.7441 19.7754 38.0859 19.9219C38.4277 20.0684 38.8672 19.9707 39.2578 19.5312L54.248 3.61328C54.9805 2.83203 54.6875 1.80664 53.6133 1.80664Z"/>
  </g>
  <g id="Thin-S" transform="matrix(1 0 0 1 804.494 696)">
   <path d="M77.0996-74.1699C77.9785-74.1699 78.7598-74.9512 78.7598-75.7812L78.7598-86.1328C78.7598-87.0605 77.9785-87.7441 77.0996-87.7441C76.2207-87.7441 75.4395-87.0605 75.4395-86.1328L75.4395-75.7812C75.4395-74.9512 76.2207-74.1699 77.0996-74.1699ZM94.7754-66.7969C95.3613-66.1621 96.4355-66.1621 97.0703-66.7969L104.395-74.1211C105.029-74.8047 105.029-75.8301 104.395-76.416C103.76-77.0508 102.783-77.0996 102.1-76.416L94.7754-69.0918C94.1406-68.457 94.1406-67.4316 94.7754-66.7969ZM57.1289-66.7969C57.7637-66.1621 58.7891-66.1621 59.4238-66.7969C60.0098-67.4316 60.0586-68.457 59.4238-69.0918L52.0996-76.416C51.416-77.0996 50.4395-77.0508 49.8047-76.416C49.1699-75.8301 49.1211-74.8047 49.8047-74.1211ZM85.0586-32.4219C91.2109-35.8887 95.2148-41.8945 95.2148-49.1211C95.2148-59.2285 87.1582-67.334 77.0996-67.334C69.4824-67.334 63.0859-62.7441 60.498-56.2012C62.0117-54.4434 63.3789-52.5879 64.4531-50.5371C76.123-49.6582 83.6426-42.2852 85.0586-32.4219ZM21.5332-12.4023L63.3789-12.4023C73.6328-12.4023 81.6895-20.166 81.6895-30.0293C81.6895-39.9902 73.4375-47.4121 62.4512-47.4121C57.8125-56.4453 50.1465-61.4258 40.9668-61.4258C29.0527-61.4258 18.9453-51.7578 17.9688-39.209C11.1328-37.4512 6.83594-32.1777 6.83594-25.7324C6.83594-17.8711 12.8418-12.4023 21.5332-12.4023ZM103.662-47.5098L114.014-47.5098C114.941-47.5098 115.625-48.2422 115.674-49.1211C115.674-50.0488 114.941-50.7324 114.014-50.7324L103.662-50.7324C102.783-50.7324 102.051-50.0488 102.051-49.1211C102.051-48.2422 102.783-47.5098 103.662-47.5098ZM102.1-21.7773C102.783-21.1426 103.76-21.1914 104.395-21.7773C105.029-22.4121 105.029-23.4375 104.395-24.0723L97.0703-31.3965C96.4355-32.0312 95.4102-32.0312 94.7754-31.3965C94.1406-30.7617 94.1406-29.7363 94.7754-29.1016ZM50.5859 2.58789L44.1406 2.58789L48.1445-4.93164C48.584-5.76172 48.2422-6.39648 47.3633-6.39648L43.1152-6.39648C42.041-6.39648 41.6504-6.00586 41.3086-5.22461L36.6699 5.41992C36.2305 6.39648 36.7676 6.98242 37.7441 6.98242L43.0664 6.98242L38.3301 18.3105C38.0859 18.8477 38.2324 19.2871 38.623 19.4336C39.0137 19.5801 39.4531 19.4336 39.7949 18.9453L51.3672 4.3457C52.002 3.51562 51.6602 2.58789 50.5859 2.58789Z"/>
  </g>
  <g id="Ultralight-S" transform="matrix(1 0 0 1 508.051 696)">
   <path d="M76.7578-73.9746C77.3438-73.9746 77.832-74.4629 77.832-75L77.832-86.1328C77.832-86.7188 77.3438-87.1582 76.7578-87.1582C76.2207-87.1582 75.6836-86.7188 75.6836-86.1328L75.6836-75C75.6836-74.4629 76.2207-73.9746 76.7578-73.9746ZM57.6172-66.6016C58.0078-66.2109 58.6914-66.2109 59.082-66.6016C59.4727-66.9922 59.4727-67.6758 59.082-68.0664L51.2207-75.9277C50.7812-76.3672 50.1465-76.3184 49.7559-75.9277C49.3652-75.5371 49.3164-74.9023 49.7559-74.4629ZM94.4336-66.6016C94.8242-66.2109 95.5078-66.2109 95.8984-66.6016L103.76-74.4629C104.248-74.9023 104.199-75.5371 103.76-75.9277C103.369-76.3184 102.783-76.3672 102.344-75.9277L94.4336-68.0664C94.043-67.6758 94.043-66.9922 94.4336-66.6016ZM84.0332-32.1289C90.3809-35.4004 94.6289-41.5039 94.6289-48.9258C94.6289-58.8867 86.6699-66.7969 76.7578-66.7969C68.8477-66.7969 62.3535-61.9141 59.9609-54.9805C61.4746-53.1738 62.793-51.2695 63.8184-49.3164C75.1465-48.4863 82.4707-41.3086 84.0332-32.1289ZM21.0449-12.4023L63.0859-12.4023C73.0957-12.4023 81.0547-19.9707 81.0547-29.541C81.0547-39.2578 72.9004-46.5332 62.1094-46.4844C57.373-55.7129 49.8535-60.6445 40.6738-60.6445C28.9551-60.6445 19.043-50.9766 18.1152-38.4766C11.2305-36.7676 6.83594-31.6406 6.83594-25.2441C6.83594-17.7246 12.6953-12.4023 21.0449-12.4023ZM102.734-47.9004L113.867-47.9004C114.502-47.9004 114.893-48.3398 114.941-48.9258C114.99-49.5117 114.502-49.9512 113.867-49.9512L102.734-49.9512C102.197-49.9512 101.709-49.5117 101.709-48.9258C101.709-48.3398 102.197-47.9004 102.734-47.9004ZM102.344-21.875C102.783-21.4355 103.369-21.4844 103.76-21.875C104.199-22.2656 104.248-22.9004 103.76-23.3398L95.8984-31.2012C95.5078-31.5918 94.8242-31.5918 94.4336-31.2012C94.043-30.8105 94.043-30.127 94.4336-29.7363ZM49.0234 2.97852L43.0176 2.97852L47.2168-4.83398C47.6562-5.66406 47.3145-6.34766 46.4355-6.34766L43.6523-6.34766C42.5293-6.34766 42.1387-5.95703 41.7969-5.12695L37.207 5.32227C36.7676 6.29883 37.4023 6.83594 38.3301 6.83594L43.2617 6.83594L38.623 17.9688C38.3789 18.5547 38.5254 18.9941 38.916 19.1406C39.3066 19.2871 39.7949 19.1406 40.1367 18.6035L49.9023 4.73633C50.4883 3.85742 50.0977 2.97852 49.0234 2.97852Z"/>
  </g>
 </g>
</svg>
