<?xml version="1.0" encoding="UTF-8"?>
<!--Generator: Apple Native CoreSVG 149-->
<!DOCTYPE svg
PUBLIC "-//W3C//DTD SVG 1.1//EN"
       "http://www.w3.org/Graphics/SVG/1.1/DTD/svg11.dtd">
<svg version="1.1" xmlns="http://www.w3.org/2000/svg" xmlns:xlink="http://www.w3.org/1999/xlink" width="3300" height="2200">
 <!--glyph: "uni1001E3.medium", point size: 100.000000, font version: "Version 16.0d18e1", template writer version: "8"-->
 <g id="Notes">
  <rect height="2200" id="artboard" style="fill:white;opacity:1" width="3300" x="0" y="0"/>
  <line id="" style="fill:none;stroke:black;opacity:1;stroke-width:0.5;" x1="263" x2="3036" y1="292" y2="292"/>
  <text style="stroke:none;fill:black;font-family:-apple-system,&quot;SF Pro Display&quot;,&quot;SF Pro Text&quot;,Helvetica,sans-serif;font-weight:bold;" transform="matrix(1 0 0 1 263 322)">Weight/Scale Variations</text>
  <text style="stroke:none;fill:black;font-family:-apple-system,&quot;SF Pro Display&quot;,&quot;SF Pro Text&quot;,Helvetica,sans-serif;text-anchor:middle;" transform="matrix(1 0 0 1 559.711 322)">Ultralight</text>
  <text style="stroke:none;fill:black;font-family:-apple-system,&quot;SF Pro Display&quot;,&quot;SF Pro Text&quot;,Helvetica,sans-serif;text-anchor:middle;" transform="matrix(1 0 0 1 856.422 322)">Thin</text>
  <text style="stroke:none;fill:black;font-family:-apple-system,&quot;SF Pro Display&quot;,&quot;SF Pro Text&quot;,Helvetica,sans-serif;text-anchor:middle;" transform="matrix(1 0 0 1 1153.13 322)">Light</text>
  <text style="stroke:none;fill:black;font-family:-apple-system,&quot;SF Pro Display&quot;,&quot;SF Pro Text&quot;,Helvetica,sans-serif;text-anchor:middle;" transform="matrix(1 0 0 1 1449.84 322)">Regular</text>
  <text style="stroke:none;fill:black;font-family:-apple-system,&quot;SF Pro Display&quot;,&quot;SF Pro Text&quot;,Helvetica,sans-serif;text-anchor:middle;" transform="matrix(1 0 0 1 1746.56 322)">Medium</text>
  <text style="stroke:none;fill:black;font-family:-apple-system,&quot;SF Pro Display&quot;,&quot;SF Pro Text&quot;,Helvetica,sans-serif;text-anchor:middle;" transform="matrix(1 0 0 1 2043.27 322)">Semibold</text>
  <text style="stroke:none;fill:black;font-family:-apple-system,&quot;SF Pro Display&quot;,&quot;SF Pro Text&quot;,Helvetica,sans-serif;text-anchor:middle;" transform="matrix(1 0 0 1 2339.98 322)">Bold</text>
  <text style="stroke:none;fill:black;font-family:-apple-system,&quot;SF Pro Display&quot;,&quot;SF Pro Text&quot;,Helvetica,sans-serif;text-anchor:middle;" transform="matrix(1 0 0 1 2636.69 322)">Heavy</text>
  <text style="stroke:none;fill:black;font-family:-apple-system,&quot;SF Pro Display&quot;,&quot;SF Pro Text&quot;,Helvetica,sans-serif;text-anchor:middle;" transform="matrix(1 0 0 1 2933.4 322)">Black</text>
  <line id="" style="fill:none;stroke:black;opacity:1;stroke-width:0.5;" x1="263" x2="3036" y1="1903" y2="1903"/>
  <g id="" transform="matrix(1 0 0 1 263 1933)">
   <path d="M9.24805 0.830078C13.5547 0.830078 17.1387-2.74414 17.1387-7.05078C17.1387-11.3574 13.5449-14.9316 9.23828-14.9316C4.94141-14.9316 1.36719-11.3574 1.36719-7.05078C1.36719-2.74414 4.95117 0.830078 9.24805 0.830078ZM9.24805-0.654297C5.70312-0.654297 2.87109-3.49609 2.87109-7.05078C2.87109-10.6055 5.69336-13.4473 9.23828-13.4473C12.793-13.4473 15.6348-10.6055 15.6445-7.05078C15.6543-3.49609 12.8027-0.654297 9.24805-0.654297ZM6.39648-6.31836L8.50586-6.31836L8.50586-4.19922C8.50586-3.75977 8.79883-3.45703 9.22852-3.45703C9.67773-3.45703 9.9707-3.75977 9.9707-4.19922L9.9707-6.31836L12.0996-6.31836C12.5391-6.31836 12.8418-6.61133 12.8418-7.04102C12.8418-7.48047 12.5391-7.7832 12.0996-7.7832L9.9707-7.7832L9.9707-9.89258C9.9707-10.3418 9.67773-10.6445 9.22852-10.6445C8.79883-10.6445 8.50586-10.3418 8.50586-9.89258L8.50586-7.7832L6.39648-7.7832C5.94727-7.7832 5.64453-7.48047 5.64453-7.04102C5.64453-6.61133 5.94727-6.31836 6.39648-6.31836Z"/>
  </g>
  <g id="" transform="matrix(1 0 0 1 281.506 1933)">
   <path d="M11.709 2.91016C17.1582 2.91016 21.6699-1.61133 21.6699-7.05078C21.6699-12.5 17.1484-17.0117 11.6992-17.0117C6.25977-17.0117 1.74805-12.5 1.74805-7.05078C1.74805-1.61133 6.26953 2.91016 11.709 2.91016ZM11.709 1.25C7.09961 1.25 3.41797-2.44141 3.41797-7.05078C3.41797-11.6602 7.08984-15.3516 11.6992-15.3516C16.3086-15.3516 20-11.6602 20.0098-7.05078C20.0195-2.44141 16.3184 1.25 11.709 1.25ZM7.98828-6.23047L10.8789-6.23047L10.8789-3.32031C10.8789-2.83203 11.2109-2.5 11.6895-2.5C12.1777-2.5 12.5195-2.83203 12.5195-3.32031L12.5195-6.23047L15.4297-6.23047C15.918-6.23047 16.25-6.5625 16.25-7.04102C16.25-7.5293 15.918-7.87109 15.4297-7.87109L12.5195-7.87109L12.5195-10.7617C12.5195-11.2695 12.1777-11.6016 11.6895-11.6016C11.2109-11.6016 10.8789-11.2598 10.8789-10.7617L10.8789-7.87109L7.98828-7.87109C7.48047-7.87109 7.14844-7.5293 7.14844-7.04102C7.14844-6.5625 7.49023-6.23047 7.98828-6.23047Z"/>
  </g>
  <g id="" transform="matrix(1 0 0 1 304.924 1933)">
   <path d="M14.9707 5.66406C21.9336 5.66406 27.6953-0.0976562 27.6953-7.05078C27.6953-14.0137 21.9238-19.7754 14.9609-19.7754C8.00781-19.7754 2.25586-14.0137 2.25586-7.05078C2.25586-0.0976562 8.01758 5.66406 14.9707 5.66406ZM14.9707 3.84766C8.93555 3.84766 4.08203-1.01562 4.08203-7.05078C4.08203-13.0957 8.92578-17.9492 14.9609-17.9492C21.0059-17.9492 25.8594-13.0957 25.8691-7.05078C25.8789-1.01562 21.0156 3.84766 14.9707 3.84766ZM10.0586-6.14258L14.0625-6.14258L14.0625-2.12891C14.0625-1.5918 14.4336-1.2207 14.9512-1.2207C15.4883-1.2207 15.8594-1.5918 15.8594-2.12891L15.8594-6.14258L19.8828-6.14258C20.4102-6.14258 20.791-6.51367 20.791-7.03125C20.791-7.56836 20.4199-7.94922 19.8828-7.94922L15.8594-7.94922L15.8594-11.9531C15.8594-12.5098 15.4883-12.8809 14.9512-12.8809C14.4336-12.8809 14.0625-12.5 14.0625-11.9531L14.0625-7.94922L10.0586-7.94922C9.50195-7.94922 9.13086-7.56836 9.13086-7.03125C9.13086-6.51367 9.51172-6.14258 10.0586-6.14258Z"/>
  </g>
  <text style="stroke:none;fill:black;font-family:-apple-system,&quot;SF Pro Display&quot;,&quot;SF Pro Text&quot;,Helvetica,sans-serif;font-weight:bold;" transform="matrix(1 0 0 1 263 1953)">Design Variations</text>
  <text style="stroke:none;fill:black;font-family:-apple-system,&quot;SF Pro Display&quot;,&quot;SF Pro Text&quot;,Helvetica,sans-serif;" transform="matrix(1 0 0 1 263 1971)">Symbols are supported in up to nine weights and three scales.</text>
  <text style="stroke:none;fill:black;font-family:-apple-system,&quot;SF Pro Display&quot;,&quot;SF Pro Text&quot;,Helvetica,sans-serif;" transform="matrix(1 0 0 1 263 1989)">For optimal layout with text and other symbols, vertically align</text>
  <text style="stroke:none;fill:black;font-family:-apple-system,&quot;SF Pro Display&quot;,&quot;SF Pro Text&quot;,Helvetica,sans-serif;" transform="matrix(1 0 0 1 263 2007)">symbols with the adjacent text.</text>
  <line id="" style="fill:none;stroke:#00AEEF;stroke-width:0.5;opacity:1.0;" x1="776" x2="776" y1="1919" y2="1933"/>
  <g id="" transform="matrix(1 0 0 1 776 1933)">
   <path d="M3.31055 0.126953C3.82812 0.126953 4.08203-0.0683594 4.26758-0.605469L5.52734-4.0625L11.2891-4.0625L12.5488-0.605469C12.7344-0.0683594 12.9883 0.126953 13.4961 0.126953C14.0137 0.126953 14.3457-0.185547 14.3457-0.673828C14.3457-0.839844 14.3164-0.986328 14.2383-1.20117L9.6582-13.3887C9.43359-13.9941 9.0332-14.2871 8.4082-14.2871C7.80273-14.2871 7.39258-13.9941 7.17773-13.3984L2.59766-1.19141C2.51953-0.976562 2.49023-0.830078 2.49023-0.664062C2.49023-0.175781 2.80273 0.126953 3.31055 0.126953ZM6.00586-5.53711L8.37891-12.1094L8.42773-12.1094L10.8008-5.53711Z"/>
  </g>
  <line id="" style="fill:none;stroke:#00AEEF;stroke-width:0.5;opacity:1.0;" x1="792.836" x2="792.836" y1="1919" y2="1933"/>
  <text style="stroke:none;fill:black;font-family:-apple-system,&quot;SF Pro Display&quot;,&quot;SF Pro Text&quot;,Helvetica,sans-serif;font-weight:bold;" transform="matrix(1 0 0 1 776 1953)">Margins</text>
  <text style="stroke:none;fill:black;font-family:-apple-system,&quot;SF Pro Display&quot;,&quot;SF Pro Text&quot;,Helvetica,sans-serif;" transform="matrix(1 0 0 1 776 1971)">Leading and trailing margins on the left and right side of each symbol</text>
  <text style="stroke:none;fill:black;font-family:-apple-system,&quot;SF Pro Display&quot;,&quot;SF Pro Text&quot;,Helvetica,sans-serif;" transform="matrix(1 0 0 1 776 1989)">can be adjusted by modifying the x-location of the margin guidelines.</text>
  <text style="stroke:none;fill:black;font-family:-apple-system,&quot;SF Pro Display&quot;,&quot;SF Pro Text&quot;,Helvetica,sans-serif;" transform="matrix(1 0 0 1 776 2007)">Modifications are automatically applied proportionally to all</text>
  <text style="stroke:none;fill:black;font-family:-apple-system,&quot;SF Pro Display&quot;,&quot;SF Pro Text&quot;,Helvetica,sans-serif;" transform="matrix(1 0 0 1 776 2025)">scales and weights.</text>
  <g id="" transform="matrix(1 0 0 1 1289 1933)">
   <path d="M2.8418 1.86523L4.54102 3.57422C5.40039 4.44336 6.38672 4.38477 7.31445 3.35938L17.4902-7.85156C17.7539-7.76367 18.0273-7.7832 18.3398-7.8418L19.4043-8.03711L20.0684-7.36328L20.0293-6.80664C19.9902-6.30859 20.1172-5.92773 20.6055-5.44922L21.3672-4.70703C21.8457-4.22852 22.4609-4.19922 22.9297-4.66797L25.8398-7.58789C26.3086-8.05664 26.2891-8.65234 25.8105-9.13086L25.0391-9.89258C24.5605-10.3711 24.1895-10.5273 23.7109-10.4883L23.1348-10.4395L22.4902-11.0742L22.7344-12.1973C22.8613-12.7637 22.7051-13.2031 22.1191-13.7891L19.9219-15.9766C16.582-19.2969 12.1484-19.2188 9.25781-16.3281C8.83789-15.918 8.80859-15.3418 9.04297-14.9512C9.27734-14.5898 9.73633-14.3555 10.3809-14.5215C11.8457-14.8633 13.3691-14.9219 14.7949-13.9844L14.209-12.5293C14.0137-12.0508 13.9844-11.6504 14.1113-11.2891L3.04688-0.898438C2.06055 0.0195312 1.98242 0.996094 2.8418 1.86523ZM10.752-15.957C13.1836-17.7344 16.4746-17.4316 18.7012-15.2051L21.1328-12.793C21.3672-12.5586 21.4062-12.373 21.3379-12.0312L21.0156-10.5469L22.5195-9.0625L23.5059-9.12109C23.7598-9.13086 23.8379-9.11133 24.0332-8.91602L24.6094-8.33984L22.168-5.89844L21.5918-6.47461C21.3965-6.66992 21.3672-6.74805 21.377-7.01172L21.4453-7.98828L19.9512-9.47266L18.4277-9.21875C18.1055-9.15039 17.959-9.17969 17.7148-9.41406L15.7129-11.416C15.459-11.6504 15.4297-11.8164 15.5859-12.1875L16.4648-14.2773C14.9023-15.7324 12.8711-16.3574 10.8398-15.7617C10.6836-15.7227 10.625-15.8496 10.752-15.957ZM5.27344 2.30469L4.10156 1.14258C3.63281 0.683594 3.74023 0.341797 4.14062-0.0195312L14.9512-10.1953L16.416-8.71094L6.42578 2.27539C6.07422 2.67578 5.74219 2.77344 5.27344 2.30469Z"/>
  </g>
  <text style="stroke:none;fill:black;font-family:-apple-system,&quot;SF Pro Display&quot;,&quot;SF Pro Text&quot;,Helvetica,sans-serif;font-weight:bold;" transform="matrix(1 0 0 1 1289 1953)">Exporting</text>
  <text style="stroke:none;fill:black;font-family:-apple-system,&quot;SF Pro Display&quot;,&quot;SF Pro Text&quot;,Helvetica,sans-serif;" transform="matrix(1 0 0 1 1289 1971)">Symbols should be outlined when exporting to ensure the</text>
  <text style="stroke:none;fill:black;font-family:-apple-system,&quot;SF Pro Display&quot;,&quot;SF Pro Text&quot;,Helvetica,sans-serif;" transform="matrix(1 0 0 1 1289 1989)">design is preserved when submitting to Xcode.</text>
  <text id="template-version" style="stroke:none;fill:black;font-family:-apple-system,&quot;SF Pro Display&quot;,&quot;SF Pro Text&quot;,Helvetica,sans-serif;text-anchor:end;" transform="matrix(1 0 0 1 3036 1933)">Template v.2.0</text>
  <text style="stroke:none;fill:black;font-family:-apple-system,&quot;SF Pro Display&quot;,&quot;SF Pro Text&quot;,Helvetica,sans-serif;text-anchor:end;" transform="matrix(1 0 0 1 3036 1951)">Requires Xcode 12 or greater</text>
  <text style="stroke:none;fill:black;font-family:-apple-system,&quot;SF Pro Display&quot;,&quot;SF Pro Text&quot;,Helvetica,sans-serif;text-anchor:end;" transform="matrix(1 0 0 1 3036 1969)">Generated from smoke.fill</text>
  <text style="stroke:none;fill:black;font-family:-apple-system,&quot;SF Pro Display&quot;,&quot;SF Pro Text&quot;,Helvetica,sans-serif;text-anchor:end;" transform="matrix(1 0 0 1 3036 1987)">Typeset at 100 points</text>
  <text style="stroke:none;fill:black;font-family:-apple-system,&quot;SF Pro Display&quot;,&quot;SF Pro Text&quot;,Helvetica,sans-serif;" transform="matrix(1 0 0 1 263 726)">Small</text>
  <text style="stroke:none;fill:black;font-family:-apple-system,&quot;SF Pro Display&quot;,&quot;SF Pro Text&quot;,Helvetica,sans-serif;" transform="matrix(1 0 0 1 263 1156)">Medium</text>
  <text style="stroke:none;fill:black;font-family:-apple-system,&quot;SF Pro Display&quot;,&quot;SF Pro Text&quot;,Helvetica,sans-serif;" transform="matrix(1 0 0 1 263 1586)">Large</text>
 </g>
 <g id="Guides">
  <g id="H-reference" style="fill:#27AAE1;stroke:none;" transform="matrix(1 0 0 1 339 696)">
   <path d="M0.976562 0L3.66211 0L12.9883-24.4629L45.752-24.4629L55.127 0L57.7637 0L30.6152-70.459L28.125-70.459ZM29.3457-67.1387L29.4434-67.1387L44.873-26.709L13.8672-26.709Z"/>
  </g>
  <line id="Baseline-S" style="fill:none;stroke:#27AAE1;opacity:1;stroke-width:0.5;" x1="263" x2="3036" y1="696" y2="696"/>
  <line id="Capline-S" style="fill:none;stroke:#27AAE1;opacity:1;stroke-width:0.5;" x1="263" x2="3036" y1="625.541" y2="625.541"/>
  <g id="H-reference" style="fill:#27AAE1;stroke:none;" transform="matrix(1 0 0 1 339 1126)">
   <path d="M0.976562 0L3.66211 0L12.9883-24.4629L45.752-24.4629L55.127 0L57.7637 0L30.6152-70.459L28.125-70.459ZM29.3457-67.1387L29.4434-67.1387L44.873-26.709L13.8672-26.709Z"/>
  </g>
  <line id="Baseline-M" style="fill:none;stroke:#27AAE1;opacity:1;stroke-width:0.5;" x1="263" x2="3036" y1="1126" y2="1126"/>
  <line id="Capline-M" style="fill:none;stroke:#27AAE1;opacity:1;stroke-width:0.5;" x1="263" x2="3036" y1="1055.54" y2="1055.54"/>
  <g id="H-reference" style="fill:#27AAE1;stroke:none;" transform="matrix(1 0 0 1 339 1556)">
   <path d="M0.976562 0L3.66211 0L12.9883-24.4629L45.752-24.4629L55.127 0L57.7637 0L30.6152-70.459L28.125-70.459ZM29.3457-67.1387L29.4434-67.1387L44.873-26.709L13.8672-26.709Z"/>
  </g>
  <line id="Baseline-L" style="fill:none;stroke:#27AAE1;opacity:1;stroke-width:0.5;" x1="263" x2="3036" y1="1556" y2="1556"/>
  <line id="Capline-L" style="fill:none;stroke:#27AAE1;opacity:1;stroke-width:0.5;" x1="263" x2="3036" y1="1485.54" y2="1485.54"/>
  <line id="left-margin" style="fill:none;stroke:#00AEEF;stroke-width:0.5;opacity:1.0;" x1="1385.86" x2="1385.86" y1="1030.79" y2="1150.12"/>
  <line id="right-margin" style="fill:none;stroke:#00AEEF;stroke-width:0.5;opacity:1.0;" x1="1513.83" x2="1513.83" y1="1030.79" y2="1150.12"/>
 </g>
 <g id="Symbols">
  <g id="Black-L" transform="matrix(1 0 0 1 2846.24 1556)">
   <path d="M24.3652-12.9395C26.0742-26.5625 35.791-35.6934 46.7285-37.5C51.3184-51.6602 64.3555-60.1074 78.6133-60.1074C80.5664-60.1074 82.5195-59.9121 84.375-59.7168C90.6738-69.8242 101.904-73.9258 114.746-72.5586C111.328-78.3691 103.809-82.0312 95.459-82.0312C92.9199-82.0312 90.4297-81.5918 88.0371-80.8594C81.543-89.1602 73.0469-92.8711 63.2324-92.8711C47.2168-92.8711 33.7402-81.1035 31.0547-65.625C19.3848-61.7676 11.2793-50.7324 11.2793-38.1836C11.2793-29.0039 14.6973-20.2148 24.3652-12.9395ZM59.6191 21.6309L132.764 21.6309C150.439 21.6309 163.037 9.17969 163.037-7.27539C163.037-19.8242 154.98-30.8594 143.262-34.7656C140.576-50.293 127.1-62.0605 111.084-62.0605C101.416-62.0605 92.3828-57.666 86.5723-49.9023C84.668-50.2441 82.6172-50.4883 80.5176-50.4883C68.457-50.4883 57.6172-42.334 54.3457-31.1035C41.5527-28.8086 32.1777-18.0664 32.1777-5.0293C32.1777 10.1074 43.6523 21.6309 59.6191 21.6309Z"/>
  </g>
  <g id="Heavy-L" transform="matrix(1 0 0 1 2550.68 1556)">
   <path d="M25.293-12.8906C27.4414-25.7324 36.5723-34.1797 47.3145-35.9863C51.709-49.9023 64.3066-58.0566 78.2227-58.0566C80.127-58.0566 82.0312-57.8613 83.7891-57.6172C89.8438-67.1875 100.391-71.2402 112.744-70.1172C109.619-75.9766 102.393-79.9316 93.7988-79.9316C91.1621-79.9316 88.7207-79.4922 86.2793-78.7598C80.0781-86.9141 71.6309-90.8691 61.9629-90.8691C46.3379-90.8691 33.1543-79.1504 30.957-63.8672C19.3848-60.4004 11.2793-49.707 11.2793-37.4023C11.2793-27.9785 15.332-19.1406 25.293-12.8906ZM58.5449 20.8008L131.787 20.8008C148.73 20.8008 160.742 8.88672 160.742-6.83594C160.742-19.1406 152.588-29.834 141.016-33.3008C138.818-48.584 125.781-60.3516 110.107-60.3516C100.439-60.3516 91.5527-55.8594 85.9375-48.0957C83.8379-48.584 81.7383-48.877 79.541-48.877C67.627-48.877 57.1777-40.7227 54.2969-29.4922C41.748-27.6855 32.4219-17.1875 32.4219-4.58984C32.4219 9.81445 43.2617 20.8008 58.5449 20.8008Z"/>
  </g>
  <g id="Bold-L" transform="matrix(1 0 0 1 2255.29 1556)">
   <path d="M26.416-12.793C28.9551-24.8047 37.4512-32.5195 47.998-34.3262C52.1973-47.9492 64.209-55.7129 77.7344-55.7129C79.6387-55.7129 81.4453-55.5176 83.1055-55.2734C88.916-64.2578 98.7305-68.2129 110.498-67.3828C107.715-73.3398 100.83-77.5879 91.8945-77.5879C89.1602-77.5879 86.7676-77.1484 84.3262-76.416C78.418-84.4238 70.1172-88.623 60.5469-88.623C45.3125-88.623 32.5195-76.9043 30.8594-61.9141C19.3848-58.8867 11.2793-48.6328 11.2793-36.5723C11.2793-26.7578 16.0645-17.9688 26.416-12.793ZM57.3242 19.9219L130.664 19.9219C146.826 19.9219 158.105 8.54492 158.105-6.34766C158.105-18.3594 149.951-28.6621 138.525-31.6406C136.865-46.6309 124.316-58.3984 108.984-58.3984C99.3164-58.3984 90.6738-53.8574 85.2051-46.1426C82.9102-46.7773 80.7617-47.0703 78.3691-47.0703C66.6992-47.0703 56.6406-38.916 54.248-27.7344C41.9434-26.3672 32.6172-16.2598 32.6172-4.05273C32.6172 9.52148 42.7734 19.9219 57.3242 19.9219Z"/>
  </g>
  <g id="Semibold-L" transform="matrix(1 0 0 1 1959.45 1556)">
   <path d="M27.1484-12.7441C29.9805-24.1699 38.0371-31.3477 48.4375-33.1543C52.4902-46.582 64.1602-54.1016 77.4414-54.1016C79.3457-54.1016 81.0547-53.9062 82.666-53.6621C88.2812-62.207 97.5586-66.1133 108.936-65.4785C106.396-71.4844 99.7559-75.9766 90.5762-75.9766C87.7441-75.9766 85.4492-75.5371 82.959-74.8047C77.2949-82.7148 69.043-87.0605 59.5703-87.0605C44.5801-87.0605 32.0801-75.3906 30.8105-60.5957C19.3848-57.8613 11.2793-47.8516 11.2793-35.9863C11.2793-25.9766 16.6016-17.1875 27.1484-12.7441ZM56.4941 19.2383L129.883 19.2383C145.508 19.2383 156.348 8.30078 156.348-6.00586C156.348-17.8223 148.096-27.8809 136.816-30.5176C135.498-45.3125 123.291-57.0312 108.203-57.0312C98.584-57.0312 90.0391-52.4414 84.7168-44.7754C82.3242-45.459 80.0781-45.8496 77.5879-45.8496C66.0156-45.8496 56.2988-37.6465 54.1992-26.4648C42.0898-25.5371 32.7637-15.625 32.7637-3.71094C32.7637 9.27734 42.4805 19.2383 56.4941 19.2383Z"/>
  </g>
  <g id="Medium-L" transform="matrix(1 0 0 1 1663.43 1556)">
   <path d="M27.7344-12.7441C30.7617-23.6816 38.4766-30.4688 48.7793-32.2754C52.7344-45.5566 64.1113-52.9297 77.1973-52.9297C79.1016-52.9297 80.7617-52.6855 82.3242-52.4414C87.793-60.6934 96.6797-64.5508 107.764-64.0137C105.371-70.1172 98.9258-74.7559 89.5996-74.7559C86.7188-74.7559 84.4727-74.3164 81.9336-73.584C76.416-81.4453 68.2617-85.8887 58.8379-85.8887C44.043-85.8887 31.7383-74.2188 30.7129-59.5703C19.3848-57.0312 11.2793-47.2656 11.2793-35.5469C11.2793-25.3418 16.9922-16.5527 27.7344-12.7441ZM55.8594 18.7988L129.297 18.7988C144.482 18.7988 154.98 8.10547 154.98-5.71289C154.98-17.4316 146.729-27.2949 135.498-29.6387C134.473-44.2871 122.559-56.0547 107.666-56.0547C97.998-56.0547 89.5508-51.3672 84.3262-43.75C81.8359-44.5312 79.5898-44.9219 77.002-44.9219C65.5273-44.9219 56.0547-36.7188 54.1504-25.5371C42.1875-24.8535 32.9102-15.1367 32.9102-3.41797C32.9102 9.08203 42.2363 18.7988 55.8594 18.7988Z"/>
  </g>
  <g id="Regular-L" transform="matrix(1 0 0 1 1367.62 1556)">
   <path d="M28.4668-12.6953C31.7871-23.0469 39.0625-29.2969 49.2188-31.1035C53.0762-44.2383 64.0625-51.3184 76.9043-51.3184C78.7598-51.3184 80.4199-51.0742 81.8359-50.8301C87.1582-58.6914 95.5566-62.5 106.201-62.1582C104.102-68.3105 97.8516-73.1934 88.3301-73.1934C85.3516-73.1934 83.1543-72.7051 80.6152-71.9727C75.293-79.7363 67.1875-84.3262 57.9102-84.3262C43.3594-84.3262 31.2988-72.7051 30.6641-58.252C19.3848-56.0059 11.2793-46.5332 11.2793-34.9609C11.2793-24.5605 17.4805-15.7715 28.4668-12.6953ZM55.0781 18.1641L128.564 18.1641C143.213 18.1641 153.174 7.86133 153.174-5.37109C153.174-16.8945 144.922-26.4648 133.789-28.5156C133.105-42.9688 121.533-54.7363 106.885-54.7363C97.2656-54.7363 88.916-50 83.8379-42.3828C81.2012-43.2617 78.9062-43.7012 76.2207-43.7012C64.8926-43.7012 55.7129-35.498 54.1016-24.3164C42.334-23.9746 33.0566-14.502 33.0566-3.07617C33.0566 8.88672 41.8945 18.1641 55.0781 18.1641Z"/>
  </g>
  <g id="Light-L" transform="matrix(1 0 0 1 1071.35 1556)">
   <path d="M28.418-13.3789C31.9824-22.9004 38.8184-28.5156 48.6816-29.9805C51.8555-42.6758 62.4023-50.2441 75.0488-50.2441C77.5391-50.2441 79.4922-49.9023 81.2012-49.5605C86.8164-57.9102 95.8984-61.8652 107.373-61.1328C105.127-68.3594 98.584-73.5352 88.8672-73.5352C85.6445-73.5352 83.5449-73.0957 80.8105-72.3633C75.293-80.4688 67.2852-85.0098 58.0078-85.0098C43.457-85.0098 31.3477-73.2422 30.9082-58.6914C19.3848-56.4941 11.2793-47.0215 11.2793-35.498C11.2793-24.9023 17.3828-16.2598 28.418-13.3789ZM53.3203 17.8711L127.637 17.8711C142.188 17.8711 152.295 7.86133 152.295-5.46875C152.295-16.9922 143.896-26.6113 132.617-28.5156C132.129-43.0176 120.801-54.9805 106.006-54.9805C96.1914-54.9805 87.8418-50.293 82.7148-42.3828C79.834-43.3594 77.5391-43.7988 74.7559-43.7988C63.3789-43.7988 54.248-35.5957 52.7344-24.2676C40.8691-23.9746 31.4941-14.4043 31.4941-3.125C31.4941 8.78906 40.3809 17.8711 53.3203 17.8711Z"/>
  </g>
  <g id="Thin-L" transform="matrix(1 0 0 1 775.245 1556)">
   <path d="M28.418-14.3555C32.2266-22.7051 38.5254-27.4414 47.998-28.5156C50.2441-40.625 60.2539-48.8281 72.6562-48.8281C75.8789-48.8281 78.3203-48.3887 80.3223-47.8516C86.377-56.9336 96.3379-60.9863 108.887-59.8145C106.543-68.4082 99.5117-73.9746 89.6484-73.9746C86.0352-73.9746 84.0332-73.6328 81.1035-72.9004C75.293-81.4941 67.4316-85.9375 58.2031-85.9375C43.5547-85.9375 31.4453-73.9746 31.2012-59.2285C19.3848-57.1289 11.2793-47.7051 11.2793-36.1328C11.2793-25.3906 17.1875-16.8457 28.418-14.3555ZM50.9766 17.4805L126.367 17.4805C140.82 17.4805 151.074 7.86133 151.074-5.61523C151.074-17.1387 142.578-26.7578 131.055-28.4668C130.811-43.1152 119.775-55.3711 104.883-55.3711C94.8242-55.3711 86.4258-50.6836 81.25-42.4316C78.0273-43.5059 75.7812-43.9941 72.8516-43.9941C61.4258-43.9941 52.3926-35.791 50.9277-24.1211C38.916-23.9258 29.4434-14.3066 29.4434-3.22266C29.4434 8.74023 38.3789 17.4805 50.9766 17.4805Z"/>
  </g>
  <g id="Ultralight-L" transform="matrix(1 0 0 1 478.852 1556)">
   <path d="M28.418-14.8438C32.3242-22.6074 38.3789-26.9043 47.6074-27.7344C49.4141-39.5996 59.1797-48.0957 71.3867-48.0957C75.0488-48.0957 77.7344-47.6074 79.8828-46.9727C86.1328-56.3965 96.5332-60.5469 109.668-59.1309C107.227-68.4082 99.9512-74.2188 90.0391-74.2188C86.2305-74.2188 84.2773-73.9258 81.25-73.1934C75.293-81.9824 67.5293-86.377 58.3008-86.377C43.6523-86.377 31.4941-74.3652 31.3965-59.5215C19.3848-57.4707 11.2793-48.0469 11.2793-36.4746C11.2793-25.6836 17.0898-17.1875 28.418-14.8438ZM49.8047 17.334L125.732 17.334C140.088 17.334 150.439 7.8125 150.439-5.71289C150.439-17.1875 141.895-26.8555 130.225-28.418C130.127-43.1641 119.287-55.5664 104.297-55.5664C94.0918-55.5664 85.7422-50.8789 80.4688-42.4316C77.0996-43.6035 74.8535-44.0918 71.8262-44.0918C60.4004-44.0918 51.416-35.8887 50-24.0723C37.8906-23.9258 28.3691-14.2578 28.3691-3.27148C28.3691 8.69141 37.3047 17.334 49.8047 17.334Z"/>
  </g>
  <g id="Black-M" transform="matrix(1 0 0 1 2864.53 1126)">
   <path d="M17.5293-18.4082C18.5059-29.541 26.6113-37.207 35.1562-38.4277C38.5742-49.4629 49.1211-56.7383 60.498-56.7383C62.3535-56.7383 64.1602-56.5918 65.8691-56.3965C71.1914-65.1855 81.1523-68.5059 92.2852-66.9434C89.1113-71.875 82.7148-74.5117 76.5625-74.5117C74.5605-74.5117 72.5586-74.2188 70.7031-73.6328C65.1855-80.4199 58.4961-83.0078 50.7812-83.0078C37.8906-83.0078 26.9531-73.7793 24.3652-61.3281C15.0391-57.8613 8.74023-48.877 8.74023-38.7695C8.74023-32.0312 10.4004-25.2441 17.5293-18.4082ZM46.7285 9.81445L103.711 9.81445C118.311 9.81445 129.004-0.390625 129.004-14.2578C129.004-24.3164 122.754-33.3008 113.379-36.8652C110.791-49.2676 99.8535-58.5449 86.9629-58.5449C79.3457-58.5449 72.1191-55.2246 67.334-48.9746C65.9668-49.1699 64.502-49.2676 62.9883-49.2676C53.3691-49.2676 44.4824-42.9688 41.4551-34.1309C31.1523-31.7871 23.877-22.998 23.877-12.5C23.877 0.292969 33.5938 9.81445 46.7285 9.81445Z"/>
  </g>
  <g id="Heavy-M" transform="matrix(1 0 0 1 2568.96 1126)">
   <path d="M18.6035-18.1641C19.9219-28.6621 27.4902-35.7422 35.9375-37.0605C39.3066-47.9492 49.4629-54.7852 60.5469-54.7852C62.207-54.7852 63.8672-54.5898 65.3809-54.3945C70.4102-62.5 79.4434-65.7227 89.7461-64.5508C86.9629-69.2383 81.0059-72.1191 74.5605-72.1191C72.5586-72.1191 70.6055-71.8262 68.75-71.2402C63.5742-77.7832 56.9824-80.6152 49.3652-80.6152C36.8652-80.6152 26.3184-71.4355 24.1699-59.3262C15.0391-56.25 8.74023-47.6562 8.74023-37.8418C8.74023-30.7617 11.1816-23.9746 18.6035-18.1641ZM45.9961 8.98438L102.881 8.98438C116.748 8.98438 126.709-0.732422 126.709-13.7207C126.709-23.5352 120.41-32.1777 111.279-35.2539C109.131-47.3633 98.6328-56.543 86.084-56.543C78.5645-56.543 71.4844-53.1738 66.9434-47.0215C65.4297-47.3145 63.8672-47.5098 62.2559-47.5098C52.8809-47.5098 44.3848-41.1621 41.748-32.4219C31.7383-30.5176 24.4629-22.1191 24.4629-11.9629C24.4629 0 33.5449 8.98438 45.9961 8.98438Z"/>
  </g>
  <g id="Bold-M" transform="matrix(1 0 0 1 2273.55 1126)">
   <path d="M19.8242-17.8711C21.5332-27.6855 28.5156-34.1797 36.8164-35.5469C40.1855-46.2891 49.8535-52.5391 60.5469-52.5391C62.0605-52.5391 63.4766-52.3926 64.8438-52.1973C69.4824-59.5215 77.4902-62.5977 86.9629-61.8164C84.5703-66.3574 79.1016-69.4824 72.3633-69.4824C70.2637-69.4824 68.4082-69.1406 66.5527-68.5547C61.7676-74.8535 55.2734-77.9785 47.8027-77.9785C35.7422-77.9785 25.5859-68.8477 23.9746-57.0801C15.0391-54.4922 8.74023-46.2891 8.74023-36.7676C8.74023-29.3945 12.0117-22.5586 19.8242-17.8711ZM45.2148 8.05664L101.953 8.05664C114.941 8.05664 124.121-1.07422 124.121-13.1348C124.121-22.6074 117.822-30.8594 108.887-33.4473C107.275-45.2148 97.2168-54.3457 85.1562-54.3457C77.6367-54.3457 70.8008-50.8789 66.5039-44.873C64.8438-45.2637 63.1836-45.5078 61.4746-45.5078C52.2461-45.5078 44.2383-39.1602 42.0898-30.4688C32.4219-29.1504 25.1953-21.0938 25.1953-11.377C25.1953-0.341797 33.4961 8.05664 45.2148 8.05664Z"/>
  </g>
  <g id="Semibold-M" transform="matrix(1 0 0 1 1977.71 1126)">
   <path d="M20.6055-17.6758C22.6074-27.0508 29.1992-33.0566 37.4023-34.5215C40.7715-45.1172 50.0977-50.9766 60.5957-50.9766C61.9141-50.9766 63.2324-50.8301 64.4531-50.6836C68.8477-57.4707 76.1719-60.4492 85.0098-59.9121C82.959-64.3555 77.7344-67.627 70.8008-67.627C68.7012-67.627 66.8945-67.2852 65.0391-66.6992C60.5469-72.8027 54.1016-76.123 46.6797-76.123C34.9121-76.123 25.0977-67.0898 23.877-55.5176C15.0391-53.2227 8.74023-45.3125 8.74023-36.0352C8.74023-28.418 12.5977-21.582 20.6055-17.6758ZM44.6289 7.42188L101.318 7.42188C113.721 7.42188 122.363-1.36719 122.363-12.7441C122.363-22.0215 116.016-29.9316 107.227-32.2266C106.006-43.75 96.2891-52.832 84.4727-52.832C77.0508-52.832 70.3613-49.2676 66.1621-43.3594C64.4531-43.8477 62.7441-44.1406 60.8887-44.1406C51.8555-44.1406 44.1406-37.793 42.334-29.1504C32.8613-28.1738 25.6348-20.4102 25.6348-10.9863C25.6348-0.585938 33.4473 7.42188 44.6289 7.42188Z"/>
  </g>
  <g id="Medium-M" transform="matrix(1 0 0 1 1681.69 1126)">
   <path d="M21.2402-17.5293C23.4375-26.5137 29.6875-32.2266 37.8418-33.7402C41.2109-44.2383 50.293-49.8535 60.5957-49.8535C61.8652-49.8535 63.0371-49.707 64.1602-49.5605C68.3594-55.8594 75.1953-58.8379 83.5449-58.4961C81.6895-62.8418 76.7578-66.2598 69.6289-66.2598C67.5293-66.2598 65.7227-65.8691 63.8672-65.332C59.5703-71.2891 53.1738-74.707 45.8496-74.707C34.3262-74.707 24.707-65.7227 23.7305-54.3457C15.0391-52.2949 8.74023-44.6289 8.74023-35.498C8.74023-27.6855 13.0371-20.8496 21.2402-17.5293ZM44.2383 6.93359L100.83 6.93359C112.793 6.93359 120.996-1.5625 120.996-12.4512C120.996-21.5332 114.648-29.248 105.957-31.2988C105.029-42.627 95.5566-51.6602 83.9844-51.6602C76.5625-51.6602 69.9707-48.0957 65.918-42.2363C64.1113-42.7734 62.3535-43.0664 60.4492-43.0664C51.5625-43.0664 44.043-36.7188 42.4805-28.1738C33.2031-27.4902 26.0254-19.873 26.0254-10.6445C26.0254-0.78125 33.3984 6.93359 44.2383 6.93359Z"/>
  </g>
  <g id="Regular-M" transform="matrix(1 0 0 1 1385.86 1126)">
   <path d="M22.0703-17.334C24.5117-25.8789 30.3711-31.1035 38.4277-32.7148C41.7969-43.1152 50.5371-48.291 60.6445-48.291C61.7676-48.291 62.793-48.1934 63.8184-48.0469C67.7734-53.8574 73.877-56.7383 81.6406-56.6406C80.0781-60.8398 75.4395-64.4531 68.1152-64.4531C65.9668-64.4531 64.209-64.0625 62.3535-63.4766C58.3496-69.2871 52.002-72.9004 44.7754-72.9004C33.5449-72.9004 24.2188-63.9648 23.6328-52.832C15.0391-51.0742 8.74023-43.7012 8.74023-34.7656C8.74023-26.7578 13.623-19.873 22.0703-17.334ZM43.6523 6.29883L100.146 6.29883C111.572 6.29883 119.238-1.80664 119.238-12.0117C119.238-20.9473 112.891-28.3691 104.346-30.0781C103.76-41.1621 94.6289-50.1953 83.3496-50.1953C75.9766-50.1953 69.5312-46.4844 65.625-40.7715C63.7207-41.4062 61.9141-41.6992 59.9121-41.6992C51.123-41.6992 43.9941-35.3516 42.7246-26.8555C33.6426-26.5137 26.4648-19.1895 26.4648-10.2539C26.4648-1.02539 33.3496 6.29883 43.6523 6.29883Z"/>
  </g>
  <g id="Light-M" transform="matrix(1 0 0 1 1089.56 1126)">
   <path d="M22.0703-17.9688C24.707-25.7324 30.1758-30.3711 37.9883-31.6895C40.7227-41.6992 49.0723-47.3633 58.9844-47.3633C60.6445-47.3633 62.0117-47.1191 63.2324-46.875C67.4316-53.1738 74.1699-56.1523 82.666-55.7617C81.0059-60.8887 76.0742-64.7461 68.6523-64.7461C66.2598-64.7461 64.5508-64.4043 62.5488-63.8672C58.3496-69.9707 52.0996-73.5352 44.9219-73.5352C33.6426-73.5352 24.2676-64.4531 23.8281-53.2227C15.0391-51.5137 8.74023-44.1406 8.74023-35.2051C8.74023-27.0508 13.5254-20.3125 22.0703-17.9688ZM42.0898 6.05469L99.3164 6.05469C110.645 6.05469 118.408-1.80664 118.408-12.1094C118.408-21.0449 111.963-28.4668 103.271-30.0293C102.832-41.2598 93.9453-50.4395 82.5684-50.4395C75-50.4395 68.5547-46.7773 64.5996-40.7715C62.5-41.5039 60.6934-41.8457 58.5938-41.8457C49.8047-41.8457 42.6758-35.4492 41.4551-26.7578C32.3242-26.5137 25.0977-19.1406 25.0977-10.3027C25.0977-1.07422 31.9824 6.05469 42.0898 6.05469Z"/>
  </g>
  <g id="Thin-M" transform="matrix(1 0 0 1 793.385 1126)">
   <path d="M22.0215-18.8477C24.9023-25.5371 29.9316-29.4434 37.3535-30.3223C39.2578-39.8438 47.168-46.0938 56.8359-46.0938C59.1797-46.0938 60.9863-45.752 62.4512-45.3613C67.041-52.2461 74.5605-55.3711 84.082-54.5898C82.2754-60.9375 76.9043-65.1855 69.2871-65.1855C66.6016-65.1855 64.9902-64.8926 62.793-64.3066C58.3496-70.8496 52.2461-74.3164 45.0684-74.3164C33.7402-74.3164 24.3652-65.1367 24.1211-53.7109C15.0391-52.0508 8.74023-44.7754 8.74023-35.791C8.74023-27.4902 13.3789-20.8496 22.0215-18.8477ZM39.9902 5.71289L98.1934 5.71289C109.424 5.71289 117.334-1.85547 117.334-12.2559C117.334-21.1914 110.791-28.6621 101.904-29.9805C101.66-41.3086 93.0664-50.7324 81.543-50.7324C73.7793-50.7324 67.2852-47.1191 63.2812-40.8203C60.8398-41.6016 59.082-41.9922 56.8359-41.9922C48.0469-41.9922 41.0156-35.6445 39.8438-26.6602C30.5664-26.4648 23.2422-19.043 23.2422-10.4004C23.2422-1.12305 30.1758 5.71289 39.9902 5.71289Z"/>
  </g>
  <g id="Ultralight-M" transform="matrix(1 0 0 1 496.967 1126)">
   <path d="M22.0215-19.2871C25-25.4883 29.7852-28.9062 37.0117-29.6387C38.5254-38.916 46.1914-45.4102 55.7129-45.4102C58.3984-45.4102 60.4492-45.0684 62.0605-44.6289C66.7969-51.8066 74.7559-54.9805 84.7656-53.9551C82.9102-60.9375 77.3438-65.3809 69.6777-65.3809C66.7969-65.3809 65.2344-65.1367 62.8906-64.5508C58.3496-71.3379 52.2949-74.7559 45.166-74.7559C33.7891-74.7559 24.3652-65.4297 24.2676-53.9551C15.0391-52.3438 8.74023-45.0684 8.74023-36.084C8.74023-27.7344 13.2812-21.1426 22.0215-19.2871ZM38.9648 5.56641L97.6074 5.56641C108.789 5.56641 116.748-1.85547 116.748-12.3535C116.748-21.2402 110.156-28.7109 101.172-29.9805C101.074-41.3574 92.5781-50.9277 81.0059-50.9277C73.1445-50.9277 66.6504-47.3145 62.5977-40.8203C60.0098-41.6992 58.3008-42.041 55.957-42.041C47.1191-42.041 40.1367-35.6934 39.0137-26.6113C29.6875-26.4648 22.3145-18.9941 22.3145-10.4492C22.3145-1.17188 29.248 5.56641 38.9648 5.56641Z"/>
  </g>
  <g id="Black-S" transform="matrix(1 0 0 1 2879.54 696)">
   <path d="M13.8184-22.0215C14.5996-30.7129 20.8984-36.6699 27.5879-37.6465C30.2734-46.2891 38.5254-51.9531 47.4121-51.9531C48.8281-51.9531 50.2441-51.8066 51.5625-51.6602C55.7129-58.4961 63.4277-61.084 72.0703-59.9121C69.6289-63.7207 64.6484-65.8203 59.8145-65.8203C58.252-65.8203 56.6895-65.5762 55.2246-65.1367C50.9277-70.4102 45.7031-72.4609 39.6484-72.4609C29.5898-72.4609 21.0449-65.2344 19.043-55.5176C11.7676-52.832 6.83594-45.8008 6.83594-37.9395C6.83594-32.6172 8.20312-27.2949 13.8184-22.0215ZM36.5723 0L81.2012 0C92.5781 0 100.879-7.95898 100.879-18.75C100.879-26.6113 95.9961-33.6426 88.6719-36.377C86.6699-46.0938 78.125-53.3203 68.0664-53.3203C62.1094-53.3203 56.4453-50.7324 52.7344-45.8496C51.6602-45.9961 50.4883-46.0938 49.3164-46.0938C41.7969-46.0938 34.8633-41.1621 32.5195-34.2285C24.4629-32.4219 18.75-25.5859 18.75-17.3828C18.75-7.42188 26.3184 0 36.5723 0Z"/>
  </g>
  <g id="Heavy-S" transform="matrix(1 0 0 1 2583.66 696)">
   <path d="M14.6484-21.7773C15.6738-30.0781 21.582-35.6445 28.2227-36.7188C31.0059-45.3125 38.9648-50.5371 47.6074-50.5371C48.8281-50.5371 50.0977-50.3906 51.2695-50.293C55.127-56.543 62.0605-59.0332 70.0195-58.1543C67.8711-61.7188 63.2812-63.9648 58.252-63.9648C56.6895-63.9648 55.127-63.7207 53.7109-63.2812C49.707-68.3105 44.5312-70.5566 38.5742-70.5566C28.8086-70.5566 20.5566-63.4277 18.8965-53.9551C11.7676-51.5625 6.83594-44.8242 6.83594-37.1582C6.83594-31.6406 8.78906-26.2695 14.6484-21.7773ZM36.1816-0.585938L80.6641-0.585938C91.4551-0.585938 99.2188-8.20312 99.2188-18.3594C99.2188-25.9766 94.3359-32.7148 87.1582-35.1562C85.498-44.6289 77.2461-51.8066 67.4805-51.8066C61.6211-51.8066 56.1035-49.1211 52.5391-44.3848C51.3672-44.5801 50.1465-44.7266 48.877-44.7266C41.5527-44.7266 34.9121-39.7949 32.8613-32.9102C25.0488-31.4941 19.3848-24.9023 19.3848-16.9922C19.3848-7.66602 26.416-0.585938 36.1816-0.585938Z"/>
  </g>
  <g id="Bold-S" transform="matrix(1 0 0 1 2287.88 696)">
   <path d="M15.5273-21.4844C16.8457-29.3457 22.4121-34.5215 28.9551-35.6934C31.7871-44.1895 39.4043-48.9258 47.8516-48.9258C48.877-48.9258 49.9023-48.8281 50.9277-48.7305C54.4434-54.2969 60.5469-56.7383 67.7734-56.2012C65.918-59.5215 61.7188-61.9141 56.4453-61.9141C54.8828-61.9141 53.418-61.6211 52.002-61.1816C48.3398-66.0156 43.2129-68.457 37.3535-68.457C27.9297-68.457 20.0195-61.377 18.7012-52.1973C11.7676-50.1465 6.83594-43.7012 6.83594-36.2793C6.83594-30.5176 9.47266-25.1465 15.5273-21.4844ZM35.791-1.26953L80.0293-1.26953C90.2344-1.26953 97.3633-8.49609 97.3633-17.8711C97.3633-25.293 92.4316-31.7383 85.4492-33.7891C84.1797-42.9688 76.2695-50.0488 66.8457-50.0488C61.0352-50.0488 55.6641-47.3145 52.2949-42.7246C51.0742-43.0176 49.8047-43.1641 48.4375-43.1641C41.2598-43.1641 34.9609-38.2324 33.3008-31.4453C25.7324-30.4199 20.0684-24.1211 20.0684-16.5039C20.0684-7.91016 26.5625-1.26953 35.791-1.26953Z"/>
  </g>
  <g id="Semibold-S" transform="matrix(1 0 0 1 1991.83 696)">
   <path d="M16.1621-21.2402C17.6758-28.8574 22.9492-33.7402 29.4922-34.9609C32.3242-43.4082 39.7461-47.8516 47.998-47.8516C48.877-47.8516 49.8047-47.7539 50.6836-47.6562C54.0039-52.7832 59.5215-55.127 66.2109-54.834C64.5996-57.959 60.6445-60.4492 55.2246-60.4492C53.6621-60.4492 52.2461-60.1562 50.8301-59.7168C47.3633-64.4043 42.2852-66.9922 36.4746-66.9922C27.2949-66.9922 19.6289-59.9609 18.6035-50.9766C11.7676-49.1699 6.83594-42.9688 6.83594-35.6934C6.83594-29.7363 9.91211-24.3652 16.1621-21.2402ZM35.4492-1.75781L79.5898-1.75781C89.3555-1.75781 96.0449-8.69141 96.0449-17.5781C96.0449-24.8047 91.1133-31.0059 84.2773-32.8613C83.3008-41.8457 75.6348-48.877 66.4062-48.877C60.6445-48.877 55.4199-46.0938 52.1484-41.5527C50.8789-41.8945 49.5117-42.0898 48.0957-42.0898C41.0645-42.0898 35.0098-37.1582 33.5449-30.4688C26.1719-29.6875 20.5566-23.6328 20.5566-16.2109C20.5566-8.10547 26.6602-1.75781 35.4492-1.75781Z"/>
  </g>
  <g id="Medium-S" transform="matrix(1 0 0 1 1695.6 696)">
   <path d="M16.6504-21.0938C18.3105-28.4668 23.3398-33.1543 29.834-34.4238C32.7148-42.8223 39.9902-47.0215 48.1445-47.0215C48.877-47.0215 49.707-46.9727 50.4883-46.875C53.6621-51.6602 58.7402-53.9062 64.9902-53.8086C63.5742-56.7871 59.8633-59.375 54.2969-59.375C52.7832-59.375 51.3184-59.0332 49.9023-58.5938C46.6309-63.1836 41.6016-65.8691 35.8398-65.8691C26.8555-65.8691 19.3359-58.8867 18.5059-50.0488C11.7676-48.3887 6.83594-42.3828 6.83594-35.2539C6.83594-29.1992 10.2539-23.7793 16.6504-21.0938ZM35.2539-2.09961L79.2969-2.09961C88.7207-2.09961 95.0684-8.83789 95.0684-17.334C95.0684-24.4629 90.1367-30.5176 83.3984-32.1289C82.5684-40.9668 75.0977-47.998 66.0645-47.998C60.3516-47.998 55.2246-45.166 52.0508-40.6738C50.6836-41.0645 49.3164-41.3086 47.8516-41.3086C40.918-41.3086 35.0098-36.3281 33.7891-29.6875C26.5137-29.1504 20.9473-23.1934 20.9473-15.9668C20.9473-8.25195 26.709-2.09961 35.2539-2.09961Z"/>
  </g>
  <g id="Regular-S" transform="matrix(1 0 0 1 1399.53 696)">
   <path d="M17.2852-20.8984C19.1406-27.9785 23.877-32.373 30.3223-33.7402C33.3008-42.0898 40.2832-45.9473 48.291-45.9473C48.877-45.9473 49.5605-45.8984 50.2441-45.8008C53.2227-50.1465 57.7148-52.3438 63.4277-52.4414C62.2559-55.2734 58.7891-57.959 53.125-57.959C51.5625-57.959 50.1465-57.6172 48.7793-57.1777C45.7031-61.5723 40.6738-64.4531 35.0098-64.4531C26.2207-64.4531 18.9453-57.5195 18.4082-48.8281C11.7676-47.4121 6.83594-41.6016 6.83594-34.6191C6.83594-28.418 10.7422-22.998 17.2852-20.8984ZM34.9609-2.58789L78.8574-2.58789C87.8418-2.58789 93.7988-9.0332 93.7988-16.9922C93.7988-23.9746 88.8672-29.7852 82.2754-31.2012C81.6895-39.8438 74.4629-46.8262 65.6738-46.8262C59.9609-46.8262 54.9316-43.9453 51.9043-39.5508C50.4883-39.9902 49.0723-40.2344 47.5586-40.2344C40.7227-40.2344 35.0586-35.2539 34.0332-28.7109C27.002-28.418 21.4355-22.7051 21.4355-15.625C21.4355-8.39844 26.8066-2.58789 34.9609-2.58789Z"/>
  </g>
  <g id="Light-S" transform="matrix(1 0 0 1 1103.18 696)">
   <path d="M17.2852-21.4844C19.2871-27.832 23.7305-31.6895 29.9316-32.8125C32.3242-40.8203 39.0137-45.1172 46.8262-45.1172C47.9004-45.1172 48.877-44.9707 49.7559-44.8242C52.9297-49.5605 57.959-51.8555 64.3555-51.6602C63.0859-55.3223 59.3262-58.252 53.5645-58.252C51.8066-58.252 50.4395-57.959 48.9258-57.5195C45.7031-62.1582 40.7715-64.9902 35.1074-64.9902C26.3184-64.9902 18.9941-57.959 18.6035-49.1699C11.7676-47.8027 6.83594-42.041 6.83594-35.0586C6.83594-28.7109 10.6445-23.3887 17.2852-21.4844ZM33.5449-2.7832L78.125-2.7832C87.0117-2.7832 93.0664-9.0332 93.0664-17.0898C93.0664-24.0723 88.0859-29.8828 81.2988-31.1523C80.9082-39.8926 73.877-47.0215 64.9414-47.0215C59.1309-47.0215 54.1016-44.1895 50.9766-39.5508C49.4141-40.0879 47.998-40.332 46.3867-40.332C39.502-40.332 33.9355-35.3516 32.959-28.6133C25.8301-28.418 20.166-22.6562 20.166-15.6738C20.166-8.44727 25.5859-2.7832 33.5449-2.7832Z"/>
  </g>
  <g id="Thin-S" transform="matrix(1 0 0 1 806.935 696)">
   <path d="M17.2363-22.2168C19.4336-27.6855 23.4863-30.8594 29.3457-31.6406C31.0547-39.209 37.3047-43.9941 44.9219-43.9941C46.6309-43.9941 47.9492-43.75 49.0723-43.457C52.5879-48.7305 58.3008-51.1719 65.5762-50.6348C64.209-55.3223 60.0586-58.5938 54.1504-58.5938C52.0996-58.5938 50.8301-58.3496 49.1211-57.9102C45.7031-62.9883 40.8691-65.7227 35.2539-65.7227C26.416-65.7227 19.043-58.4961 18.8477-49.6094C11.7676-48.291 6.83594-42.5781 6.83594-35.5469C6.83594-29.1016 10.498-23.877 17.2363-22.2168ZM31.7383-3.07617L77.1484-3.07617C85.9375-3.07617 92.1387-9.08203 92.1387-17.1875C92.1387-24.1699 87.0117-30.0293 80.0781-31.1523C79.8828-39.9902 73.0469-47.3145 64.0625-47.3145C58.0078-47.3145 52.9785-44.4824 49.8047-39.5996C47.998-40.1855 46.582-40.4785 44.873-40.4785C37.9395-40.4785 32.4219-35.498 31.543-28.5156C24.2676-28.3691 18.5547-22.5586 18.5547-15.7715C18.5547-8.49609 23.9746-3.07617 31.7383-3.07617Z"/>
  </g>
  <g id="Ultralight-S" transform="matrix(1 0 0 1 510.492 696)">
   <path d="M17.2363-22.6074C19.5801-27.5879 23.3887-30.4199 29.0527-31.0547C30.3711-38.3789 36.4258-43.4082 43.9453-43.4082C45.9473-43.4082 47.4609-43.1152 48.7305-42.7734C52.3926-48.3398 58.4961-50.8301 66.2109-50.0977C64.7461-55.3711 60.4492-58.7891 54.4922-58.7891C52.2461-58.7891 51.0254-58.5938 49.2188-58.1543C45.7031-63.3789 40.9668-66.0645 35.3516-66.0645C26.4648-66.0645 19.0918-58.8379 18.9453-49.8535C11.7676-48.584 6.83594-42.8711 6.83594-35.8398C6.83594-29.2969 10.4004-24.1211 17.2363-22.6074ZM30.7617-3.22266L76.6113-3.22266C85.4004-3.22266 91.6016-9.08203 91.6016-17.2852C91.6016-24.2676 86.4746-30.127 79.4434-31.1035C79.3457-40.0391 72.6562-47.4609 63.5742-47.4609C57.4707-47.4609 52.3926-44.6289 49.2188-39.5996C47.2168-40.2832 45.8496-40.5762 44.0918-40.5762C37.1582-40.5762 31.6895-35.5957 30.7617-28.4668C23.4863-28.3691 17.7246-22.5098 17.7246-15.8203C17.7246-8.54492 23.1445-3.22266 30.7617-3.22266Z"/>
  </g>
 </g>
</svg>
