<?xml version="1.0" encoding="UTF-8"?>
<!--Generator: Apple Native CoreSVG 149-->
<!DOCTYPE svg
PUBLIC "-//W3C//DTD SVG 1.1//EN"
       "http://www.w3.org/Graphics/SVG/1.1/DTD/svg11.dtd">
<svg version="1.1" xmlns="http://www.w3.org/2000/svg" xmlns:xlink="http://www.w3.org/1999/xlink" width="3300" height="2200">
 <!--glyph: "uni1001DB.medium", point size: 100.000000, font version: "Version 16.0d18e1", template writer version: "8"-->
 <g id="Notes">
  <rect height="2200" id="artboard" style="fill:white;opacity:1" width="3300" x="0" y="0"/>
  <line id="" style="fill:none;stroke:black;opacity:1;stroke-width:0.5;" x1="263" x2="3036" y1="292" y2="292"/>
  <text style="stroke:none;fill:black;font-family:-apple-system,&quot;SF Pro Display&quot;,&quot;SF Pro Text&quot;,Helvetica,sans-serif;font-weight:bold;" transform="matrix(1 0 0 1 263 322)">Weight/Scale Variations</text>
  <text style="stroke:none;fill:black;font-family:-apple-system,&quot;SF Pro Display&quot;,&quot;SF Pro Text&quot;,Helvetica,sans-serif;text-anchor:middle;" transform="matrix(1 0 0 1 559.711 322)">Ultralight</text>
  <text style="stroke:none;fill:black;font-family:-apple-system,&quot;SF Pro Display&quot;,&quot;SF Pro Text&quot;,Helvetica,sans-serif;text-anchor:middle;" transform="matrix(1 0 0 1 856.422 322)">Thin</text>
  <text style="stroke:none;fill:black;font-family:-apple-system,&quot;SF Pro Display&quot;,&quot;SF Pro Text&quot;,Helvetica,sans-serif;text-anchor:middle;" transform="matrix(1 0 0 1 1153.13 322)">Light</text>
  <text style="stroke:none;fill:black;font-family:-apple-system,&quot;SF Pro Display&quot;,&quot;SF Pro Text&quot;,Helvetica,sans-serif;text-anchor:middle;" transform="matrix(1 0 0 1 1449.84 322)">Regular</text>
  <text style="stroke:none;fill:black;font-family:-apple-system,&quot;SF Pro Display&quot;,&quot;SF Pro Text&quot;,Helvetica,sans-serif;text-anchor:middle;" transform="matrix(1 0 0 1 1746.56 322)">Medium</text>
  <text style="stroke:none;fill:black;font-family:-apple-system,&quot;SF Pro Display&quot;,&quot;SF Pro Text&quot;,Helvetica,sans-serif;text-anchor:middle;" transform="matrix(1 0 0 1 2043.27 322)">Semibold</text>
  <text style="stroke:none;fill:black;font-family:-apple-system,&quot;SF Pro Display&quot;,&quot;SF Pro Text&quot;,Helvetica,sans-serif;text-anchor:middle;" transform="matrix(1 0 0 1 2339.98 322)">Bold</text>
  <text style="stroke:none;fill:black;font-family:-apple-system,&quot;SF Pro Display&quot;,&quot;SF Pro Text&quot;,Helvetica,sans-serif;text-anchor:middle;" transform="matrix(1 0 0 1 2636.69 322)">Heavy</text>
  <text style="stroke:none;fill:black;font-family:-apple-system,&quot;SF Pro Display&quot;,&quot;SF Pro Text&quot;,Helvetica,sans-serif;text-anchor:middle;" transform="matrix(1 0 0 1 2933.4 322)">Black</text>
  <line id="" style="fill:none;stroke:black;opacity:1;stroke-width:0.5;" x1="263" x2="3036" y1="1903" y2="1903"/>
  <g id="" transform="matrix(1 0 0 1 263 1933)">
   <path d="M9.24805 0.830078C13.5547 0.830078 17.1387-2.74414 17.1387-7.05078C17.1387-11.3574 13.5449-14.9316 9.23828-14.9316C4.94141-14.9316 1.36719-11.3574 1.36719-7.05078C1.36719-2.74414 4.95117 0.830078 9.24805 0.830078ZM9.24805-0.654297C5.70312-0.654297 2.87109-3.49609 2.87109-7.05078C2.87109-10.6055 5.69336-13.4473 9.23828-13.4473C12.793-13.4473 15.6348-10.6055 15.6445-7.05078C15.6543-3.49609 12.8027-0.654297 9.24805-0.654297ZM6.39648-6.31836L8.50586-6.31836L8.50586-4.19922C8.50586-3.75977 8.79883-3.45703 9.22852-3.45703C9.67773-3.45703 9.9707-3.75977 9.9707-4.19922L9.9707-6.31836L12.0996-6.31836C12.5391-6.31836 12.8418-6.61133 12.8418-7.04102C12.8418-7.48047 12.5391-7.7832 12.0996-7.7832L9.9707-7.7832L9.9707-9.89258C9.9707-10.3418 9.67773-10.6445 9.22852-10.6445C8.79883-10.6445 8.50586-10.3418 8.50586-9.89258L8.50586-7.7832L6.39648-7.7832C5.94727-7.7832 5.64453-7.48047 5.64453-7.04102C5.64453-6.61133 5.94727-6.31836 6.39648-6.31836Z"/>
  </g>
  <g id="" transform="matrix(1 0 0 1 281.506 1933)">
   <path d="M11.709 2.91016C17.1582 2.91016 21.6699-1.61133 21.6699-7.05078C21.6699-12.5 17.1484-17.0117 11.6992-17.0117C6.25977-17.0117 1.74805-12.5 1.74805-7.05078C1.74805-1.61133 6.26953 2.91016 11.709 2.91016ZM11.709 1.25C7.09961 1.25 3.41797-2.44141 3.41797-7.05078C3.41797-11.6602 7.08984-15.3516 11.6992-15.3516C16.3086-15.3516 20-11.6602 20.0098-7.05078C20.0195-2.44141 16.3184 1.25 11.709 1.25ZM7.98828-6.23047L10.8789-6.23047L10.8789-3.32031C10.8789-2.83203 11.2109-2.5 11.6895-2.5C12.1777-2.5 12.5195-2.83203 12.5195-3.32031L12.5195-6.23047L15.4297-6.23047C15.918-6.23047 16.25-6.5625 16.25-7.04102C16.25-7.5293 15.918-7.87109 15.4297-7.87109L12.5195-7.87109L12.5195-10.7617C12.5195-11.2695 12.1777-11.6016 11.6895-11.6016C11.2109-11.6016 10.8789-11.2598 10.8789-10.7617L10.8789-7.87109L7.98828-7.87109C7.48047-7.87109 7.14844-7.5293 7.14844-7.04102C7.14844-6.5625 7.49023-6.23047 7.98828-6.23047Z"/>
  </g>
  <g id="" transform="matrix(1 0 0 1 304.924 1933)">
   <path d="M14.9707 5.66406C21.9336 5.66406 27.6953-0.0976562 27.6953-7.05078C27.6953-14.0137 21.9238-19.7754 14.9609-19.7754C8.00781-19.7754 2.25586-14.0137 2.25586-7.05078C2.25586-0.0976562 8.01758 5.66406 14.9707 5.66406ZM14.9707 3.84766C8.93555 3.84766 4.08203-1.01562 4.08203-7.05078C4.08203-13.0957 8.92578-17.9492 14.9609-17.9492C21.0059-17.9492 25.8594-13.0957 25.8691-7.05078C25.8789-1.01562 21.0156 3.84766 14.9707 3.84766ZM10.0586-6.14258L14.0625-6.14258L14.0625-2.12891C14.0625-1.5918 14.4336-1.2207 14.9512-1.2207C15.4883-1.2207 15.8594-1.5918 15.8594-2.12891L15.8594-6.14258L19.8828-6.14258C20.4102-6.14258 20.791-6.51367 20.791-7.03125C20.791-7.56836 20.4199-7.94922 19.8828-7.94922L15.8594-7.94922L15.8594-11.9531C15.8594-12.5098 15.4883-12.8809 14.9512-12.8809C14.4336-12.8809 14.0625-12.5 14.0625-11.9531L14.0625-7.94922L10.0586-7.94922C9.50195-7.94922 9.13086-7.56836 9.13086-7.03125C9.13086-6.51367 9.51172-6.14258 10.0586-6.14258Z"/>
  </g>
  <text style="stroke:none;fill:black;font-family:-apple-system,&quot;SF Pro Display&quot;,&quot;SF Pro Text&quot;,Helvetica,sans-serif;font-weight:bold;" transform="matrix(1 0 0 1 263 1953)">Design Variations</text>
  <text style="stroke:none;fill:black;font-family:-apple-system,&quot;SF Pro Display&quot;,&quot;SF Pro Text&quot;,Helvetica,sans-serif;" transform="matrix(1 0 0 1 263 1971)">Symbols are supported in up to nine weights and three scales.</text>
  <text style="stroke:none;fill:black;font-family:-apple-system,&quot;SF Pro Display&quot;,&quot;SF Pro Text&quot;,Helvetica,sans-serif;" transform="matrix(1 0 0 1 263 1989)">For optimal layout with text and other symbols, vertically align</text>
  <text style="stroke:none;fill:black;font-family:-apple-system,&quot;SF Pro Display&quot;,&quot;SF Pro Text&quot;,Helvetica,sans-serif;" transform="matrix(1 0 0 1 263 2007)">symbols with the adjacent text.</text>
  <line id="" style="fill:none;stroke:#00AEEF;stroke-width:0.5;opacity:1.0;" x1="776" x2="776" y1="1919" y2="1933"/>
  <g id="" transform="matrix(1 0 0 1 776 1933)">
   <path d="M3.31055 0.126953C3.82812 0.126953 4.08203-0.0683594 4.26758-0.605469L5.52734-4.0625L11.2891-4.0625L12.5488-0.605469C12.7344-0.0683594 12.9883 0.126953 13.4961 0.126953C14.0137 0.126953 14.3457-0.185547 14.3457-0.673828C14.3457-0.839844 14.3164-0.986328 14.2383-1.20117L9.6582-13.3887C9.43359-13.9941 9.0332-14.2871 8.4082-14.2871C7.80273-14.2871 7.39258-13.9941 7.17773-13.3984L2.59766-1.19141C2.51953-0.976562 2.49023-0.830078 2.49023-0.664062C2.49023-0.175781 2.80273 0.126953 3.31055 0.126953ZM6.00586-5.53711L8.37891-12.1094L8.42773-12.1094L10.8008-5.53711Z"/>
  </g>
  <line id="" style="fill:none;stroke:#00AEEF;stroke-width:0.5;opacity:1.0;" x1="792.836" x2="792.836" y1="1919" y2="1933"/>
  <text style="stroke:none;fill:black;font-family:-apple-system,&quot;SF Pro Display&quot;,&quot;SF Pro Text&quot;,Helvetica,sans-serif;font-weight:bold;" transform="matrix(1 0 0 1 776 1953)">Margins</text>
  <text style="stroke:none;fill:black;font-family:-apple-system,&quot;SF Pro Display&quot;,&quot;SF Pro Text&quot;,Helvetica,sans-serif;" transform="matrix(1 0 0 1 776 1971)">Leading and trailing margins on the left and right side of each symbol</text>
  <text style="stroke:none;fill:black;font-family:-apple-system,&quot;SF Pro Display&quot;,&quot;SF Pro Text&quot;,Helvetica,sans-serif;" transform="matrix(1 0 0 1 776 1989)">can be adjusted by modifying the x-location of the margin guidelines.</text>
  <text style="stroke:none;fill:black;font-family:-apple-system,&quot;SF Pro Display&quot;,&quot;SF Pro Text&quot;,Helvetica,sans-serif;" transform="matrix(1 0 0 1 776 2007)">Modifications are automatically applied proportionally to all</text>
  <text style="stroke:none;fill:black;font-family:-apple-system,&quot;SF Pro Display&quot;,&quot;SF Pro Text&quot;,Helvetica,sans-serif;" transform="matrix(1 0 0 1 776 2025)">scales and weights.</text>
  <g id="" transform="matrix(1 0 0 1 1289 1933)">
   <path d="M2.8418 1.86523L4.54102 3.57422C5.40039 4.44336 6.38672 4.38477 7.31445 3.35938L17.4902-7.85156C17.7539-7.76367 18.0273-7.7832 18.3398-7.8418L19.4043-8.03711L20.0684-7.36328L20.0293-6.80664C19.9902-6.30859 20.1172-5.92773 20.6055-5.44922L21.3672-4.70703C21.8457-4.22852 22.4609-4.19922 22.9297-4.66797L25.8398-7.58789C26.3086-8.05664 26.2891-8.65234 25.8105-9.13086L25.0391-9.89258C24.5605-10.3711 24.1895-10.5273 23.7109-10.4883L23.1348-10.4395L22.4902-11.0742L22.7344-12.1973C22.8613-12.7637 22.7051-13.2031 22.1191-13.7891L19.9219-15.9766C16.582-19.2969 12.1484-19.2188 9.25781-16.3281C8.83789-15.918 8.80859-15.3418 9.04297-14.9512C9.27734-14.5898 9.73633-14.3555 10.3809-14.5215C11.8457-14.8633 13.3691-14.9219 14.7949-13.9844L14.209-12.5293C14.0137-12.0508 13.9844-11.6504 14.1113-11.2891L3.04688-0.898438C2.06055 0.0195312 1.98242 0.996094 2.8418 1.86523ZM10.752-15.957C13.1836-17.7344 16.4746-17.4316 18.7012-15.2051L21.1328-12.793C21.3672-12.5586 21.4062-12.373 21.3379-12.0312L21.0156-10.5469L22.5195-9.0625L23.5059-9.12109C23.7598-9.13086 23.8379-9.11133 24.0332-8.91602L24.6094-8.33984L22.168-5.89844L21.5918-6.47461C21.3965-6.66992 21.3672-6.74805 21.377-7.01172L21.4453-7.98828L19.9512-9.47266L18.4277-9.21875C18.1055-9.15039 17.959-9.17969 17.7148-9.41406L15.7129-11.416C15.459-11.6504 15.4297-11.8164 15.5859-12.1875L16.4648-14.2773C14.9023-15.7324 12.8711-16.3574 10.8398-15.7617C10.6836-15.7227 10.625-15.8496 10.752-15.957ZM5.27344 2.30469L4.10156 1.14258C3.63281 0.683594 3.74023 0.341797 4.14062-0.0195312L14.9512-10.1953L16.416-8.71094L6.42578 2.27539C6.07422 2.67578 5.74219 2.77344 5.27344 2.30469Z"/>
  </g>
  <text style="stroke:none;fill:black;font-family:-apple-system,&quot;SF Pro Display&quot;,&quot;SF Pro Text&quot;,Helvetica,sans-serif;font-weight:bold;" transform="matrix(1 0 0 1 1289 1953)">Exporting</text>
  <text style="stroke:none;fill:black;font-family:-apple-system,&quot;SF Pro Display&quot;,&quot;SF Pro Text&quot;,Helvetica,sans-serif;" transform="matrix(1 0 0 1 1289 1971)">Symbols should be outlined when exporting to ensure the</text>
  <text style="stroke:none;fill:black;font-family:-apple-system,&quot;SF Pro Display&quot;,&quot;SF Pro Text&quot;,Helvetica,sans-serif;" transform="matrix(1 0 0 1 1289 1989)">design is preserved when submitting to Xcode.</text>
  <text id="template-version" style="stroke:none;fill:black;font-family:-apple-system,&quot;SF Pro Display&quot;,&quot;SF Pro Text&quot;,Helvetica,sans-serif;text-anchor:end;" transform="matrix(1 0 0 1 3036 1933)">Template v.2.0</text>
  <text style="stroke:none;fill:black;font-family:-apple-system,&quot;SF Pro Display&quot;,&quot;SF Pro Text&quot;,Helvetica,sans-serif;text-anchor:end;" transform="matrix(1 0 0 1 3036 1951)">Requires Xcode 12 or greater</text>
  <text style="stroke:none;fill:black;font-family:-apple-system,&quot;SF Pro Display&quot;,&quot;SF Pro Text&quot;,Helvetica,sans-serif;text-anchor:end;" transform="matrix(1 0 0 1 3036 1969)">Generated from cloud.moon.fill</text>
  <text style="stroke:none;fill:black;font-family:-apple-system,&quot;SF Pro Display&quot;,&quot;SF Pro Text&quot;,Helvetica,sans-serif;text-anchor:end;" transform="matrix(1 0 0 1 3036 1987)">Typeset at 100 points</text>
  <text style="stroke:none;fill:black;font-family:-apple-system,&quot;SF Pro Display&quot;,&quot;SF Pro Text&quot;,Helvetica,sans-serif;" transform="matrix(1 0 0 1 263 726)">Small</text>
  <text style="stroke:none;fill:black;font-family:-apple-system,&quot;SF Pro Display&quot;,&quot;SF Pro Text&quot;,Helvetica,sans-serif;" transform="matrix(1 0 0 1 263 1156)">Medium</text>
  <text style="stroke:none;fill:black;font-family:-apple-system,&quot;SF Pro Display&quot;,&quot;SF Pro Text&quot;,Helvetica,sans-serif;" transform="matrix(1 0 0 1 263 1586)">Large</text>
 </g>
 <g id="Guides">
  <g id="H-reference" style="fill:#27AAE1;stroke:none;" transform="matrix(1 0 0 1 339 696)">
   <path d="M0.976562 0L3.66211 0L12.9883-24.4629L45.752-24.4629L55.127 0L57.7637 0L30.6152-70.459L28.125-70.459ZM29.3457-67.1387L29.4434-67.1387L44.873-26.709L13.8672-26.709Z"/>
  </g>
  <line id="Baseline-S" style="fill:none;stroke:#27AAE1;opacity:1;stroke-width:0.5;" x1="263" x2="3036" y1="696" y2="696"/>
  <line id="Capline-S" style="fill:none;stroke:#27AAE1;opacity:1;stroke-width:0.5;" x1="263" x2="3036" y1="625.541" y2="625.541"/>
  <g id="H-reference" style="fill:#27AAE1;stroke:none;" transform="matrix(1 0 0 1 339 1126)">
   <path d="M0.976562 0L3.66211 0L12.9883-24.4629L45.752-24.4629L55.127 0L57.7637 0L30.6152-70.459L28.125-70.459ZM29.3457-67.1387L29.4434-67.1387L44.873-26.709L13.8672-26.709Z"/>
  </g>
  <line id="Baseline-M" style="fill:none;stroke:#27AAE1;opacity:1;stroke-width:0.5;" x1="263" x2="3036" y1="1126" y2="1126"/>
  <line id="Capline-M" style="fill:none;stroke:#27AAE1;opacity:1;stroke-width:0.5;" x1="263" x2="3036" y1="1055.54" y2="1055.54"/>
  <g id="H-reference" style="fill:#27AAE1;stroke:none;" transform="matrix(1 0 0 1 339 1556)">
   <path d="M0.976562 0L3.66211 0L12.9883-24.4629L45.752-24.4629L55.127 0L57.7637 0L30.6152-70.459L28.125-70.459ZM29.3457-67.1387L29.4434-67.1387L44.873-26.709L13.8672-26.709Z"/>
  </g>
  <line id="Baseline-L" style="fill:none;stroke:#27AAE1;opacity:1;stroke-width:0.5;" x1="263" x2="3036" y1="1556" y2="1556"/>
  <line id="Capline-L" style="fill:none;stroke:#27AAE1;opacity:1;stroke-width:0.5;" x1="263" x2="3036" y1="1485.54" y2="1485.54"/>
  <line id="left-margin" style="fill:none;stroke:#00AEEF;stroke-width:0.5;opacity:1.0;" x1="1382.75" x2="1382.75" y1="1030.79" y2="1150.12"/>
  <line id="right-margin" style="fill:none;stroke:#FF3B30;stroke-width:0.5;opacity:1.0;" x1="1516.93" x2="1516.93" y1="1030.79" y2="1150.12"/>
 </g>
 <g id="Symbols">
  <g id="Black-L" transform="matrix(1 0 0 1 2842.24 1556)">
   <path d="M158.643-25.9277C177.344-31.2012 189.111-47.3145 189.111-58.7891C189.111-61.7188 187.939-63.8184 185.596-63.8184C181.885-63.8184 176.953-59.8633 167.48-59.7656C152.93-59.668 143.848-68.6523 143.848-82.1777C143.848-91.3574 147.607-97.9004 147.607-101.904C147.607-104.102 146.094-105.615 143.506-105.566C132.91-105.322 115.625-93.3105 111.328-74.9512C114.111-72.3145 116.553-69.043 118.555-65.0879C138.184-64.209 156.494-48.584 158.643-25.9277ZM39.1113 12.8418L114.844 12.8418C133.301 12.8418 147.266-1.51367 147.266-20.5078C147.266-40.2344 132.422-54.7363 112.061-54.6387C105.615-66.7969 93.2617-77.5391 73.3398-77.5391C50.6836-77.5391 32.0801-60.791 30.2246-38.6719C18.7012-35.5957 11.2793-25.6836 11.2793-13.3789C11.2793 2.24609 22.5586 12.8418 39.1113 12.8418Z"/>
  </g>
  <g id="Heavy-L" transform="matrix(1 0 0 1 2546.7 1556)">
   <path d="M155.029-24.6094C174.219-29.4922 185.791-45.6055 185.791-56.5918C185.791-59.3262 184.668-61.3281 182.471-61.3281C178.955-61.3281 174.023-57.4219 164.844-57.373C150-57.2754 140.723-66.4062 140.723-80.127C140.723-89.0625 144.629-95.459 144.629-99.2188C144.629-101.367 143.164-102.783 140.576-102.734C129.541-102.344 113.184-89.8926 109.229-72.0215C111.768-69.6289 114.014-66.6016 115.869-62.8418C135.742-61.8164 153.271-46.3379 155.029-24.6094ZM38.5742 12.5L112.549 12.5C130.811 12.5 144.727-1.61133 144.727-20.166C144.727-39.2578 130.078-53.3691 110.156-53.3203C103.418-65.9668 90.918-76.123 72.1191-76.123C50.0977-76.123 31.7871-59.5703 29.9805-37.793C18.6035-34.7168 11.2793-25.0488 11.2793-13.0371C11.2793 2.14844 22.3633 12.5 38.5742 12.5Z"/>
  </g>
  <g id="Bold-L" transform="matrix(1 0 0 1 2251.28 1556)">
   <path d="M151.025-23.1934C170.703-27.6367 182.08-43.6523 182.08-54.1504C182.08-56.6895 180.957-58.5449 178.906-58.5449C175.635-58.5449 170.703-54.6875 161.865-54.6875C146.777-54.5898 137.256-63.8672 137.256-77.7832C137.256-86.4746 141.26-92.7734 141.26-96.2402C141.26-98.291 139.844-99.6582 137.305-99.5605C125.781-99.0234 110.4-86.1328 106.885-68.7988C109.131-66.6016 111.182-63.8672 112.891-60.3516C133.008-59.1309 149.658-43.8477 151.025-23.1934ZM37.9395 12.0605L110.01 12.0605C128.027 12.0605 141.846-1.75781 141.846-19.7754C141.846-38.1836 127.441-51.8555 107.959-51.8555C101.025-65.0879 88.3301-74.5605 70.8008-74.5605C49.3652-74.5605 31.4941-58.2031 29.6387-36.8164C18.457-33.6914 11.2793-24.2676 11.2793-12.6465C11.2793 2.00195 22.1191 12.0605 37.9395 12.0605Z"/>
  </g>
  <g id="Semibold-L" transform="matrix(1 0 0 1 1955.47 1556)">
   <path d="M148.242-22.168C168.262-26.3672 179.541-42.2852 179.541-52.4902C179.541-54.8828 178.467-56.5918 176.465-56.5918C173.389-56.5918 168.408-52.832 159.814-52.7832C144.58-52.7832 134.863-62.1582 134.863-76.2207C134.863-84.7168 138.916-90.8691 138.916-94.1895C138.916-96.1914 137.598-97.4609 135.059-97.3633C123.193-96.6797 108.496-83.5449 105.273-66.5527C107.373-64.502 109.277-61.9629 110.84-58.6426C131.152-57.3242 147.119-42.0898 148.242-22.168ZM37.5 11.7676L108.252 11.7676C126.123 11.7676 139.893-1.85547 139.893-19.5312C139.893-37.4512 125.635-50.7812 106.494-50.8301C99.3164-64.4531 86.5723-73.4375 69.873-73.4375C48.877-73.4375 31.2988-57.2754 29.4434-36.1328C18.3594-33.0078 11.2793-23.7793 11.2793-12.4023C11.2793 1.95312 21.9238 11.7676 37.5 11.7676Z"/>
  </g>
  <g id="Medium-L" transform="matrix(1 0 0 1 1659.42 1556)">
   <path d="M146.094-21.4355C166.406-25.3906 177.588-41.3086 177.588-51.2207C177.588-53.5156 176.514-55.1758 174.609-55.1758C171.68-55.1758 166.699-51.416 158.252-51.416C142.871-51.3672 133.057-60.791 133.057-75C133.057-83.3496 137.158-89.4531 137.158-92.6758C137.158-94.5801 135.84-95.8008 133.398-95.7031C121.191-94.9707 107.08-81.543 104.053-64.8438C106.006-62.9395 107.764-60.498 109.277-57.3242C129.736-55.9082 145.215-40.7715 146.094-21.4355ZM37.207 11.5723L106.934 11.5723C124.658 11.5723 138.379-1.9043 138.379-19.3359C138.379-36.8652 124.268-50 105.322-50.0488C98.0469-63.9648 85.2051-72.6074 69.1406-72.6074C48.5352-72.6074 31.1035-56.543 29.2969-35.5957C18.3105-32.5195 11.2793-23.3887 11.2793-12.207C11.2793 1.9043 21.8262 11.5723 37.207 11.5723Z"/>
  </g>
  <g id="Regular-L" transform="matrix(1 0 0 1 1363.61 1556)">
   <path d="M143.359-20.459C164.014-24.0723 175.049-39.9414 175.049-49.5117C175.049-51.709 174.023-53.2715 172.217-53.2715C169.434-53.2715 164.404-49.5605 156.25-49.5605C140.674-49.5605 130.713-59.082 130.713-73.4375C130.713-81.5918 134.863-87.6465 134.863-90.625C134.863-92.5293 133.594-93.6523 131.152-93.5547C118.652-92.6758 105.176-79.0039 102.441-62.6465C104.199-60.8887 105.859-58.6426 107.275-55.6152C127.881-54.0527 142.773-39.0625 143.359-20.459ZM36.7676 11.2793L105.225 11.2793C122.754 11.2793 136.426-2.00195 136.426-19.043C136.426-36.1328 122.461-48.9746 103.857-49.0234C96.3867-63.3789 83.4473-71.5332 68.2617-71.5332C48.0469-71.5332 30.9082-55.6152 29.0527-34.9121C18.2129-31.8359 11.2793-22.9004 11.2793-11.9141C11.2793 1.80664 21.6797 11.2793 36.7676 11.2793Z"/>
  </g>
  <g id="Light-L" transform="matrix(1 0 0 1 1067.37 1556)">
   <path d="M141.357-20.8984C163.33-24.8047 173.438-40.5762 173.438-49.0723C173.438-50.8301 172.51-52.0996 170.947-52.0996C168.604-52.0996 162.988-48.8281 155.566-48.8281C139.697-48.8281 129.395-58.6426 129.395-73.4375C129.395-81.3477 133.203-87.3047 133.203-89.8438C133.203-91.6016 132.031-92.5781 129.688-92.3828C115.967-91.0156 104.346-76.3672 102.344-60.5957C103.857-58.9355 105.176-56.9824 106.348-54.3945C126.172-52.9785 140.43-39.2578 141.357-20.8984ZM35.9375 10.1562L104.688 10.1562C121.826 10.1562 135.254-2.7832 135.254-19.3359C135.254-35.9375 121.533-48.4375 103.223-48.4375C95.6543-63.1348 82.9102-71.2891 67.7246-71.2891C47.9004-71.2891 31.1035-55.3711 29.3945-34.7168C18.3105-31.7383 11.2793-22.9492 11.2793-12.207C11.2793 0.976562 21.3379 10.1562 35.9375 10.1562Z"/>
  </g>
  <g id="Thin-L" transform="matrix(1 0 0 1 771.266 1556)">
   <path d="M138.623-21.5332C162.402-25.7812 171.289-41.3574 171.289-48.4375C171.289-49.707 170.557-50.5371 169.336-50.5371C167.48-50.5371 161.133-47.8516 154.639-47.8516C138.428-47.8516 127.686-58.1055 127.686-73.3887C127.686-80.957 130.957-86.8652 130.957-88.7695C130.957-90.3809 129.98-91.1621 127.686-90.8691C112.402-88.7695 103.174-72.9492 102.197-57.8613C103.418-56.3965 104.297-54.834 105.176-52.7344C123.975-51.5137 137.305-39.5508 138.623-21.5332ZM34.8145 8.69141L104.004 8.69141C120.557 8.69141 133.691-3.80859 133.691-19.6777C133.691-35.7422 120.264-47.7539 102.344-47.7051C94.6289-62.8418 82.2266-70.9961 67.0898-70.9961C47.7539-70.9961 31.3965-55.0781 29.7852-34.4727C18.457-31.5918 11.2793-23.0957 11.2793-12.5977C11.2793-0.0976562 20.9473 8.69141 34.8145 8.69141Z"/>
  </g>
  <g id="Ultralight-L" transform="matrix(1 0 0 1 474.848 1556)">
   <path d="M137.256-21.8262C161.914-26.2695 170.215-41.748 170.215-48.1445C170.215-49.1699 169.531-49.7559 168.506-49.7559C166.943-49.7559 160.156-47.3145 154.199-47.3145C137.793-47.3145 126.807-57.8125 126.807-73.3887C126.807-80.7617 129.834-86.6211 129.834-88.2324C129.834-89.7461 128.906-90.3809 126.66-90.0391C110.596-87.6465 102.588-71.1914 102.1-56.4941C103.174-55.0781 103.857-53.7109 104.59-51.9043C122.852-50.7324 135.742-39.6973 137.256-21.8262ZM34.2285 7.95898L103.662 7.95898C119.922 7.95898 132.861-4.29688 132.861-19.8242C132.861-35.5957 119.58-47.4121 101.904-47.3145C94.0918-62.6953 81.8359-70.8008 66.748-70.8008C47.6562-70.8008 31.4941-54.8828 30.0293-34.3262C18.5547-31.543 11.2793-23.1445 11.2793-12.7441C11.2793-0.634766 20.7031 7.95898 34.2285 7.95898Z"/>
  </g>
  <g id="Black-M" transform="matrix(1 0 0 1 2861.43 1126)">
   <path d="M126.709-29.9805C141.309-34.7168 150.195-47.2656 150.195-56.1523C150.195-58.4961 149.268-60.1074 147.461-60.1074C144.482-60.1074 140.381-57.1777 133.008-57.1289C121.875-56.9824 114.99-63.9648 114.99-74.3652C114.99-81.6895 117.578-86.8652 117.578-90.0391C117.578-91.7969 116.406-92.9688 114.307-92.9199C106.104-92.6758 92.4805-83.3984 89.0625-68.8477C91.3574-66.5527 93.3594-63.8672 95.0195-60.6934C109.473-60.3516 124.414-48.7305 126.709-29.9805ZM30.6152 1.95312L91.7969 1.95312C106.201 1.95312 116.943-9.375 116.943-24.4141C116.943-40.332 105.273-51.9043 89.1113-51.7578C84.3262-60.6445 75.0977-69.8242 58.2031-69.8242C40.0879-69.8242 25.3418-56.5918 23.9746-38.9648C14.7461-36.6699 8.74023-28.8086 8.74023-18.8965C8.74023-6.49414 17.5781 1.95312 30.6152 1.95312Z"/>
  </g>
  <g id="Heavy-M" transform="matrix(1 0 0 1 2565.86 1126)">
   <path d="M123.291-28.4668C138.037-32.7148 146.973-45.2148 146.973-53.9062C146.973-56.1035 146.094-57.666 144.336-57.666C141.455-57.666 137.5-54.7363 130.322-54.6875C118.994-54.5898 111.914-61.6211 111.914-72.1191C111.914-79.248 114.697-84.3262 114.697-87.3535C114.697-89.0625 113.574-90.1855 111.523-90.1367C103.125-89.8438 90.0391-80.3711 86.8164-66.2109C88.916-64.1113 90.7715-61.6211 92.334-58.5938C107.227-58.0078 121.484-46.2402 123.291-28.4668ZM30.2246 1.80664L89.4531 1.80664C103.711 1.80664 114.453-9.27734 114.453-23.9746C114.453-39.3066 102.979-50.5371 87.1582-50.4883C82.1777-59.8145 72.7051-68.3105 57.0312-68.3105C39.4043-68.3105 25-55.3223 23.584-38.0371C14.5508-35.6934 8.74023-28.0273 8.74023-18.457C8.74023-6.39648 17.4316 1.80664 30.2246 1.80664Z"/>
  </g>
  <g id="Bold-M" transform="matrix(1 0 0 1 2270.45 1126)">
   <path d="M119.482-26.7578C134.424-30.4688 143.408-42.9199 143.408-51.3672C143.408-53.4668 142.48-54.9805 140.82-54.9805C138.135-54.9805 134.326-51.9531 127.246-51.9531C115.723-51.8555 108.496-58.9844 108.496-69.6289C108.496-76.5137 111.523-81.4453 111.523-84.3262C111.523-85.9863 110.4-87.0605 108.398-87.0117C99.8047-86.6699 87.2559-77.002 84.2773-63.2324C86.1816-61.377 87.8906-59.082 89.3066-56.2012C104.785-55.4199 118.213-43.4082 119.482-26.7578ZM29.7852 1.70898L86.8164 1.70898C100.928 1.70898 111.67-9.17969 111.67-23.4863C111.67-38.1836 100.391-49.0234 85.0098-49.0234C79.7363-58.8867 70.0195-66.6504 55.6641-66.6504C38.6719-66.6504 24.6094-53.8574 23.1445-37.0605C14.4043-34.668 8.74023-27.1973 8.74023-17.9688C8.74023-6.29883 17.2852 1.70898 29.7852 1.70898Z"/>
  </g>
  <g id="Semibold-M" transform="matrix(1 0 0 1 1974.61 1126)">
   <path d="M116.846-25.5859C131.885-28.9062 140.918-41.3086 140.918-49.6094C140.918-51.6602 140.039-53.125 138.379-53.125C135.84-53.125 132.08-50.0488 125.146-50.0488C113.477-50 106.152-57.1289 106.152-67.8711C106.152-74.6094 109.326-79.4922 109.326-82.2754C109.326-83.8379 108.252-84.9121 106.25-84.8633C97.5098-84.5215 85.3516-74.6582 82.5195-61.1816C84.2773-59.5215 85.8887-57.373 87.2559-54.5898C103.076-53.6133 115.918-41.4551 116.846-25.5859ZM29.4922 1.61133L85.0098 1.61133C99.0234 1.61133 109.766-9.13086 109.766-23.1445C109.766-37.4023 98.584-47.998 83.4961-47.998C78.0762-58.252 68.2129-65.5273 54.7852-65.5273C38.1836-65.5273 24.3164-52.8809 22.8516-36.3281C14.2578-33.9355 8.74023-26.6113 8.74023-17.627C8.74023-6.20117 17.1875 1.61133 29.4922 1.61133Z"/>
  </g>
  <g id="Medium-M" transform="matrix(1 0 0 1 1678.59 1126)">
   <path d="M114.893-24.6582C129.98-27.7344 139.014-40.1367 139.014-48.291C139.014-50.293 138.184-51.709 136.572-51.709C134.082-51.709 130.42-48.6328 123.584-48.6328C111.768-48.584 104.346-55.7617 104.346-66.5527C104.346-73.1934 107.666-77.9785 107.666-80.6641C107.666-82.2266 106.592-83.252 104.639-83.2031C95.752-82.8613 83.8867-72.9004 81.2012-59.668C82.8613-58.0566 84.375-56.0547 85.6934-53.3691C101.758-52.2461 114.209-39.9902 114.893-24.6582ZM29.2969 1.51367L83.6426 1.51367C97.5586 1.51367 108.301-9.08203 108.301-22.9004C108.301-36.7676 97.2168-47.2168 82.3242-47.2656C76.8066-57.7637 66.7969-64.6484 54.0527-64.6484C37.793-64.6484 24.1211-52.1484 22.6562-35.791C14.1602-33.3496 8.74023-26.1719 8.74023-17.334C8.74023-6.15234 17.0898 1.51367 29.2969 1.51367Z"/>
  </g>
  <g id="Regular-M" transform="matrix(1 0 0 1 1382.75 1126)">
   <path d="M112.256-23.4863C127.539-26.1719 136.572-38.5742 136.572-46.582C136.572-48.4863 135.742-49.8535 134.18-49.8535C131.787-49.8535 128.223-46.7285 121.484-46.7285C109.57-46.7285 102.051-53.9551 102.051-64.8438C102.051-71.3379 105.469-76.0254 105.469-78.6133C105.469-80.127 104.443-81.1523 102.49-81.1035C93.457-80.7129 82.0312-70.6055 79.4434-57.6172C80.957-56.2012 82.4219-54.2969 83.6426-51.7578C100.049-50.4883 111.963-38.0859 112.256-23.4863ZM29.0039 1.46484L81.8359 1.46484C95.6543 1.46484 106.396-9.0332 106.396-22.5586C106.396-36.0352 95.459-46.1426 80.8594-46.2402C75.1465-57.1777 64.9902-63.5254 53.1738-63.5254C37.3047-63.5254 23.8281-51.1719 22.3633-35.1074C14.0625-32.6172 8.74023-25.5859 8.74023-16.9922C8.74023-6.05469 16.9922 1.46484 29.0039 1.46484Z"/>
  </g>
  <g id="Light-M" transform="matrix(1 0 0 1 1086.46 1126)">
   <path d="M110.449-23.9258C126.904-26.8555 135.156-39.1113 135.156-46.1426C135.156-47.7051 134.375-48.8281 133.057-48.8281C131.055-48.8281 126.953-46.0938 120.85-46.0938C108.691-46.0938 100.879-53.5645 100.879-64.8438C100.879-71.0938 103.955-75.7324 103.955-77.8809C103.955-79.2969 103.027-80.1758 101.172-80.0293C91.0645-79.1992 81.25-68.3105 79.3457-55.8105C80.6641-54.4922 81.8359-52.832 82.8125-50.6348C98.5352-49.4629 109.863-38.2812 110.449-23.9258ZM28.2227 0.439453L81.3477 0.439453C94.8242 0.439453 105.322-9.7168 105.322-22.8027C105.322-35.8398 94.5801-45.7031 80.2734-45.752C74.4629-56.9824 64.502-63.2812 52.7344-63.2812C37.207-63.2812 24.0234-50.9277 22.6562-34.9121C14.1602-32.5684 8.74023-25.6836 8.74023-17.2852C8.74023-6.78711 16.6992 0.439453 28.2227 0.439453Z"/>
  </g>
  <g id="Thin-M" transform="matrix(1 0 0 1 790.285 1126)">
   <path d="M108.057-24.4629C126.074-27.6855 133.252-39.7949 133.252-45.6055C133.252-46.6797 132.617-47.4609 131.592-47.4609C130.029-47.4609 125.293-45.2148 120.068-45.2148C107.568-45.2148 99.3164-53.0762 99.3164-64.7949C99.3164-70.752 102.002-75.3418 102.002-76.9531C102.002-78.2227 101.172-78.8574 99.3652-78.6621C87.8906-77.1973 80.2246-65.1855 79.248-53.3691C80.2246-52.1973 81.0547-50.8789 81.7871-49.1699C96.582-48.1445 107.08-38.5254 108.057-24.4629ZM27.1973-0.878906L80.7617-0.878906C93.7012-0.878906 103.955-10.6445 103.955-23.0957C103.955-35.6445 93.457-45.0684 79.4922-45.0684C73.5352-56.6895 63.8672-62.9883 52.1484-62.9883C37.0117-62.9883 24.2676-50.6836 22.998-34.668C14.2578-32.4219 8.74023-25.7812 8.74023-17.5781C8.74023-7.76367 16.3086-0.878906 27.1973-0.878906Z"/>
  </g>
  <g id="Ultralight-M" transform="matrix(1 0 0 1 493.866 1126)">
   <path d="M106.787-24.7559C125.635-28.125 132.275-40.1367 132.275-45.3125C132.275-46.1914 131.689-46.7285 130.859-46.7285C129.541-46.7285 124.414-44.7754 119.629-44.7754C106.982-44.7754 98.5352-52.832 98.5352-64.7949C98.5352-70.6055 100.977-75.1465 100.977-76.4648C100.977-77.6367 100.195-78.2227 98.4863-77.9785C86.2793-76.1719 79.6875-63.623 79.1504-52.0996C80.0293-50.9766 80.6152-49.9023 81.25-48.3887C95.5566-47.4609 105.664-38.623 106.787-24.7559ZM26.709-1.51367L80.4199-1.51367C93.1152-1.51367 103.223-11.1328 103.223-23.2422C103.223-35.5469 92.8711-44.7754 79.1016-44.7266C73.0469-56.543 63.5254-62.8418 51.8066-62.8418C36.9629-62.8418 24.3652-50.5371 23.1934-34.5703C14.3555-32.373 8.74023-25.8301 8.74023-17.7734C8.74023-8.25195 16.1133-1.51367 26.709-1.51367Z"/>
  </g>
  <g id="Black-S" transform="matrix(1 0 0 1 2877.1 696)">
   <path d="M99.0234-31.0059C110.449-34.668 117.432-44.4824 117.432-51.4648C117.432-53.2715 116.699-54.541 115.283-54.541C112.939-54.541 109.766-52.2461 104.004-52.1973C95.2637-52.0996 89.8438-57.5684 89.8438-65.7227C89.8438-71.4355 91.8945-75.4883 91.8945-77.9785C91.8945-79.3457 90.9668-80.2734 89.3555-80.2246C82.9102-80.0293 72.2656-72.7539 69.5801-61.377C71.3867-59.6191 72.9492-57.5195 74.2188-55.0293C85.5957-54.7363 97.2656-45.6055 99.0234-31.0059ZM23.9746-6.10352L71.7285-6.10352C83.0078-6.10352 91.4551-14.9414 91.4551-26.709C91.4551-39.1602 82.3242-48.1934 69.6777-48.0957C65.918-55.0781 58.6426-62.207 45.5078-62.207C31.3477-62.207 19.8242-51.8555 18.75-38.0859C11.5234-36.2793 6.83594-30.127 6.83594-22.4121C6.83594-12.6953 13.7695-6.10352 23.9746-6.10352Z"/>
  </g>
  <g id="Heavy-S" transform="matrix(1 0 0 1 2581.22 696)">
   <path d="M96.6309-29.7852C108.008-33.0566 115.137-42.8711 115.137-49.7559C115.137-51.5625 114.404-52.832 112.988-52.832C110.742-52.832 107.715-50.4395 102.002-50.3906C93.1152-50.3418 87.6465-55.8105 87.6465-64.0137C87.6465-69.5801 89.8926-73.584 89.8926-75.9766C89.8926-77.3438 88.9648-78.2227 87.3535-78.2227C80.9082-78.0273 70.459-70.7031 67.8711-59.5703C69.5312-57.959 71.0449-55.957 72.2656-53.5156C84.082-53.0762 95.2637-43.6523 96.6309-29.7852ZM23.7793-6.10352L69.9707-6.10352C81.2012-6.10352 89.6484-14.7949 89.6484-26.3672C89.6484-38.3789 80.6641-47.2168 68.2617-47.168C64.3555-54.4922 56.8848-61.084 44.6289-61.084C30.8594-61.084 19.5312-50.8789 18.4082-37.4023C11.377-35.5469 6.83594-29.541 6.83594-22.0215C6.83594-12.5488 13.6719-6.10352 23.7793-6.10352Z"/>
  </g>
  <g id="Bold-S" transform="matrix(1 0 0 1 2285.44 696)">
   <path d="M93.9453-28.418C105.322-31.25 112.549-41.0156 112.549-47.9004C112.549-49.6094 111.816-50.8789 110.449-50.8789C108.252-50.8789 105.42-48.3887 99.7559-48.3887C90.7715-48.3398 85.1562-53.8086 85.1562-62.0605C85.1562-67.5293 87.6465-71.4355 87.6465-73.7793C87.6465-75.0977 86.7188-75.9766 85.1562-75.9277C78.6621-75.8301 68.457-68.4082 65.918-57.5195C67.4805-56.0547 68.8965-54.1992 70.0684-51.8555C82.373-51.1719 93.0176-41.5039 93.9453-28.418ZM23.5352-6.05469L68.0176-6.05469C79.1992-6.05469 87.6465-14.6484 87.6465-25.9277C87.6465-37.5488 78.7598-46.0938 66.6504-46.0938C62.5488-53.8086 54.8828-59.8633 43.7012-59.8633C30.3223-59.8633 19.1895-49.8535 18.0664-36.6699C11.2305-34.7656 6.83594-28.9062 6.83594-21.6309C6.83594-12.3535 13.623-6.05469 23.5352-6.05469Z"/>
  </g>
  <g id="Semibold-S" transform="matrix(1 0 0 1 1989.38 696)">
   <path d="M92.0898-27.4902C103.467-30.0293 110.791-39.7949 110.791-46.582C110.791-48.291 110.059-49.5117 108.691-49.5117C106.543-49.5117 103.857-47.0215 98.1934-47.0215C89.1113-46.9727 83.4473-52.4902 83.4473-60.7422C83.4473-66.1133 86.084-69.9219 86.084-72.2656C86.084-73.5352 85.2051-74.4141 83.6426-74.3652C77.0996-74.2676 67.041-66.8457 64.5996-56.1035C66.0645-54.7852 67.4316-52.9785 68.5547-50.7324C81.1523-49.9023 91.4551-39.9902 92.0898-27.4902ZM23.3398-6.05469L66.6992-6.05469C77.7832-6.05469 86.2793-14.5508 86.2793-25.6836C86.2793-36.9629 77.4902-45.3613 65.5762-45.3613C61.3281-53.3203 53.5156-58.9844 43.0176-58.9844C29.9316-58.9844 18.9941-49.1211 17.8223-36.1328C11.1328-34.2285 6.83594-28.418 6.83594-21.3379C6.83594-12.2559 13.5254-6.05469 23.3398-6.05469Z"/>
  </g>
  <g id="Medium-S" transform="matrix(1 0 0 1 1693.16 696)">
   <path d="M90.6738-26.7578C102.051-29.0527 109.424-38.8184 109.424-45.6055C109.424-47.2656 108.74-48.5352 107.373-48.5352C105.273-48.5352 102.637-45.9473 97.0215-45.9473C87.8906-45.9473 82.1777-51.416 82.1777-59.7656C82.1777-65.0391 84.9121-68.7988 84.9121-71.0938C84.9121-72.3633 84.0332-73.2422 82.4707-73.1934C75.9277-73.0957 66.0156-65.6738 63.623-55.0781C64.9902-53.8086 66.3086-52.0996 67.3828-49.8535C80.2734-48.9258 90.2832-38.8672 90.6738-26.7578ZM23.2422-6.00586L65.6738-6.00586C76.7578-6.00586 85.2539-14.4531 85.2539-25.4395C85.2539-36.4746 76.4648-44.7754 64.6973-44.8242C60.4004-52.9785 52.4902-58.3496 42.5293-58.3496C29.6387-58.3496 18.7988-48.5352 17.627-35.7422C11.0352-33.7891 6.83594-28.0762 6.83594-21.1426C6.83594-12.1582 13.4766-6.00586 23.2422-6.00586Z"/>
  </g>
  <g id="Regular-S" transform="matrix(1 0 0 1 1397.09 696)">
   <path d="M88.8184-25.8301C100.195-27.832 107.666-37.5977 107.666-44.3359C107.666-45.9961 106.982-47.2168 105.615-47.2168C103.613-47.2168 101.074-44.5801 95.459-44.5801C86.2305-44.5801 80.4688-50.0977 80.4688-58.4473C80.4688-63.623 83.3496-67.334 83.3496-69.5801C83.3496-70.8008 82.5195-71.6797 80.957-71.6797C74.3652-71.582 64.6484-64.1113 62.3047-53.6621C63.5742-52.4902 64.8438-50.8789 65.8691-48.6816C79.1016-47.6562 88.7207-37.4023 88.8184-25.8301ZM23.0957-6.00586L64.3555-6.00586C75.3418-6.00586 83.8867-14.3555 83.8867-25.1953C83.8867-35.9375 75.1953-44.043 63.623-44.0918C59.2285-52.4902 51.123-57.4707 41.8945-57.4707C29.2969-57.4707 18.6035-47.8027 17.3828-35.2051C10.9375-33.252 6.83594-27.6367 6.83594-20.8496C6.83594-12.0117 13.4277-6.00586 23.0957-6.00586Z"/>
  </g>
  <g id="Light-S" transform="matrix(1 0 0 1 1100.74 696)">
   <path d="M87.207-26.2207C99.6582-28.418 106.396-38.0371 106.396-43.9453C106.396-45.3125 105.762-46.2891 104.639-46.2891C102.93-46.2891 99.9512-43.9941 94.9219-43.9941C85.498-43.9941 79.4434-49.7559 79.4434-58.4473C79.4434-63.4277 82.0312-67.0898 82.0312-68.9453C82.0312-70.0684 81.25-70.8008 79.7363-70.752C72.2656-70.2637 63.916-62.0117 62.207-52.0508C63.2812-50.9766 64.3066-49.6094 65.1855-47.7051C77.7832-46.7773 86.8652-37.5488 87.207-26.2207ZM22.4121-6.88477L63.916-6.88477C74.6094-6.88477 82.9102-14.9902 82.9102-25.3906C82.9102-35.791 74.4629-43.6035 63.1348-43.6523C58.5938-52.3438 50.7324-57.2754 41.4551-57.2754C29.1992-57.2754 18.75-47.6074 17.627-35.0586C11.0352-33.1543 6.83594-27.7344 6.83594-21.0449C6.83594-12.6953 13.1836-6.88477 22.4121-6.88477Z"/>
  </g>
  <g id="Thin-S" transform="matrix(1 0 0 1 804.494 696)">
   <path d="M85.1074-26.709C98.9258-29.1504 104.736-38.6719 104.736-43.457C104.736-44.4336 104.199-45.0684 103.369-45.0684C102.051-45.0684 98.4375-43.2129 94.1895-43.2129C84.4727-43.2129 78.125-49.3164 78.125-58.3984C78.125-63.1348 80.2734-66.748 80.2734-68.1152C80.2734-69.1406 79.5898-69.6777 78.1738-69.5312C69.4336-68.5059 63.0371-59.2773 62.1094-49.9023C62.9395-48.9258 63.623-47.8516 64.2578-46.4355C76.0254-45.6055 84.4238-37.7441 85.1074-26.709ZM21.5332-8.05664L63.3789-8.05664C73.6328-8.05664 81.6895-15.7715 81.6895-25.6348C81.6895-35.5957 73.4375-43.0664 62.4512-43.0664C57.8125-52.0996 50.1465-57.0312 40.9668-57.0312C29.0527-57.0312 18.9453-47.3633 17.9688-34.8633C11.1328-33.0566 6.83594-27.832 6.83594-21.3379C6.83594-13.5254 12.8418-8.05664 21.5332-8.05664Z"/>
  </g>
  <g id="Ultralight-S" transform="matrix(1 0 0 1 508.051 696)">
   <path d="M83.9844-26.9531C98.5352-29.541 103.857-39.0137 103.857-43.2129C103.857-43.9453 103.418-44.4336 102.686-44.4336C101.611-44.4336 97.7051-42.8223 93.8477-42.8223C83.9355-42.8223 77.3926-49.0723 77.3926-58.3984C77.3926-62.9883 79.3457-66.5527 79.3457-67.6758C79.3457-68.6035 78.7598-69.0918 77.3926-68.8965C68.0176-67.5781 62.5488-57.9102 62.0117-48.7793C62.7441-47.9004 63.2812-46.9727 63.7695-45.752C75.0977-45.0195 83.1543-37.8418 83.9844-26.9531ZM21.0449-8.64258L63.0859-8.64258C73.0957-8.64258 81.0547-16.2109 81.0547-25.7812C81.0547-35.498 72.9004-42.7734 62.1094-42.7246C57.373-52.002 49.8535-56.9336 40.6738-56.9336C28.9551-56.9336 19.043-47.2656 18.1152-34.7656C11.2305-33.0078 6.83594-27.8809 6.83594-21.4844C6.83594-13.9648 12.6953-8.64258 21.0449-8.64258Z"/>
  </g>
 </g>
</svg>
