<?xml version="1.0" encoding="UTF-8"?>
<!--Generator: Apple Native CoreSVG 149-->
<!DOCTYPE svg
PUBLIC "-//W3C//DTD SVG 1.1//EN"
       "http://www.w3.org/Graphics/SVG/1.1/DTD/svg11.dtd">
<svg version="1.1" xmlns="http://www.w3.org/2000/svg" xmlns:xlink="http://www.w3.org/1999/xlink" width="3300" height="2200">
 <!--glyph: "uni1001C7.medium", point size: 100.000000, font version: "Version 16.0d18e1", template writer version: "8"-->
 <g id="Notes">
  <rect height="2200" id="artboard" style="fill:white;opacity:1" width="3300" x="0" y="0"/>
  <line id="" style="fill:none;stroke:black;opacity:1;stroke-width:0.5;" x1="263" x2="3036" y1="292" y2="292"/>
  <text style="stroke:none;fill:black;font-family:-apple-system,&quot;SF Pro Display&quot;,&quot;SF Pro Text&quot;,Helvetica,sans-serif;font-weight:bold;" transform="matrix(1 0 0 1 263 322)">Weight/Scale Variations</text>
  <text style="stroke:none;fill:black;font-family:-apple-system,&quot;SF Pro Display&quot;,&quot;SF Pro Text&quot;,Helvetica,sans-serif;text-anchor:middle;" transform="matrix(1 0 0 1 559.711 322)">Ultralight</text>
  <text style="stroke:none;fill:black;font-family:-apple-system,&quot;SF Pro Display&quot;,&quot;SF Pro Text&quot;,Helvetica,sans-serif;text-anchor:middle;" transform="matrix(1 0 0 1 856.422 322)">Thin</text>
  <text style="stroke:none;fill:black;font-family:-apple-system,&quot;SF Pro Display&quot;,&quot;SF Pro Text&quot;,Helvetica,sans-serif;text-anchor:middle;" transform="matrix(1 0 0 1 1153.13 322)">Light</text>
  <text style="stroke:none;fill:black;font-family:-apple-system,&quot;SF Pro Display&quot;,&quot;SF Pro Text&quot;,Helvetica,sans-serif;text-anchor:middle;" transform="matrix(1 0 0 1 1449.84 322)">Regular</text>
  <text style="stroke:none;fill:black;font-family:-apple-system,&quot;SF Pro Display&quot;,&quot;SF Pro Text&quot;,Helvetica,sans-serif;text-anchor:middle;" transform="matrix(1 0 0 1 1746.56 322)">Medium</text>
  <text style="stroke:none;fill:black;font-family:-apple-system,&quot;SF Pro Display&quot;,&quot;SF Pro Text&quot;,Helvetica,sans-serif;text-anchor:middle;" transform="matrix(1 0 0 1 2043.27 322)">Semibold</text>
  <text style="stroke:none;fill:black;font-family:-apple-system,&quot;SF Pro Display&quot;,&quot;SF Pro Text&quot;,Helvetica,sans-serif;text-anchor:middle;" transform="matrix(1 0 0 1 2339.98 322)">Bold</text>
  <text style="stroke:none;fill:black;font-family:-apple-system,&quot;SF Pro Display&quot;,&quot;SF Pro Text&quot;,Helvetica,sans-serif;text-anchor:middle;" transform="matrix(1 0 0 1 2636.69 322)">Heavy</text>
  <text style="stroke:none;fill:black;font-family:-apple-system,&quot;SF Pro Display&quot;,&quot;SF Pro Text&quot;,Helvetica,sans-serif;text-anchor:middle;" transform="matrix(1 0 0 1 2933.4 322)">Black</text>
  <line id="" style="fill:none;stroke:black;opacity:1;stroke-width:0.5;" x1="263" x2="3036" y1="1903" y2="1903"/>
  <g id="" transform="matrix(1 0 0 1 263 1933)">
   <path d="M9.24805 0.830078C13.5547 0.830078 17.1387-2.74414 17.1387-7.05078C17.1387-11.3574 13.5449-14.9316 9.23828-14.9316C4.94141-14.9316 1.36719-11.3574 1.36719-7.05078C1.36719-2.74414 4.95117 0.830078 9.24805 0.830078ZM9.24805-0.654297C5.70312-0.654297 2.87109-3.49609 2.87109-7.05078C2.87109-10.6055 5.69336-13.4473 9.23828-13.4473C12.793-13.4473 15.6348-10.6055 15.6445-7.05078C15.6543-3.49609 12.8027-0.654297 9.24805-0.654297ZM6.39648-6.31836L8.50586-6.31836L8.50586-4.19922C8.50586-3.75977 8.79883-3.45703 9.22852-3.45703C9.67773-3.45703 9.9707-3.75977 9.9707-4.19922L9.9707-6.31836L12.0996-6.31836C12.5391-6.31836 12.8418-6.61133 12.8418-7.04102C12.8418-7.48047 12.5391-7.7832 12.0996-7.7832L9.9707-7.7832L9.9707-9.89258C9.9707-10.3418 9.67773-10.6445 9.22852-10.6445C8.79883-10.6445 8.50586-10.3418 8.50586-9.89258L8.50586-7.7832L6.39648-7.7832C5.94727-7.7832 5.64453-7.48047 5.64453-7.04102C5.64453-6.61133 5.94727-6.31836 6.39648-6.31836Z"/>
  </g>
  <g id="" transform="matrix(1 0 0 1 281.506 1933)">
   <path d="M11.709 2.91016C17.1582 2.91016 21.6699-1.61133 21.6699-7.05078C21.6699-12.5 17.1484-17.0117 11.6992-17.0117C6.25977-17.0117 1.74805-12.5 1.74805-7.05078C1.74805-1.61133 6.26953 2.91016 11.709 2.91016ZM11.709 1.25C7.09961 1.25 3.41797-2.44141 3.41797-7.05078C3.41797-11.6602 7.08984-15.3516 11.6992-15.3516C16.3086-15.3516 20-11.6602 20.0098-7.05078C20.0195-2.44141 16.3184 1.25 11.709 1.25ZM7.98828-6.23047L10.8789-6.23047L10.8789-3.32031C10.8789-2.83203 11.2109-2.5 11.6895-2.5C12.1777-2.5 12.5195-2.83203 12.5195-3.32031L12.5195-6.23047L15.4297-6.23047C15.918-6.23047 16.25-6.5625 16.25-7.04102C16.25-7.5293 15.918-7.87109 15.4297-7.87109L12.5195-7.87109L12.5195-10.7617C12.5195-11.2695 12.1777-11.6016 11.6895-11.6016C11.2109-11.6016 10.8789-11.2598 10.8789-10.7617L10.8789-7.87109L7.98828-7.87109C7.48047-7.87109 7.14844-7.5293 7.14844-7.04102C7.14844-6.5625 7.49023-6.23047 7.98828-6.23047Z"/>
  </g>
  <g id="" transform="matrix(1 0 0 1 304.924 1933)">
   <path d="M14.9707 5.66406C21.9336 5.66406 27.6953-0.0976562 27.6953-7.05078C27.6953-14.0137 21.9238-19.7754 14.9609-19.7754C8.00781-19.7754 2.25586-14.0137 2.25586-7.05078C2.25586-0.0976562 8.01758 5.66406 14.9707 5.66406ZM14.9707 3.84766C8.93555 3.84766 4.08203-1.01562 4.08203-7.05078C4.08203-13.0957 8.92578-17.9492 14.9609-17.9492C21.0059-17.9492 25.8594-13.0957 25.8691-7.05078C25.8789-1.01562 21.0156 3.84766 14.9707 3.84766ZM10.0586-6.14258L14.0625-6.14258L14.0625-2.12891C14.0625-1.5918 14.4336-1.2207 14.9512-1.2207C15.4883-1.2207 15.8594-1.5918 15.8594-2.12891L15.8594-6.14258L19.8828-6.14258C20.4102-6.14258 20.791-6.51367 20.791-7.03125C20.791-7.56836 20.4199-7.94922 19.8828-7.94922L15.8594-7.94922L15.8594-11.9531C15.8594-12.5098 15.4883-12.8809 14.9512-12.8809C14.4336-12.8809 14.0625-12.5 14.0625-11.9531L14.0625-7.94922L10.0586-7.94922C9.50195-7.94922 9.13086-7.56836 9.13086-7.03125C9.13086-6.51367 9.51172-6.14258 10.0586-6.14258Z"/>
  </g>
  <text style="stroke:none;fill:black;font-family:-apple-system,&quot;SF Pro Display&quot;,&quot;SF Pro Text&quot;,Helvetica,sans-serif;font-weight:bold;" transform="matrix(1 0 0 1 263 1953)">Design Variations</text>
  <text style="stroke:none;fill:black;font-family:-apple-system,&quot;SF Pro Display&quot;,&quot;SF Pro Text&quot;,Helvetica,sans-serif;" transform="matrix(1 0 0 1 263 1971)">Symbols are supported in up to nine weights and three scales.</text>
  <text style="stroke:none;fill:black;font-family:-apple-system,&quot;SF Pro Display&quot;,&quot;SF Pro Text&quot;,Helvetica,sans-serif;" transform="matrix(1 0 0 1 263 1989)">For optimal layout with text and other symbols, vertically align</text>
  <text style="stroke:none;fill:black;font-family:-apple-system,&quot;SF Pro Display&quot;,&quot;SF Pro Text&quot;,Helvetica,sans-serif;" transform="matrix(1 0 0 1 263 2007)">symbols with the adjacent text.</text>
  <line id="" style="fill:none;stroke:#00AEEF;stroke-width:0.5;opacity:1.0;" x1="776" x2="776" y1="1919" y2="1933"/>
  <g id="" transform="matrix(1 0 0 1 776 1933)">
   <path d="M3.31055 0.126953C3.82812 0.126953 4.08203-0.0683594 4.26758-0.605469L5.52734-4.0625L11.2891-4.0625L12.5488-0.605469C12.7344-0.0683594 12.9883 0.126953 13.4961 0.126953C14.0137 0.126953 14.3457-0.185547 14.3457-0.673828C14.3457-0.839844 14.3164-0.986328 14.2383-1.20117L9.6582-13.3887C9.43359-13.9941 9.0332-14.2871 8.4082-14.2871C7.80273-14.2871 7.39258-13.9941 7.17773-13.3984L2.59766-1.19141C2.51953-0.976562 2.49023-0.830078 2.49023-0.664062C2.49023-0.175781 2.80273 0.126953 3.31055 0.126953ZM6.00586-5.53711L8.37891-12.1094L8.42773-12.1094L10.8008-5.53711Z"/>
  </g>
  <line id="" style="fill:none;stroke:#00AEEF;stroke-width:0.5;opacity:1.0;" x1="792.836" x2="792.836" y1="1919" y2="1933"/>
  <text style="stroke:none;fill:black;font-family:-apple-system,&quot;SF Pro Display&quot;,&quot;SF Pro Text&quot;,Helvetica,sans-serif;font-weight:bold;" transform="matrix(1 0 0 1 776 1953)">Margins</text>
  <text style="stroke:none;fill:black;font-family:-apple-system,&quot;SF Pro Display&quot;,&quot;SF Pro Text&quot;,Helvetica,sans-serif;" transform="matrix(1 0 0 1 776 1971)">Leading and trailing margins on the left and right side of each symbol</text>
  <text style="stroke:none;fill:black;font-family:-apple-system,&quot;SF Pro Display&quot;,&quot;SF Pro Text&quot;,Helvetica,sans-serif;" transform="matrix(1 0 0 1 776 1989)">can be adjusted by modifying the x-location of the margin guidelines.</text>
  <text style="stroke:none;fill:black;font-family:-apple-system,&quot;SF Pro Display&quot;,&quot;SF Pro Text&quot;,Helvetica,sans-serif;" transform="matrix(1 0 0 1 776 2007)">Modifications are automatically applied proportionally to all</text>
  <text style="stroke:none;fill:black;font-family:-apple-system,&quot;SF Pro Display&quot;,&quot;SF Pro Text&quot;,Helvetica,sans-serif;" transform="matrix(1 0 0 1 776 2025)">scales and weights.</text>
  <g id="" transform="matrix(1 0 0 1 1289 1933)">
   <path d="M2.8418 1.86523L4.54102 3.57422C5.40039 4.44336 6.38672 4.38477 7.31445 3.35938L17.4902-7.85156C17.7539-7.76367 18.0273-7.7832 18.3398-7.8418L19.4043-8.03711L20.0684-7.36328L20.0293-6.80664C19.9902-6.30859 20.1172-5.92773 20.6055-5.44922L21.3672-4.70703C21.8457-4.22852 22.4609-4.19922 22.9297-4.66797L25.8398-7.58789C26.3086-8.05664 26.2891-8.65234 25.8105-9.13086L25.0391-9.89258C24.5605-10.3711 24.1895-10.5273 23.7109-10.4883L23.1348-10.4395L22.4902-11.0742L22.7344-12.1973C22.8613-12.7637 22.7051-13.2031 22.1191-13.7891L19.9219-15.9766C16.582-19.2969 12.1484-19.2188 9.25781-16.3281C8.83789-15.918 8.80859-15.3418 9.04297-14.9512C9.27734-14.5898 9.73633-14.3555 10.3809-14.5215C11.8457-14.8633 13.3691-14.9219 14.7949-13.9844L14.209-12.5293C14.0137-12.0508 13.9844-11.6504 14.1113-11.2891L3.04688-0.898438C2.06055 0.0195312 1.98242 0.996094 2.8418 1.86523ZM10.752-15.957C13.1836-17.7344 16.4746-17.4316 18.7012-15.2051L21.1328-12.793C21.3672-12.5586 21.4062-12.373 21.3379-12.0312L21.0156-10.5469L22.5195-9.0625L23.5059-9.12109C23.7598-9.13086 23.8379-9.11133 24.0332-8.91602L24.6094-8.33984L22.168-5.89844L21.5918-6.47461C21.3965-6.66992 21.3672-6.74805 21.377-7.01172L21.4453-7.98828L19.9512-9.47266L18.4277-9.21875C18.1055-9.15039 17.959-9.17969 17.7148-9.41406L15.7129-11.416C15.459-11.6504 15.4297-11.8164 15.5859-12.1875L16.4648-14.2773C14.9023-15.7324 12.8711-16.3574 10.8398-15.7617C10.6836-15.7227 10.625-15.8496 10.752-15.957ZM5.27344 2.30469L4.10156 1.14258C3.63281 0.683594 3.74023 0.341797 4.14062-0.0195312L14.9512-10.1953L16.416-8.71094L6.42578 2.27539C6.07422 2.67578 5.74219 2.77344 5.27344 2.30469Z"/>
  </g>
  <text style="stroke:none;fill:black;font-family:-apple-system,&quot;SF Pro Display&quot;,&quot;SF Pro Text&quot;,Helvetica,sans-serif;font-weight:bold;" transform="matrix(1 0 0 1 1289 1953)">Exporting</text>
  <text style="stroke:none;fill:black;font-family:-apple-system,&quot;SF Pro Display&quot;,&quot;SF Pro Text&quot;,Helvetica,sans-serif;" transform="matrix(1 0 0 1 1289 1971)">Symbols should be outlined when exporting to ensure the</text>
  <text style="stroke:none;fill:black;font-family:-apple-system,&quot;SF Pro Display&quot;,&quot;SF Pro Text&quot;,Helvetica,sans-serif;" transform="matrix(1 0 0 1 1289 1989)">design is preserved when submitting to Xcode.</text>
  <text id="template-version" style="stroke:none;fill:black;font-family:-apple-system,&quot;SF Pro Display&quot;,&quot;SF Pro Text&quot;,Helvetica,sans-serif;text-anchor:end;" transform="matrix(1 0 0 1 3036 1933)">Template v.2.0</text>
  <text style="stroke:none;fill:black;font-family:-apple-system,&quot;SF Pro Display&quot;,&quot;SF Pro Text&quot;,Helvetica,sans-serif;text-anchor:end;" transform="matrix(1 0 0 1 3036 1951)">Requires Xcode 12 or greater</text>
  <text style="stroke:none;fill:black;font-family:-apple-system,&quot;SF Pro Display&quot;,&quot;SF Pro Text&quot;,Helvetica,sans-serif;text-anchor:end;" transform="matrix(1 0 0 1 3036 1969)">Generated from cloud.rain.fill</text>
  <text style="stroke:none;fill:black;font-family:-apple-system,&quot;SF Pro Display&quot;,&quot;SF Pro Text&quot;,Helvetica,sans-serif;text-anchor:end;" transform="matrix(1 0 0 1 3036 1987)">Typeset at 100 points</text>
  <text style="stroke:none;fill:black;font-family:-apple-system,&quot;SF Pro Display&quot;,&quot;SF Pro Text&quot;,Helvetica,sans-serif;" transform="matrix(1 0 0 1 263 726)">Small</text>
  <text style="stroke:none;fill:black;font-family:-apple-system,&quot;SF Pro Display&quot;,&quot;SF Pro Text&quot;,Helvetica,sans-serif;" transform="matrix(1 0 0 1 263 1156)">Medium</text>
  <text style="stroke:none;fill:black;font-family:-apple-system,&quot;SF Pro Display&quot;,&quot;SF Pro Text&quot;,Helvetica,sans-serif;" transform="matrix(1 0 0 1 263 1586)">Large</text>
 </g>
 <g id="Guides">
  <g id="H-reference" style="fill:#27AAE1;stroke:none;" transform="matrix(1 0 0 1 339 696)">
   <path d="M0.976562 0L3.66211 0L12.9883-24.4629L45.752-24.4629L55.127 0L57.7637 0L30.6152-70.459L28.125-70.459ZM29.3457-67.1387L29.4434-67.1387L44.873-26.709L13.8672-26.709Z"/>
  </g>
  <line id="Baseline-S" style="fill:none;stroke:#27AAE1;opacity:1;stroke-width:0.5;" x1="263" x2="3036" y1="696" y2="696"/>
  <line id="Capline-S" style="fill:none;stroke:#27AAE1;opacity:1;stroke-width:0.5;" x1="263" x2="3036" y1="625.541" y2="625.541"/>
  <g id="H-reference" style="fill:#27AAE1;stroke:none;" transform="matrix(1 0 0 1 339 1126)">
   <path d="M0.976562 0L3.66211 0L12.9883-24.4629L45.752-24.4629L55.127 0L57.7637 0L30.6152-70.459L28.125-70.459ZM29.3457-67.1387L29.4434-67.1387L44.873-26.709L13.8672-26.709Z"/>
  </g>
  <line id="Baseline-M" style="fill:none;stroke:#27AAE1;opacity:1;stroke-width:0.5;" x1="263" x2="3036" y1="1126" y2="1126"/>
  <line id="Capline-M" style="fill:none;stroke:#27AAE1;opacity:1;stroke-width:0.5;" x1="263" x2="3036" y1="1055.54" y2="1055.54"/>
  <g id="H-reference" style="fill:#27AAE1;stroke:none;" transform="matrix(1 0 0 1 339 1556)">
   <path d="M0.976562 0L3.66211 0L12.9883-24.4629L45.752-24.4629L55.127 0L57.7637 0L30.6152-70.459L28.125-70.459ZM29.3457-67.1387L29.4434-67.1387L44.873-26.709L13.8672-26.709Z"/>
  </g>
  <line id="Baseline-L" style="fill:none;stroke:#27AAE1;opacity:1;stroke-width:0.5;" x1="263" x2="3036" y1="1556" y2="1556"/>
  <line id="Capline-L" style="fill:none;stroke:#27AAE1;opacity:1;stroke-width:0.5;" x1="263" x2="3036" y1="1485.54" y2="1485.54"/>
  <line id="left-margin" style="fill:none;stroke:#00AEEF;stroke-width:0.5;opacity:1.0;" x1="1385.86" x2="1385.86" y1="1030.79" y2="1150.12"/>
  <line id="right-margin" style="fill:none;stroke:#00AEEF;stroke-width:0.5;opacity:1.0;" x1="1513.83" x2="1513.83" y1="1030.79" y2="1150.12"/>
 </g>
 <g id="Symbols">
  <g id="Black-L" transform="matrix(1 0 0 1 2846.24 1556)">
   <path d="M44.4824-1.80664L123.926-1.80664C146.045-1.80664 163.037-18.5547 163.037-40.2832C163.037-62.3535 145.898-79.1016 123.486-78.9551C115.039-95.3125 100.195-104.15 80.9082-104.15C56.1523-104.15 35.8398-86.4746 32.5195-62.1094C20.0684-57.9102 11.2793-47.168 11.2793-33.0078C11.2793-14.8438 25.0488-1.80664 44.4824-1.80664ZM112.451 49.9512L130.566 18.6523C132.031 16.1621 131.396 12.9395 128.76 11.4258C126.123 9.91211 123.145 10.8887 121.631 13.5742L103.516 44.8242C102.051 47.3145 102.637 50.4883 105.273 52.002C107.91 53.5156 110.986 52.4414 112.451 49.9512ZM62.2559 50L80.4199 18.6523C81.8848 16.1621 81.2012 12.9883 78.6133 11.4746C75.9766 9.96094 72.9492 10.9375 71.4844 13.5742L53.3691 44.8242C51.9043 47.3633 52.4902 50.5371 55.127 52.0508C57.7637 53.5156 60.8398 52.4902 62.2559 50ZM97.6562 32.1289L105.42 18.75C106.836 16.2109 106.201 12.9883 103.564 11.4746C100.879 9.96094 97.998 10.8887 96.4355 13.623L88.623 27.0508C87.207 29.541 87.793 32.666 90.4297 34.1797C93.0664 35.6934 96.1914 34.6191 97.6562 32.1289ZM47.4609 32.1289L55.2246 18.75C56.6895 16.2109 56.0547 13.0371 53.3691 11.4746C50.7324 9.96094 47.8516 10.9375 46.2402 13.623L38.4766 27.0508C37.0117 29.541 37.5977 32.7148 40.2832 34.2285C42.9199 35.6934 46.0449 34.6191 47.4609 32.1289Z"/>
  </g>
  <g id="Heavy-L" transform="matrix(1 0 0 1 2550.68 1556)">
   <path d="M43.3594-2.88086L122.559-2.88086C144.141-2.88086 160.742-19.1895 160.742-40.2832C160.742-61.7188 143.848-77.9297 121.729-77.7832C113.379-94.1895 98.584-103.125 79.6875-103.125C55.3711-103.125 35.2539-85.2539 32.3242-61.1328C19.873-57.1289 11.2793-46.5332 11.2793-32.8125C11.2793-15.332 24.5117-2.88086 43.3594-2.88086ZM110.791 48.0957L129.15 16.4062C130.469 14.0625 129.883 11.1816 127.49 9.81445C125.146 8.44727 122.363 9.32617 120.947 11.7188L102.686 43.3594C101.318 45.7031 101.904 48.584 104.297 49.9512C106.689 51.3184 109.473 50.3906 110.791 48.0957ZM96.0449 30.2246L104.004 16.4551C105.371 14.1602 104.688 11.2305 102.295 9.81445C99.9023 8.44727 97.2168 9.32617 95.752 11.7676L87.793 25.5859C86.4746 27.8809 87.0117 30.7129 89.4531 32.1289C91.8457 33.4961 94.6777 32.5195 96.0449 30.2246ZM60.6445 48.0957L79.0039 16.4062C80.3223 14.1113 79.7363 11.2305 77.3438 9.86328C75 8.44727 72.168 9.32617 70.8008 11.7676L52.4902 43.4082C51.1719 45.752 51.7578 48.584 54.1504 50C56.543 51.3672 59.3262 50.4395 60.6445 48.0957ZM45.8496 30.2734L53.8086 16.5039C55.1758 14.1602 54.541 11.2793 52.1484 9.86328C49.707 8.49609 47.0703 9.32617 45.6055 11.8164L37.6465 25.6348C36.2793 27.8809 36.8652 30.7617 39.3066 32.1777C41.6992 33.5449 44.5312 32.5684 45.8496 30.2734Z"/>
  </g>
  <g id="Bold-L" transform="matrix(1 0 0 1 2255.29 1556)">
   <path d="M42.0898-4.10156L121.045-4.10156C141.992-4.10156 158.105-19.9219 158.105-40.332C158.105-60.9863 141.553-76.5625 119.775-76.416C111.523-92.8711 96.7773-101.953 78.3691-101.953C54.4922-101.953 34.668-83.9355 32.0801-60.0098C19.6777-56.25 11.2793-45.8008 11.2793-32.6172C11.2793-15.8691 23.9258-4.10156 42.0898-4.10156ZM108.984 45.9961L127.539 13.8672C128.76 11.7676 128.223 9.22852 126.074 8.00781C124.023 6.73828 121.533 7.51953 120.215 9.66797L101.709 41.748C100.537 43.8965 101.025 46.4355 103.174 47.6562C105.273 48.877 107.764 48.0957 108.984 45.9961ZM94.1895 28.125L102.393 13.9648C103.662 11.8164 103.076 9.22852 100.928 8.00781C98.7305 6.78711 96.3867 7.51953 95.0684 9.7168L86.8164 23.9746C85.6445 26.0254 86.1328 28.5645 88.3301 29.834C90.4785 31.0059 93.0176 30.2246 94.1895 28.125ZM58.8379 46.0449L77.3926 13.916C78.6133 11.8164 78.0762 9.27734 75.9277 8.00781C73.877 6.78711 71.3379 7.51953 70.0684 9.7168L51.5625 41.7969C50.3906 43.8965 50.8789 46.4355 53.0273 47.7051C55.127 48.9258 57.6172 48.1445 58.8379 46.0449ZM44.043 28.1738L52.2461 13.9648C53.5156 11.8652 52.9297 9.27734 50.7812 8.05664C48.584 6.78711 46.2402 7.56836 44.9219 9.76562L36.6699 24.0234C35.498 26.0742 35.9863 28.6133 38.1836 29.834C40.332 31.0547 42.8711 30.2246 44.043 28.1738Z"/>
  </g>
  <g id="Semibold-L" transform="matrix(1 0 0 1 1959.45 1556)">
   <path d="M41.2109-4.93164L120.02-4.93164C140.527-4.93164 156.348-20.4102 156.348-40.332C156.348-60.498 139.99-75.6836 118.457-75.4883C110.205-91.9922 95.5566-101.172 77.4414-101.172C53.8574-101.172 34.2285-83.0566 31.9336-59.2773C19.5312-55.6641 11.2793-45.3125 11.2793-32.4707C11.2793-16.2598 23.5352-4.93164 41.2109-4.93164ZM107.715 44.5312L126.465 12.1094C127.588 10.2051 127.051 7.91016 125.146 6.73828C123.242 5.61523 120.947 6.25 119.727 8.30078L101.074 40.625C99.9512 42.627 100.439 44.9219 102.393 46.0938C104.346 47.168 106.592 46.4844 107.715 44.5312ZM92.9688 26.6602L101.318 12.207C102.49 10.2051 101.904 7.91016 99.9512 6.73828C97.998 5.61523 95.752 6.29883 94.5801 8.30078L86.1816 22.8516C85.0586 24.7559 85.5469 27.0508 87.5488 28.2227C89.502 29.3457 91.8457 28.6133 92.9688 26.6602ZM57.5684 44.5801L76.3184 12.1582C77.4414 10.2051 76.9043 7.91016 75 6.78711C73.0957 5.66406 70.752 6.29883 69.5801 8.30078L50.9277 40.6738C49.8047 42.6758 50.293 44.9707 52.2949 46.0938C54.1992 47.2168 56.4453 46.5332 57.5684 44.5801ZM42.8223 26.709L51.1719 12.2559C52.3438 10.2539 51.7578 7.91016 49.8047 6.78711C47.8516 5.66406 45.6543 6.29883 44.4336 8.34961L36.0352 22.9004C34.9121 24.8047 35.4004 27.0996 37.4023 28.2715C39.3555 29.3945 41.6992 28.6621 42.8223 26.709Z"/>
  </g>
  <g id="Medium-L" transform="matrix(1 0 0 1 1663.43 1556)">
   <path d="M40.5762-5.56641L119.238-5.56641C139.404-5.56641 154.98-20.8008 154.98-40.332C154.98-60.1074 138.818-74.9512 117.432-74.8047C109.229-91.3086 94.5801-100.537 76.709-100.537C53.418-100.537 33.8867-82.373 31.8359-58.6914C19.4336-55.2246 11.2793-44.9219 11.2793-32.3242C11.2793-16.5527 23.1934-5.56641 40.5762-5.56641ZM92.041 25.5371L100.488 10.8887C101.611 8.98438 101.025 6.83594 99.2188 5.76172C97.3633 4.73633 95.3125 5.32227 94.1895 7.27539L85.6934 22.0215C84.6191 23.7793 85.1074 25.9277 86.9629 27.002C88.8184 28.0273 90.9668 27.3926 92.041 25.5371ZM106.738 43.457L125.635 10.791C126.66 8.98438 126.172 6.88477 124.365 5.81055C122.656 4.73633 120.459 5.32227 119.336 7.22656L100.586 39.7949C99.5117 41.6504 100 43.7988 101.855 44.873C103.613 45.8984 105.713 45.3125 106.738 43.457ZM56.5918 43.5059L75.4883 10.8398C76.5625 9.0332 76.0254 6.88477 74.2676 5.81055C72.5098 4.78516 70.3125 5.37109 69.2383 7.27539L50.4395 39.8438C49.4141 41.6992 49.8535 43.8477 51.709 44.9219C53.4668 45.9473 55.5664 45.3125 56.5918 43.5059ZM41.8945 25.5859L50.3418 10.9375C51.4648 9.0332 50.9277 6.88477 49.0723 5.81055C47.2656 4.78516 45.166 5.37109 44.043 7.27539L35.5469 22.0703C34.4727 23.8281 34.9609 25.9766 36.8164 27.0508C38.6719 28.0762 40.8203 27.4414 41.8945 25.5859Z"/>
  </g>
  <g id="Regular-L" transform="matrix(1 0 0 1 1367.62 1556)">
   <path d="M39.6973-6.39648L118.164-6.39648C137.939-6.39648 153.174-21.2891 153.174-40.332C153.174-59.6191 137.256-74.0723 116.113-73.877C107.959-90.4297 93.3594-99.7559 75.7812-99.7559C52.7832-99.7559 33.4473-81.4453 31.6895-57.959C19.2871-54.6387 11.2793-44.4336 11.2793-32.1777C11.2793-16.8945 22.8027-6.39648 39.6973-6.39648ZM90.7715 24.1211L99.4141 9.17969C100.439 7.42188 99.9023 5.51758 98.291 4.54102C96.6309 3.56445 94.7266 4.10156 93.7012 5.85938L85.0098 20.8984C84.082 22.5586 84.5215 24.4629 86.2305 25.4395C87.8418 26.3672 89.8438 25.7812 90.7715 24.1211ZM105.518 42.041L124.512 9.08203C125.488 7.37305 125 5.51758 123.438 4.54102C121.875 3.61328 119.873 4.10156 118.848 5.81055L99.9512 38.6719C98.9746 40.4297 99.4141 42.334 101.074 43.3105C102.686 44.2383 104.541 43.7012 105.518 42.041ZM40.6738 24.1699L49.2676 9.22852C50.3418 7.4707 49.8047 5.56641 48.1445 4.58984C46.4844 3.61328 44.6289 4.15039 43.5547 5.9082L34.8633 20.9473C33.9355 22.6074 34.375 24.5117 36.084 25.4883C37.7441 26.416 39.6973 25.8301 40.6738 24.1699ZM55.3711 42.0898L74.4141 9.13086C75.3906 7.42188 74.9023 5.56641 73.291 4.58984C71.7285 3.66211 69.7266 4.15039 68.7012 5.85938L49.8047 38.7207C48.8281 40.4785 49.3164 42.3828 50.9277 43.3594C52.5391 44.2871 54.3945 43.75 55.3711 42.0898Z"/>
  </g>
  <g id="Light-L" transform="matrix(1 0 0 1 1071.35 1556)">
   <path d="M38.9648-7.51953L117.822-7.51953C137.207-7.51953 152.295-22.0703 152.295-40.7227C152.295-59.5703 136.523-73.6816 115.723-73.5352C107.52-90.5273 93.1641-99.7559 75.4395-99.7559C52.832-99.7559 33.7891-81.4941 32.0312-57.959C19.4336-54.6875 11.2793-44.6777 11.2793-32.5684C11.2793-17.7734 22.5098-7.51953 38.9648-7.51953ZM103.906 41.2598L123.486 7.37305C124.365 5.95703 123.975 4.44336 122.656 3.66211C121.387 2.88086 119.824 3.27148 118.945 4.78516L99.4141 38.623C98.6328 40.0879 98.9746 41.6016 100.293 42.3828C101.611 43.1641 103.076 42.7246 103.906 41.2598ZM89.1113 23.3887L98.3398 7.4707C99.2188 6.00586 98.7793 4.44336 97.4609 3.66211C96.1426 2.92969 94.6289 3.32031 93.75 4.83398L84.5215 20.8496C83.6914 22.2656 84.0332 23.7793 85.4004 24.5605C86.7188 25.3418 88.2812 24.8535 89.1113 23.3887ZM53.7598 41.3086L73.3398 7.42188C74.2188 5.95703 73.7793 4.44336 72.5098 3.66211C71.2402 2.92969 69.6777 3.32031 68.7988 4.78516L49.2676 38.623C48.4863 40.0879 48.8281 41.6504 50.1465 42.4316C51.4648 43.2129 52.9297 42.7734 53.7598 41.3086ZM38.9648 23.4375L48.1934 7.4707C49.0723 6.00586 48.6328 4.49219 47.3145 3.71094C45.9961 2.92969 44.4824 3.36914 43.6035 4.83398L34.375 20.8496C33.5449 22.2656 33.8867 23.8281 35.2539 24.6094C36.5723 25.3418 38.1348 24.9023 38.9648 23.4375Z"/>
  </g>
  <g id="Thin-L" transform="matrix(1 0 0 1 775.245 1556)">
   <path d="M37.9883-8.98438L117.334-8.98438C136.279-8.98438 151.074-23.1445 151.074-41.2598C151.074-59.4727 135.596-73.1934 115.234-73.0469C106.885-90.5762 92.9199-99.7559 74.9512-99.7559C52.832-99.7559 34.2285-81.4941 32.5195-57.959C19.5801-54.7363 11.2793-44.9219 11.2793-33.0566C11.2793-18.8965 22.168-8.98438 37.9883-8.98438ZM101.807 40.2832L122.119 5.12695C122.803 4.00391 122.51 2.97852 121.631 2.44141C120.801 1.95312 119.775 2.24609 119.092 3.36914L98.7793 38.5254C98.1445 39.6484 98.3398 40.6738 99.2676 41.2109C100.195 41.748 101.172 41.4062 101.807 40.2832ZM51.6113 40.2832L71.9238 5.12695C72.6074 4.00391 72.3633 2.97852 71.4355 2.44141C70.6055 1.95312 69.5801 2.24609 68.8965 3.36914L48.584 38.5254C47.998 39.6484 48.1934 40.6738 49.0723 41.2109C50 41.748 51.0254 41.4062 51.6113 40.2832ZM86.8652 22.4609L96.875 5.22461C97.5586 4.10156 97.3145 3.07617 96.3867 2.49023C95.5566 2.05078 94.5312 2.29492 93.8477 3.4668L83.8379 20.752C83.2031 21.875 83.3984 22.8516 84.3262 23.4375C85.2539 23.9746 86.2793 23.584 86.8652 22.4609ZM36.7188 22.4609L46.7285 5.22461C47.4121 4.10156 47.1191 3.07617 46.1914 2.53906C45.3613 2.05078 44.3359 2.34375 43.6523 3.4668L33.6426 20.752C33.0078 21.875 33.2031 22.9004 34.1309 23.4375C35.0586 23.9746 36.084 23.6328 36.7188 22.4609Z"/>
  </g>
  <g id="Ultralight-L" transform="matrix(1 0 0 1 478.852 1556)">
   <path d="M37.5-9.7168L117.09-9.7168C135.791-9.7168 150.439-23.7305 150.439-41.5039C150.439-59.4727 135.156-72.9492 114.99-72.8027C106.592-90.625 92.7734-99.7559 74.707-99.7559C52.8809-99.7559 34.4727-81.4941 32.8125-57.959C19.6777-54.7363 11.2793-45.0684 11.2793-33.3008C11.2793-19.4824 21.9727-9.7168 37.5-9.7168ZM50.5371 39.7461L71.2402 3.95508C71.8262 3.02734 71.6309 2.24609 70.8984 1.80664C70.3125 1.46484 69.5312 1.70898 68.9453 2.63672L48.2422 38.4277C47.7051 39.4043 47.8516 40.1855 48.5352 40.5762C49.2676 41.0156 50.0488 40.7227 50.5371 39.7461ZM100.732 39.7461L121.436 4.00391C122.021 3.02734 121.826 2.24609 121.094 1.80664C120.459 1.51367 119.727 1.70898 119.141 2.68555L98.4375 38.4277C97.9004 39.4043 98.0469 40.1855 98.7305 40.5762C99.4629 41.0156 100.195 40.7227 100.732 39.7461ZM35.5469 21.9727L45.9473 4.05273C46.5332 3.07617 46.3379 2.34375 45.6543 1.9043C45.0195 1.5625 44.2871 1.80664 43.7012 2.73438L33.3008 20.6543C32.7637 21.6309 32.9102 22.4121 33.5938 22.8027C34.2773 23.2422 35.0586 22.9492 35.5469 21.9727ZM85.7422 22.0215L96.1426 4.05273C96.7285 3.125 96.5332 2.34375 95.8496 1.9043C95.2148 1.5625 94.4824 1.80664 93.8477 2.73438L83.4473 20.6543C82.959 21.6309 83.0566 22.4121 83.7891 22.8516C84.4727 23.2422 85.2051 22.9492 85.7422 22.0215Z"/>
  </g>
  <g id="Black-M" transform="matrix(1 0 0 1 2864.53 1126)">
   <path d="M35.5469-8.44727L97.7051-8.44727C115.381-8.44727 129.004-21.875 129.004-39.3066C129.004-57.0801 115.43-70.6543 97.8516-70.5078C91.1621-83.3984 79.6875-90.0391 64.1602-90.0391C44.5801-90.0391 28.7109-76.5137 25.6836-57.373C15.8691-53.8574 8.74023-45.459 8.74023-33.9844C8.74023-19.2383 20.0195-8.44727 35.5469-8.44727ZM49.6094 32.9102L63.6719 8.64258C64.8926 6.5918 64.3555 3.90625 62.1582 2.63672C59.9609 1.41602 57.5684 2.29492 56.2988 4.49219L42.1875 28.7109C41.0156 30.7617 41.4551 33.3984 43.6523 34.668C45.8496 35.9375 48.3887 34.9609 49.6094 32.9102ZM88.4766 32.9102L102.588 8.64258C103.76 6.5918 103.271 3.90625 101.074 2.63672C98.877 1.41602 96.4355 2.29492 95.166 4.49219L81.1035 28.7109C79.8828 30.7617 80.3223 33.3984 82.5195 34.668C84.7168 35.9375 87.3047 34.9609 88.4766 32.9102ZM38.0371 19.1406L44.0918 8.74023C45.3125 6.64062 44.7754 3.95508 42.627 2.73438C40.4297 1.46484 38.0371 2.29492 36.7188 4.54102L30.6641 14.9414C29.4922 16.9922 29.9316 19.6289 32.1289 20.8984C34.2773 22.168 36.8652 21.1914 38.0371 19.1406ZM76.9531 19.1406L83.0078 8.74023C84.1797 6.64062 83.6914 3.95508 81.4941 2.73438C79.2969 1.46484 76.9043 2.29492 75.5859 4.54102L69.5801 14.9414C68.3594 16.9922 68.7988 19.6289 70.9961 20.8984C73.1934 22.168 75.7812 21.1914 76.9531 19.1406Z"/>
  </g>
  <g id="Heavy-M" transform="matrix(1 0 0 1 2568.96 1126)">
   <path d="M34.5215-9.375L96.2891-9.375C113.477-9.375 126.709-22.3633 126.709-39.2578C126.709-56.3965 113.379-69.4336 96.0449-69.3359C89.4531-82.1289 77.9785-88.916 62.9395-88.916C43.75-88.916 27.9785-75.2441 25.3418-56.2988C15.625-53.0273 8.74023-44.6777 8.74023-33.6914C8.74023-19.5312 19.4824-9.375 34.5215-9.375ZM87.1094 31.0547L101.27 6.64062C102.393 4.73633 101.904 2.24609 99.9023 1.12305C97.9004-0.0488281 95.6055 0.732422 94.4336 2.73438L80.3223 27.1484C79.1992 29.1016 79.6387 31.4941 81.6406 32.666C83.6426 33.7891 85.9863 32.959 87.1094 31.0547ZM48.2422 31.0547L62.4023 6.64062C63.5254 4.73633 63.0371 2.29492 61.0352 1.12305C59.0332-0.0488281 56.7383 0.732422 55.5664 2.7832L41.4062 27.1484C40.332 29.1016 40.7227 31.4941 42.7734 32.666C44.7754 33.8379 47.1191 33.0078 48.2422 31.0547ZM75.6348 17.2363L81.7383 6.68945C82.8613 4.78516 82.373 2.29492 80.3711 1.12305C78.3203 0 76.123 0.732422 74.9023 2.7832L68.75 13.3789C67.6758 15.2832 68.1152 17.7246 70.1172 18.8477C72.1191 20.0195 74.5117 19.1895 75.6348 17.2363ZM36.7188 17.2852L42.8711 6.68945C43.9941 4.78516 43.5059 2.29492 41.4551 1.17188C39.4531 0 37.2559 0.732422 36.0352 2.83203L29.8828 13.3789C28.7598 15.2832 29.1992 17.7246 31.25 18.8965C33.252 20.0195 35.6445 19.1895 36.7188 17.2852Z"/>
  </g>
  <g id="Bold-M" transform="matrix(1 0 0 1 2273.55 1126)">
   <path d="M33.3984-10.3516L94.7266-10.3516C111.328-10.3516 124.121-22.9004 124.121-39.1602C124.121-55.6152 111.084-68.0664 93.9941-67.9688C87.5488-80.6641 76.0742-87.6465 61.5234-87.6465C42.7734-87.6465 27.2461-73.7793 25-55.127C15.3809-52.0508 8.74023-43.8477 8.74023-33.3496C8.74023-19.873 18.8965-10.3516 33.3984-10.3516ZM85.5957 29.0039L99.8535 4.39453C100.83 2.63672 100.391 0.439453 98.584-0.634766C96.7773-1.66016 94.6777-1.02539 93.6035 0.830078L79.3945 25.3906C78.418 27.1973 78.8086 29.3457 80.6641 30.4199C82.4707 31.4453 84.5703 30.7617 85.5957 29.0039ZM74.1211 15.1367L80.3223 4.44336C81.3965 2.63672 80.9082 0.439453 79.0527-0.585938C77.1973-1.66016 75.1953-1.02539 74.1211 0.878906L67.8711 11.6211C66.8457 13.3789 67.2852 15.5273 69.1406 16.6016C70.9473 17.627 73.1445 16.8945 74.1211 15.1367ZM46.7285 29.0039L60.9863 4.39453C61.9629 2.63672 61.5234 0.439453 59.7168-0.585938C57.9102-1.66016 55.8105-0.976562 54.7363 0.830078L40.5273 25.4395C39.5508 27.1973 39.9414 29.3945 41.7969 30.4199C43.6035 31.4453 45.7031 30.7617 46.7285 29.0039ZM35.2539 15.1855L41.4551 4.44336C42.5293 2.68555 42.041 0.488281 40.1855-0.585938C38.3301-1.61133 36.3281-0.976562 35.2539 0.878906L29.0039 11.6699C27.9785 13.3789 28.418 15.5762 30.2734 16.6016C32.0801 17.627 34.2773 16.9434 35.2539 15.1855Z"/>
  </g>
  <g id="Semibold-M" transform="matrix(1 0 0 1 1977.71 1126)">
   <path d="M32.5684-11.0352L93.6523-11.0352C109.863-11.0352 122.363-23.291 122.363-39.0625C122.363-55.0781 109.521-67.1387 92.627-67.041C86.2305-79.6875 74.7559-86.7676 60.5957-86.7676C42.0898-86.7676 26.709-72.8027 24.7559-54.2969C15.1855-51.416 8.74023-43.2617 8.74023-33.1055C8.74023-20.1172 18.5059-11.0352 32.5684-11.0352ZM84.5215 27.5879L98.8281 2.83203C99.8047 1.17188 99.3164-0.830078 97.6562-1.80664C96.0449-2.7832 94.043-2.19727 93.0664-0.488281L78.8086 24.2188C77.832 25.8789 78.2715 27.8809 79.9805 28.8574C81.6406 29.834 83.5938 29.1992 84.5215 27.5879ZM73.0957 13.6719L79.3457 2.88086C80.3711 1.2207 79.8828-0.830078 78.1738-1.80664C76.4648-2.7832 74.5605-2.19727 73.5352-0.488281L67.2363 10.4004C66.3086 12.0117 66.748 14.0137 68.457 15.0391C70.166 15.9668 72.168 15.332 73.0957 13.6719ZM45.6543 27.5879L59.9609 2.83203C60.9375 1.2207 60.498-0.78125 58.8379-1.75781C57.1777-2.73438 55.1758-2.19727 54.1992-0.439453L39.9414 24.2188C39.0137 25.8789 39.4043 27.9297 41.1133 28.9062C42.7734 29.834 44.7266 29.248 45.6543 27.5879ZM34.2285 13.7207L40.5273 2.88086C41.5039 1.2207 41.0156-0.78125 39.3066-1.75781C37.5977-2.73438 35.6934-2.14844 34.668-0.439453L28.418 10.4492C27.4414 12.0605 27.8809 14.0625 29.5898 15.0391C31.2988 16.0156 33.3008 15.3809 34.2285 13.7207Z"/>
  </g>
  <g id="Medium-M" transform="matrix(1 0 0 1 1681.69 1126)">
   <path d="M31.9824-11.5723L92.8711-11.5723C108.74-11.5723 120.996-23.584 120.996-39.0137C120.996-54.6875 108.301-66.4551 91.5527-66.3086C85.2539-78.9551 73.7793-86.084 59.8633-86.084C41.6016-86.084 26.2695-72.0215 24.5605-53.6621C15.0391-50.8789 8.74023-42.8223 8.74023-32.9102C8.74023-20.3125 18.2129-11.5723 31.9824-11.5723ZM72.3145 12.5977L78.6133 1.70898C79.5898 0.0976562 79.1016-1.80664 77.4902-2.73438C75.8789-3.66211 74.0723-3.125 73.1445-1.46484L66.7969 9.52148C65.918 11.0352 66.3086 12.8906 67.9688 13.8184C69.5312 14.7461 71.4355 14.1602 72.3145 12.5977ZM83.6914 26.4648L98.0957 1.61133C98.9746 0.0488281 98.5352-1.75781 96.9727-2.73438C95.459-3.61328 93.5547-3.125 92.627-1.51367L78.3203 23.291C77.4414 24.8535 77.8809 26.7578 79.4434 27.6855C81.0059 28.5645 82.8125 28.0273 83.6914 26.4648ZM33.4961 12.6465L39.7949 1.70898C40.7227 0.146484 40.2344-1.75781 38.6719-2.68555C37.0605-3.61328 35.2539-3.07617 34.2773-1.41602L27.9297 9.52148C27.0508 11.084 27.4902 12.9395 29.1016 13.8672C30.6641 14.7461 32.5684 14.209 33.4961 12.6465ZM44.873 26.5137L59.2285 1.66016C60.1074 0.0976562 59.668-1.75781 58.1543-2.68555C56.5918-3.61328 54.6875-3.07617 53.7598-1.46484L39.502 23.3398C38.5742 24.9023 39.0137 26.8066 40.5762 27.7344C42.1387 28.6133 43.9453 28.0762 44.873 26.5137Z"/>
  </g>
  <g id="Regular-M" transform="matrix(1 0 0 1 1385.86 1126)">
   <path d="M31.2012-12.2559L91.7969-12.2559C107.324-12.2559 119.238-23.9746 119.238-38.9648C119.238-54.1504 106.738-65.5273 90.1855-65.3809C83.9355-77.9785 72.4609-85.2539 58.9355-85.2539C40.918-85.2539 25.7324-71.0449 24.3652-52.832C14.8926-50.2441 8.74023-42.2852 8.74023-32.666C8.74023-20.5566 17.8223-12.2559 31.2012-12.2559ZM71.3379 11.1328L77.6855 0.146484C78.5645-1.36719 78.0762-3.07617 76.6113-3.90625C75.1465-4.78516 73.4863-4.29688 72.6074-2.7832L66.1621 8.30078C65.3809 9.7168 65.7715 11.4258 67.2852 12.3047C68.75 13.0859 70.5078 12.5977 71.3379 11.1328ZM82.666 25.0977L97.0703 0.0976562C97.9492-1.36719 97.5098-3.02734 96.0938-3.90625C94.7266-4.73633 92.9688-4.29688 92.041-2.83203L77.7344 22.0703C76.9043 23.584 77.2949 25.293 78.7598 26.1719C80.1758 26.9531 81.8359 26.5137 82.666 25.0977ZM32.4707 11.1816L38.8184 0.195312C39.6973-1.31836 39.2578-3.02734 37.793-3.85742C36.2793-4.73633 34.6191-4.24805 33.7402-2.73438L27.3438 8.34961C26.5137 9.76562 26.9531 11.4746 28.418 12.3047C29.8828 13.1348 31.6406 12.6465 32.4707 11.1816ZM43.7988 25.1465L58.252 0.146484C59.082-1.31836 58.6426-2.97852 57.2754-3.85742C55.8594-4.6875 54.0527-4.24805 53.2227-2.7832L38.8672 22.1191C38.0371 23.6328 38.4766 25.3418 39.9414 26.2207C41.3574 27.002 43.0176 26.5625 43.7988 25.1465Z"/>
  </g>
  <g id="Light-M" transform="matrix(1 0 0 1 1089.56 1126)">
   <path d="M30.5176-13.2812L91.4551-13.2812C106.641-13.2812 118.408-24.6582 118.408-39.3066C118.408-54.1016 106.152-65.1855 89.8438-65.0879C83.5449-78.0273 72.3145-85.2539 58.6426-85.2539C40.918-85.2539 26.0254-71.0449 24.6582-52.832C14.9902-50.293 8.74023-42.4316 8.74023-33.0078C8.74023-21.2891 17.5781-13.2812 30.5176-13.2812ZM81.25 24.4141L96.1426-1.46484C96.875-2.68555 96.5332-4.00391 95.4102-4.6875C94.2871-5.37109 92.9199-5.0293 92.1387-3.75977L77.2949 22.0215C76.5625 23.291 76.9043 24.6582 78.0762 25.3418C79.1992 26.0254 80.5664 25.6348 81.25 24.4141ZM69.8242 10.5469L76.709-1.36719C77.4414-2.63672 77.0508-4.00391 75.8789-4.6875C74.707-5.37109 73.3887-4.98047 72.6562-3.71094L65.7227 8.25195C65.0391 9.42383 65.332 10.791 66.5527 11.5234C67.7246 12.1582 69.0918 11.7676 69.8242 10.5469ZM42.3828 24.4141L57.3242-1.41602C58.0078-2.63672 57.666-3.95508 56.543-4.6875C55.4199-5.32227 54.0039-4.98047 53.2715-3.71094L38.4277 22.0703C37.7441 23.291 38.0371 24.6582 39.209 25.3906C40.332 26.0254 41.6992 25.6348 42.3828 24.4141ZM30.957 10.5469L37.8418-1.36719C38.5742-2.58789 38.2324-3.95508 37.0605-4.6875C35.8398-5.32227 34.5215-4.98047 33.7891-3.71094L26.8555 8.30078C26.1719 9.47266 26.4648 10.8398 27.6855 11.5234C28.8574 12.207 30.2734 11.7676 30.957 10.5469Z"/>
  </g>
  <g id="Thin-M" transform="matrix(1 0 0 1 793.385 1126)">
   <path d="M29.6387-14.5508L91.0156-14.5508C105.811-14.5508 117.334-25.6348 117.334-39.7949C117.334-54.0527 105.322-64.7461 89.4043-64.6484C82.959-78.125 72.0703-85.2539 58.2031-85.2539C40.9668-85.2539 26.4648-71.0938 25.0977-52.832C15.1367-50.3418 8.74023-42.6758 8.74023-33.4473C8.74023-22.3145 17.2363-14.5508 29.6387-14.5508ZM79.3457 23.4863L94.9219-3.4668C95.5078-4.39453 95.2637-5.27344 94.4824-5.76172C93.75-6.20117 92.8223-5.95703 92.2363-5.0293L76.709 21.9238C76.1719 22.9004 76.3672 23.7793 77.1484 24.2676C77.9297 24.7559 78.8574 24.4629 79.3457 23.4863ZM40.4785 23.4863L56.0547-3.4668C56.6406-4.39453 56.3965-5.27344 55.6152-5.76172C54.8828-6.20117 53.9551-5.95703 53.3691-4.98047L37.793 21.9238C37.3047 22.9004 37.5 23.7793 38.2812 24.2676C39.0625 24.7559 39.9414 24.4629 40.4785 23.4863ZM67.8223 9.7168L75.3906-3.41797C75.9766-4.3457 75.7324-5.27344 74.9512-5.71289C74.1699-6.15234 73.291-5.9082 72.7051-4.93164L65.0879 8.1543C64.5996 9.08203 64.7949 10.0098 65.5762 10.4492C66.3574 10.9375 67.2852 10.6445 67.8223 9.7168ZM28.9551 9.7168L36.5234-3.36914C37.1094-4.3457 36.8652-5.22461 36.0352-5.71289C35.3027-6.15234 34.4238-5.9082 33.8379-4.93164L26.2207 8.1543C25.6836 9.08203 25.8789 10.0098 26.709 10.498C27.4902 10.9375 28.418 10.6445 28.9551 9.7168Z"/>
  </g>
  <g id="Ultralight-M" transform="matrix(1 0 0 1 496.967 1126)">
   <path d="M29.1992-15.2344L90.8203-15.2344C105.371-15.2344 116.748-26.123 116.748-40.0391C116.748-54.0039 104.883-64.5508 89.1602-64.4043C82.7148-78.125 71.9238-85.2539 57.959-85.2539C40.9668-85.2539 26.6602-71.0938 25.3418-52.832C15.2344-50.3418 8.74023-42.8223 8.74023-33.6426C8.74023-22.8516 17.0898-15.2344 29.1992-15.2344ZM39.502 23.0469L55.4199-4.49219C55.9082-5.27344 55.7129-5.95703 55.127-6.34766C54.5898-6.64062 53.9062-6.44531 53.418-5.66406L37.5 21.875C37.0605 22.7051 37.207 23.3398 37.793 23.7305C38.3789 24.0723 39.0625 23.8281 39.502 23.0469ZM78.3691 23.0469L94.2871-4.49219C94.8242-5.27344 94.6289-5.95703 93.9941-6.34766C93.457-6.64062 92.8223-6.44531 92.2852-5.66406L76.3672 21.875C75.9766 22.7051 76.0742 23.3398 76.6602 23.7305C77.2949 24.0723 77.9785 23.8281 78.3691 23.0469ZM27.8809 9.27734L35.8398-4.44336C36.3281-5.22461 36.1328-5.9082 35.5469-6.25C35.0098-6.54297 34.3262-6.39648 33.8379-5.56641L25.8789 8.10547C25.4883 8.93555 25.5859 9.57031 26.2207 9.96094C26.8066 10.3027 27.4902 10.0586 27.8809 9.27734ZM66.7969 9.27734L74.7559-4.44336C75.2441-5.22461 75.0488-5.9082 74.4141-6.25C73.877-6.54297 73.2422-6.39648 72.7539-5.56641L64.7949 8.10547C64.3555 8.93555 64.502 9.57031 65.0879 9.96094C65.6738 10.3027 66.3574 10.0586 66.7969 9.27734Z"/>
  </g>
  <g id="Black-S" transform="matrix(1 0 0 1 2879.54 696)">
   <path d="M27.7832-14.3066L76.416-14.3066C90.2344-14.3066 100.879-24.8047 100.879-38.4277C100.879-52.2949 90.2832-62.8906 76.5137-62.793C71.2891-72.8516 62.3047-78.0762 50.1465-78.0762C34.8633-78.0762 22.4121-67.4805 20.0684-52.4902C12.4023-49.7559 6.83594-43.1641 6.83594-34.2285C6.83594-22.7051 15.625-14.3066 27.7832-14.3066ZM38.7695 18.0176L49.8047-0.976562C50.7324-2.58789 50.3418-4.6875 48.6328-5.66406C46.9238-6.64062 45.0195-5.95703 44.043-4.24805L33.0078 14.7461C32.0801 16.3574 32.4219 18.4082 34.1309 19.3848C35.8398 20.3613 37.8418 19.6289 38.7695 18.0176ZM69.2383 18.0176L80.2734-0.976562C81.2012-2.58789 80.8105-4.6875 79.1016-5.66406C77.3926-6.64062 75.4883-5.95703 74.5117-4.24805L63.4766 14.7461C62.5488 16.3574 62.8906 18.4082 64.5996 19.3848C66.3086 20.3613 68.3105 19.6289 69.2383 18.0176ZM29.7363 7.22656L34.4727-0.927734C35.4004-2.53906 35.0098-4.63867 33.3008-5.61523C31.5918-6.5918 29.7363-5.95703 28.7109-4.19922L23.9746 3.95508C23.0469 5.56641 23.3887 7.61719 25.0977 8.59375C26.8066 9.57031 28.8086 8.83789 29.7363 7.22656ZM60.2051 7.22656L64.9414-0.927734C65.8691-2.53906 65.4785-4.63867 63.7695-5.61523C62.0605-6.5918 60.2051-5.95703 59.1797-4.19922L54.4434 3.95508C53.5156 5.56641 53.8574 7.61719 55.5664 8.59375C57.2754 9.57031 59.2773 8.83789 60.2051 7.22656Z"/>
  </g>
  <g id="Heavy-S" transform="matrix(1 0 0 1 2583.66 696)">
   <path d="M27.0508-14.8926L75.3906-14.8926C88.8672-14.8926 99.2188-25.0977 99.2188-38.3301C99.2188-51.7578 88.7695-62.0117 75.1465-61.9141C70.0195-71.875 61.0352-77.1973 49.2676-77.1973C34.1797-77.1973 21.8262-66.5039 19.7754-51.6602C12.207-49.1211 6.83594-42.5781 6.83594-33.9355C6.83594-22.8516 15.2344-14.8926 27.0508-14.8926ZM68.3594 16.6992L79.3945-2.34375C80.2734-3.85742 79.8828-5.81055 78.2715-6.73828C76.709-7.66602 74.8535-7.08008 73.9258-5.46875L62.9395 13.5742C62.0605 15.0879 62.4023 16.9922 64.0137 17.9199C65.5762 18.8477 67.4805 18.2129 68.3594 16.6992ZM37.8906 16.6992L48.9258-2.34375C49.8047-3.85742 49.4141-5.81055 47.8027-6.73828C46.2402-7.66602 44.3848-7.03125 43.457-5.46875L32.4707 13.5742C31.5918 15.0879 31.9336 17.041 33.5449 17.9688C35.1562 18.8477 37.0117 18.2129 37.8906 16.6992ZM59.375 5.85938L64.1113-2.29492C64.9902-3.85742 64.5996-5.81055 62.9883-6.73828C61.377-7.66602 59.5703-7.08008 58.6426-5.41992L53.9062 2.7832C53.0273 4.29688 53.3691 6.20117 54.9805 7.12891C56.5918 8.05664 58.4961 7.37305 59.375 5.85938ZM28.9062 5.85938L33.6426-2.29492C34.5215-3.80859 34.1309-5.81055 32.5195-6.73828C30.9082-7.61719 29.1504-7.03125 28.1738-5.41992L23.4375 2.7832C22.5586 4.29688 22.9004 6.20117 24.5117 7.12891C26.123 8.05664 28.0273 7.37305 28.9062 5.85938Z"/>
  </g>
  <g id="Bold-S" transform="matrix(1 0 0 1 2287.88 696)">
   <path d="M26.2695-15.5273L74.2188-15.5273C87.3047-15.5273 97.3633-25.4395 97.3633-38.2324C97.3633-51.1719 87.1094-60.9863 73.6328-60.8887C68.6035-70.8008 59.5703-76.2695 48.2422-76.2695C33.4473-76.2695 21.1914-65.3809 19.4824-50.7812C12.0117-48.3887 6.83594-41.8945 6.83594-33.6426C6.83594-23.0469 14.8438-15.5273 26.2695-15.5273ZM67.334 15.1855L78.418-3.90625C79.1992-5.32227 78.8086-7.12891 77.3438-7.95898C75.8789-8.83789 74.1699-8.30078 73.291-6.83594L62.3047 12.207C61.4746 13.6719 61.8164 15.4297 63.3301 16.3086C64.7949 17.1387 66.5039 16.6016 67.334 15.1855ZM58.3984 4.3457L63.1348-3.85742C63.9648-5.32227 63.5742-7.12891 62.0605-7.95898C60.5469-8.83789 58.8867-8.30078 58.0078-6.78711L53.2715 1.41602C52.4414 2.83203 52.7832 4.63867 54.2969 5.46875C55.8105 6.34766 57.5684 5.76172 58.3984 4.3457ZM36.9141 15.1855L47.9492-3.85742C48.7793-5.32227 48.3887-7.08008 46.9238-7.95898C45.459-8.83789 43.7012-8.30078 42.8711-6.78711L31.8359 12.2559C31.0059 13.6719 31.3965 15.4785 32.8613 16.3574C34.3262 17.1875 36.084 16.6504 36.9141 15.1855ZM27.9785 4.3457L32.666-3.80859C33.5449-5.27344 33.1055-7.08008 31.6406-7.95898C30.127-8.78906 28.4668-8.30078 27.5879-6.78711L22.8027 1.46484C21.9727 2.88086 22.3633 4.63867 23.877 5.51758C25.3418 6.34766 27.1484 5.76172 27.9785 4.3457Z"/>
  </g>
  <g id="Semibold-S" transform="matrix(1 0 0 1 1991.83 696)">
   <path d="M25.7324-15.9668L73.4375-15.9668C86.2305-15.9668 96.0449-25.6348 96.0449-38.1348C96.0449-50.7812 85.9375-60.3027 72.6074-60.2051C67.627-70.0195 58.5938-75.5859 47.5586-75.5859C32.9102-75.5859 20.8008-64.5996 19.2871-50.1465C11.8652-47.8516 6.83594-41.4551 6.83594-33.4473C6.83594-23.1445 14.5508-15.9668 25.7324-15.9668ZM57.7637 3.27148L62.4512-4.93164C63.2812-6.29883 62.8906-8.00781 61.4746-8.83789C60.0098-9.66797 58.4473-9.17969 57.5684-7.71484L52.832 0.537109C52.0508 1.85547 52.3926 3.51562 53.8574 4.3457C55.2734 5.12695 56.9824 4.63867 57.7637 3.27148ZM66.6504 14.1602L77.7344-4.98047C78.5156-6.29883 78.125-8.00781 76.709-8.83789C75.3418-9.61914 73.6816-9.17969 72.8516-7.76367L61.8652 11.3281C61.084 12.6953 61.4258 14.3555 62.8418 15.1855C64.2578 16.0156 65.8691 15.5273 66.6504 14.1602ZM27.2949 3.27148L32.0312-4.88281C32.8613-6.25 32.4219-7.95898 31.0059-8.78906C29.5898-9.61914 27.9785-9.13086 27.1484-7.71484L22.4121 0.537109C21.6309 1.85547 21.9727 3.56445 23.4375 4.39453C24.8535 5.17578 26.5137 4.63867 27.2949 3.27148ZM36.2305 14.1602L47.2656-4.93164C48.0469-6.29883 47.6562-7.95898 46.2891-8.78906C44.9219-9.61914 43.2129-9.13086 42.4316-7.71484L31.4453 11.3281C30.6641 12.7441 31.0059 14.4043 32.4219 15.2344C33.7891 16.0156 35.4492 15.5273 36.2305 14.1602Z"/>
  </g>
  <g id="Medium-S" transform="matrix(1 0 0 1 1695.6 696)">
   <path d="M25.293-16.3086L72.8516-16.3086C85.4492-16.3086 95.0684-25.8301 95.0684-38.0859C95.0684-50.4883 85.0586-59.8145 71.8262-59.7168C66.8945-69.4336 57.8613-75.0977 47.0215-75.0977C32.5195-75.0977 20.459-64.0625 19.0918-49.6582C11.7188-47.4609 6.83594-41.1133 6.83594-33.252C6.83594-23.2422 14.3555-16.3086 25.293-16.3086ZM57.2266 2.44141L61.9629-5.71289C62.7441-7.08008 62.3535-8.69141 60.9863-9.47266C59.6191-10.2539 58.0566-9.81445 57.2754-8.44727L52.4902-0.195312C51.7578 1.07422 52.0996 2.68555 53.5156 3.4668C54.8828 4.24805 56.4941 3.75977 57.2266 2.44141ZM66.1133 13.3789L77.1973-5.76172C77.9297-7.08008 77.5879-8.64258 76.2695-9.47266C74.9512-10.2539 73.3398-9.81445 72.5098-8.44727L61.5234 10.5957C60.791 11.9629 61.1328 13.5742 62.5 14.3555C63.8184 15.1367 65.3809 14.6484 66.1133 13.3789ZM26.8066 2.49023L31.543-5.66406C32.3242-7.03125 31.9336-8.64258 30.5664-9.42383C29.1504-10.2539 27.6367-9.76562 26.8555-8.39844L22.0703-0.146484C21.3379 1.12305 21.6797 2.73438 23.0957 3.51562C24.4141 4.29688 26.0742 3.80859 26.8066 2.49023ZM35.6934 13.4277L46.7773-5.71289C47.5098-7.03125 47.1191-8.59375 45.8008-9.42383C44.4824-10.2051 42.8711-9.76562 42.0898-8.39844L31.1035 10.6445C30.3711 12.0117 30.7129 13.623 32.0801 14.4043C33.3984 15.1367 34.9609 14.6973 35.6934 13.4277Z"/>
  </g>
  <g id="Regular-S" transform="matrix(1 0 0 1 1399.53 696)">
   <path d="M24.7559-16.748L72.0703-16.748C84.375-16.748 93.7988-26.0254 93.7988-37.9883C93.7988-50.0977 83.9355-59.1309 70.8008-59.0332C65.9668-68.7012 56.8359-74.4141 46.3379-74.4141C32.0312-74.4141 20.0195-63.2812 18.8965-49.0234C11.5723-46.9727 6.83594-40.6738 6.83594-33.0566C6.83594-23.3398 14.0625-16.748 24.7559-16.748ZM56.5918 1.41602L61.3281-6.78711C62.0605-8.05664 61.6699-9.57031 60.4004-10.3027C59.082-11.084 57.6172-10.6445 56.8359-9.375L52.0996-1.07422C51.3672 0.0976562 51.7578 1.61133 53.0762 2.39258C54.3457 3.07617 55.9082 2.63672 56.5918 1.41602ZM65.4297 12.3535L76.5137-6.83594C77.2461-8.05664 76.8555-9.52148 75.6348-10.3027C74.4141-11.0352 72.8516-10.6445 72.0703-9.375L61.1328 9.7168C60.4004 10.9863 60.791 12.5 62.0605 13.2324C63.2812 13.9648 64.7461 13.5742 65.4297 12.3535ZM26.1719 1.46484L30.9082-6.73828C31.6406-8.00781 31.25-9.52148 29.9805-10.3027C28.6621-11.0352 27.1973-10.5957 26.416-9.32617L21.6309-1.02539C20.9473 0.146484 21.3379 1.66016 22.6562 2.39258C23.9258 3.125 25.4883 2.68555 26.1719 1.46484ZM35.0098 12.4023L46.0938-6.78711C46.8262-8.00781 46.4355-9.47266 45.2148-10.2539C43.9941-10.9863 42.3828-10.5957 41.6504-9.32617L30.7129 9.76562C29.9805 11.0352 30.3711 12.5488 31.6406 13.2812C32.8613 14.0137 34.3262 13.623 35.0098 12.4023Z"/>
  </g>
  <g id="Light-S" transform="matrix(1 0 0 1 1103.18 696)">
   <path d="M24.1699-17.627L71.7773-17.627C83.7891-17.627 93.0664-26.709 93.0664-38.2812C93.0664-50.0488 83.3984-58.8379 70.5078-58.7402C65.5762-68.75 56.6895-74.4141 46.0449-74.4141C32.0312-74.4141 20.2637-63.2812 19.1895-49.0234C11.6699-47.0215 6.83594-40.8203 6.83594-33.3496C6.83594-24.0234 13.8672-17.627 24.1699-17.627ZM55.2734 0.878906L60.4492-8.10547C61.084-9.22852 60.7422-10.4004 59.7168-11.0352C58.6914-11.6211 57.5195-11.2793 56.8848-10.2051L51.6602-1.12305C51.0742-0.146484 51.3672 1.07422 52.3926 1.66016C53.418 2.24609 54.6875 1.9043 55.2734 0.878906ZM64.209 11.7676L75.6836-8.1543C76.3184-9.22852 76.0254-10.4004 75-10.9863C74.0234-11.5723 72.8027-11.2793 72.168-10.2051L60.6934 9.66797C60.1074 10.7422 60.4004 11.9141 61.4258 12.5488C62.4512 13.1348 63.5742 12.793 64.209 11.7676ZM24.8535 0.878906L30.0293-8.10547C30.6641-9.17969 30.3223-10.3516 29.2969-10.9863C28.2715-11.5723 27.0996-11.2305 26.4648-10.1562L21.2402-1.12305C20.6543-0.0976562 20.8984 1.12305 21.9727 1.70898C22.998 2.29492 24.2188 1.95312 24.8535 0.878906ZM33.7402 11.7676L45.2637-8.1543C45.8496-9.17969 45.5566-10.3516 44.5801-10.9863C43.6035-11.5723 42.334-11.2793 41.6992-10.1562L30.2734 9.66797C29.6875 10.7422 29.9805 11.9629 31.0059 12.5488C31.9824 13.1348 33.1543 12.8418 33.7402 11.7676Z"/>
  </g>
  <g id="Thin-S" transform="matrix(1 0 0 1 806.935 696)">
   <path d="M23.3887-18.7988L71.3867-18.7988C83.0566-18.7988 92.1387-27.5391 92.1387-38.7207C92.1387-50 82.666-58.4473 70.1172-58.3496C65.0879-68.7988 56.4941-74.4141 45.6543-74.4141C32.0801-74.4141 20.6055-63.3301 19.5801-49.0234C11.8164-47.0215 6.83594-41.0156 6.83594-33.7402C6.83594-24.9023 13.5742-18.7988 23.3887-18.7988ZM62.5488 10.9375L74.6094-9.96094C75.0977-10.7422 74.9023-11.5234 74.2188-11.9629C73.5352-12.3047 72.7539-12.1094 72.2656-11.3281L60.2051 9.57031C59.7656 10.4004 59.9121 11.1816 60.6445 11.5723C61.3281 12.0117 62.1094 11.7676 62.5488 10.9375ZM32.0801 10.9863L44.1406-9.96094C44.6289-10.7422 44.4336-11.5234 43.75-11.9141C43.1152-12.3047 42.2852-12.1094 41.7969-11.2793L29.7363 9.57031C29.2969 10.4004 29.4922 11.1816 30.1758 11.6211C30.8594 12.0117 31.6406 11.7676 32.0801 10.9863ZM53.5156 0.146484L59.3262-9.91211C59.8145-10.6934 59.5703-11.5234 58.8867-11.9141C58.2031-12.3047 57.4219-12.0605 56.9336-11.2793L51.123-1.2207C50.6836-0.439453 50.8789 0.341797 51.5625 0.78125C52.2461 1.17188 53.0762 0.927734 53.5156 0.146484ZM23.0469 0.146484L28.8574-9.91211C29.3457-10.6934 29.1504-11.4746 28.418-11.9141C27.7832-12.3047 27.002-12.0605 26.4648-11.2793L20.6543-1.2207C20.2148-0.439453 20.4102 0.390625 21.0938 0.78125C21.8262 1.17188 22.6074 0.927734 23.0469 0.146484Z"/>
  </g>
  <g id="Ultralight-S" transform="matrix(1 0 0 1 510.492 696)">
   <path d="M22.998-19.3848L71.1914-19.3848C82.666-19.3848 91.6016-27.9785 91.6016-38.916C91.6016-49.9512 82.2754-58.252 69.9219-58.1543C64.8438-68.8477 56.3965-74.4141 45.459-74.4141C32.0801-74.4141 20.8008-63.3301 19.7754-49.0234C11.9141-47.0703 6.83594-41.1133 6.83594-33.9355C6.83594-25.3906 13.4277-19.3848 22.998-19.3848ZM61.6699 10.5469L74.0723-10.8887C74.4629-11.5234 74.3164-12.1094 73.7793-12.4512C73.291-12.6953 72.7051-12.5488 72.3145-11.8652L59.9121 9.52148C59.5703 10.2051 59.668 10.791 60.2051 11.084C60.7422 11.4258 61.3281 11.2305 61.6699 10.5469ZM31.2012 10.5469L43.6035-10.8887C43.9941-11.5234 43.8477-12.1094 43.3105-12.4512C42.8223-12.6953 42.2363-12.5488 41.8457-11.8652L29.4434 9.52148C29.1016 10.2051 29.1992 10.791 29.7363 11.084C30.2734 11.4258 30.8594 11.2305 31.2012 10.5469ZM52.5879-0.244141L58.7402-10.8398C59.1309-11.4746 58.9844-12.0605 58.4473-12.4023C57.959-12.6465 57.373-12.5 56.9824-11.8164L50.8301-1.26953C50.4883-0.585938 50.5859 0 51.123 0.292969C51.6602 0.634766 52.2461 0.390625 52.5879-0.244141ZM22.1191-0.244141L28.2715-10.8398C28.6621-11.4746 28.5156-12.0605 27.9785-12.4023C27.4902-12.6465 26.9043-12.5 26.5137-11.8164L20.3613-1.26953C20.0195-0.585938 20.1172 0 20.6543 0.292969C21.1914 0.634766 21.7773 0.390625 22.1191-0.244141Z"/>
  </g>
 </g>
</svg>
