<?xml version="1.0" encoding="UTF-8"?>
<!--Generator: Apple Native CoreSVG 149-->
<!DOCTYPE svg
PUBLIC "-//W3C//DTD SVG 1.1//EN"
       "http://www.w3.org/Graphics/SVG/1.1/DTD/svg11.dtd">
<svg version="1.1" xmlns="http://www.w3.org/2000/svg" xmlns:xlink="http://www.w3.org/1999/xlink" width="3300" height="2200">
 <!--glyph: "uni1001DD.medium", point size: 100.000000, font version: "Version 16.0d18e1", template writer version: "8"-->
 <g id="Notes">
  <rect height="2200" id="artboard" style="fill:white;opacity:1" width="3300" x="0" y="0"/>
  <line id="" style="fill:none;stroke:black;opacity:1;stroke-width:0.5;" x1="263" x2="3036" y1="292" y2="292"/>
  <text style="stroke:none;fill:black;font-family:-apple-system,&quot;SF Pro Display&quot;,&quot;SF Pro Text&quot;,Helvetica,sans-serif;font-weight:bold;" transform="matrix(1 0 0 1 263 322)">Weight/Scale Variations</text>
  <text style="stroke:none;fill:black;font-family:-apple-system,&quot;SF Pro Display&quot;,&quot;SF Pro Text&quot;,Helvetica,sans-serif;text-anchor:middle;" transform="matrix(1 0 0 1 559.711 322)">Ultralight</text>
  <text style="stroke:none;fill:black;font-family:-apple-system,&quot;SF Pro Display&quot;,&quot;SF Pro Text&quot;,Helvetica,sans-serif;text-anchor:middle;" transform="matrix(1 0 0 1 856.422 322)">Thin</text>
  <text style="stroke:none;fill:black;font-family:-apple-system,&quot;SF Pro Display&quot;,&quot;SF Pro Text&quot;,Helvetica,sans-serif;text-anchor:middle;" transform="matrix(1 0 0 1 1153.13 322)">Light</text>
  <text style="stroke:none;fill:black;font-family:-apple-system,&quot;SF Pro Display&quot;,&quot;SF Pro Text&quot;,Helvetica,sans-serif;text-anchor:middle;" transform="matrix(1 0 0 1 1449.84 322)">Regular</text>
  <text style="stroke:none;fill:black;font-family:-apple-system,&quot;SF Pro Display&quot;,&quot;SF Pro Text&quot;,Helvetica,sans-serif;text-anchor:middle;" transform="matrix(1 0 0 1 1746.56 322)">Medium</text>
  <text style="stroke:none;fill:black;font-family:-apple-system,&quot;SF Pro Display&quot;,&quot;SF Pro Text&quot;,Helvetica,sans-serif;text-anchor:middle;" transform="matrix(1 0 0 1 2043.27 322)">Semibold</text>
  <text style="stroke:none;fill:black;font-family:-apple-system,&quot;SF Pro Display&quot;,&quot;SF Pro Text&quot;,Helvetica,sans-serif;text-anchor:middle;" transform="matrix(1 0 0 1 2339.98 322)">Bold</text>
  <text style="stroke:none;fill:black;font-family:-apple-system,&quot;SF Pro Display&quot;,&quot;SF Pro Text&quot;,Helvetica,sans-serif;text-anchor:middle;" transform="matrix(1 0 0 1 2636.69 322)">Heavy</text>
  <text style="stroke:none;fill:black;font-family:-apple-system,&quot;SF Pro Display&quot;,&quot;SF Pro Text&quot;,Helvetica,sans-serif;text-anchor:middle;" transform="matrix(1 0 0 1 2933.4 322)">Black</text>
  <line id="" style="fill:none;stroke:black;opacity:1;stroke-width:0.5;" x1="263" x2="3036" y1="1903" y2="1903"/>
  <g id="" transform="matrix(1 0 0 1 263 1933)">
   <path d="M9.24805 0.830078C13.5547 0.830078 17.1387-2.74414 17.1387-7.05078C17.1387-11.3574 13.5449-14.9316 9.23828-14.9316C4.94141-14.9316 1.36719-11.3574 1.36719-7.05078C1.36719-2.74414 4.95117 0.830078 9.24805 0.830078ZM9.24805-0.654297C5.70312-0.654297 2.87109-3.49609 2.87109-7.05078C2.87109-10.6055 5.69336-13.4473 9.23828-13.4473C12.793-13.4473 15.6348-10.6055 15.6445-7.05078C15.6543-3.49609 12.8027-0.654297 9.24805-0.654297ZM6.39648-6.31836L8.50586-6.31836L8.50586-4.19922C8.50586-3.75977 8.79883-3.45703 9.22852-3.45703C9.67773-3.45703 9.9707-3.75977 9.9707-4.19922L9.9707-6.31836L12.0996-6.31836C12.5391-6.31836 12.8418-6.61133 12.8418-7.04102C12.8418-7.48047 12.5391-7.7832 12.0996-7.7832L9.9707-7.7832L9.9707-9.89258C9.9707-10.3418 9.67773-10.6445 9.22852-10.6445C8.79883-10.6445 8.50586-10.3418 8.50586-9.89258L8.50586-7.7832L6.39648-7.7832C5.94727-7.7832 5.64453-7.48047 5.64453-7.04102C5.64453-6.61133 5.94727-6.31836 6.39648-6.31836Z"/>
  </g>
  <g id="" transform="matrix(1 0 0 1 281.506 1933)">
   <path d="M11.709 2.91016C17.1582 2.91016 21.6699-1.61133 21.6699-7.05078C21.6699-12.5 17.1484-17.0117 11.6992-17.0117C6.25977-17.0117 1.74805-12.5 1.74805-7.05078C1.74805-1.61133 6.26953 2.91016 11.709 2.91016ZM11.709 1.25C7.09961 1.25 3.41797-2.44141 3.41797-7.05078C3.41797-11.6602 7.08984-15.3516 11.6992-15.3516C16.3086-15.3516 20-11.6602 20.0098-7.05078C20.0195-2.44141 16.3184 1.25 11.709 1.25ZM7.98828-6.23047L10.8789-6.23047L10.8789-3.32031C10.8789-2.83203 11.2109-2.5 11.6895-2.5C12.1777-2.5 12.5195-2.83203 12.5195-3.32031L12.5195-6.23047L15.4297-6.23047C15.918-6.23047 16.25-6.5625 16.25-7.04102C16.25-7.5293 15.918-7.87109 15.4297-7.87109L12.5195-7.87109L12.5195-10.7617C12.5195-11.2695 12.1777-11.6016 11.6895-11.6016C11.2109-11.6016 10.8789-11.2598 10.8789-10.7617L10.8789-7.87109L7.98828-7.87109C7.48047-7.87109 7.14844-7.5293 7.14844-7.04102C7.14844-6.5625 7.49023-6.23047 7.98828-6.23047Z"/>
  </g>
  <g id="" transform="matrix(1 0 0 1 304.924 1933)">
   <path d="M14.9707 5.66406C21.9336 5.66406 27.6953-0.0976562 27.6953-7.05078C27.6953-14.0137 21.9238-19.7754 14.9609-19.7754C8.00781-19.7754 2.25586-14.0137 2.25586-7.05078C2.25586-0.0976562 8.01758 5.66406 14.9707 5.66406ZM14.9707 3.84766C8.93555 3.84766 4.08203-1.01562 4.08203-7.05078C4.08203-13.0957 8.92578-17.9492 14.9609-17.9492C21.0059-17.9492 25.8594-13.0957 25.8691-7.05078C25.8789-1.01562 21.0156 3.84766 14.9707 3.84766ZM10.0586-6.14258L14.0625-6.14258L14.0625-2.12891C14.0625-1.5918 14.4336-1.2207 14.9512-1.2207C15.4883-1.2207 15.8594-1.5918 15.8594-2.12891L15.8594-6.14258L19.8828-6.14258C20.4102-6.14258 20.791-6.51367 20.791-7.03125C20.791-7.56836 20.4199-7.94922 19.8828-7.94922L15.8594-7.94922L15.8594-11.9531C15.8594-12.5098 15.4883-12.8809 14.9512-12.8809C14.4336-12.8809 14.0625-12.5 14.0625-11.9531L14.0625-7.94922L10.0586-7.94922C9.50195-7.94922 9.13086-7.56836 9.13086-7.03125C9.13086-6.51367 9.51172-6.14258 10.0586-6.14258Z"/>
  </g>
  <text style="stroke:none;fill:black;font-family:-apple-system,&quot;SF Pro Display&quot;,&quot;SF Pro Text&quot;,Helvetica,sans-serif;font-weight:bold;" transform="matrix(1 0 0 1 263 1953)">Design Variations</text>
  <text style="stroke:none;fill:black;font-family:-apple-system,&quot;SF Pro Display&quot;,&quot;SF Pro Text&quot;,Helvetica,sans-serif;" transform="matrix(1 0 0 1 263 1971)">Symbols are supported in up to nine weights and three scales.</text>
  <text style="stroke:none;fill:black;font-family:-apple-system,&quot;SF Pro Display&quot;,&quot;SF Pro Text&quot;,Helvetica,sans-serif;" transform="matrix(1 0 0 1 263 1989)">For optimal layout with text and other symbols, vertically align</text>
  <text style="stroke:none;fill:black;font-family:-apple-system,&quot;SF Pro Display&quot;,&quot;SF Pro Text&quot;,Helvetica,sans-serif;" transform="matrix(1 0 0 1 263 2007)">symbols with the adjacent text.</text>
  <line id="" style="fill:none;stroke:#00AEEF;stroke-width:0.5;opacity:1.0;" x1="776" x2="776" y1="1919" y2="1933"/>
  <g id="" transform="matrix(1 0 0 1 776 1933)">
   <path d="M3.31055 0.126953C3.82812 0.126953 4.08203-0.0683594 4.26758-0.605469L5.52734-4.0625L11.2891-4.0625L12.5488-0.605469C12.7344-0.0683594 12.9883 0.126953 13.4961 0.126953C14.0137 0.126953 14.3457-0.185547 14.3457-0.673828C14.3457-0.839844 14.3164-0.986328 14.2383-1.20117L9.6582-13.3887C9.43359-13.9941 9.0332-14.2871 8.4082-14.2871C7.80273-14.2871 7.39258-13.9941 7.17773-13.3984L2.59766-1.19141C2.51953-0.976562 2.49023-0.830078 2.49023-0.664062C2.49023-0.175781 2.80273 0.126953 3.31055 0.126953ZM6.00586-5.53711L8.37891-12.1094L8.42773-12.1094L10.8008-5.53711Z"/>
  </g>
  <line id="" style="fill:none;stroke:#00AEEF;stroke-width:0.5;opacity:1.0;" x1="792.836" x2="792.836" y1="1919" y2="1933"/>
  <text style="stroke:none;fill:black;font-family:-apple-system,&quot;SF Pro Display&quot;,&quot;SF Pro Text&quot;,Helvetica,sans-serif;font-weight:bold;" transform="matrix(1 0 0 1 776 1953)">Margins</text>
  <text style="stroke:none;fill:black;font-family:-apple-system,&quot;SF Pro Display&quot;,&quot;SF Pro Text&quot;,Helvetica,sans-serif;" transform="matrix(1 0 0 1 776 1971)">Leading and trailing margins on the left and right side of each symbol</text>
  <text style="stroke:none;fill:black;font-family:-apple-system,&quot;SF Pro Display&quot;,&quot;SF Pro Text&quot;,Helvetica,sans-serif;" transform="matrix(1 0 0 1 776 1989)">can be adjusted by modifying the x-location of the margin guidelines.</text>
  <text style="stroke:none;fill:black;font-family:-apple-system,&quot;SF Pro Display&quot;,&quot;SF Pro Text&quot;,Helvetica,sans-serif;" transform="matrix(1 0 0 1 776 2007)">Modifications are automatically applied proportionally to all</text>
  <text style="stroke:none;fill:black;font-family:-apple-system,&quot;SF Pro Display&quot;,&quot;SF Pro Text&quot;,Helvetica,sans-serif;" transform="matrix(1 0 0 1 776 2025)">scales and weights.</text>
  <g id="" transform="matrix(1 0 0 1 1289 1933)">
   <path d="M2.8418 1.86523L4.54102 3.57422C5.40039 4.44336 6.38672 4.38477 7.31445 3.35938L17.4902-7.85156C17.7539-7.76367 18.0273-7.7832 18.3398-7.8418L19.4043-8.03711L20.0684-7.36328L20.0293-6.80664C19.9902-6.30859 20.1172-5.92773 20.6055-5.44922L21.3672-4.70703C21.8457-4.22852 22.4609-4.19922 22.9297-4.66797L25.8398-7.58789C26.3086-8.05664 26.2891-8.65234 25.8105-9.13086L25.0391-9.89258C24.5605-10.3711 24.1895-10.5273 23.7109-10.4883L23.1348-10.4395L22.4902-11.0742L22.7344-12.1973C22.8613-12.7637 22.7051-13.2031 22.1191-13.7891L19.9219-15.9766C16.582-19.2969 12.1484-19.2188 9.25781-16.3281C8.83789-15.918 8.80859-15.3418 9.04297-14.9512C9.27734-14.5898 9.73633-14.3555 10.3809-14.5215C11.8457-14.8633 13.3691-14.9219 14.7949-13.9844L14.209-12.5293C14.0137-12.0508 13.9844-11.6504 14.1113-11.2891L3.04688-0.898438C2.06055 0.0195312 1.98242 0.996094 2.8418 1.86523ZM10.752-15.957C13.1836-17.7344 16.4746-17.4316 18.7012-15.2051L21.1328-12.793C21.3672-12.5586 21.4062-12.373 21.3379-12.0312L21.0156-10.5469L22.5195-9.0625L23.5059-9.12109C23.7598-9.13086 23.8379-9.11133 24.0332-8.91602L24.6094-8.33984L22.168-5.89844L21.5918-6.47461C21.3965-6.66992 21.3672-6.74805 21.377-7.01172L21.4453-7.98828L19.9512-9.47266L18.4277-9.21875C18.1055-9.15039 17.959-9.17969 17.7148-9.41406L15.7129-11.416C15.459-11.6504 15.4297-11.8164 15.5859-12.1875L16.4648-14.2773C14.9023-15.7324 12.8711-16.3574 10.8398-15.7617C10.6836-15.7227 10.625-15.8496 10.752-15.957ZM5.27344 2.30469L4.10156 1.14258C3.63281 0.683594 3.74023 0.341797 4.14062-0.0195312L14.9512-10.1953L16.416-8.71094L6.42578 2.27539C6.07422 2.67578 5.74219 2.77344 5.27344 2.30469Z"/>
  </g>
  <text style="stroke:none;fill:black;font-family:-apple-system,&quot;SF Pro Display&quot;,&quot;SF Pro Text&quot;,Helvetica,sans-serif;font-weight:bold;" transform="matrix(1 0 0 1 1289 1953)">Exporting</text>
  <text style="stroke:none;fill:black;font-family:-apple-system,&quot;SF Pro Display&quot;,&quot;SF Pro Text&quot;,Helvetica,sans-serif;" transform="matrix(1 0 0 1 1289 1971)">Symbols should be outlined when exporting to ensure the</text>
  <text style="stroke:none;fill:black;font-family:-apple-system,&quot;SF Pro Display&quot;,&quot;SF Pro Text&quot;,Helvetica,sans-serif;" transform="matrix(1 0 0 1 1289 1989)">design is preserved when submitting to Xcode.</text>
  <text id="template-version" style="stroke:none;fill:black;font-family:-apple-system,&quot;SF Pro Display&quot;,&quot;SF Pro Text&quot;,Helvetica,sans-serif;text-anchor:end;" transform="matrix(1 0 0 1 3036 1933)">Template v.2.0</text>
  <text style="stroke:none;fill:black;font-family:-apple-system,&quot;SF Pro Display&quot;,&quot;SF Pro Text&quot;,Helvetica,sans-serif;text-anchor:end;" transform="matrix(1 0 0 1 3036 1951)">Requires Xcode 12 or greater</text>
  <text style="stroke:none;fill:black;font-family:-apple-system,&quot;SF Pro Display&quot;,&quot;SF Pro Text&quot;,Helvetica,sans-serif;text-anchor:end;" transform="matrix(1 0 0 1 3036 1969)">Generated from cloud.moon.rain.fill</text>
  <text style="stroke:none;fill:black;font-family:-apple-system,&quot;SF Pro Display&quot;,&quot;SF Pro Text&quot;,Helvetica,sans-serif;text-anchor:end;" transform="matrix(1 0 0 1 3036 1987)">Typeset at 100 points</text>
  <text style="stroke:none;fill:black;font-family:-apple-system,&quot;SF Pro Display&quot;,&quot;SF Pro Text&quot;,Helvetica,sans-serif;" transform="matrix(1 0 0 1 263 726)">Small</text>
  <text style="stroke:none;fill:black;font-family:-apple-system,&quot;SF Pro Display&quot;,&quot;SF Pro Text&quot;,Helvetica,sans-serif;" transform="matrix(1 0 0 1 263 1156)">Medium</text>
  <text style="stroke:none;fill:black;font-family:-apple-system,&quot;SF Pro Display&quot;,&quot;SF Pro Text&quot;,Helvetica,sans-serif;" transform="matrix(1 0 0 1 263 1586)">Large</text>
 </g>
 <g id="Guides">
  <g id="H-reference" style="fill:#27AAE1;stroke:none;" transform="matrix(1 0 0 1 339 696)">
   <path d="M0.976562 0L3.66211 0L12.9883-24.4629L45.752-24.4629L55.127 0L57.7637 0L30.6152-70.459L28.125-70.459ZM29.3457-67.1387L29.4434-67.1387L44.873-26.709L13.8672-26.709Z"/>
  </g>
  <line id="Baseline-S" style="fill:none;stroke:#27AAE1;opacity:1;stroke-width:0.5;" x1="263" x2="3036" y1="696" y2="696"/>
  <line id="Capline-S" style="fill:none;stroke:#27AAE1;opacity:1;stroke-width:0.5;" x1="263" x2="3036" y1="625.541" y2="625.541"/>
  <g id="H-reference" style="fill:#27AAE1;stroke:none;" transform="matrix(1 0 0 1 339 1126)">
   <path d="M0.976562 0L3.66211 0L12.9883-24.4629L45.752-24.4629L55.127 0L57.7637 0L30.6152-70.459L28.125-70.459ZM29.3457-67.1387L29.4434-67.1387L44.873-26.709L13.8672-26.709Z"/>
  </g>
  <line id="Baseline-M" style="fill:none;stroke:#27AAE1;opacity:1;stroke-width:0.5;" x1="263" x2="3036" y1="1126" y2="1126"/>
  <line id="Capline-M" style="fill:none;stroke:#27AAE1;opacity:1;stroke-width:0.5;" x1="263" x2="3036" y1="1055.54" y2="1055.54"/>
  <g id="H-reference" style="fill:#27AAE1;stroke:none;" transform="matrix(1 0 0 1 339 1556)">
   <path d="M0.976562 0L3.66211 0L12.9883-24.4629L45.752-24.4629L55.127 0L57.7637 0L30.6152-70.459L28.125-70.459ZM29.3457-67.1387L29.4434-67.1387L44.873-26.709L13.8672-26.709Z"/>
  </g>
  <line id="Baseline-L" style="fill:none;stroke:#27AAE1;opacity:1;stroke-width:0.5;" x1="263" x2="3036" y1="1556" y2="1556"/>
  <line id="Capline-L" style="fill:none;stroke:#27AAE1;opacity:1;stroke-width:0.5;" x1="263" x2="3036" y1="1485.54" y2="1485.54"/>
  <line id="left-margin" style="fill:none;stroke:#00AEEF;stroke-width:0.5;opacity:1.0;" x1="1382.75" x2="1382.75" y1="1030.79" y2="1150.12"/>
  <line id="right-margin" style="fill:none;stroke:#FF3B30;stroke-width:0.5;opacity:1.0;" x1="1516.93" x2="1516.93" y1="1030.79" y2="1150.12"/>
 </g>
 <g id="Symbols">
  <g id="Black-L" transform="matrix(1 0 0 1 2842.24 1556)">
   <path d="M158.838-31.3965C177.539-36.6699 189.307-52.832 189.307-64.2578C189.307-67.1875 188.086-69.2871 185.791-69.2871C182.031-69.2871 177.148-65.332 167.676-65.2832C153.076-65.1855 144.043-74.1699 144.043-87.6465C144.043-96.875 147.803-103.369 147.803-107.373C147.803-109.619 146.289-111.084 143.652-111.035C133.057-110.791 115.82-98.7793 111.523-80.4688C114.258-77.832 116.748-74.5605 118.75-70.5566C138.33-69.7266 156.689-54.1016 158.838-31.3965ZM39.1113 7.32422L114.844 7.32422C133.301 7.32422 147.266-7.03125 147.266-26.0254C147.266-45.8008 132.422-60.2539 112.061-60.2051C105.615-72.3145 93.2617-83.1055 73.3398-83.1055C50.6836-83.1055 32.0801-66.3574 30.2246-44.1895C18.7012-41.1133 11.2793-31.25 11.2793-18.9453C11.2793-3.32031 22.5586 7.32422 39.1113 7.32422ZM92.627 38.9648L100.391 25.5859C101.855 23.0469 101.221 19.873 98.584 18.3105C95.8984 16.7969 93.0176 17.7734 91.4062 20.459L83.6426 33.8867C82.1777 36.377 82.7637 39.5508 85.4492 41.0645C88.0859 42.5293 91.2109 41.4551 92.627 38.9648ZM42.4805 39.0137L50.2441 25.6348C51.709 23.0957 51.0254 19.873 48.3887 18.3594C45.752 16.8457 42.8223 17.7734 41.2598 20.5078L33.4961 33.9355C32.0312 36.377 32.6172 39.5508 35.3027 41.0645C37.9395 42.5781 41.0645 41.5039 42.4805 39.0137ZM112.549 56.6406L120.312 43.2617C121.777 40.7227 121.094 37.5 118.457 35.9863C115.82 34.4727 112.891 35.4492 111.328 38.1348L103.564 51.5625C102.1 54.0527 102.686 57.1777 105.371 58.6914C108.008 60.2051 111.133 59.1309 112.549 56.6406ZM62.4023 56.6406L70.166 43.2617C71.6309 40.7715 70.9473 37.5488 68.3105 36.0352C65.6738 34.4727 62.7441 35.4492 61.1816 38.1348L53.418 51.5625C51.9531 54.0527 52.5391 57.2266 55.1758 58.7402C57.8613 60.2539 60.9375 59.1797 62.4023 56.6406Z"/>
  </g>
  <g id="Heavy-L" transform="matrix(1 0 0 1 2546.7 1556)">
   <path d="M155.176-30.9082C174.365-35.791 185.938-51.8555 185.938-62.8418C185.938-65.625 184.814-67.5781 182.617-67.5781C179.102-67.5781 174.17-63.6719 164.99-63.623C150.195-63.5254 140.918-72.6562 140.918-86.377C140.918-95.3125 144.775-101.709 144.775-105.518C144.775-107.617 143.311-109.033 140.723-108.984C129.688-108.594 113.33-96.1914 109.375-78.3203C111.914-75.8789 114.16-72.8516 116.064-69.0918C135.889-68.1152 153.418-52.6367 155.176-30.9082ZM38.5742 6.15234L112.549 6.15234C130.811 6.15234 144.727-7.95898 144.727-26.5137C144.727-45.6055 130.078-59.7168 110.156-59.668C103.418-72.3145 90.918-82.4707 72.1191-82.4707C50.0977-82.4707 31.7871-65.918 29.9805-44.1406C18.6035-41.0645 11.2793-31.3965 11.2793-19.3848C11.2793-4.19922 22.3633 6.15234 38.5742 6.15234ZM91.0156 37.5488L98.9746 23.7793C100.342 21.4355 99.707 18.5547 97.3145 17.1387C94.873 15.7715 92.1875 16.6016 90.7715 19.0918L82.7637 32.9102C81.4453 35.1562 81.9824 38.0371 84.4238 39.4531C86.8164 40.7715 89.6973 39.8438 91.0156 37.5488ZM40.8691 37.5488L48.8281 23.8281C50.1953 21.4844 49.5605 18.5547 47.1191 17.1875C44.7266 15.7715 42.041 16.6504 40.625 19.0918L32.6172 32.9102C31.2988 35.2051 31.8359 38.0859 34.2773 39.4531C36.6699 40.8203 39.5508 39.8926 40.8691 37.5488ZM110.889 55.2246L118.848 41.4551C120.215 39.1113 119.58 36.1816 117.188 34.8145C114.746 33.4473 112.109 34.2773 110.645 36.7676L102.637 50.5859C101.318 52.832 101.855 55.7129 104.297 57.0801C106.738 58.4473 109.57 57.5195 110.889 55.2246ZM60.7422 55.2246L68.7012 41.4551C70.0684 39.1602 69.4336 36.2305 67.041 34.8145C64.5996 33.4473 61.9629 34.3262 60.498 36.7676L52.4902 50.5859C51.1719 52.8809 51.709 55.7617 54.1504 57.1289C56.543 58.4961 59.4238 57.5195 60.7422 55.2246Z"/>
  </g>
  <g id="Bold-L" transform="matrix(1 0 0 1 2251.28 1556)">
   <path d="M151.123-30.3223C170.801-34.7656 182.227-50.7812 182.227-61.2793C182.227-63.8184 181.104-65.6738 179.053-65.6738C175.781-65.6738 170.801-61.8164 162.012-61.7676C146.924-61.7188 137.402-70.9961 137.402-84.9121C137.402-93.6035 141.357-99.8535 141.357-103.369C141.357-105.42 139.99-106.738 137.451-106.689C125.879-106.104 110.547-93.2617 107.031-75.9277C109.277-73.7305 111.328-70.9473 113.037-67.4805C133.154-66.2598 149.756-50.9766 151.123-30.3223ZM37.9395 4.83398L110.01 4.83398C128.027 4.83398 141.846-8.98438 141.846-27.0508C141.846-45.459 127.441-59.082 107.959-59.082C101.025-72.3145 88.3301-81.7871 70.8008-81.7871C49.3652-81.7871 31.4941-65.4785 29.6387-44.043C18.457-40.9668 11.2793-31.543 11.2793-19.9219C11.2793-5.22461 22.1191 4.83398 37.9395 4.83398ZM89.1602 35.9375L97.3633 21.7285C98.6328 19.6289 98.0469 17.041 95.8984 15.8203C93.7012 14.5508 91.3086 15.332 90.0391 17.5293L81.7871 31.7871C80.6152 33.8379 81.1035 36.377 83.3008 37.5977C85.4492 38.8184 87.9883 37.9883 89.1602 35.9375ZM39.0137 35.9375L47.2168 21.7773C48.4863 19.6777 47.9004 17.0898 45.752 15.8203C43.5547 14.5996 41.1621 15.332 39.8926 17.5781L31.6406 31.7871C30.4688 33.8867 30.957 36.4258 33.1543 37.6465C35.3027 38.8672 37.8418 38.0371 39.0137 35.9375ZM109.033 53.6133L117.236 39.4531C118.457 37.3047 117.871 34.7168 115.723 33.4961C113.574 32.2754 111.182 33.0078 109.863 35.2051L101.66 49.4629C100.439 51.5137 100.977 54.0527 103.125 55.3223C105.273 56.4941 107.812 55.7129 109.033 53.6133ZM58.8867 53.6133L67.0898 39.4531C68.3105 37.3535 67.7246 34.7656 65.5762 33.5449C63.4277 32.2754 61.0352 33.0566 59.7168 35.2539L51.5137 49.5117C50.293 51.5625 50.8301 54.1016 52.9785 55.3223C55.127 56.543 57.666 55.7129 58.8867 53.6133Z"/>
  </g>
  <g id="Semibold-L" transform="matrix(1 0 0 1 1955.47 1556)">
   <path d="M148.34-29.8828C168.359-34.0332 179.639-50 179.639-60.2051C179.639-62.5977 178.564-64.3066 176.562-64.3066C173.486-64.3066 168.506-60.5469 159.961-60.498C144.678-60.498 135.01-69.8242 135.01-83.9355C135.01-92.4316 139.062-98.584 139.062-101.904C139.062-103.906 137.695-105.176 135.205-105.078C123.291-104.395 108.643-91.2598 105.371-74.2676C107.471-72.2168 109.375-69.6777 110.938-66.3574C131.25-65.0391 147.266-49.8047 148.34-29.8828ZM37.5 3.90625L108.252 3.90625C126.123 3.90625 139.893-9.7168 139.893-27.3926C139.893-45.3125 125.635-58.6914 106.494-58.6914C99.3164-72.3145 86.5723-81.3477 69.873-81.3477C48.877-81.3477 31.2988-65.1367 29.4434-43.9941C18.3594-40.918 11.2793-31.6406 11.2793-20.2637C11.2793-5.95703 21.9238 3.90625 37.5 3.90625ZM87.9395 34.8145L96.2891 20.3613C97.4609 18.3594 96.875 16.0156 94.9219 14.8926C92.9199 13.7695 90.7227 14.4043 89.502 16.4551L81.1035 31.0059C80.0293 32.9102 80.5176 35.2051 82.5195 36.377C84.4727 37.5 86.8164 36.7676 87.9395 34.8145ZM37.793 34.8633L46.1426 20.4102C47.3145 18.4082 46.7285 16.0645 44.7754 14.9414C42.7734 13.8184 40.5762 14.4531 39.3555 16.5039L30.957 31.0547C29.8828 32.959 30.3711 35.2539 32.373 36.4258C34.3262 37.5 36.6699 36.7676 37.793 34.8633ZM107.764 52.4902L116.113 38.0371C117.285 36.0352 116.699 33.7402 114.746 32.5684C112.744 31.4453 110.547 32.1289 109.326 34.1797L100.928 48.6816C99.8535 50.5859 100.342 52.9297 102.344 54.0527C104.297 55.1758 106.641 54.4434 107.764 52.4902ZM57.6172 52.5391L65.9668 38.0859C67.1387 36.084 66.5527 33.7891 64.5996 32.6172C62.5977 31.4941 60.4004 32.1777 59.1797 34.1797L50.7812 48.7305C49.707 50.6348 50.1953 52.9297 52.1973 54.1016C54.1504 55.2246 56.4941 54.4922 57.6172 52.5391Z"/>
  </g>
  <g id="Medium-L" transform="matrix(1 0 0 1 1659.42 1556)">
   <path d="M146.24-29.5898C166.504-33.5449 177.686-49.4629 177.686-59.375C177.686-61.6699 176.611-63.3301 174.707-63.3301C171.777-63.3301 166.797-59.5703 158.398-59.5703C142.969-59.5215 133.154-68.9453 133.154-83.1543C133.154-91.5039 137.256-97.6074 137.256-100.83C137.256-102.734 135.986-104.004 133.496-103.857C121.289-103.125 107.178-89.6973 104.15-72.998C106.104-71.0938 107.861-68.7012 109.375-65.4785C129.834-64.0625 145.361-48.9258 146.24-29.5898ZM37.207 3.22266L106.934 3.22266C124.658 3.22266 138.379-10.2539 138.379-27.6855C138.379-45.2148 124.268-58.3496 105.322-58.3984C98.0469-72.3145 85.2051-80.957 69.1406-80.957C48.5352-80.957 31.1035-64.8926 29.2969-43.9453C18.3105-40.8691 11.2793-31.7383 11.2793-20.5566C11.2793-6.44531 21.8262 3.22266 37.207 3.22266ZM86.9629 33.9355L95.459 19.2871C96.5332 17.4316 95.9961 15.2832 94.1895 14.209C92.334 13.1348 90.2832 13.7695 89.1113 15.6738L80.6152 30.4199C79.5898 32.1777 80.0293 34.3262 81.9336 35.4004C83.7402 36.4258 85.9375 35.791 86.9629 33.9355ZM36.8164 33.9844L45.3125 19.3359C46.4355 17.4805 45.8496 15.2832 44.043 14.209C42.1875 13.1836 40.1367 13.7695 39.0137 15.7227L30.4688 30.4688C29.4434 32.2266 29.9316 34.375 31.7871 35.4492C33.5938 36.4746 35.791 35.8398 36.8164 33.9844ZM106.787 51.6602L115.234 37.0117C116.357 35.1074 115.771 32.959 113.965 31.8848C112.109 30.8594 110.059 31.4453 108.936 33.3496L100.391 48.0957C99.3652 49.9023 99.8535 52.0508 101.709 53.125C103.564 54.1504 105.713 53.4668 106.787 51.6602ZM56.6406 51.709L65.0879 37.0605C66.2109 35.1562 65.6738 33.0078 63.8184 31.9336C62.0117 30.8594 59.9121 31.4941 58.7891 33.3984L50.293 48.1445C49.2188 49.9512 49.707 52.0996 51.5625 53.1738C53.418 54.1992 55.5664 53.5156 56.6406 51.709Z"/>
  </g>
  <g id="Regular-L" transform="matrix(1 0 0 1 1363.61 1556)">
   <path d="M143.457-29.1992C164.111-32.8125 175.146-48.6816 175.146-58.252C175.146-60.4492 174.121-62.0117 172.314-62.0117C169.531-62.0117 164.502-58.3008 156.348-58.3008C140.771-58.3008 130.762-67.8223 130.762-82.1777C130.762-90.332 134.961-96.3867 134.961-99.3652C134.961-101.27 133.691-102.393 131.25-102.295C118.701-101.416 105.273-87.7441 102.539-71.3867C104.297-69.6289 105.957-67.3828 107.324-64.3555C127.979-62.8418 142.822-47.8027 143.457-29.1992ZM36.7676 2.29492L105.225 2.29492C122.754 2.29492 136.426-10.9375 136.426-28.0273C136.426-45.0684 122.461-57.9102 103.857-58.0078C96.3867-72.3145 83.4473-80.5176 68.2617-80.5176C48.0469-80.5176 30.9082-64.5996 29.0527-43.8965C18.2129-40.7715 11.2793-31.8359 11.2793-20.8984C11.2793-7.17773 21.6797 2.29492 36.7676 2.29492ZM85.6934 32.8613L94.3359 17.9199C95.3613 16.1621 94.8242 14.2578 93.2129 13.2812C91.5527 12.3047 89.6484 12.8418 88.623 14.5996L79.9316 29.6387C79.0039 31.2988 79.4434 33.2031 81.1523 34.1797C82.7637 35.1074 84.7656 34.5215 85.6934 32.8613ZM35.5957 32.9102L44.2383 17.9688C45.2637 16.2109 44.7266 14.3066 43.0664 13.3301C41.4062 12.3535 39.5508 12.9395 38.4766 14.6484L29.834 29.6875C28.8574 31.3477 29.2969 33.252 31.0059 34.2285C32.666 35.1562 34.6191 34.5703 35.5957 32.9102ZM105.469 50.5859L114.111 35.6445C115.186 33.8867 114.648 31.9824 112.988 31.0059C111.328 30.0293 109.424 30.5664 108.398 32.3242L99.707 47.3633C98.7793 48.9746 99.2188 50.9277 100.928 51.9043C102.539 52.832 104.541 52.2461 105.469 50.5859ZM55.3711 50.6348L64.0137 35.6934C65.0391 33.9355 64.502 32.0312 62.8418 31.0547C61.1816 30.0781 59.3262 30.6152 58.252 32.373L49.6094 47.4121C48.6328 49.0234 49.0723 50.9766 50.7812 51.9531C52.4414 52.8809 54.3945 52.2949 55.3711 50.6348Z"/>
  </g>
  <g id="Light-L" transform="matrix(1 0 0 1 1067.37 1556)">
   <path d="M141.064-28.4668C163.086-32.373 173.193-48.1445 173.193-56.6406C173.193-58.4473 172.266-59.668 170.703-59.668C168.359-59.668 162.744-56.3965 155.322-56.3965C139.453-56.3965 129.15-66.2598 129.15-81.0059C129.15-88.916 132.959-94.873 132.959-97.4121C132.959-99.1699 131.787-100.146 129.395-99.9512C115.723-98.584 104.102-83.9355 102.1-68.1641C103.613-66.5039 104.932-64.5996 106.104-61.9629C125.928-60.5469 140.186-46.8262 141.064-28.4668ZM35.9375 2.34375L104.688 2.34375C121.826 2.34375 135.254-10.5957 135.254-27.1484C135.254-43.7988 121.533-56.2988 103.223-56.2988C95.6543-70.9961 82.9102-79.1504 67.7246-79.1504C47.9004-79.1504 31.1035-63.2324 29.3945-42.5781C18.3105-39.5508 11.2793-30.8105 11.2793-20.0684C11.2793-6.83594 21.3379 2.34375 35.9375 2.34375ZM84.1309 33.252L93.3594 17.2852C94.2383 15.8203 93.7988 14.3066 92.4805 13.4766C91.1621 12.7441 89.6484 13.1836 88.7695 14.6484L79.541 30.6641C78.7109 32.0801 79.0527 33.5938 80.4199 34.4238C81.7383 35.1562 83.3008 34.668 84.1309 33.252ZM33.9844 33.252L43.2129 17.334C44.0918 15.8691 43.6523 14.3066 42.334 13.5254C41.0156 12.793 39.502 13.2324 38.623 14.6973L29.3945 30.7129C28.5645 32.1289 28.9062 33.6426 30.2734 34.4238C31.5918 35.2051 33.1543 34.7168 33.9844 33.252ZM104.004 50.9277L113.232 34.9609C114.111 33.4961 113.672 31.9824 112.354 31.1523C111.035 30.4199 109.521 30.8594 108.643 32.3242L99.4141 48.3398C98.584 49.7559 98.9258 51.2695 100.293 52.0996C101.611 52.832 103.174 52.3438 104.004 50.9277ZM53.8574 50.9277L63.0859 35.0098C63.9648 33.5449 63.5254 31.9824 62.207 31.2012C60.8887 30.4688 59.375 30.9082 58.4961 32.373L49.2188 48.3887C48.4375 49.8047 48.7793 51.3184 50.1465 52.0996C51.4648 52.8809 53.0273 52.3926 53.8574 50.9277Z"/>
  </g>
  <g id="Thin-L" transform="matrix(1 0 0 1 771.266 1556)">
   <path d="M137.939-27.5391C161.719-31.7871 170.605-47.3633 170.605-54.4922C170.605-55.7617 169.873-56.5918 168.652-56.5918C166.797-56.5918 160.4-53.8574 153.955-53.8574C137.744-53.8574 127.002-64.1113 127.002-79.4434C127.002-87.0117 130.273-92.8711 130.273-94.8242C130.273-96.3867 129.297-97.168 127.002-96.875C111.719-94.8242 102.49-78.9551 101.514-63.916C102.686-62.4023 103.613-60.8398 104.492-58.7891C123.291-57.5195 136.621-45.5566 137.939-27.5391ZM34.8145 2.34375L104.004 2.34375C120.557 2.34375 133.691-10.1562 133.691-26.0254C133.691-42.0898 120.264-54.1016 102.344-54.0527C94.6289-69.1895 82.2266-77.3438 67.0898-77.3438C47.7539-77.3438 31.3965-61.4258 29.7852-40.8203C18.457-37.9395 11.2793-29.4434 11.2793-18.8965C11.2793-6.44531 20.9473 2.34375 34.8145 2.34375ZM82.0312 33.7402L92.041 16.5039C92.7246 15.3809 92.4316 14.3555 91.5527 13.7695C90.6738 13.3301 89.6484 13.5742 88.9648 14.7461L78.9551 32.0312C78.3691 33.1543 78.5645 34.1309 79.4434 34.7168C80.3711 35.2539 81.3965 34.8633 82.0312 33.7402ZM31.8359 33.7402L41.8457 16.5039C42.5293 15.3809 42.2852 14.3555 41.3574 13.8184C40.5273 13.3301 39.502 13.623 38.8184 14.7461L28.8086 32.0312C28.1738 33.1543 28.3691 34.1797 29.2969 34.7168C30.2246 35.2539 31.25 34.9121 31.8359 33.7402ZM102.002 51.3672L112.012 34.1309C112.695 32.959 112.451 31.9824 111.523 31.3965C110.693 30.957 109.668 31.2012 108.984 32.373L98.9746 49.6094C98.3398 50.7324 98.5352 51.7578 99.4629 52.3438C100.391 52.8809 101.416 52.4902 102.002 51.3672ZM51.8555 51.3672L61.8652 34.1309C62.5488 33.0078 62.2559 31.9824 61.3281 31.3965C60.498 30.957 59.4727 31.25 58.7891 32.373L48.7793 49.6582C48.1445 50.7812 48.3398 51.8066 49.2676 52.3438C50.1953 52.8809 51.2207 52.5391 51.8555 51.3672Z"/>
  </g>
  <g id="Ultralight-L" transform="matrix(1 0 0 1 474.848 1556)">
   <path d="M136.377-27.0996C160.986-31.4941 169.287-46.9727 169.287-53.418C169.287-54.3945 168.604-55.0293 167.578-55.0293C166.016-55.0293 159.229-52.5879 153.271-52.5879C136.865-52.5879 125.879-63.0371 125.879-78.6133C125.879-86.0352 128.906-91.8945 128.906-93.5059C128.906-94.9707 127.979-95.6543 125.732-95.3125C109.668-92.8711 101.66-76.416 101.221-61.7188C102.246-60.3027 102.93-58.9355 103.662-57.1777C121.924-56.0059 134.814-44.9219 136.377-27.0996ZM34.2285 2.39258L103.662 2.39258C119.922 2.39258 132.861-9.91211 132.861-25.4395C132.861-41.2109 119.58-52.9785 101.904-52.8809C94.0918-68.2617 81.8359-76.416 66.748-76.416C47.6562-76.416 31.4941-60.498 30.0293-39.8926C18.5547-37.1094 11.2793-28.7598 11.2793-18.3594C11.2793-6.20117 20.7031 2.39258 34.2285 2.39258ZM30.7617 34.0332L41.1621 16.0645C41.748 15.1367 41.5527 14.3555 40.8691 13.916C40.2344 13.5742 39.502 13.8184 38.8672 14.7461L28.4668 32.666C27.9785 33.6426 28.0762 34.4238 28.8086 34.8633C29.4922 35.2539 30.2246 34.9609 30.7617 34.0332ZM80.957 34.0332L91.3574 16.0645C91.9434 15.1367 91.748 14.3555 91.0645 13.916C90.4297 13.623 89.6484 13.8184 89.0625 14.7461L78.6621 32.7148C78.1738 33.6914 78.2715 34.4238 78.9551 34.8633C79.6875 35.2539 80.4199 34.9609 80.957 34.0332ZM50.8301 51.6113L61.2305 33.6914C61.8164 32.7148 61.6211 31.9336 60.8887 31.543C60.3027 31.2012 59.5215 31.3965 58.9355 32.373L48.5352 50.293C48.0469 51.2695 48.1445 52.002 48.8281 52.4414C49.5605 52.8809 50.293 52.5879 50.8301 51.6113ZM100.977 51.6113L111.426 33.6914C112.012 32.7148 111.816 31.9824 111.084 31.543C110.498 31.2012 109.717 31.3965 109.131 32.373L98.7305 50.293C98.1934 51.2695 98.3398 52.0508 99.0234 52.4414C99.7559 52.8809 100.488 52.5879 100.977 51.6113Z"/>
  </g>
  <g id="Black-M" transform="matrix(1 0 0 1 2861.43 1126)">
   <path d="M126.709-32.6172C141.309-37.3535 150.195-49.8535 150.195-58.7891C150.195-61.084 149.268-62.6953 147.461-62.6953C144.434-62.6953 140.381-59.8145 133.008-59.7168C121.875-59.6191 114.99-66.6016 114.99-77.002C114.99-84.2773 117.578-89.4531 117.578-92.6758C117.578-94.3848 116.357-95.6055 114.307-95.5078C106.104-95.2637 92.4805-85.9863 89.0625-71.4355C91.3574-69.1895 93.3594-66.5039 94.9707-63.2812C109.473-62.9395 124.414-51.3184 126.709-32.6172ZM30.6152-0.683594L91.7969-0.683594C106.201-0.683594 116.943-11.9629 116.943-27.002C116.943-42.9688 105.273-54.4922 89.1113-54.3945C84.3262-63.2324 75.0977-72.4121 58.2031-72.4121C40.0879-72.4121 25.3418-59.1797 23.9746-41.5527C14.7461-39.2578 8.74023-31.3965 8.74023-21.5332C8.74023-9.08203 17.5781-0.683594 30.6152-0.683594ZM34.2773 24.4141L40.332 14.0137C41.5039 11.9629 41.0156 9.27734 38.8184 8.00781C36.6211 6.73828 34.2285 7.56836 32.9102 9.81445L26.8555 20.2148C25.6836 22.3145 26.123 24.9512 28.3203 26.1719C30.5176 27.4414 33.0566 26.5137 34.2773 24.4141ZM73.1445 24.4141L79.1992 14.0137C80.3711 11.9629 79.8828 9.27734 77.6855 8.00781C75.4883 6.73828 73.1445 7.56836 71.8262 9.81445L65.7715 20.2148C64.5996 22.3145 64.9902 24.9512 67.1875 26.1719C69.3848 27.4414 71.9727 26.5137 73.1445 24.4141ZM49.8047 38.0859L55.8594 27.6855C57.0312 25.5859 56.543 22.9004 54.3457 21.6309C52.1484 20.4102 49.7559 21.2402 48.4375 23.4863L42.3828 33.8867C41.2109 35.9375 41.6504 38.5742 43.8477 39.8438C46.0449 41.1133 48.584 40.1367 49.8047 38.0859ZM88.6719 38.0859L94.7266 27.6855C95.8984 25.5859 95.4102 22.9004 93.2129 21.6797C91.0156 20.4102 88.6719 21.2402 87.3535 23.4863L81.2988 33.8867C80.127 35.9375 80.5176 38.5742 82.7148 39.8438C84.9121 41.1133 87.5 40.1367 88.6719 38.0859Z"/>
  </g>
  <g id="Heavy-M" transform="matrix(1 0 0 1 2565.86 1126)">
   <path d="M123.34-32.2266C138.086-36.4746 147.021-48.9746 147.021-57.666C147.021-59.8633 146.143-61.4258 144.385-61.4258C141.504-61.4258 137.549-58.4473 130.371-58.3984C119.043-58.3008 111.963-65.3809 111.963-75.8789C111.963-83.0078 114.746-88.0371 114.746-91.1133C114.746-92.7734 113.623-93.9453 111.572-93.8965C103.174-93.6035 90.0879-84.1309 86.8652-69.9219C88.9648-67.8711 90.8691-65.3809 92.3828-62.3047C107.275-61.7676 121.533-49.9512 123.34-32.2266ZM30.2246-1.95312L89.4531-1.95312C103.711-1.95312 114.453-13.0371 114.453-27.7344C114.453-43.1152 102.979-54.3457 87.1582-54.248C82.1777-63.623 72.7051-72.1191 57.0312-72.1191C39.4043-72.1191 25-59.082 23.584-41.8457C14.5508-39.502 8.74023-31.8359 8.74023-22.2656C8.74023-10.1562 17.4316-1.95312 30.2246-1.95312ZM71.7773 22.7539L77.8809 12.207C79.0039 10.2539 78.5156 7.8125 76.5137 6.64062C74.4629 5.46875 72.2656 6.25 71.0449 8.30078L64.9414 18.8965C63.8184 20.8008 64.2578 23.1934 66.2598 24.3652C68.3105 25.5371 70.6543 24.6582 71.7773 22.7539ZM32.9102 22.7539L39.0137 12.207C40.1367 10.3027 39.6484 7.8125 37.6465 6.64062C35.5957 5.51758 33.3984 6.25 32.1777 8.30078L26.0254 18.8965C24.9512 20.8008 25.3906 23.1934 27.3926 24.3652C29.4434 25.5371 31.7871 24.707 32.9102 22.7539ZM87.2559 36.4258L93.3594 25.8789C94.4824 23.9258 93.9941 21.4844 91.9922 20.3125C89.9414 19.1406 87.7441 19.873 86.5234 21.9727L80.3711 32.5684C79.2969 34.4727 79.7363 36.8652 81.7383 38.0371C83.7891 39.1602 86.1328 38.3301 87.2559 36.4258ZM48.3887 36.4258L54.4922 25.8789C55.6152 23.9746 55.127 21.4844 53.0762 20.3125C51.0742 19.1895 48.877 19.9219 47.6562 21.9727L41.5039 32.5684C40.4297 34.4727 40.8203 36.8652 42.8711 38.0371C44.873 39.209 47.2656 38.3789 48.3887 36.4258Z"/>
  </g>
  <g id="Bold-M" transform="matrix(1 0 0 1 2270.45 1126)">
   <path d="M119.629-31.7871C134.521-35.498 143.506-47.9492 143.506-56.3965C143.506-58.4961 142.627-60.0098 140.918-60.0098C138.232-60.0098 134.424-56.9824 127.393-56.9336C115.869-56.8848 108.643-63.9648 108.643-74.6582C108.643-81.543 111.67-86.4746 111.67-89.3555C111.67-91.0156 110.547-92.0898 108.545-92.041C99.9023-91.6992 87.4023-82.0312 84.375-68.2617C86.2793-66.4062 88.0371-64.1113 89.4531-61.2305C104.883-60.4492 118.311-48.4375 119.629-31.7871ZM29.7852-3.41797L86.8164-3.41797C100.928-3.41797 111.67-14.3066 111.67-28.5645C111.67-43.2617 100.391-54.1504 85.0098-54.1016C79.7363-64.0137 70.0195-71.7773 55.6641-71.7773C38.6719-71.7773 24.6094-58.9844 23.1445-42.1387C14.4043-39.7461 8.74023-32.2754 8.74023-23.0469C8.74023-11.377 17.2852-3.41797 29.7852-3.41797ZM70.2637 20.8984L76.4648 10.1562C77.4902 8.39844 77.002 6.20117 75.1953 5.12695C73.3398 4.05273 71.2891 4.73633 70.2148 6.5918L63.9648 17.334C62.9883 19.0918 63.3789 21.2402 65.2344 22.3145C67.0898 23.3398 69.2383 22.6074 70.2637 20.8984ZM31.3965 20.8984L37.5977 10.2051C38.623 8.39844 38.1348 6.20117 36.3281 5.12695C34.4727 4.10156 32.4219 4.73633 31.3477 6.64062L25.0977 17.3828C24.1211 19.0918 24.5117 21.2891 26.3672 22.3633C28.2227 23.3887 30.3711 22.6562 31.3965 20.8984ZM85.6445 34.5703L91.8457 23.877C92.8711 22.0703 92.3828 19.873 90.5762 18.7988C88.7207 17.7734 86.7188 18.4082 85.5957 20.3125L79.3945 31.0547C78.3691 32.7637 78.8086 34.9609 80.6641 36.0352C82.4707 37.0605 84.6191 36.3281 85.6445 34.5703ZM46.7773 34.5703L52.9785 23.877C54.0039 22.1191 53.5156 19.9219 51.709 18.8477C49.8535 17.7734 47.8516 18.457 46.7285 20.3125L40.5273 31.0547C39.502 32.8125 39.9414 34.9609 41.7969 36.0352C43.6035 37.0605 45.752 36.3281 46.7773 34.5703Z"/>
  </g>
  <g id="Semibold-M" transform="matrix(1 0 0 1 1974.61 1126)">
   <path d="M117.041-31.4941C132.08-34.8145 141.064-47.2168 141.064-55.5176C141.064-57.5684 140.186-59.0332 138.574-59.0332C135.986-59.0332 132.275-55.957 125.342-55.957C113.672-55.9082 106.299-63.0371 106.299-73.7793C106.299-80.5176 109.521-85.3516 109.521-88.1348C109.521-89.7461 108.398-90.8203 106.445-90.7715C97.6562-90.4297 85.5469-80.5664 82.666-67.0898C84.4727-65.4297 86.084-63.2324 87.4023-60.498C103.223-59.5215 116.113-47.3633 117.041-31.4941ZM29.4922-4.39453L85.0098-4.39453C99.0234-4.39453 109.766-15.1367 109.766-29.1504C109.766-43.4082 98.584-54.0039 83.4961-54.0039C78.0762-64.2578 68.2129-71.5332 54.7852-71.5332C38.1836-71.5332 24.3164-58.8867 22.8516-42.334C14.2578-39.9414 8.74023-32.6172 8.74023-23.6328C8.74023-12.207 17.1875-4.39453 29.4922-4.39453ZM69.1895 19.5801L75.4395 8.74023C76.416 7.08008 75.9277 5.07812 74.2676 4.05273C72.5586 3.07617 70.6543 3.66211 69.6289 5.41992L63.3301 16.3086C62.4023 17.9199 62.793 19.9219 64.5508 20.8984C66.2109 21.875 68.2617 21.2402 69.1895 19.5801ZM30.3223 19.6289L36.5723 8.78906C37.5488 7.12891 37.0605 5.07812 35.4004 4.10156C33.6914 3.125 31.7871 3.71094 30.7617 5.46875L24.4629 16.3574C23.5352 17.9688 23.9746 19.9707 25.6836 20.9473C27.3438 21.875 29.3945 21.2402 30.3223 19.6289ZM84.5215 33.3008L90.7715 22.4609C91.7969 20.8008 91.3086 18.75 89.5996 17.7734C87.8906 16.7969 85.9863 17.3828 84.9609 19.1406L78.7109 30.0293C77.7344 31.6406 78.1738 33.6426 79.8828 34.6191C81.5918 35.5957 83.5938 34.9121 84.5215 33.3008ZM45.7031 33.3496L51.9531 22.5098C52.9297 20.8496 52.4414 18.7988 50.7324 17.8223C49.0234 16.8457 47.168 17.4316 46.1426 19.1406L39.8438 30.0293C38.8672 31.6406 39.3066 33.6426 41.0156 34.668C42.7246 35.5957 44.7266 34.9609 45.7031 33.3496Z"/>
  </g>
  <g id="Medium-M" transform="matrix(1 0 0 1 1678.59 1126)">
   <path d="M115.088-31.25C130.225-34.2773 139.258-46.6797 139.258-54.8828C139.258-56.8359 138.379-58.252 136.768-58.252C134.277-58.252 130.615-55.1758 123.779-55.1758C112.012-55.1758 104.59-62.3047 104.59-73.1445C104.59-79.7852 107.861-84.5215 107.861-87.2559C107.861-88.8184 106.787-89.8438 104.834-89.7949C95.9473-89.4531 84.1309-79.4922 81.3965-66.2109C83.0566-64.6484 84.6191-62.5977 85.8887-59.9121C101.953-58.7891 114.404-46.582 115.088-31.25ZM29.2969-5.17578L83.6426-5.17578C97.5586-5.17578 108.301-15.7715 108.301-29.5898C108.301-43.5059 97.2168-53.9062 82.3242-53.9551C76.8066-64.502 66.7969-71.3379 54.0527-71.3379C37.793-71.3379 24.1211-58.8379 22.6562-42.4805C14.1602-40.0391 8.74023-32.8613 8.74023-24.0723C8.74023-12.8418 17.0898-5.17578 29.2969-5.17578ZM68.3594 18.6035L74.6582 7.66602C75.6348 6.10352 75.1465 4.19922 73.5352 3.27148C71.9238 2.34375 70.166 2.88086 69.1895 4.54102L62.8418 15.5273C61.9629 17.041 62.3535 18.8965 64.0137 19.8242C65.5762 20.7031 67.4805 20.166 68.3594 18.6035ZM29.541 18.6523L35.8398 7.71484C36.7676 6.15234 36.2793 4.24805 34.7168 3.32031C33.1055 2.39258 31.2988 2.92969 30.3223 4.54102L23.9746 15.5273C23.0957 17.041 23.5352 18.9453 25.1465 19.873C26.709 20.752 28.6133 20.2148 29.541 18.6523ZM83.6914 32.3242L89.9902 21.4355C90.918 19.8242 90.4785 17.9199 88.8672 16.9922C87.2559 16.0645 85.4492 16.6016 84.5215 18.2617L78.1738 29.248C77.2461 30.7617 77.6855 32.6172 79.2969 33.5449C80.9082 34.4727 82.8125 33.8867 83.6914 32.3242ZM44.873 32.373L51.1719 21.4355C52.0996 19.873 51.6113 17.9688 50 17.041C48.3887 16.1133 46.6309 16.6504 45.6543 18.3105L39.3066 29.2969C38.4277 30.8105 38.8184 32.666 40.4785 33.5938C42.041 34.4727 43.9453 33.9355 44.873 32.373Z"/>
  </g>
  <g id="Regular-M" transform="matrix(1 0 0 1 1382.75 1126)">
   <path d="M112.549-30.957C127.783-33.6426 136.816-45.9961 136.816-54.0039C136.816-55.9082 135.986-57.3242 134.424-57.3242C132.031-57.3242 128.516-54.1992 121.729-54.1992C109.814-54.1992 102.295-61.377 102.295-72.2656C102.295-78.7598 105.762-83.4473 105.762-86.0352C105.762-87.5977 104.688-88.5742 102.783-88.5254C93.75-88.1348 82.2754-78.0762 79.7363-65.0879C81.2012-63.6719 82.666-61.7676 83.8867-59.1797C100.342-57.9102 112.256-45.5078 112.549-30.957ZM29.0039-6.15234L81.8359-6.15234C95.6543-6.15234 106.396-16.6016 106.396-30.127C106.396-43.6035 95.459-53.7598 80.8594-53.8574C75.1465-64.7461 64.9902-71.0938 53.1738-71.0938C37.3047-71.0938 23.8281-58.7402 22.3633-42.7246C14.0625-40.2344 8.74023-33.2031 8.74023-24.6094C8.74023-13.6719 16.9922-6.15234 29.0039-6.15234ZM67.334 17.334L73.6816 6.29883C74.5605 4.78516 74.0723 3.07617 72.6562 2.24609C71.1426 1.36719 69.4824 1.85547 68.6035 3.36914L62.207 14.4531C61.377 15.8691 61.7676 17.5781 63.2812 18.457C64.7461 19.2383 66.5039 18.75 67.334 17.334ZM28.4668 17.3828L34.8633 6.34766C35.7422 4.83398 35.2539 3.125 33.7891 2.29492C32.3242 1.41602 30.6641 1.9043 29.7852 3.41797L23.3398 14.502C22.5098 15.918 22.9492 17.627 24.4629 18.5059C25.9277 19.2871 27.6855 18.7988 28.4668 17.3828ZM82.6172 31.0547L88.9648 20.0684C89.8438 18.5547 89.3555 16.8457 87.9395 15.9668C86.4258 15.1367 84.7656 15.625 83.8867 17.0898L77.4902 28.2227C76.6602 29.5898 77.0508 31.2988 78.5645 32.1777C80.0293 33.0078 81.7871 32.5195 82.6172 31.0547ZM43.75 31.1035L50.0977 20.1172C51.0254 18.6035 50.5371 16.8945 49.0723 16.0156C47.6074 15.1855 45.9473 15.6738 45.0195 17.1387L38.623 28.2715C37.793 29.6387 38.2324 31.3477 39.7461 32.2266C41.1621 33.0566 42.9199 32.5684 43.75 31.1035Z"/>
  </g>
  <g id="Light-M" transform="matrix(1 0 0 1 1086.46 1126)">
   <path d="M110.4-30.3223C126.855-33.252 135.107-45.5078 135.107-52.5391C135.107-54.1016 134.326-55.2246 133.008-55.2246C131.006-55.2246 126.904-52.4902 120.85-52.4902C108.643-52.4902 100.83-59.9609 100.83-71.2402C100.83-77.4902 103.955-82.1289 103.955-84.2773C103.955-85.6934 102.979-86.5723 101.123-86.4258C91.0156-85.5957 81.2012-74.6582 79.2969-62.207C80.6152-60.8887 81.7871-59.2285 82.8125-57.0312C98.5352-55.8594 109.814-44.6777 110.4-30.3223ZM28.2227-6.10352L81.3477-6.10352C94.8242-6.10352 105.322-16.3086 105.322-29.3457C105.322-42.4316 94.5801-52.2949 80.2734-52.2949C74.4629-63.5254 64.502-69.873 52.7344-69.873C37.207-69.873 24.0234-57.5195 22.6562-41.5039C14.1602-39.1113 8.74023-32.2754 8.74023-23.8281C8.74023-13.3789 16.6992-6.10352 28.2227-6.10352ZM65.918 17.6758L72.8027 5.76172C73.5352 4.49219 73.1445 3.125 71.9727 2.44141C70.8008 1.75781 69.4824 2.14844 68.75 3.41797L61.8164 15.3809C61.1328 16.6016 61.4258 17.9199 62.6465 18.6523C63.8184 19.2871 65.2344 18.8965 65.918 17.6758ZM27.0508 17.6758L33.9355 5.76172C34.668 4.54102 34.3262 3.17383 33.1543 2.44141C31.9824 1.80664 30.6152 2.19727 29.8828 3.41797L22.9492 15.4297C22.2656 16.6016 22.6074 17.9688 23.7793 18.6523C24.9512 19.3359 26.3672 18.9453 27.0508 17.6758ZM81.25 31.3965L88.1348 19.4824C88.916 18.2129 88.5254 16.8457 87.3535 16.1621C86.1816 15.4785 84.8633 15.8691 84.082 17.1387L77.1973 29.1016C76.4648 30.2734 76.8066 31.6406 78.0273 32.373C79.1992 33.0078 80.5664 32.6172 81.25 31.3965ZM42.3828 31.3965L49.2676 19.4824C50.0488 18.2129 49.6582 16.8945 48.4863 16.1621C47.3145 15.5273 45.9961 15.8691 45.2148 17.1387L38.3301 29.1504C37.6465 30.3223 37.9395 31.6895 39.1602 32.373C40.332 33.0566 41.6992 32.6172 42.3828 31.3965Z"/>
  </g>
  <g id="Thin-M" transform="matrix(1 0 0 1 790.285 1126)">
   <path d="M107.617-29.4922C125.635-32.7148 132.812-44.8242 132.812-50.6348C132.812-51.709 132.178-52.4414 131.152-52.4414C129.639-52.4414 124.854-50.2441 119.629-50.2441C107.129-50.2441 98.877-58.1055 98.877-69.8242C98.877-75.7812 101.562-80.3223 101.562-81.9824C101.562-83.252 100.732-83.8867 98.9258-83.6914C87.4512-82.2266 79.7852-70.2148 78.8086-58.3496C79.7852-57.1777 80.6152-55.9082 81.3477-54.1992C96.1426-53.1738 106.641-43.5059 107.617-29.4922ZM27.1973-6.10352L80.7617-6.10352C93.7012-6.10352 103.955-15.8691 103.955-28.3203C103.955-40.918 93.457-50.3418 79.4922-50.293C73.5352-61.9629 63.8672-68.2617 52.1484-68.2617C37.0117-68.2617 24.2676-55.9082 22.998-39.9414C14.2578-37.6953 8.74023-31.0547 8.74023-22.8516C8.74023-12.9883 16.3086-6.10352 27.1973-6.10352ZM64.0137 18.1152L71.6309 5.0293C72.168 4.05273 71.9238 3.17383 71.1426 2.68555C70.3613 2.29492 69.4824 2.53906 68.8965 3.4668L61.3281 16.6016C60.791 17.5293 60.9863 18.4082 61.7676 18.8965C62.5977 19.3848 63.5254 19.043 64.0137 18.1152ZM25.1465 18.1152L32.7148 5.0293C33.3008 4.10156 33.0566 3.17383 32.2754 2.68555C31.4941 2.29492 30.6152 2.53906 30.0293 3.4668L22.4121 16.6016C21.9238 17.5293 22.1191 18.457 22.9004 18.8965C23.7305 19.3848 24.6094 19.0918 25.1465 18.1152ZM79.4922 31.7871L87.0605 18.7012C87.6465 17.7246 87.4023 16.8457 86.6211 16.3574C85.8398 15.918 84.9609 16.2109 84.375 17.1387L76.7578 30.2734C76.2695 31.2012 76.4648 32.0801 77.2461 32.5684C78.0762 33.0566 78.9551 32.7148 79.4922 31.7871ZM40.625 31.7871L48.1934 18.7012C48.7793 17.7734 48.5352 16.8457 47.7051 16.3574C46.9727 15.9668 46.0938 16.2109 45.5078 17.1387L37.8906 30.2734C37.4023 31.2012 37.5488 32.0801 38.3789 32.5684C39.1602 33.0566 40.0879 32.7637 40.625 31.7871Z"/>
  </g>
  <g id="Ultralight-M" transform="matrix(1 0 0 1 493.866 1126)">
   <path d="M106.152-29.0527C125-32.4219 131.592-44.4336 131.592-49.6582C131.592-50.4883 131.055-51.0254 130.176-51.0254C128.906-51.0254 123.779-49.0723 118.994-49.0723C106.348-49.0723 97.9004-57.1289 97.9004-69.0918C97.9004-74.9023 100.342-79.4434 100.342-80.7617C100.342-81.9824 99.5605-82.5195 97.8516-82.2754C85.6445-80.4688 79.0527-67.9199 78.5156-56.3965C79.3945-55.3223 79.9805-54.1992 80.6152-52.7344C94.9219-51.8066 105.029-42.9199 106.152-29.0527ZM26.709-6.10352L80.4199-6.10352C93.1152-6.10352 103.223-15.6738 103.223-27.7832C103.223-40.1367 92.8711-49.3164 79.1016-49.2676C73.0469-61.1328 63.5254-67.4316 51.8066-67.4316C36.9629-67.4316 24.3652-55.0781 23.1934-39.1113C14.3555-36.9629 8.74023-30.4199 8.74023-22.3145C8.74023-12.793 16.1133-6.10352 26.709-6.10352ZM24.1699 18.3594L32.1289 4.63867C32.6172 3.85742 32.4219 3.17383 31.7871 2.83203C31.25 2.53906 30.6152 2.68555 30.127 3.51562L22.168 17.1875C21.7285 18.0176 21.875 18.6523 22.4609 19.043C23.0469 19.3848 23.7305 19.1406 24.1699 18.3594ZM63.0371 18.3594L70.9961 4.63867C71.4844 3.85742 71.2891 3.17383 70.7031 2.83203C70.166 2.53906 69.4824 2.73438 68.9941 3.51562L61.0352 17.1875C60.6445 18.0176 60.7422 18.6523 61.377 19.043C61.9629 19.3848 62.6465 19.1406 63.0371 18.3594ZM39.6973 31.9824L47.6562 18.3105C48.1445 17.5293 47.9492 16.8457 47.3145 16.4551C46.7773 16.1621 46.1426 16.3574 45.6543 17.1387L37.6953 30.8594C37.2559 31.6406 37.4023 32.3242 37.9883 32.666C38.5742 33.0566 39.2578 32.8125 39.6973 31.9824ZM78.5645 31.9824L86.5234 18.3105C87.0117 17.5293 86.8164 16.8457 86.2305 16.4551C85.6934 16.1621 85.0098 16.3574 84.5215 17.1387L76.5625 30.8594C76.1719 31.6406 76.2695 32.3242 76.8555 32.666C77.4902 33.0566 78.1738 32.8125 78.5645 31.9824Z"/>
  </g>
  <g id="Black-S" transform="matrix(1 0 0 1 2877.1 696)">
   <path d="M99.0234-33.1543C110.449-36.8164 117.432-46.6309 117.432-53.6133C117.432-55.4199 116.699-56.6895 115.283-56.6895C112.939-56.6895 109.766-54.3945 104.004-54.3457C95.2637-54.248 89.8438-59.7168 89.8438-67.8711C89.8438-73.584 91.8945-77.6367 91.8945-80.127C91.8945-81.4941 90.9668-82.4219 89.3555-82.373C82.9102-82.1777 72.2656-74.9023 69.5801-63.5254C71.3867-61.7676 72.9492-59.668 74.2188-57.1777C85.5957-56.8848 97.2656-47.7539 99.0234-33.1543ZM23.9746-8.25195L71.7285-8.25195C83.0078-8.25195 91.4551-17.0898 91.4551-28.8574C91.4551-41.3086 82.3242-50.3418 69.6777-50.2441C65.918-57.2266 58.6426-64.3555 45.5078-64.3555C31.3477-64.3555 19.8242-54.0039 18.75-40.2344C11.5234-38.4277 6.83594-32.2754 6.83594-24.5605C6.83594-14.8438 13.7695-8.25195 23.9746-8.25195ZM26.7578 11.377L31.4941 3.22266C32.4219 1.61133 32.0312-0.488281 30.3223-1.46484C28.6133-2.44141 26.7578-1.80664 25.7324-0.0488281L20.9961 8.10547C20.0684 9.7168 20.4102 11.7676 22.1191 12.7441C23.8281 13.7207 25.8301 12.9883 26.7578 11.377ZM57.2266 11.377L61.9629 3.22266C62.8906 1.61133 62.5-0.488281 60.791-1.46484C59.082-2.44141 57.2266-1.80664 56.2012-0.0488281L51.4648 8.10547C50.5371 9.7168 50.8789 11.7676 52.5879 12.7441C54.2969 13.7207 56.2988 12.9883 57.2266 11.377ZM38.916 22.0703L43.6523 13.916C44.5801 12.3047 44.1895 10.2051 42.4805 9.22852C40.7715 8.25195 38.916 8.88672 37.8906 10.6445L33.1543 18.7988C32.2266 20.4102 32.5684 22.4609 34.2773 23.4375C35.9863 24.4141 37.9883 23.6816 38.916 22.0703ZM69.3848 22.0703L74.1211 13.916C75.0488 12.3047 74.6582 10.2051 72.9492 9.22852C71.2402 8.25195 69.3848 8.88672 68.3594 10.6445L63.623 18.7988C62.6953 20.4102 63.0371 22.4609 64.7461 23.4375C66.4551 24.4141 68.457 23.6816 69.3848 22.0703Z"/>
  </g>
  <g id="Heavy-S" transform="matrix(1 0 0 1 2581.22 696)">
   <path d="M96.6797-32.9102C108.105-36.1816 115.234-45.9961 115.234-52.9297C115.234-54.6875 114.502-55.957 113.086-55.957C110.84-55.957 107.812-53.5645 102.051-53.5156C93.2129-53.4668 87.6953-58.9355 87.6953-67.1387C87.6953-72.7539 89.9414-76.709 89.9414-79.1504C89.9414-80.4688 89.0625-81.3965 87.4512-81.3477C80.957-81.1523 70.5566-73.8281 67.9199-62.6953C69.6289-61.084 71.1426-59.082 72.3145-56.6895C84.1309-56.2012 95.3125-46.7773 96.6797-32.9102ZM23.7793-9.22852L69.9707-9.22852C81.2012-9.22852 89.6484-17.9688 89.6484-29.4922C89.6484-41.5527 80.6641-50.3906 68.2617-50.293C64.3555-57.6172 56.8848-64.2578 44.6289-64.2578C30.8594-64.2578 19.5312-54.0527 18.4082-40.5762C11.377-38.7207 6.83594-32.7148 6.83594-25.1953C6.83594-15.6738 13.6719-9.22852 23.7793-9.22852ZM56.3477 10.0586L61.084 1.9043C61.9629 0.341797 61.5723-1.61133 59.9609-2.53906C58.3496-3.4668 56.5918-2.88086 55.6152-1.2207L50.8789 6.98242C50 8.49609 50.3418 10.4004 51.9531 11.3281C53.5645 12.2559 55.4688 11.5723 56.3477 10.0586ZM25.8789 10.0586L30.6152 1.9043C31.4941 0.341797 31.1035-1.61133 29.4922-2.53906C27.8809-3.41797 26.123-2.88086 25.1465-1.2207L20.4102 6.98242C19.5312 8.49609 19.873 10.4004 21.4844 11.3281C23.0957 12.2559 25 11.5723 25.8789 10.0586ZM68.457 20.752L73.1934 12.5977C74.0723 11.084 73.6816 9.13086 72.0703 8.20312C70.459 7.27539 68.6523 7.86133 67.7246 9.47266L62.9883 17.6758C62.1094 19.1895 62.4512 21.0938 64.0625 22.0215C65.6738 22.9492 67.5781 22.3145 68.457 20.752ZM37.9883 20.8008L42.7246 12.5977C43.6035 11.084 43.2129 9.13086 41.6016 8.20312C39.9902 7.27539 38.2324 7.86133 37.2559 9.52148L32.5195 17.6758C31.6406 19.1895 31.9824 21.1426 33.5938 22.0703C35.2051 22.9492 37.1094 22.3145 37.9883 20.8008Z"/>
  </g>
  <g id="Bold-S" transform="matrix(1 0 0 1 2285.44 696)">
   <path d="M94.0918-32.666C105.518-35.498 112.744-45.2637 112.744-52.1484C112.744-53.8574 112.012-55.127 110.645-55.127C108.447-55.127 105.615-52.6367 99.9023-52.6367C90.918-52.5879 85.3516-58.0566 85.3516-66.3086C85.3516-71.7773 87.793-75.6348 87.793-78.0273C87.793-79.3457 86.9141-80.2246 85.3027-80.1758C78.8086-80.0293 68.6035-72.6562 66.1133-61.7676C67.6758-60.3027 69.0918-58.4473 70.2148-56.1035C82.5195-55.4199 93.1641-45.752 94.0918-32.666ZM23.5352-10.3516L68.0176-10.3516C79.1992-10.3516 87.6465-18.9453 87.6465-30.2246C87.6465-41.8457 78.7598-50.3906 66.6504-50.3906C62.5488-58.1055 54.8828-64.1602 43.7012-64.1602C30.3223-64.1602 19.1895-54.1504 18.0664-40.9668C11.2305-39.0625 6.83594-33.2031 6.83594-25.9277C6.83594-16.6504 13.623-10.3516 23.5352-10.3516ZM55.3223 8.59375L60.0586 0.390625C60.8887-1.07422 60.498-2.83203 58.9844-3.71094C57.4707-4.58984 55.8594-4.05273 54.9316-2.53906L50.1953 5.66406C49.3652 7.08008 49.707 8.88672 51.2207 9.7168C52.7344 10.5957 54.4922 10.0098 55.3223 8.59375ZM24.9023 8.59375L29.6387 0.439453C30.4688-1.02539 30.0781-2.83203 28.5645-3.71094C27.0508-4.54102 25.3906-4.05273 24.5117-2.49023L19.7266 5.71289C18.9453 7.12891 19.2871 8.88672 20.8008 9.76562C22.3145 10.5957 24.0723 10.0098 24.9023 8.59375ZM67.3828 19.2871L72.1191 11.1328C72.9492 9.66797 72.5586 7.86133 71.0449 7.03125C69.5312 6.15234 67.8711 6.68945 66.9922 8.20312L62.2559 16.4062C61.4258 17.8223 61.7676 19.6289 63.2812 20.459C64.7949 21.3379 66.5527 20.752 67.3828 19.2871ZM36.9141 19.3359L41.6504 11.1816C42.4805 9.7168 42.0898 7.91016 40.625 7.03125C39.1113 6.20117 37.4512 6.68945 36.5234 8.20312L31.7871 16.4551C30.957 17.8711 31.3477 19.6289 32.8613 20.5078C34.3262 21.3379 36.1328 20.752 36.9141 19.3359Z"/>
  </g>
  <g id="Semibold-S" transform="matrix(1 0 0 1 1989.38 696)">
   <path d="M92.2852-32.4707C103.711-35.0098 111.035-44.7754 111.035-51.6113C111.035-53.3203 110.303-54.541 108.936-54.541C106.787-54.541 104.053-52.002 98.3887-52.002C89.3555-51.9531 83.6914-57.4707 83.6914-65.7715C83.6914-71.0938 86.3281-74.9512 86.3281-77.2461C86.3281-78.5156 85.4492-79.3945 83.8379-79.3945C77.3438-79.2969 67.2852-71.8262 64.8438-61.1328C66.3086-59.7656 67.6758-58.0078 68.7988-55.7129C81.3965-54.8828 91.6992-45.0195 92.2852-32.4707ZM23.3398-11.1328L66.6992-11.1328C77.7832-11.1328 86.2793-19.6289 86.2793-30.7617C86.2793-42.041 77.4902-50.4395 65.5762-50.4395C61.3281-58.3984 53.5156-64.0625 43.0176-64.0625C29.9316-64.0625 18.9941-54.1504 17.8223-41.2109C11.1328-39.2578 6.83594-33.4961 6.83594-26.416C6.83594-17.334 13.5254-11.1328 23.3398-11.1328ZM54.6387 7.56836L59.375-0.634766C60.2051-2.00195 59.7656-3.71094 58.3496-4.54102C56.9336-5.37109 55.3223-4.88281 54.4922-3.41797L49.707 4.78516C48.9258 6.15234 49.3164 7.8125 50.7324 8.64258C52.1484 9.42383 53.8574 8.88672 54.6387 7.56836ZM24.2188 7.56836L28.9551-0.585938C29.7363-2.00195 29.3457-3.66211 27.9297-4.49219C26.4648-5.32227 24.9023-4.83398 24.0234-3.41797L19.2871 4.83398C18.5059 6.15234 18.8965 7.86133 20.3125 8.69141C21.7285 9.47266 23.4375 8.93555 24.2188 7.56836ZM66.6504 18.3105L71.3867 10.1074C72.168 8.74023 71.7773 7.03125 70.3613 6.20117C68.8965 5.37109 67.334 5.85938 66.5039 7.32422L61.7188 15.5762C60.9375 16.8945 61.3281 18.5547 62.7441 19.3848C64.1602 20.166 65.8691 19.6777 66.6504 18.3105ZM36.2305 18.3594L40.918 10.1562C41.748 8.78906 41.3574 7.08008 39.9414 6.25C38.4766 5.41992 36.9141 5.9082 36.0352 7.32422L31.2988 15.5762C30.5176 16.8945 30.8594 18.6035 32.3242 19.4336C33.7402 20.2148 35.4492 19.6777 36.2305 18.3594Z"/>
  </g>
  <g id="Medium-S" transform="matrix(1 0 0 1 1693.16 696)">
   <path d="M90.9668-32.373C102.344-34.668 109.717-44.3848 109.717-51.1719C109.717-52.8809 108.984-54.1016 107.666-54.1016C105.566-54.1016 102.93-51.5137 97.2656-51.5137C88.1348-51.5137 82.4707-57.0312 82.4707-65.332C82.4707-70.6055 85.1562-74.3652 85.1562-76.6602C85.1562-77.9297 84.3262-78.8086 82.7637-78.8086C76.2207-78.7109 66.2598-71.2402 63.8672-60.6445C65.2832-59.375 66.6016-57.666 67.6758-55.4199C80.5664-54.4922 90.5762-44.4336 90.9668-32.373ZM23.2422-11.6699L65.6738-11.6699C76.7578-11.6699 85.2539-20.1172 85.2539-31.1035C85.2539-42.1387 76.4648-50.4395 64.6973-50.4883C60.4004-58.6426 52.4902-64.0137 42.5293-64.0137C29.6387-64.0137 18.7988-54.1992 17.627-41.4062C11.0352-39.4531 6.83594-33.7402 6.83594-26.8066C6.83594-17.8223 13.4766-11.6699 23.2422-11.6699ZM54.1016 6.78711L58.8379-1.41602C59.6191-2.73438 59.2285-4.3457 57.8613-5.17578C56.4941-5.95703 54.9316-5.51758 54.1504-4.15039L49.3652 4.15039C48.6328 5.41992 48.9746 7.03125 50.3906 7.8125C51.7578 8.54492 53.3691 8.05664 54.1016 6.78711ZM23.6816 6.83594L28.418-1.36719C29.1992-2.73438 28.8086-4.3457 27.4414-5.12695C26.0254-5.9082 24.5117-5.46875 23.6816-4.10156L18.9453 4.19922C18.2129 5.41992 18.5547 7.03125 19.9707 7.86133C21.2891 8.59375 22.9492 8.10547 23.6816 6.83594ZM66.1133 17.5293L70.8008 9.375C71.582 8.00781 71.1914 6.39648 69.8242 5.61523C68.457 4.83398 66.8945 5.27344 66.1133 6.64062L61.3281 14.8926C60.5957 16.1621 60.9375 17.7734 62.3535 18.5547C63.7207 19.3359 65.332 18.8477 66.1133 17.5293ZM35.6445 17.5781L40.3809 9.375C41.1621 8.05664 40.7715 6.44531 39.4043 5.66406C38.0371 4.83398 36.4746 5.32227 35.6934 6.68945L30.9082 14.9414C30.1758 16.2109 30.5176 17.8223 31.9336 18.6035C33.252 19.3848 34.9121 18.8965 35.6445 17.5781Z"/>
  </g>
  <g id="Regular-S" transform="matrix(1 0 0 1 1397.09 696)">
   <path d="M89.1602-32.1777C100.537-34.1797 108.008-43.8965 108.008-50.6348C108.008-52.2949 107.324-53.5156 106.006-53.5156C103.955-53.5156 101.416-50.9277 95.8008-50.9277C86.5723-50.9277 80.8105-56.3965 80.8105-64.7949C80.8105-69.9707 83.6914-73.6816 83.6914-75.8789C83.6914-77.1484 82.8613-78.0273 81.2988-77.9785C74.707-77.9297 64.9902-70.4102 62.6465-60.0098C63.916-58.8379 65.1855-57.2266 66.2598-55.0293C79.4434-54.0039 89.0625-43.7012 89.1602-32.1777ZM23.0957-12.4512L64.3555-12.4512C75.3418-12.4512 83.8867-20.8008 83.8867-31.6406C83.8867-42.334 75.1953-50.4395 63.623-50.5371C59.2285-58.9355 51.123-63.916 41.8945-63.916C29.2969-63.916 18.6035-54.248 17.3828-41.6504C10.9375-39.6973 6.83594-34.082 6.83594-27.2949C6.83594-18.457 13.4277-12.4512 23.0957-12.4512ZM53.418 5.76172L58.1543-2.44141C58.9355-3.71094 58.4961-5.22461 57.2266-5.95703C55.9082-6.73828 54.4434-6.29883 53.6621-5.0293L48.9258 3.27148C48.1934 4.44336 48.584 5.95703 49.9023 6.73828C51.1719 7.42188 52.7344 6.98242 53.418 5.76172ZM22.998 5.81055L27.7344-2.39258C28.5156-3.66211 28.0762-5.17578 26.8066-5.9082C25.4883-6.68945 24.0234-6.25 23.2422-4.98047L18.5059 3.32031C17.7734 4.49219 18.1641 6.00586 19.4824 6.78711C20.752 7.4707 22.3145 7.03125 22.998 5.81055ZM65.3809 16.5527L70.0684 8.34961C70.8496 7.08008 70.4102 5.56641 69.1406 4.83398C67.8223 4.05273 66.3574 4.49219 65.625 5.76172L60.8398 14.0625C60.1074 15.2344 60.498 16.748 61.8164 17.5293C63.0859 18.2129 64.6484 17.7734 65.3809 16.5527ZM34.9609 16.6016L39.6484 8.39844C40.4297 7.12891 39.9902 5.61523 38.7207 4.83398C37.4023 4.10156 35.9375 4.54102 35.2051 5.81055L30.4199 14.1113C29.6875 15.2832 30.0781 16.7969 31.3965 17.5293C32.666 18.2617 34.2285 17.8223 34.9609 16.6016Z"/>
  </g>
  <g id="Light-S" transform="matrix(1 0 0 1 1100.74 696)">
   <path d="M87.3047-31.6406C99.707-33.8379 106.494-43.457 106.494-49.3652C106.494-50.7324 105.859-51.709 104.736-51.709C103.027-51.709 100-49.4141 95.0195-49.4141C85.5469-49.4141 79.541-55.1758 79.541-63.8184C79.541-68.7988 82.1289-72.4609 82.1289-74.3652C82.1289-75.4883 81.3477-76.2207 79.834-76.1719C72.3145-75.6836 64.0137-67.4316 62.3047-57.4707C63.3789-56.3965 64.4043-54.9805 65.2832-53.125C77.8809-52.1973 86.9629-42.9688 87.3047-31.6406ZM22.4121-12.4512L63.916-12.4512C74.6094-12.4512 82.9102-20.5078 82.9102-30.9082C82.9102-41.3086 74.4629-49.1699 63.1348-49.2188C58.5938-57.8613 50.7324-62.8418 41.4551-62.8418C29.1992-62.8418 18.75-53.1738 17.627-40.625C11.0352-38.7207 6.83594-33.252 6.83594-26.6113C6.83594-18.2129 13.1836-12.4512 22.4121-12.4512ZM52.1973 6.05469L57.373-2.92969C58.0078-4.00391 57.666-5.17578 56.6406-5.81055C55.6152-6.39648 54.4434-6.05469 53.8086-4.98047L48.584 4.05273C47.998 5.07812 48.291 6.29883 49.3164 6.88477C50.3418 7.4707 51.5625 7.12891 52.1973 6.05469ZM21.7285 6.10352L26.9531-2.88086C27.5879-3.95508 27.2461-5.17578 26.2207-5.76172C25.1953-6.34766 24.0234-6.00586 23.3398-4.93164L18.1641 4.10156C17.5293 5.12695 17.8223 6.29883 18.8965 6.93359C19.9219 7.51953 21.1426 7.12891 21.7285 6.10352ZM64.1602 16.8457L69.3848 7.86133C70.0195 6.78711 69.6777 5.56641 68.6523 4.98047C67.627 4.3457 66.4551 4.6875 65.8203 5.76172L60.5957 14.8438C59.9609 15.8203 60.2539 17.041 61.3281 17.6758C62.3535 18.2129 63.5742 17.8711 64.1602 16.8457ZM33.7402 16.8457L38.916 7.86133C39.5996 6.78711 39.2578 5.61523 38.2324 4.98047C37.1582 4.39453 35.9863 4.73633 35.3516 5.81055L30.127 14.8438C29.541 15.8691 29.834 17.0898 30.9082 17.6758C31.9336 18.2617 33.1543 17.9199 33.7402 16.8457Z"/>
  </g>
  <g id="Thin-S" transform="matrix(1 0 0 1 804.494 696)">
   <path d="M84.8145-30.9082C98.6328-33.3496 104.443-42.8711 104.443-47.6562C104.443-48.584 103.955-49.2676 103.076-49.2676C101.807-49.2676 98.1934-47.4121 93.9453-47.4121C84.2285-47.4121 77.832-53.5156 77.832-62.5977C77.832-67.334 79.9805-70.8984 79.9805-72.3145C79.9805-73.291 79.3457-73.877 77.9297-73.7305C69.1895-72.7051 62.7441-63.4766 61.8164-54.1016C62.6465-53.125 63.3789-52.0508 64.0137-50.6348C75.7324-49.8047 84.1309-41.9434 84.8145-30.9082ZM21.5332-12.4023L63.3789-12.4023C73.6328-12.4023 81.6895-20.166 81.6895-30.0293C81.6895-39.9902 73.4375-47.4121 62.4512-47.4121C57.8125-56.4453 50.1465-61.4258 40.9668-61.4258C29.0527-61.4258 18.9453-51.7578 17.9688-39.209C11.1328-37.4512 6.83594-32.1777 6.83594-25.7324C6.83594-17.8711 12.8418-12.4023 21.5332-12.4023ZM50.5371 6.49414L56.3477-3.56445C56.8359-4.3457 56.5918-5.17578 55.9082-5.56641C55.2246-5.95703 54.4434-5.71289 53.9551-4.93164L48.1445 5.12695C47.7051 5.9082 47.8516 6.68945 48.584 7.12891C49.2676 7.51953 50.0977 7.27539 50.5371 6.49414ZM20.0684 6.49414L25.8789-3.51562C26.3672-4.3457 26.123-5.12695 25.4395-5.56641C24.7559-5.95703 23.9746-5.71289 23.4863-4.93164L17.6758 5.12695C17.2363 5.9082 17.4316 6.73828 18.1152 7.12891C18.7988 7.51953 19.6289 7.27539 20.0684 6.49414ZM62.5977 17.1875L68.4082 7.17773C68.8965 6.34766 68.7012 5.56641 68.0176 5.12695C67.334 4.78516 66.5527 4.98047 66.0645 5.81055L60.2539 15.8691C59.8145 16.6504 59.9609 17.4316 60.6934 17.8223C61.377 18.2617 62.1582 17.9688 62.5977 17.1875ZM32.1777 17.1875L37.9883 7.17773C38.4766 6.39648 38.2324 5.56641 37.5488 5.17578C36.8652 4.78516 36.084 4.98047 35.5957 5.81055L29.7852 15.8691C29.3457 16.6504 29.4922 17.4316 30.2246 17.8711C30.9082 18.2617 31.7383 18.0176 32.1777 17.1875Z"/>
  </g>
  <g id="Ultralight-S" transform="matrix(1 0 0 1 508.051 696)">
   <path d="M83.5449-30.5176C98.0957-33.1055 103.418-42.5293 103.418-46.7773C103.418-47.5098 102.979-47.998 102.246-47.998C101.172-47.998 97.2168-46.3867 93.4082-46.3867C83.4961-46.3867 76.9531-52.6367 76.9531-61.9629C76.9531-66.5527 78.9062-70.1172 78.9062-71.2402C78.9062-72.168 78.3203-72.6562 76.9531-72.4609C67.5781-71.1426 62.1094-61.4746 61.5723-52.3438C62.3047-51.4648 62.8418-50.5371 63.3301-49.3164C74.6582-48.584 82.7148-41.4062 83.5449-30.5176ZM21.0449-12.4023L63.0859-12.4023C73.0957-12.4023 81.0547-19.9707 81.0547-29.541C81.0547-39.2578 72.9004-46.5332 62.1094-46.4844C57.373-55.7129 49.8535-60.6445 40.6738-60.6445C28.9551-60.6445 19.043-50.9766 18.1152-38.4766C11.2305-36.7676 6.83594-31.6406 6.83594-25.2441C6.83594-17.7246 12.6953-12.4023 21.0449-12.4023ZM49.6582 6.68945L55.8105-3.85742C56.2012-4.54102 56.0547-5.12695 55.5176-5.46875C55.0293-5.71289 54.4434-5.56641 54.0527-4.88281L47.9004 5.66406C47.5586 6.34766 47.6562 6.93359 48.1934 7.22656C48.7305 7.56836 49.3164 7.37305 49.6582 6.68945ZM19.1895 6.68945L25.3418-3.85742C25.7324-4.54102 25.5859-5.12695 25.0488-5.46875C24.5605-5.71289 23.9746-5.56641 23.584-4.88281L17.4316 5.66406C17.0898 6.34766 17.1875 6.93359 17.7246 7.22656C18.2617 7.56836 18.8477 7.37305 19.1895 6.68945ZM61.8164 17.3828L67.9199 6.83594C68.3594 6.15234 68.1641 5.56641 67.6758 5.27344C67.1875 4.98047 66.6016 5.12695 66.1621 5.81055L60.0586 16.4062C59.668 17.041 59.8145 17.627 60.3516 17.9688C60.8398 18.2617 61.4258 18.0664 61.8164 17.3828ZM31.3477 17.3828L37.4512 6.83594C37.8906 6.15234 37.6953 5.56641 37.207 5.27344C36.7188 4.98047 36.1328 5.12695 35.6934 5.81055L29.5898 16.4062C29.248 17.041 29.3457 17.627 29.8828 17.9688C30.3711 18.2617 30.957 18.0664 31.3477 17.3828Z"/>
  </g>
 </g>
</svg>
