<?xml version="1.0" encoding="UTF-8"?>
<!--Generator: Apple Native CoreSVG 149-->
<!DOCTYPE svg
PUBLIC "-//W3C//DTD SVG 1.1//EN"
       "http://www.w3.org/Graphics/SVG/1.1/DTD/svg11.dtd">
<svg version="1.1" xmlns="http://www.w3.org/2000/svg" xmlns:xlink="http://www.w3.org/1999/xlink" width="3300" height="2200">
 <!--glyph: "uni1001E1.medium", point size: 100.000000, font version: "Version 16.0d18e1", template writer version: "8"-->
 <g id="Notes">
  <rect height="2200" id="artboard" style="fill:white;opacity:1" width="3300" x="0" y="0"/>
  <line id="" style="fill:none;stroke:black;opacity:1;stroke-width:0.5;" x1="263" x2="3036" y1="292" y2="292"/>
  <text style="stroke:none;fill:black;font-family:-apple-system,&quot;SF Pro Display&quot;,&quot;SF Pro Text&quot;,Helvetica,sans-serif;font-weight:bold;" transform="matrix(1 0 0 1 263 322)">Weight/Scale Variations</text>
  <text style="stroke:none;fill:black;font-family:-apple-system,&quot;SF Pro Display&quot;,&quot;SF Pro Text&quot;,Helvetica,sans-serif;text-anchor:middle;" transform="matrix(1 0 0 1 559.711 322)">Ultralight</text>
  <text style="stroke:none;fill:black;font-family:-apple-system,&quot;SF Pro Display&quot;,&quot;SF Pro Text&quot;,Helvetica,sans-serif;text-anchor:middle;" transform="matrix(1 0 0 1 856.422 322)">Thin</text>
  <text style="stroke:none;fill:black;font-family:-apple-system,&quot;SF Pro Display&quot;,&quot;SF Pro Text&quot;,Helvetica,sans-serif;text-anchor:middle;" transform="matrix(1 0 0 1 1153.13 322)">Light</text>
  <text style="stroke:none;fill:black;font-family:-apple-system,&quot;SF Pro Display&quot;,&quot;SF Pro Text&quot;,Helvetica,sans-serif;text-anchor:middle;" transform="matrix(1 0 0 1 1449.84 322)">Regular</text>
  <text style="stroke:none;fill:black;font-family:-apple-system,&quot;SF Pro Display&quot;,&quot;SF Pro Text&quot;,Helvetica,sans-serif;text-anchor:middle;" transform="matrix(1 0 0 1 1746.56 322)">Medium</text>
  <text style="stroke:none;fill:black;font-family:-apple-system,&quot;SF Pro Display&quot;,&quot;SF Pro Text&quot;,Helvetica,sans-serif;text-anchor:middle;" transform="matrix(1 0 0 1 2043.27 322)">Semibold</text>
  <text style="stroke:none;fill:black;font-family:-apple-system,&quot;SF Pro Display&quot;,&quot;SF Pro Text&quot;,Helvetica,sans-serif;text-anchor:middle;" transform="matrix(1 0 0 1 2339.98 322)">Bold</text>
  <text style="stroke:none;fill:black;font-family:-apple-system,&quot;SF Pro Display&quot;,&quot;SF Pro Text&quot;,Helvetica,sans-serif;text-anchor:middle;" transform="matrix(1 0 0 1 2636.69 322)">Heavy</text>
  <text style="stroke:none;fill:black;font-family:-apple-system,&quot;SF Pro Display&quot;,&quot;SF Pro Text&quot;,Helvetica,sans-serif;text-anchor:middle;" transform="matrix(1 0 0 1 2933.4 322)">Black</text>
  <line id="" style="fill:none;stroke:black;opacity:1;stroke-width:0.5;" x1="263" x2="3036" y1="1903" y2="1903"/>
  <g id="" transform="matrix(1 0 0 1 263 1933)">
   <path d="M9.24805 0.830078C13.5547 0.830078 17.1387-2.74414 17.1387-7.05078C17.1387-11.3574 13.5449-14.9316 9.23828-14.9316C4.94141-14.9316 1.36719-11.3574 1.36719-7.05078C1.36719-2.74414 4.95117 0.830078 9.24805 0.830078ZM9.24805-0.654297C5.70312-0.654297 2.87109-3.49609 2.87109-7.05078C2.87109-10.6055 5.69336-13.4473 9.23828-13.4473C12.793-13.4473 15.6348-10.6055 15.6445-7.05078C15.6543-3.49609 12.8027-0.654297 9.24805-0.654297ZM6.39648-6.31836L8.50586-6.31836L8.50586-4.19922C8.50586-3.75977 8.79883-3.45703 9.22852-3.45703C9.67773-3.45703 9.9707-3.75977 9.9707-4.19922L9.9707-6.31836L12.0996-6.31836C12.5391-6.31836 12.8418-6.61133 12.8418-7.04102C12.8418-7.48047 12.5391-7.7832 12.0996-7.7832L9.9707-7.7832L9.9707-9.89258C9.9707-10.3418 9.67773-10.6445 9.22852-10.6445C8.79883-10.6445 8.50586-10.3418 8.50586-9.89258L8.50586-7.7832L6.39648-7.7832C5.94727-7.7832 5.64453-7.48047 5.64453-7.04102C5.64453-6.61133 5.94727-6.31836 6.39648-6.31836Z"/>
  </g>
  <g id="" transform="matrix(1 0 0 1 281.506 1933)">
   <path d="M11.709 2.91016C17.1582 2.91016 21.6699-1.61133 21.6699-7.05078C21.6699-12.5 17.1484-17.0117 11.6992-17.0117C6.25977-17.0117 1.74805-12.5 1.74805-7.05078C1.74805-1.61133 6.26953 2.91016 11.709 2.91016ZM11.709 1.25C7.09961 1.25 3.41797-2.44141 3.41797-7.05078C3.41797-11.6602 7.08984-15.3516 11.6992-15.3516C16.3086-15.3516 20-11.6602 20.0098-7.05078C20.0195-2.44141 16.3184 1.25 11.709 1.25ZM7.98828-6.23047L10.8789-6.23047L10.8789-3.32031C10.8789-2.83203 11.2109-2.5 11.6895-2.5C12.1777-2.5 12.5195-2.83203 12.5195-3.32031L12.5195-6.23047L15.4297-6.23047C15.918-6.23047 16.25-6.5625 16.25-7.04102C16.25-7.5293 15.918-7.87109 15.4297-7.87109L12.5195-7.87109L12.5195-10.7617C12.5195-11.2695 12.1777-11.6016 11.6895-11.6016C11.2109-11.6016 10.8789-11.2598 10.8789-10.7617L10.8789-7.87109L7.98828-7.87109C7.48047-7.87109 7.14844-7.5293 7.14844-7.04102C7.14844-6.5625 7.49023-6.23047 7.98828-6.23047Z"/>
  </g>
  <g id="" transform="matrix(1 0 0 1 304.924 1933)">
   <path d="M14.9707 5.66406C21.9336 5.66406 27.6953-0.0976562 27.6953-7.05078C27.6953-14.0137 21.9238-19.7754 14.9609-19.7754C8.00781-19.7754 2.25586-14.0137 2.25586-7.05078C2.25586-0.0976562 8.01758 5.66406 14.9707 5.66406ZM14.9707 3.84766C8.93555 3.84766 4.08203-1.01562 4.08203-7.05078C4.08203-13.0957 8.92578-17.9492 14.9609-17.9492C21.0059-17.9492 25.8594-13.0957 25.8691-7.05078C25.8789-1.01562 21.0156 3.84766 14.9707 3.84766ZM10.0586-6.14258L14.0625-6.14258L14.0625-2.12891C14.0625-1.5918 14.4336-1.2207 14.9512-1.2207C15.4883-1.2207 15.8594-1.5918 15.8594-2.12891L15.8594-6.14258L19.8828-6.14258C20.4102-6.14258 20.791-6.51367 20.791-7.03125C20.791-7.56836 20.4199-7.94922 19.8828-7.94922L15.8594-7.94922L15.8594-11.9531C15.8594-12.5098 15.4883-12.8809 14.9512-12.8809C14.4336-12.8809 14.0625-12.5 14.0625-11.9531L14.0625-7.94922L10.0586-7.94922C9.50195-7.94922 9.13086-7.56836 9.13086-7.03125C9.13086-6.51367 9.51172-6.14258 10.0586-6.14258Z"/>
  </g>
  <text style="stroke:none;fill:black;font-family:-apple-system,&quot;SF Pro Display&quot;,&quot;SF Pro Text&quot;,Helvetica,sans-serif;font-weight:bold;" transform="matrix(1 0 0 1 263 1953)">Design Variations</text>
  <text style="stroke:none;fill:black;font-family:-apple-system,&quot;SF Pro Display&quot;,&quot;SF Pro Text&quot;,Helvetica,sans-serif;" transform="matrix(1 0 0 1 263 1971)">Symbols are supported in up to nine weights and three scales.</text>
  <text style="stroke:none;fill:black;font-family:-apple-system,&quot;SF Pro Display&quot;,&quot;SF Pro Text&quot;,Helvetica,sans-serif;" transform="matrix(1 0 0 1 263 1989)">For optimal layout with text and other symbols, vertically align</text>
  <text style="stroke:none;fill:black;font-family:-apple-system,&quot;SF Pro Display&quot;,&quot;SF Pro Text&quot;,Helvetica,sans-serif;" transform="matrix(1 0 0 1 263 2007)">symbols with the adjacent text.</text>
  <line id="" style="fill:none;stroke:#00AEEF;stroke-width:0.5;opacity:1.0;" x1="776" x2="776" y1="1919" y2="1933"/>
  <g id="" transform="matrix(1 0 0 1 776 1933)">
   <path d="M3.31055 0.126953C3.82812 0.126953 4.08203-0.0683594 4.26758-0.605469L5.52734-4.0625L11.2891-4.0625L12.5488-0.605469C12.7344-0.0683594 12.9883 0.126953 13.4961 0.126953C14.0137 0.126953 14.3457-0.185547 14.3457-0.673828C14.3457-0.839844 14.3164-0.986328 14.2383-1.20117L9.6582-13.3887C9.43359-13.9941 9.0332-14.2871 8.4082-14.2871C7.80273-14.2871 7.39258-13.9941 7.17773-13.3984L2.59766-1.19141C2.51953-0.976562 2.49023-0.830078 2.49023-0.664062C2.49023-0.175781 2.80273 0.126953 3.31055 0.126953ZM6.00586-5.53711L8.37891-12.1094L8.42773-12.1094L10.8008-5.53711Z"/>
  </g>
  <line id="" style="fill:none;stroke:#00AEEF;stroke-width:0.5;opacity:1.0;" x1="792.836" x2="792.836" y1="1919" y2="1933"/>
  <text style="stroke:none;fill:black;font-family:-apple-system,&quot;SF Pro Display&quot;,&quot;SF Pro Text&quot;,Helvetica,sans-serif;font-weight:bold;" transform="matrix(1 0 0 1 776 1953)">Margins</text>
  <text style="stroke:none;fill:black;font-family:-apple-system,&quot;SF Pro Display&quot;,&quot;SF Pro Text&quot;,Helvetica,sans-serif;" transform="matrix(1 0 0 1 776 1971)">Leading and trailing margins on the left and right side of each symbol</text>
  <text style="stroke:none;fill:black;font-family:-apple-system,&quot;SF Pro Display&quot;,&quot;SF Pro Text&quot;,Helvetica,sans-serif;" transform="matrix(1 0 0 1 776 1989)">can be adjusted by modifying the x-location of the margin guidelines.</text>
  <text style="stroke:none;fill:black;font-family:-apple-system,&quot;SF Pro Display&quot;,&quot;SF Pro Text&quot;,Helvetica,sans-serif;" transform="matrix(1 0 0 1 776 2007)">Modifications are automatically applied proportionally to all</text>
  <text style="stroke:none;fill:black;font-family:-apple-system,&quot;SF Pro Display&quot;,&quot;SF Pro Text&quot;,Helvetica,sans-serif;" transform="matrix(1 0 0 1 776 2025)">scales and weights.</text>
  <g id="" transform="matrix(1 0 0 1 1289 1933)">
   <path d="M2.8418 1.86523L4.54102 3.57422C5.40039 4.44336 6.38672 4.38477 7.31445 3.35938L17.4902-7.85156C17.7539-7.76367 18.0273-7.7832 18.3398-7.8418L19.4043-8.03711L20.0684-7.36328L20.0293-6.80664C19.9902-6.30859 20.1172-5.92773 20.6055-5.44922L21.3672-4.70703C21.8457-4.22852 22.4609-4.19922 22.9297-4.66797L25.8398-7.58789C26.3086-8.05664 26.2891-8.65234 25.8105-9.13086L25.0391-9.89258C24.5605-10.3711 24.1895-10.5273 23.7109-10.4883L23.1348-10.4395L22.4902-11.0742L22.7344-12.1973C22.8613-12.7637 22.7051-13.2031 22.1191-13.7891L19.9219-15.9766C16.582-19.2969 12.1484-19.2188 9.25781-16.3281C8.83789-15.918 8.80859-15.3418 9.04297-14.9512C9.27734-14.5898 9.73633-14.3555 10.3809-14.5215C11.8457-14.8633 13.3691-14.9219 14.7949-13.9844L14.209-12.5293C14.0137-12.0508 13.9844-11.6504 14.1113-11.2891L3.04688-0.898438C2.06055 0.0195312 1.98242 0.996094 2.8418 1.86523ZM10.752-15.957C13.1836-17.7344 16.4746-17.4316 18.7012-15.2051L21.1328-12.793C21.3672-12.5586 21.4062-12.373 21.3379-12.0312L21.0156-10.5469L22.5195-9.0625L23.5059-9.12109C23.7598-9.13086 23.8379-9.11133 24.0332-8.91602L24.6094-8.33984L22.168-5.89844L21.5918-6.47461C21.3965-6.66992 21.3672-6.74805 21.377-7.01172L21.4453-7.98828L19.9512-9.47266L18.4277-9.21875C18.1055-9.15039 17.959-9.17969 17.7148-9.41406L15.7129-11.416C15.459-11.6504 15.4297-11.8164 15.5859-12.1875L16.4648-14.2773C14.9023-15.7324 12.8711-16.3574 10.8398-15.7617C10.6836-15.7227 10.625-15.8496 10.752-15.957ZM5.27344 2.30469L4.10156 1.14258C3.63281 0.683594 3.74023 0.341797 4.14062-0.0195312L14.9512-10.1953L16.416-8.71094L6.42578 2.27539C6.07422 2.67578 5.74219 2.77344 5.27344 2.30469Z"/>
  </g>
  <text style="stroke:none;fill:black;font-family:-apple-system,&quot;SF Pro Display&quot;,&quot;SF Pro Text&quot;,Helvetica,sans-serif;font-weight:bold;" transform="matrix(1 0 0 1 1289 1953)">Exporting</text>
  <text style="stroke:none;fill:black;font-family:-apple-system,&quot;SF Pro Display&quot;,&quot;SF Pro Text&quot;,Helvetica,sans-serif;" transform="matrix(1 0 0 1 1289 1971)">Symbols should be outlined when exporting to ensure the</text>
  <text style="stroke:none;fill:black;font-family:-apple-system,&quot;SF Pro Display&quot;,&quot;SF Pro Text&quot;,Helvetica,sans-serif;" transform="matrix(1 0 0 1 1289 1989)">design is preserved when submitting to Xcode.</text>
  <text id="template-version" style="stroke:none;fill:black;font-family:-apple-system,&quot;SF Pro Display&quot;,&quot;SF Pro Text&quot;,Helvetica,sans-serif;text-anchor:end;" transform="matrix(1 0 0 1 3036 1933)">Template v.2.0</text>
  <text style="stroke:none;fill:black;font-family:-apple-system,&quot;SF Pro Display&quot;,&quot;SF Pro Text&quot;,Helvetica,sans-serif;text-anchor:end;" transform="matrix(1 0 0 1 3036 1951)">Requires Xcode 12 or greater</text>
  <text style="stroke:none;fill:black;font-family:-apple-system,&quot;SF Pro Display&quot;,&quot;SF Pro Text&quot;,Helvetica,sans-serif;text-anchor:end;" transform="matrix(1 0 0 1 3036 1969)">Generated from cloud.moon.bolt.fill</text>
  <text style="stroke:none;fill:black;font-family:-apple-system,&quot;SF Pro Display&quot;,&quot;SF Pro Text&quot;,Helvetica,sans-serif;text-anchor:end;" transform="matrix(1 0 0 1 3036 1987)">Typeset at 100 points</text>
  <text style="stroke:none;fill:black;font-family:-apple-system,&quot;SF Pro Display&quot;,&quot;SF Pro Text&quot;,Helvetica,sans-serif;" transform="matrix(1 0 0 1 263 726)">Small</text>
  <text style="stroke:none;fill:black;font-family:-apple-system,&quot;SF Pro Display&quot;,&quot;SF Pro Text&quot;,Helvetica,sans-serif;" transform="matrix(1 0 0 1 263 1156)">Medium</text>
  <text style="stroke:none;fill:black;font-family:-apple-system,&quot;SF Pro Display&quot;,&quot;SF Pro Text&quot;,Helvetica,sans-serif;" transform="matrix(1 0 0 1 263 1586)">Large</text>
 </g>
 <g id="Guides">
  <g id="H-reference" style="fill:#27AAE1;stroke:none;" transform="matrix(1 0 0 1 339 696)">
   <path d="M0.976562 0L3.66211 0L12.9883-24.4629L45.752-24.4629L55.127 0L57.7637 0L30.6152-70.459L28.125-70.459ZM29.3457-67.1387L29.4434-67.1387L44.873-26.709L13.8672-26.709Z"/>
  </g>
  <line id="Baseline-S" style="fill:none;stroke:#27AAE1;opacity:1;stroke-width:0.5;" x1="263" x2="3036" y1="696" y2="696"/>
  <line id="Capline-S" style="fill:none;stroke:#27AAE1;opacity:1;stroke-width:0.5;" x1="263" x2="3036" y1="625.541" y2="625.541"/>
  <g id="H-reference" style="fill:#27AAE1;stroke:none;" transform="matrix(1 0 0 1 339 1126)">
   <path d="M0.976562 0L3.66211 0L12.9883-24.4629L45.752-24.4629L55.127 0L57.7637 0L30.6152-70.459L28.125-70.459ZM29.3457-67.1387L29.4434-67.1387L44.873-26.709L13.8672-26.709Z"/>
  </g>
  <line id="Baseline-M" style="fill:none;stroke:#27AAE1;opacity:1;stroke-width:0.5;" x1="263" x2="3036" y1="1126" y2="1126"/>
  <line id="Capline-M" style="fill:none;stroke:#27AAE1;opacity:1;stroke-width:0.5;" x1="263" x2="3036" y1="1055.54" y2="1055.54"/>
  <g id="H-reference" style="fill:#27AAE1;stroke:none;" transform="matrix(1 0 0 1 339 1556)">
   <path d="M0.976562 0L3.66211 0L12.9883-24.4629L45.752-24.4629L55.127 0L57.7637 0L30.6152-70.459L28.125-70.459ZM29.3457-67.1387L29.4434-67.1387L44.873-26.709L13.8672-26.709Z"/>
  </g>
  <line id="Baseline-L" style="fill:none;stroke:#27AAE1;opacity:1;stroke-width:0.5;" x1="263" x2="3036" y1="1556" y2="1556"/>
  <line id="Capline-L" style="fill:none;stroke:#27AAE1;opacity:1;stroke-width:0.5;" x1="263" x2="3036" y1="1485.54" y2="1485.54"/>
  <line id="left-margin" style="fill:none;stroke:#00AEEF;stroke-width:0.5;opacity:1.0;" x1="1382.75" x2="1382.75" y1="1030.79" y2="1150.12"/>
  <line id="right-margin" style="fill:none;stroke:#FF3B30;stroke-width:0.5;opacity:1.0;" x1="1516.93" x2="1516.93" y1="1030.79" y2="1150.12"/>
 </g>
 <g id="Symbols">
  <g id="Black-L" transform="matrix(1 0 0 1 2842.24 1556)">
   <path d="M158.838-31.3965C177.539-36.6699 189.307-52.832 189.307-64.2578C189.307-67.1875 188.086-69.2871 185.791-69.2871C182.031-69.2871 177.148-65.332 167.676-65.2832C153.076-65.1855 144.043-74.1699 144.043-87.6465C144.043-96.875 147.803-103.369 147.803-107.373C147.803-109.619 146.289-111.084 143.652-111.035C133.057-110.791 115.82-98.7793 111.523-80.4688C114.258-77.832 116.748-74.5605 118.75-70.5566C138.33-69.7266 156.689-54.1016 158.838-31.3965ZM39.1113 7.32422L114.844 7.32422C133.301 7.32422 147.266-7.03125 147.266-26.0254C147.266-45.8008 132.422-60.2539 112.061-60.2051C105.615-72.3145 93.2617-83.1055 73.3398-83.1055C50.6836-83.1055 32.0801-66.3574 30.2246-44.1895C18.7012-41.1133 11.2793-31.25 11.2793-18.9453C11.2793-3.32031 22.5586 7.32422 39.1113 7.32422ZM97.8027 29.7363L83.1055 29.7363L88.2324 19.873C88.9648 18.5059 88.3789 17.4316 86.9629 17.4316L68.6035 17.4316C66.7969 17.4316 66.1621 18.0664 65.625 19.3848L56.8848 39.2578C56.25 40.7715 56.7871 41.7969 58.4473 41.7969L70.459 41.7969L61.8164 62.7441C61.4258 63.5742 61.6699 64.3066 62.207 64.5508C62.793 64.7461 63.4766 64.5996 64.1602 63.9648L98.7305 32.959C100.195 31.6895 99.707 29.7363 97.8027 29.7363Z"/>
  </g>
  <g id="Heavy-L" transform="matrix(1 0 0 1 2546.7 1556)">
   <path d="M155.176-30.9082C174.365-35.791 185.938-51.8555 185.938-62.8418C185.938-65.625 184.814-67.5781 182.617-67.5781C179.102-67.5781 174.17-63.6719 164.99-63.623C150.195-63.5254 140.918-72.6562 140.918-86.377C140.918-95.3125 144.775-101.709 144.775-105.518C144.775-107.617 143.311-109.033 140.723-108.984C129.688-108.594 113.33-96.1914 109.375-78.3203C111.914-75.8789 114.16-72.8516 116.064-69.0918C135.889-68.1152 153.418-52.6367 155.176-30.9082ZM38.5742 6.15234L112.549 6.15234C130.811 6.15234 144.727-7.95898 144.727-26.5137C144.727-45.6055 130.078-59.7168 110.156-59.668C103.418-72.3145 90.918-82.4707 72.1191-82.4707C50.0977-82.4707 31.7871-65.918 29.9805-44.1406C18.6035-41.0645 11.2793-31.3965 11.2793-19.3848C11.2793-4.19922 22.3633 6.15234 38.5742 6.15234ZM95.459 28.8086L81.3965 28.8086L86.7676 18.6035C87.5 17.2363 86.9141 16.1621 85.498 16.1621L68.7988 16.1621C67.041 16.1621 66.4062 16.7969 65.8691 18.1152L57.3242 37.5977C56.6406 39.1113 57.2754 40.0879 58.9355 40.0879L70.4102 40.0879L61.9629 60.5957C61.5723 61.4746 61.7676 62.1582 62.3535 62.4023C62.9395 62.6465 63.623 62.5 64.3066 61.8164L96.4355 31.9824C97.8516 30.7129 97.3145 28.8086 95.459 28.8086Z"/>
  </g>
  <g id="Bold-L" transform="matrix(1 0 0 1 2251.28 1556)">
   <path d="M151.123-30.3223C170.801-34.7656 182.227-50.7812 182.227-61.2793C182.227-63.8184 181.104-65.6738 179.053-65.6738C175.781-65.6738 170.801-61.8164 162.012-61.7676C146.924-61.7188 137.402-70.9961 137.402-84.9121C137.402-93.6035 141.357-99.8535 141.357-103.369C141.357-105.42 139.99-106.738 137.451-106.689C125.879-106.104 110.547-93.2617 107.031-75.9277C109.277-73.7305 111.328-70.9473 113.037-67.4805C133.154-66.2598 149.756-50.9766 151.123-30.3223ZM37.9395 4.83398L110.01 4.83398C128.027 4.83398 141.846-8.98438 141.846-27.0508C141.846-45.459 127.441-59.082 107.959-59.082C101.025-72.3145 88.3301-81.7871 70.8008-81.7871C49.3652-81.7871 31.4941-65.4785 29.6387-44.043C18.457-40.9668 11.2793-31.543 11.2793-19.9219C11.2793-5.22461 22.1191 4.83398 37.9395 4.83398ZM92.8223 27.7832L79.541 27.7832L85.1074 17.1875C85.8398 15.8203 85.2539 14.7461 83.8379 14.7461L69.043 14.7461C67.2852 14.7461 66.6992 15.3809 66.1133 16.6992L57.8125 35.6934C57.1289 37.207 57.8125 38.1836 59.4238 38.1836L70.4102 38.1836L62.1094 58.252C61.7188 59.1309 61.9141 59.8145 62.5 60.0586C63.0859 60.3027 63.7695 60.1074 64.4531 59.4238L93.8477 30.9082C95.166 29.5898 94.6777 27.7832 92.8223 27.7832Z"/>
  </g>
  <g id="Semibold-L" transform="matrix(1 0 0 1 1955.47 1556)">
   <path d="M148.34-29.8828C168.359-34.0332 179.639-50 179.639-60.2051C179.639-62.5977 178.564-64.3066 176.562-64.3066C173.486-64.3066 168.506-60.5469 159.961-60.498C144.678-60.498 135.01-69.8242 135.01-83.9355C135.01-92.4316 139.062-98.584 139.062-101.904C139.062-103.906 137.695-105.176 135.205-105.078C123.291-104.395 108.643-91.2598 105.371-74.2676C107.471-72.2168 109.375-69.6777 110.938-66.3574C131.25-65.0391 147.266-49.8047 148.34-29.8828ZM37.5 3.90625L108.252 3.90625C126.123 3.90625 139.893-9.7168 139.893-27.3926C139.893-45.3125 125.635-58.6914 106.494-58.6914C99.3164-72.3145 86.5723-81.3477 69.873-81.3477C48.877-81.3477 31.2988-65.1367 29.4434-43.9941C18.3594-40.918 11.2793-31.6406 11.2793-20.2637C11.2793-5.95703 21.9238 3.90625 37.5 3.90625ZM91.0645 27.0996L78.2227 27.0996L83.9844 16.2109C84.7168 14.8438 84.1309 13.7695 82.7148 13.7695L69.2383 13.7695C67.4805 13.7695 66.8457 14.4531 66.3086 15.7227L58.1055 34.375C57.4707 35.8887 58.1543 36.8652 59.7656 36.8652L70.4102 36.8652L62.207 56.6406C61.8164 57.5195 62.0117 58.1543 62.5977 58.3984C63.1836 58.6426 63.916 58.4961 64.5508 57.7637L92.041 30.1758C93.3594 28.8574 92.8223 27.0996 91.0645 27.0996Z"/>
  </g>
  <g id="Medium-L" transform="matrix(1 0 0 1 1659.42 1556)">
   <path d="M146.24-29.5898C166.504-33.5449 177.686-49.4629 177.686-59.375C177.686-61.6699 176.611-63.3301 174.707-63.3301C171.777-63.3301 166.797-59.5703 158.398-59.5703C142.969-59.5215 133.154-68.9453 133.154-83.1543C133.154-91.5039 137.256-97.6074 137.256-100.83C137.256-102.734 135.986-104.004 133.496-103.857C121.289-103.125 107.178-89.6973 104.15-72.998C106.104-71.0938 107.861-68.7012 109.375-65.4785C129.834-64.0625 145.361-48.9258 146.24-29.5898ZM37.207 3.22266L106.934 3.22266C124.658 3.22266 138.379-10.2539 138.379-27.6855C138.379-45.2148 124.268-58.3496 105.322-58.3984C98.0469-72.3145 85.2051-80.957 69.1406-80.957C48.5352-80.957 31.1035-64.8926 29.2969-43.9453C18.3105-40.8691 11.2793-31.7383 11.2793-20.5566C11.2793-6.44531 21.8262 3.22266 37.207 3.22266ZM89.6484 26.5625L77.2461 26.5625L83.1055 15.4785C83.8379 14.1113 83.252 13.0371 81.8848 13.0371L69.3848 13.0371C67.627 13.0371 66.9922 13.6719 66.4551 14.9902L58.3984 33.3496C57.7148 34.9121 58.4473 35.8398 60.0098 35.8398L70.3613 35.8398L62.2559 55.4199C61.9141 56.25 62.1094 56.9336 62.6953 57.1777C63.2812 57.4219 63.9648 57.2266 64.5996 56.543L90.7227 29.5898C91.9434 28.2715 91.4551 26.5625 89.6484 26.5625Z"/>
  </g>
  <g id="Regular-L" transform="matrix(1 0 0 1 1363.61 1556)">
   <path d="M143.457-29.1992C164.111-32.8125 175.146-48.6816 175.146-58.252C175.146-60.4492 174.121-62.0117 172.314-62.0117C169.531-62.0117 164.502-58.3008 156.348-58.3008C140.771-58.3008 130.762-67.8223 130.762-82.1777C130.762-90.332 134.961-96.3867 134.961-99.3652C134.961-101.27 133.691-102.393 131.25-102.295C118.701-101.416 105.273-87.7441 102.539-71.3867C104.297-69.6289 105.957-67.3828 107.324-64.3555C127.979-62.8418 142.822-47.8027 143.457-29.1992ZM36.7676 2.29492L105.225 2.29492C122.754 2.29492 136.426-10.9375 136.426-28.0273C136.426-45.0684 122.461-57.9102 103.857-58.0078C96.3867-72.3145 83.4473-80.5176 68.2617-80.5176C48.0469-80.5176 30.9082-64.5996 29.0527-43.8965C18.2129-40.7715 11.2793-31.8359 11.2793-20.8984C11.2793-7.17773 21.6797 2.29492 36.7676 2.29492ZM87.8906 25.8789L75.9277 25.8789L81.9824 14.502C82.7148 13.1348 82.1289 12.1094 80.7617 12.1094L69.5312 12.1094C67.7734 12.1094 67.1875 12.7441 66.6504 14.0137L58.6914 32.0801C58.0078 33.5938 58.7891 34.5703 60.3516 34.5703L70.3613 34.5703L62.3535 53.8086C62.0117 54.6387 62.207 55.3223 62.793 55.5664C63.3789 55.8105 64.1113 55.6152 64.6973 54.8828L88.916 28.8574C90.1367 27.5391 89.6484 25.8789 87.8906 25.8789Z"/>
  </g>
  <g id="Light-L" transform="matrix(1 0 0 1 1067.37 1556)">
   <path d="M141.064-28.4668C163.086-32.373 173.193-48.1445 173.193-56.6406C173.193-58.4473 172.266-59.668 170.703-59.668C168.359-59.668 162.744-56.3965 155.322-56.3965C139.453-56.3965 129.15-66.2598 129.15-81.0059C129.15-88.916 132.959-94.873 132.959-97.4121C132.959-99.1699 131.787-100.146 129.395-99.9512C115.723-98.584 104.102-83.9355 102.1-68.1641C103.613-66.5039 104.932-64.5996 106.104-61.9629C125.928-60.5469 140.186-46.8262 141.064-28.4668ZM35.9375 2.34375L104.688 2.34375C121.826 2.34375 135.254-10.5957 135.254-27.1484C135.254-43.7988 121.533-56.2988 103.223-56.2988C95.6543-70.9961 82.9102-79.1504 67.7246-79.1504C47.9004-79.1504 31.1035-63.2324 29.3945-42.5781C18.3105-39.5508 11.2793-30.8105 11.2793-20.0684C11.2793-6.83594 21.3379 2.34375 35.9375 2.34375ZM85.0098 26.6113L73.877 26.6113L80.2734 14.5996C81.0059 13.2324 80.4688 12.207 79.0527 12.207L70.459 12.207C68.7012 12.207 68.0664 12.8418 67.5293 14.1113L59.7656 31.8359C59.082 33.4473 59.9121 34.375 61.4746 34.375L70.7031 34.375L62.8418 53.2227C62.5 54.1504 62.6953 54.834 63.3301 55.0781C63.916 55.3223 64.6484 55.127 65.2344 54.2969L86.1816 29.5898C87.3047 28.1738 86.7676 26.6113 85.0098 26.6113Z"/>
  </g>
  <g id="Thin-L" transform="matrix(1 0 0 1 771.266 1556)">
   <path d="M137.939-27.5391C161.719-31.7871 170.605-47.3633 170.605-54.4922C170.605-55.7617 169.873-56.5918 168.652-56.5918C166.797-56.5918 160.4-53.8574 153.955-53.8574C137.744-53.8574 127.002-64.1113 127.002-79.4434C127.002-87.0117 130.273-92.8711 130.273-94.8242C130.273-96.3867 129.297-97.168 127.002-96.875C111.719-94.8242 102.49-78.9551 101.514-63.916C102.686-62.4023 103.613-60.8398 104.492-58.7891C123.291-57.5195 136.621-45.5566 137.939-27.5391ZM34.8145 2.34375L104.004 2.34375C120.557 2.34375 133.691-10.1562 133.691-26.0254C133.691-42.0898 120.264-54.1016 102.344-54.0527C94.6289-69.1895 82.2266-77.3438 67.0898-77.3438C47.7539-77.3438 31.3965-61.4258 29.7852-40.8203C18.457-37.9395 11.2793-29.4434 11.2793-18.8965C11.2793-6.44531 20.9473 2.34375 34.8145 2.34375ZM81.2012 27.5879L71.1426 27.5879L78.0273 14.7949C78.7598 13.4277 78.2227 12.3047 76.7578 12.3047L71.7285 12.3047C69.873 12.3047 69.2383 12.9395 68.7012 14.3066L61.1328 31.543C60.4492 33.2031 61.4258 34.1309 62.9883 34.1309L71.1914 34.1309L63.5254 52.4902C63.1348 53.4668 63.3789 54.1504 64.0137 54.3945C64.6484 54.6387 65.4297 54.4434 66.0156 53.5645L82.5684 30.5176C83.5938 29.0527 82.959 27.5879 81.2012 27.5879Z"/>
  </g>
  <g id="Ultralight-L" transform="matrix(1 0 0 1 474.848 1556)">
   <path d="M136.377-27.0996C160.986-31.4941 169.287-46.9727 169.287-53.418C169.287-54.3945 168.604-55.0293 167.578-55.0293C166.016-55.0293 159.229-52.5879 153.271-52.5879C136.865-52.5879 125.879-63.0371 125.879-78.6133C125.879-86.0352 128.906-91.8945 128.906-93.5059C128.906-94.9707 127.979-95.6543 125.732-95.3125C109.668-92.8711 101.66-76.416 101.221-61.7188C102.246-60.3027 102.93-58.9355 103.662-57.1777C121.924-56.0059 134.814-44.9219 136.377-27.0996ZM34.2285 2.39258L103.662 2.39258C119.922 2.39258 132.861-9.91211 132.861-25.4395C132.861-41.2109 119.58-52.9785 101.904-52.8809C94.0918-68.2617 81.8359-76.416 66.748-76.416C47.6562-76.416 31.4941-60.498 30.0293-39.8926C18.5547-37.1094 11.2793-28.7598 11.2793-18.3594C11.2793-6.20117 20.7031 2.39258 34.2285 2.39258ZM79.248 28.125L69.7754 28.125L76.9043 14.8926C77.5879 13.5254 77.0508 12.3535 75.5859 12.3535L72.3633 12.3535C70.5078 12.3535 69.873 12.9883 69.2871 14.4043L61.8652 31.3965C61.1328 33.1055 62.207 33.9844 63.7207 33.9844L71.4355 33.9844L63.8672 52.1484C63.4277 53.125 63.6719 53.8574 64.3555 54.0527C64.9902 54.2969 65.8203 54.0527 66.3574 53.1738L80.7129 31.0059C81.6895 29.541 81.0059 28.125 79.248 28.125Z"/>
  </g>
  <g id="Black-M" transform="matrix(1 0 0 1 2861.43 1126)">
   <path d="M126.709-32.6172C141.309-37.3535 150.195-49.8535 150.195-58.7891C150.195-61.084 149.268-62.6953 147.461-62.6953C144.434-62.6953 140.381-59.8145 133.008-59.7168C121.875-59.6191 114.99-66.6016 114.99-77.002C114.99-84.2773 117.578-89.4531 117.578-92.6758C117.578-94.3848 116.357-95.6055 114.307-95.5078C106.104-95.2637 92.4805-85.9863 89.0625-71.4355C91.3574-69.1895 93.3594-66.5039 94.9707-63.2812C109.473-62.9395 124.414-51.3184 126.709-32.6172ZM30.6152-0.683594L91.7969-0.683594C106.201-0.683594 116.943-11.9629 116.943-27.002C116.943-42.9688 105.273-54.4922 89.1113-54.3945C84.3262-63.2324 75.0977-72.4121 58.2031-72.4121C40.0879-72.4121 25.3418-59.1797 23.9746-41.5527C14.7461-39.2578 8.74023-31.3965 8.74023-21.5332C8.74023-9.08203 17.5781-0.683594 30.6152-0.683594ZM77.3926 16.748L65.5762 16.748L69.4336 9.27734C70.0195 8.20312 69.5801 7.32422 68.457 7.32422L53.3691 7.32422C51.9531 7.32422 51.416 7.8125 50.9766 8.88672L44.043 24.707C43.5547 25.8789 43.9941 26.6602 45.3125 26.6602L54.834 26.6602L47.998 43.2129C47.7051 43.8965 47.8516 44.4824 48.291 44.6777C48.7305 44.873 49.3164 44.7266 49.8535 44.2383L78.1738 19.2871C79.3457 18.3105 78.9062 16.748 77.3926 16.748Z"/>
  </g>
  <g id="Heavy-M" transform="matrix(1 0 0 1 2565.86 1126)">
   <path d="M123.34-32.2266C138.086-36.4746 147.021-48.9746 147.021-57.666C147.021-59.8633 146.143-61.4258 144.385-61.4258C141.504-61.4258 137.549-58.4473 130.371-58.3984C119.043-58.3008 111.963-65.3809 111.963-75.8789C111.963-83.0078 114.746-88.0371 114.746-91.1133C114.746-92.7734 113.623-93.9453 111.572-93.8965C103.174-93.6035 90.0879-84.1309 86.8652-69.9219C88.9648-67.8711 90.8691-65.3809 92.3828-62.3047C107.275-61.7676 121.533-49.9512 123.34-32.2266ZM30.2246-1.95312L89.4531-1.95312C103.711-1.95312 114.453-13.0371 114.453-27.7344C114.453-43.1152 102.979-54.3457 87.1582-54.248C82.1777-63.623 72.7051-72.1191 57.0312-72.1191C39.4043-72.1191 25-59.082 23.584-41.8457C14.5508-39.502 8.74023-31.8359 8.74023-22.2656C8.74023-10.1562 17.4316-1.95312 30.2246-1.95312ZM75.5859 15.5273L64.2578 15.5273L68.3105 7.8125C68.8477 6.78711 68.4082 5.9082 67.2852 5.9082L53.3691 5.9082C51.9531 5.9082 51.4648 6.44531 51.0254 7.4707L44.2383 22.9004C43.75 24.0723 44.1895 24.8535 45.5078 24.8535L54.6875 24.8535L47.998 41.0645C47.7051 41.748 47.9004 42.2852 48.3398 42.4805C48.7793 42.6758 49.3164 42.5293 49.8535 42.041L76.3672 18.0664C77.4902 17.041 77.0508 15.5273 75.5859 15.5273Z"/>
  </g>
  <g id="Bold-M" transform="matrix(1 0 0 1 2270.45 1126)">
   <path d="M119.629-31.7871C134.521-35.498 143.506-47.9492 143.506-56.3965C143.506-58.4961 142.627-60.0098 140.918-60.0098C138.232-60.0098 134.424-56.9824 127.393-56.9336C115.869-56.8848 108.643-63.9648 108.643-74.6582C108.643-81.543 111.67-86.4746 111.67-89.3555C111.67-91.0156 110.547-92.0898 108.545-92.041C99.9023-91.6992 87.4023-82.0312 84.375-68.2617C86.2793-66.4062 88.0371-64.1113 89.4531-61.2305C104.883-60.4492 118.311-48.4375 119.629-31.7871ZM29.7852-3.41797L86.8164-3.41797C100.928-3.41797 111.67-14.3066 111.67-28.5645C111.67-43.2617 100.391-54.1504 85.0098-54.1016C79.7363-64.0137 70.0195-71.7773 55.6641-71.7773C38.6719-71.7773 24.6094-58.9844 23.1445-42.1387C14.4043-39.7461 8.74023-32.2754 8.74023-23.0469C8.74023-11.377 17.2852-3.41797 29.7852-3.41797ZM73.584 14.209L62.793 14.209L66.9922 6.25C67.5293 5.17578 67.0898 4.3457 66.0156 4.3457L53.3691 4.3457C51.9531 4.3457 51.5137 4.83398 51.0742 5.85938L44.4824 20.8496C43.9941 22.0215 44.4336 22.8027 45.7031 22.8027L54.5898 22.8027L47.998 38.6719C47.7539 39.3066 47.9004 39.8438 48.3398 40.0391C48.7793 40.2344 49.3164 40.0879 49.8535 39.5996L74.3164 16.6504C75.3906 15.6738 75 14.209 73.584 14.209Z"/>
  </g>
  <g id="Semibold-M" transform="matrix(1 0 0 1 1974.61 1126)">
   <path d="M117.041-31.4941C132.08-34.8145 141.064-47.2168 141.064-55.5176C141.064-57.5684 140.186-59.0332 138.574-59.0332C135.986-59.0332 132.275-55.957 125.342-55.957C113.672-55.9082 106.299-63.0371 106.299-73.7793C106.299-80.5176 109.521-85.3516 109.521-88.1348C109.521-89.7461 108.398-90.8203 106.445-90.7715C97.6562-90.4297 85.5469-80.5664 82.666-67.0898C84.4727-65.4297 86.084-63.2324 87.4023-60.498C103.223-59.5215 116.113-47.3633 117.041-31.4941ZM29.4922-4.39453L85.0098-4.39453C99.0234-4.39453 109.766-15.1367 109.766-29.1504C109.766-43.4082 98.584-54.0039 83.4961-54.0039C78.0762-64.2578 68.2129-71.5332 54.7852-71.5332C38.1836-71.5332 24.3164-58.8867 22.8516-42.334C14.2578-39.9414 8.74023-32.6172 8.74023-23.6328C8.74023-12.207 17.1875-4.39453 29.4922-4.39453ZM72.168 13.3301L61.7676 13.3301L66.0645 5.12695C66.6504 4.10156 66.2109 3.27148 65.1367 3.27148L53.3691 3.27148C52.002 3.27148 51.5137 3.75977 51.0742 4.78516L44.6289 19.4824C44.1406 20.6543 44.6289 21.3867 45.8496 21.3867L54.4922 21.3867L48.0469 36.9629C47.7539 37.6465 47.9004 38.1836 48.3398 38.3789C48.7793 38.5254 49.3164 38.4277 49.8535 37.8906L72.9492 15.7227C73.9746 14.6973 73.584 13.3301 72.168 13.3301Z"/>
  </g>
  <g id="Medium-M" transform="matrix(1 0 0 1 1678.59 1126)">
   <path d="M115.088-31.25C130.225-34.2773 139.258-46.6797 139.258-54.8828C139.258-56.8359 138.379-58.252 136.768-58.252C134.277-58.252 130.615-55.1758 123.779-55.1758C112.012-55.1758 104.59-62.3047 104.59-73.1445C104.59-79.7852 107.861-84.5215 107.861-87.2559C107.861-88.8184 106.787-89.8438 104.834-89.7949C95.9473-89.4531 84.1309-79.4922 81.3965-66.2109C83.0566-64.6484 84.6191-62.5977 85.8887-59.9121C101.953-58.7891 114.404-46.582 115.088-31.25ZM29.2969-5.17578L83.6426-5.17578C97.5586-5.17578 108.301-15.7715 108.301-29.5898C108.301-43.5059 97.2168-53.9062 82.3242-53.9551C76.8066-64.502 66.7969-71.3379 54.0527-71.3379C37.793-71.3379 24.1211-58.8379 22.6562-42.4805C14.1602-40.0391 8.74023-32.8613 8.74023-24.0723C8.74023-12.8418 17.0898-5.17578 29.2969-5.17578ZM71.1426 12.5977L61.0352 12.5977L65.3809 4.29688C65.9668 3.27148 65.5273 2.44141 64.4531 2.44141L53.3691 2.44141C52.002 2.44141 51.5625 2.97852 51.123 3.95508L44.7266 18.4082C44.2383 19.5801 44.7266 20.3613 45.9961 20.3613L54.3945 20.3613L48.0469 35.7422C47.7539 36.377 47.9004 36.9141 48.3398 37.1094C48.8281 37.2559 49.3164 37.1582 49.8535 36.6211L71.875 14.9902C72.9004 13.9648 72.5098 12.5977 71.1426 12.5977Z"/>
  </g>
  <g id="Regular-M" transform="matrix(1 0 0 1 1382.75 1126)">
   <path d="M112.549-30.957C127.783-33.6426 136.816-45.9961 136.816-54.0039C136.816-55.9082 135.986-57.3242 134.424-57.3242C132.031-57.3242 128.516-54.1992 121.729-54.1992C109.814-54.1992 102.295-61.377 102.295-72.2656C102.295-78.7598 105.762-83.4473 105.762-86.0352C105.762-87.5977 104.688-88.5742 102.783-88.5254C93.75-88.1348 82.2754-78.0762 79.7363-65.0879C81.2012-63.6719 82.666-61.7676 83.8867-59.1797C100.342-57.9102 112.256-45.5078 112.549-30.957ZM29.0039-6.15234L81.8359-6.15234C95.6543-6.15234 106.396-16.6016 106.396-30.127C106.396-43.6035 95.459-53.7598 80.8594-53.8574C75.1465-64.7461 64.9902-71.0938 53.1738-71.0938C37.3047-71.0938 23.8281-58.7402 22.3633-42.7246C14.0625-40.2344 8.74023-33.2031 8.74023-24.6094C8.74023-13.6719 16.9922-6.15234 29.0039-6.15234ZM69.7266 11.7188L60.0098 11.7188L64.502 3.22266C65.0879 2.14844 64.6484 1.36719 63.5742 1.36719L53.3691 1.36719C52.002 1.36719 51.5625 1.9043 51.123 2.83203L44.873 17.041C44.3848 18.2129 44.9219 18.9453 46.1426 18.9453L54.3457 18.9453L48.0469 34.082C47.8027 34.7168 47.9004 35.2539 48.3887 35.4004C48.8281 35.5957 49.3652 35.4492 49.8047 34.9121L70.459 14.0625C71.4844 13.0371 71.1426 11.7188 69.7266 11.7188Z"/>
  </g>
  <g id="Light-M" transform="matrix(1 0 0 1 1086.46 1126)">
   <path d="M110.4-30.3223C126.855-33.252 135.107-45.5078 135.107-52.5391C135.107-54.1016 134.326-55.2246 133.008-55.2246C131.006-55.2246 126.904-52.4902 120.85-52.4902C108.643-52.4902 100.83-59.9609 100.83-71.2402C100.83-77.4902 103.955-82.1289 103.955-84.2773C103.955-85.6934 102.979-86.5723 101.123-86.4258C91.0156-85.5957 81.2012-74.6582 79.2969-62.207C80.6152-60.8887 81.7871-59.2285 82.8125-57.0312C98.5352-55.8594 109.814-44.6777 110.4-30.3223ZM28.2227-6.10352L81.3477-6.10352C94.8242-6.10352 105.322-16.3086 105.322-29.3457C105.322-42.4316 94.5801-52.2949 80.2734-52.2949C74.4629-63.5254 64.502-69.873 52.7344-69.873C37.207-69.873 24.0234-57.5195 22.6562-41.5039C14.1602-39.1113 8.74023-32.2754 8.74023-23.8281C8.74023-13.3789 16.6992-6.10352 28.2227-6.10352ZM67.1875 12.3535L58.2031 12.3535L62.9883 3.32031C63.5254 2.29492 63.0859 1.46484 62.0117 1.46484L54.1992 1.46484C52.832 1.46484 52.3438 1.95312 51.9043 2.97852L45.8496 16.8457C45.3125 18.0664 45.9473 18.7988 47.168 18.7988L54.6387 18.7988L48.4863 33.5938C48.1934 34.2773 48.3887 34.7656 48.8281 34.9609C49.3164 35.1562 49.8535 35.0098 50.3418 34.4238L68.0176 14.6973C68.9453 13.623 68.5547 12.3535 67.1875 12.3535Z"/>
  </g>
  <g id="Thin-M" transform="matrix(1 0 0 1 790.285 1126)">
   <path d="M107.617-29.4922C125.635-32.7148 132.812-44.8242 132.812-50.6348C132.812-51.709 132.178-52.4414 131.152-52.4414C129.639-52.4414 124.854-50.2441 119.629-50.2441C107.129-50.2441 98.877-58.1055 98.877-69.8242C98.877-75.7812 101.562-80.3223 101.562-81.9824C101.562-83.252 100.732-83.8867 98.9258-83.6914C87.4512-82.2266 79.7852-70.2148 78.8086-58.3496C79.7852-57.1777 80.6152-55.9082 81.3477-54.1992C96.1426-53.1738 106.641-43.5059 107.617-29.4922ZM27.1973-6.10352L80.7617-6.10352C93.7012-6.10352 103.955-15.8691 103.955-28.3203C103.955-40.918 93.457-50.3418 79.4922-50.293C73.5352-61.9629 63.8672-68.2617 52.1484-68.2617C37.0117-68.2617 24.2676-55.9082 22.998-39.9414C14.2578-37.6953 8.74023-31.0547 8.74023-22.8516C8.74023-12.9883 16.3086-6.10352 27.1973-6.10352ZM63.7695 13.2324L55.7129 13.2324L60.9863 3.51562C61.5234 2.44141 61.084 1.5625 59.9609 1.5625L55.3223 1.5625C53.9062 1.5625 53.418 2.09961 52.9785 3.125L47.0703 16.6016C46.5332 17.8711 47.2656 18.5547 48.4863 18.5547L55.0781 18.5547L49.0723 32.9102C48.7793 33.6426 48.9746 34.1797 49.4629 34.375C49.9512 34.5703 50.5371 34.375 50.9766 33.7402L64.7949 15.5273C65.5762 14.4043 65.1367 13.2324 63.7695 13.2324Z"/>
  </g>
  <g id="Ultralight-M" transform="matrix(1 0 0 1 493.866 1126)">
   <path d="M106.152-29.0527C125-32.4219 131.592-44.4336 131.592-49.6582C131.592-50.4883 131.055-51.0254 130.176-51.0254C128.906-51.0254 123.779-49.0723 118.994-49.0723C106.348-49.0723 97.9004-57.1289 97.9004-69.0918C97.9004-74.9023 100.342-79.4434 100.342-80.7617C100.342-81.9824 99.5605-82.5195 97.8516-82.2754C85.6445-80.4688 79.0527-67.9199 78.5156-56.3965C79.3945-55.3223 79.9805-54.1992 80.6152-52.7344C94.9219-51.8066 105.029-42.9199 106.152-29.0527ZM26.709-6.10352L80.4199-6.10352C93.1152-6.10352 103.223-15.6738 103.223-27.7832C103.223-40.1367 92.8711-49.3164 79.1016-49.2676C73.0469-61.1328 63.5254-67.4316 51.8066-67.4316C36.9629-67.4316 24.3652-55.0781 23.1934-39.1113C14.3555-36.9629 8.74023-30.4199 8.74023-22.3145C8.74023-12.793 16.1133-6.10352 26.709-6.10352ZM62.0117 13.7207L54.4922 13.7207L59.9121 3.56445C60.498 2.49023 60.0586 1.66016 58.9355 1.66016L55.9082 1.66016C54.4434 1.66016 53.9551 2.14844 53.5156 3.22266L47.7539 16.4551C47.168 17.7734 47.998 18.457 49.1699 18.457L55.2734 18.457L49.3652 32.5684C49.0723 33.3496 49.2676 33.8867 49.7559 34.082C50.2441 34.2773 50.8789 34.082 51.3184 33.3984L63.1348 15.918C63.8672 14.7949 63.3789 13.7207 62.0117 13.7207Z"/>
  </g>
  <g id="Black-S" transform="matrix(1 0 0 1 2877.1 696)">
   <path d="M99.0234-33.1543C110.449-36.8164 117.432-46.6309 117.432-53.6133C117.432-55.4199 116.699-56.6895 115.283-56.6895C112.939-56.6895 109.766-54.3945 104.004-54.3457C95.2637-54.248 89.8438-59.7168 89.8438-67.8711C89.8438-73.584 91.8945-77.6367 91.8945-80.127C91.8945-81.4941 90.9668-82.4219 89.3555-82.373C82.9102-82.1777 72.2656-74.9023 69.5801-63.5254C71.3867-61.7676 72.9492-59.668 74.2188-57.1777C85.5957-56.8848 97.2656-47.7539 99.0234-33.1543ZM23.9746-8.25195L71.7285-8.25195C83.0078-8.25195 91.4551-17.0898 91.4551-28.8574C91.4551-41.3086 82.3242-50.3418 69.6777-50.2441C65.918-57.2266 58.6426-64.3555 45.5078-64.3555C31.3477-64.3555 19.8242-54.0039 18.75-40.2344C11.5234-38.4277 6.83594-32.2754 6.83594-24.5605C6.83594-14.8438 13.7695-8.25195 23.9746-8.25195ZM60.5469 5.37109L51.2695 5.37109L54.3457-0.488281C54.7852-1.31836 54.4434-2.00195 53.5645-2.00195L41.7969-2.00195C40.6738-2.00195 40.2832-1.61133 39.9414-0.78125L34.5215 11.5723C34.1309 12.5 34.4727 13.1348 35.498 13.1348L42.9199 13.1348L37.5977 26.0742C37.3535 26.6113 37.5 27.0508 37.8418 27.1973C38.1836 27.3438 38.623 27.2461 39.0625 26.8555L61.1328 7.37305C62.0605 6.5918 61.7188 5.37109 60.5469 5.37109Z"/>
  </g>
  <g id="Heavy-S" transform="matrix(1 0 0 1 2581.22 696)">
   <path d="M96.6797-32.9102C108.105-36.1816 115.234-45.9961 115.234-52.9297C115.234-54.6875 114.502-55.957 113.086-55.957C110.84-55.957 107.812-53.5645 102.051-53.5156C93.2129-53.4668 87.6953-58.9355 87.6953-67.1387C87.6953-72.7539 89.9414-76.709 89.9414-79.1504C89.9414-80.4688 89.0625-81.3965 87.4512-81.3477C80.957-81.1523 70.5566-73.8281 67.9199-62.6953C69.6289-61.084 71.1426-59.082 72.3145-56.6895C84.1309-56.2012 95.3125-46.7773 96.6797-32.9102ZM23.7793-9.22852L69.9707-9.22852C81.2012-9.22852 89.6484-17.9688 89.6484-29.4922C89.6484-41.5527 80.6641-50.3906 68.2617-50.293C64.3555-57.6172 56.8848-64.2578 44.6289-64.2578C30.8594-64.2578 19.5312-54.0527 18.4082-40.5762C11.377-38.7207 6.83594-32.7148 6.83594-25.1953C6.83594-15.6738 13.6719-9.22852 23.7793-9.22852ZM59.4727 4.39453L50.4883 4.39453L53.6133-1.61133C54.0527-2.44141 53.7109-3.07617 52.832-3.07617L41.6992-3.07617C40.5762-3.07617 40.2344-2.68555 39.8926-1.9043L34.5703 10.2051C34.1797 11.1328 34.5215 11.7676 35.5469 11.7676L42.8223 11.7676L37.5488 24.4629C37.3047 25 37.4512 25.4395 37.793 25.5859C38.1348 25.7324 38.5742 25.6348 39.0137 25.2441L60.0098 6.34766C60.9375 5.56641 60.5957 4.39453 59.4727 4.39453Z"/>
  </g>
  <g id="Bold-S" transform="matrix(1 0 0 1 2285.44 696)">
   <path d="M94.0918-32.666C105.518-35.498 112.744-45.2637 112.744-52.1484C112.744-53.8574 112.012-55.127 110.645-55.127C108.447-55.127 105.615-52.6367 99.9023-52.6367C90.918-52.5879 85.3516-58.0566 85.3516-66.3086C85.3516-71.7773 87.793-75.6348 87.793-78.0273C87.793-79.3457 86.9141-80.2246 85.3027-80.1758C78.8086-80.0293 68.6035-72.6562 66.1133-61.7676C67.6758-60.3027 69.0918-58.4473 70.2148-56.1035C82.5195-55.4199 93.1641-45.752 94.0918-32.666ZM23.5352-10.3516L68.0176-10.3516C79.1992-10.3516 87.6465-18.9453 87.6465-30.2246C87.6465-41.8457 78.7598-50.3906 66.6504-50.3906C62.5488-58.1055 54.8828-64.1602 43.7012-64.1602C30.3223-64.1602 19.1895-54.1504 18.0664-40.9668C11.2305-39.0625 6.83594-33.2031 6.83594-25.9277C6.83594-16.6504 13.623-10.3516 23.5352-10.3516ZM58.2031 3.32031L49.6094 3.32031L52.832-2.83203C53.2715-3.66211 52.9297-4.29688 52.0508-4.29688L41.6016-4.29688C40.5273-4.29688 40.1367-3.90625 39.7949-3.125L34.6191 8.69141C34.2285 9.61914 34.5703 10.2051 35.5957 10.2051L42.6758 10.2051L37.5 22.7051C37.3047 23.1934 37.4023 23.6328 37.7441 23.7793C38.0859 23.9258 38.5254 23.8281 38.916 23.4375L58.7891 5.22461C59.6191 4.44336 59.3262 3.32031 58.2031 3.32031Z"/>
  </g>
  <g id="Semibold-S" transform="matrix(1 0 0 1 1989.38 696)">
   <path d="M92.2852-32.4707C103.711-35.0098 111.035-44.7754 111.035-51.6113C111.035-53.3203 110.303-54.541 108.936-54.541C106.787-54.541 104.053-52.002 98.3887-52.002C89.3555-51.9531 83.6914-57.4707 83.6914-65.7715C83.6914-71.0938 86.3281-74.9512 86.3281-77.2461C86.3281-78.5156 85.4492-79.3945 83.8379-79.3945C77.3438-79.2969 67.2852-71.8262 64.8438-61.1328C66.3086-59.7656 67.6758-58.0078 68.7988-55.7129C81.3965-54.8828 91.6992-45.0195 92.2852-32.4707ZM23.3398-11.1328L66.6992-11.1328C77.7832-11.1328 86.2793-19.6289 86.2793-30.7617C86.2793-42.041 77.4902-50.4395 65.5762-50.4395C61.3281-58.3984 53.5156-64.0625 43.0176-64.0625C29.9316-64.0625 18.9941-54.1504 17.8223-41.2109C11.1328-39.2578 6.83594-33.4961 6.83594-26.416C6.83594-17.334 13.5254-11.1328 23.3398-11.1328ZM57.373 2.53906L48.9746 2.53906L52.2461-3.66211C52.6855-4.49219 52.3438-5.12695 51.5137-5.12695L41.5039-5.12695C40.4785-5.12695 40.0879-4.73633 39.7461-3.95508L34.668 7.66602C34.2773 8.54492 34.6191 9.13086 35.5957 9.13086L42.5781 9.13086L37.5 21.4355C37.2559 21.9727 37.4023 22.3633 37.7441 22.5098C38.0859 22.6562 38.4766 22.5586 38.8672 22.168L57.9102 4.44336C58.7402 3.66211 58.4961 2.53906 57.373 2.53906Z"/>
  </g>
  <g id="Medium-S" transform="matrix(1 0 0 1 1693.16 696)">
   <path d="M90.9668-32.373C102.344-34.668 109.717-44.3848 109.717-51.1719C109.717-52.8809 108.984-54.1016 107.666-54.1016C105.566-54.1016 102.93-51.5137 97.2656-51.5137C88.1348-51.5137 82.4707-57.0312 82.4707-65.332C82.4707-70.6055 85.1562-74.3652 85.1562-76.6602C85.1562-77.9297 84.3262-78.8086 82.7637-78.8086C76.2207-78.7109 66.2598-71.2402 63.8672-60.6445C65.2832-59.375 66.6016-57.666 67.6758-55.4199C80.5664-54.4922 90.5762-44.4336 90.9668-32.373ZM23.2422-11.6699L65.6738-11.6699C76.7578-11.6699 85.2539-20.1172 85.2539-31.1035C85.2539-42.1387 76.4648-50.4395 64.6973-50.4883C60.4004-58.6426 52.4902-64.0137 42.5293-64.0137C29.6387-64.0137 18.7988-54.1992 17.627-41.4062C11.0352-39.4531 6.83594-33.7402 6.83594-26.8066C6.83594-17.8223 13.4766-11.6699 23.2422-11.6699ZM56.7383 1.95312L48.5352 1.95312L51.8066-4.29688C52.2461-5.12695 51.9043-5.76172 51.0742-5.76172L41.4551-5.76172C40.4297-5.76172 40.0879-5.37109 39.7461-4.58984L34.668 6.88477C34.2773 7.76367 34.6191 8.34961 35.6445 8.34961L42.4805 8.34961L37.4512 20.5078C37.2559 21.0449 37.3535 21.4355 37.6953 21.582C38.0371 21.7285 38.4277 21.6309 38.8672 21.2402L57.2754 3.85742C58.1055 3.07617 57.8125 1.95312 56.7383 1.95312Z"/>
  </g>
  <g id="Regular-S" transform="matrix(1 0 0 1 1397.09 696)">
   <path d="M89.1602-32.1777C100.537-34.1797 108.008-43.8965 108.008-50.6348C108.008-52.2949 107.324-53.5156 106.006-53.5156C103.955-53.5156 101.416-50.9277 95.8008-50.9277C86.5723-50.9277 80.8105-56.3965 80.8105-64.7949C80.8105-69.9707 83.6914-73.6816 83.6914-75.8789C83.6914-77.1484 82.8613-78.0273 81.2988-77.9785C74.707-77.9297 64.9902-70.4102 62.6465-60.0098C63.916-58.8379 65.1855-57.2266 66.2598-55.0293C79.4434-54.0039 89.0625-43.7012 89.1602-32.1777ZM23.0957-12.4512L64.3555-12.4512C75.3418-12.4512 83.8867-20.8008 83.8867-31.6406C83.8867-42.334 75.1953-50.4395 63.623-50.5371C59.2285-58.9355 51.123-63.916 41.8945-63.916C29.2969-63.916 18.6035-54.248 17.3828-41.6504C10.9375-39.6973 6.83594-34.082 6.83594-27.2949C6.83594-18.457 13.4277-12.4512 23.0957-12.4512ZM55.9082 1.2207L47.9492 1.2207L51.2695-5.17578C51.709-6.00586 51.3672-6.5918 50.5371-6.5918L41.4062-6.5918C40.3809-6.5918 40.0391-6.20117 39.6973-5.46875L34.7168 5.81055C34.3262 6.73828 34.668 7.27539 35.6445 7.27539L42.3828 7.27539L37.4023 19.2871C37.207 19.8242 37.3047 20.2148 37.6465 20.3613C38.0371 20.5078 38.4277 20.4102 38.8184 19.9707L56.3965 3.07617C57.2266 2.29492 56.9824 1.2207 55.9082 1.2207Z"/>
  </g>
  <g id="Light-S" transform="matrix(1 0 0 1 1100.74 696)">
   <path d="M87.3047-31.6406C99.707-33.8379 106.494-43.457 106.494-49.3652C106.494-50.7324 105.859-51.709 104.736-51.709C103.027-51.709 100-49.4141 95.0195-49.4141C85.5469-49.4141 79.541-55.1758 79.541-63.8184C79.541-68.7988 82.1289-72.4609 82.1289-74.3652C82.1289-75.4883 81.3477-76.2207 79.834-76.1719C72.3145-75.6836 64.0137-67.4316 62.3047-57.4707C63.3789-56.3965 64.4043-54.9805 65.2832-53.125C77.8809-52.1973 86.9629-42.9688 87.3047-31.6406ZM22.4121-12.4512L63.916-12.4512C74.6094-12.4512 82.9102-20.5078 82.9102-30.9082C82.9102-41.3086 74.4629-49.1699 63.1348-49.2188C58.5938-57.8613 50.7324-62.8418 41.4551-62.8418C29.1992-62.8418 18.75-53.1738 17.627-40.625C11.0352-38.7207 6.83594-33.252 6.83594-26.6113C6.83594-18.2129 13.1836-12.4512 22.4121-12.4512ZM53.6133 1.80664L46.2891 1.80664L49.9512-5.07812C50.3906-5.9082 50.0488-6.49414 49.1699-6.49414L42.1387-6.49414C41.0645-6.49414 40.7227-6.10352 40.3809-5.37109L35.5469 5.66406C35.1562 6.5918 35.5957 7.12891 36.5723 7.12891L42.6758 7.12891L37.8418 18.8477C37.5977 19.3848 37.7441 19.7754 38.0859 19.9219C38.4277 20.0684 38.8672 19.9707 39.2578 19.5312L54.248 3.61328C54.9805 2.83203 54.6875 1.80664 53.6133 1.80664Z"/>
  </g>
  <g id="Thin-S" transform="matrix(1 0 0 1 804.494 696)">
   <path d="M84.8145-30.9082C98.6328-33.3496 104.443-42.8711 104.443-47.6562C104.443-48.584 103.955-49.2676 103.076-49.2676C101.807-49.2676 98.1934-47.4121 93.9453-47.4121C84.2285-47.4121 77.832-53.5156 77.832-62.5977C77.832-67.334 79.9805-70.8984 79.9805-72.3145C79.9805-73.291 79.3457-73.877 77.9297-73.7305C69.1895-72.7051 62.7441-63.4766 61.8164-54.1016C62.6465-53.125 63.3789-52.0508 64.0137-50.6348C75.7324-49.8047 84.1309-41.9434 84.8145-30.9082ZM21.5332-12.4023L63.3789-12.4023C73.6328-12.4023 81.6895-20.166 81.6895-30.0293C81.6895-39.9902 73.4375-47.4121 62.4512-47.4121C57.8125-56.4453 50.1465-61.4258 40.9668-61.4258C29.0527-61.4258 18.9453-51.7578 17.9688-39.209C11.1328-37.4512 6.83594-32.1777 6.83594-25.7324C6.83594-17.8711 12.8418-12.4023 21.5332-12.4023ZM50.5859 2.58789L44.1406 2.58789L48.1445-4.93164C48.584-5.76172 48.2422-6.39648 47.3633-6.39648L43.1152-6.39648C42.041-6.39648 41.6504-6.00586 41.3086-5.22461L36.6699 5.41992C36.2305 6.39648 36.7676 6.98242 37.7441 6.98242L43.0664 6.98242L38.3301 18.3105C38.0859 18.8477 38.2324 19.2871 38.623 19.4336C39.0137 19.5801 39.4531 19.4336 39.7949 18.9453L51.3672 4.3457C52.002 3.51562 51.6602 2.58789 50.5859 2.58789Z"/>
  </g>
  <g id="Ultralight-S" transform="matrix(1 0 0 1 508.051 696)">
   <path d="M83.5449-30.5176C98.0957-33.1055 103.418-42.5293 103.418-46.7773C103.418-47.5098 102.979-47.998 102.246-47.998C101.172-47.998 97.2168-46.3867 93.4082-46.3867C83.4961-46.3867 76.9531-52.6367 76.9531-61.9629C76.9531-66.5527 78.9062-70.1172 78.9062-71.2402C78.9062-72.168 78.3203-72.6562 76.9531-72.4609C67.5781-71.1426 62.1094-61.4746 61.5723-52.3438C62.3047-51.4648 62.8418-50.5371 63.3301-49.3164C74.6582-48.584 82.7148-41.4062 83.5449-30.5176ZM21.0449-12.4023L63.0859-12.4023C73.0957-12.4023 81.0547-19.9707 81.0547-29.541C81.0547-39.2578 72.9004-46.5332 62.1094-46.4844C57.373-55.7129 49.8535-60.6445 40.6738-60.6445C28.9551-60.6445 19.043-50.9766 18.1152-38.4766C11.2305-36.7676 6.83594-31.6406 6.83594-25.2441C6.83594-17.7246 12.6953-12.4023 21.0449-12.4023ZM49.0234 2.97852L43.0176 2.97852L47.2168-4.83398C47.6562-5.66406 47.3145-6.34766 46.4355-6.34766L43.6523-6.34766C42.5293-6.34766 42.1387-5.95703 41.7969-5.12695L37.207 5.32227C36.7676 6.29883 37.4023 6.83594 38.3301 6.83594L43.2617 6.83594L38.623 17.9688C38.3789 18.5547 38.5254 18.9941 38.916 19.1406C39.3066 19.2871 39.7949 19.1406 40.1367 18.6035L49.9023 4.73633C50.4883 3.85742 50.0977 2.97852 49.0234 2.97852Z"/>
  </g>
 </g>
</svg>
