<?xml version="1.0" encoding="UTF-8"?>
<!--Generator: Apple Native CoreSVG 149-->
<!DOCTYPE svg
PUBLIC "-//W3C//DTD SVG 1.1//EN"
       "http://www.w3.org/Graphics/SVG/1.1/DTD/svg11.dtd">
<svg version="1.1" xmlns="http://www.w3.org/2000/svg" xmlns:xlink="http://www.w3.org/1999/xlink" width="3300" height="2200">
 <!--glyph: "uni1001D5.medium", point size: 100.000000, font version: "Version 16.0d18e1", template writer version: "8"-->
 <g id="Notes">
  <rect height="2200" id="artboard" style="fill:white;opacity:1" width="3300" x="0" y="0"/>
  <line id="" style="fill:none;stroke:black;opacity:1;stroke-width:0.5;" x1="263" x2="3036" y1="292" y2="292"/>
  <text style="stroke:none;fill:black;font-family:-apple-system,&quot;SF Pro Display&quot;,&quot;SF Pro Text&quot;,Helvetica,sans-serif;font-weight:bold;" transform="matrix(1 0 0 1 263 322)">Weight/Scale Variations</text>
  <text style="stroke:none;fill:black;font-family:-apple-system,&quot;SF Pro Display&quot;,&quot;SF Pro Text&quot;,Helvetica,sans-serif;text-anchor:middle;" transform="matrix(1 0 0 1 559.711 322)">Ultralight</text>
  <text style="stroke:none;fill:black;font-family:-apple-system,&quot;SF Pro Display&quot;,&quot;SF Pro Text&quot;,Helvetica,sans-serif;text-anchor:middle;" transform="matrix(1 0 0 1 856.422 322)">Thin</text>
  <text style="stroke:none;fill:black;font-family:-apple-system,&quot;SF Pro Display&quot;,&quot;SF Pro Text&quot;,Helvetica,sans-serif;text-anchor:middle;" transform="matrix(1 0 0 1 1153.13 322)">Light</text>
  <text style="stroke:none;fill:black;font-family:-apple-system,&quot;SF Pro Display&quot;,&quot;SF Pro Text&quot;,Helvetica,sans-serif;text-anchor:middle;" transform="matrix(1 0 0 1 1449.84 322)">Regular</text>
  <text style="stroke:none;fill:black;font-family:-apple-system,&quot;SF Pro Display&quot;,&quot;SF Pro Text&quot;,Helvetica,sans-serif;text-anchor:middle;" transform="matrix(1 0 0 1 1746.56 322)">Medium</text>
  <text style="stroke:none;fill:black;font-family:-apple-system,&quot;SF Pro Display&quot;,&quot;SF Pro Text&quot;,Helvetica,sans-serif;text-anchor:middle;" transform="matrix(1 0 0 1 2043.27 322)">Semibold</text>
  <text style="stroke:none;fill:black;font-family:-apple-system,&quot;SF Pro Display&quot;,&quot;SF Pro Text&quot;,Helvetica,sans-serif;text-anchor:middle;" transform="matrix(1 0 0 1 2339.98 322)">Bold</text>
  <text style="stroke:none;fill:black;font-family:-apple-system,&quot;SF Pro Display&quot;,&quot;SF Pro Text&quot;,Helvetica,sans-serif;text-anchor:middle;" transform="matrix(1 0 0 1 2636.69 322)">Heavy</text>
  <text style="stroke:none;fill:black;font-family:-apple-system,&quot;SF Pro Display&quot;,&quot;SF Pro Text&quot;,Helvetica,sans-serif;text-anchor:middle;" transform="matrix(1 0 0 1 2933.4 322)">Black</text>
  <line id="" style="fill:none;stroke:black;opacity:1;stroke-width:0.5;" x1="263" x2="3036" y1="1903" y2="1903"/>
  <g id="" transform="matrix(1 0 0 1 263 1933)">
   <path d="M9.24805 0.830078C13.5547 0.830078 17.1387-2.74414 17.1387-7.05078C17.1387-11.3574 13.5449-14.9316 9.23828-14.9316C4.94141-14.9316 1.36719-11.3574 1.36719-7.05078C1.36719-2.74414 4.95117 0.830078 9.24805 0.830078ZM9.24805-0.654297C5.70312-0.654297 2.87109-3.49609 2.87109-7.05078C2.87109-10.6055 5.69336-13.4473 9.23828-13.4473C12.793-13.4473 15.6348-10.6055 15.6445-7.05078C15.6543-3.49609 12.8027-0.654297 9.24805-0.654297ZM6.39648-6.31836L8.50586-6.31836L8.50586-4.19922C8.50586-3.75977 8.79883-3.45703 9.22852-3.45703C9.67773-3.45703 9.9707-3.75977 9.9707-4.19922L9.9707-6.31836L12.0996-6.31836C12.5391-6.31836 12.8418-6.61133 12.8418-7.04102C12.8418-7.48047 12.5391-7.7832 12.0996-7.7832L9.9707-7.7832L9.9707-9.89258C9.9707-10.3418 9.67773-10.6445 9.22852-10.6445C8.79883-10.6445 8.50586-10.3418 8.50586-9.89258L8.50586-7.7832L6.39648-7.7832C5.94727-7.7832 5.64453-7.48047 5.64453-7.04102C5.64453-6.61133 5.94727-6.31836 6.39648-6.31836Z"/>
  </g>
  <g id="" transform="matrix(1 0 0 1 281.506 1933)">
   <path d="M11.709 2.91016C17.1582 2.91016 21.6699-1.61133 21.6699-7.05078C21.6699-12.5 17.1484-17.0117 11.6992-17.0117C6.25977-17.0117 1.74805-12.5 1.74805-7.05078C1.74805-1.61133 6.26953 2.91016 11.709 2.91016ZM11.709 1.25C7.09961 1.25 3.41797-2.44141 3.41797-7.05078C3.41797-11.6602 7.08984-15.3516 11.6992-15.3516C16.3086-15.3516 20-11.6602 20.0098-7.05078C20.0195-2.44141 16.3184 1.25 11.709 1.25ZM7.98828-6.23047L10.8789-6.23047L10.8789-3.32031C10.8789-2.83203 11.2109-2.5 11.6895-2.5C12.1777-2.5 12.5195-2.83203 12.5195-3.32031L12.5195-6.23047L15.4297-6.23047C15.918-6.23047 16.25-6.5625 16.25-7.04102C16.25-7.5293 15.918-7.87109 15.4297-7.87109L12.5195-7.87109L12.5195-10.7617C12.5195-11.2695 12.1777-11.6016 11.6895-11.6016C11.2109-11.6016 10.8789-11.2598 10.8789-10.7617L10.8789-7.87109L7.98828-7.87109C7.48047-7.87109 7.14844-7.5293 7.14844-7.04102C7.14844-6.5625 7.49023-6.23047 7.98828-6.23047Z"/>
  </g>
  <g id="" transform="matrix(1 0 0 1 304.924 1933)">
   <path d="M14.9707 5.66406C21.9336 5.66406 27.6953-0.0976562 27.6953-7.05078C27.6953-14.0137 21.9238-19.7754 14.9609-19.7754C8.00781-19.7754 2.25586-14.0137 2.25586-7.05078C2.25586-0.0976562 8.01758 5.66406 14.9707 5.66406ZM14.9707 3.84766C8.93555 3.84766 4.08203-1.01562 4.08203-7.05078C4.08203-13.0957 8.92578-17.9492 14.9609-17.9492C21.0059-17.9492 25.8594-13.0957 25.8691-7.05078C25.8789-1.01562 21.0156 3.84766 14.9707 3.84766ZM10.0586-6.14258L14.0625-6.14258L14.0625-2.12891C14.0625-1.5918 14.4336-1.2207 14.9512-1.2207C15.4883-1.2207 15.8594-1.5918 15.8594-2.12891L15.8594-6.14258L19.8828-6.14258C20.4102-6.14258 20.791-6.51367 20.791-7.03125C20.791-7.56836 20.4199-7.94922 19.8828-7.94922L15.8594-7.94922L15.8594-11.9531C15.8594-12.5098 15.4883-12.8809 14.9512-12.8809C14.4336-12.8809 14.0625-12.5 14.0625-11.9531L14.0625-7.94922L10.0586-7.94922C9.50195-7.94922 9.13086-7.56836 9.13086-7.03125C9.13086-6.51367 9.51172-6.14258 10.0586-6.14258Z"/>
  </g>
  <text style="stroke:none;fill:black;font-family:-apple-system,&quot;SF Pro Display&quot;,&quot;SF Pro Text&quot;,Helvetica,sans-serif;font-weight:bold;" transform="matrix(1 0 0 1 263 1953)">Design Variations</text>
  <text style="stroke:none;fill:black;font-family:-apple-system,&quot;SF Pro Display&quot;,&quot;SF Pro Text&quot;,Helvetica,sans-serif;" transform="matrix(1 0 0 1 263 1971)">Symbols are supported in up to nine weights and three scales.</text>
  <text style="stroke:none;fill:black;font-family:-apple-system,&quot;SF Pro Display&quot;,&quot;SF Pro Text&quot;,Helvetica,sans-serif;" transform="matrix(1 0 0 1 263 1989)">For optimal layout with text and other symbols, vertically align</text>
  <text style="stroke:none;fill:black;font-family:-apple-system,&quot;SF Pro Display&quot;,&quot;SF Pro Text&quot;,Helvetica,sans-serif;" transform="matrix(1 0 0 1 263 2007)">symbols with the adjacent text.</text>
  <line id="" style="fill:none;stroke:#00AEEF;stroke-width:0.5;opacity:1.0;" x1="776" x2="776" y1="1919" y2="1933"/>
  <g id="" transform="matrix(1 0 0 1 776 1933)">
   <path d="M3.31055 0.126953C3.82812 0.126953 4.08203-0.0683594 4.26758-0.605469L5.52734-4.0625L11.2891-4.0625L12.5488-0.605469C12.7344-0.0683594 12.9883 0.126953 13.4961 0.126953C14.0137 0.126953 14.3457-0.185547 14.3457-0.673828C14.3457-0.839844 14.3164-0.986328 14.2383-1.20117L9.6582-13.3887C9.43359-13.9941 9.0332-14.2871 8.4082-14.2871C7.80273-14.2871 7.39258-13.9941 7.17773-13.3984L2.59766-1.19141C2.51953-0.976562 2.49023-0.830078 2.49023-0.664062C2.49023-0.175781 2.80273 0.126953 3.31055 0.126953ZM6.00586-5.53711L8.37891-12.1094L8.42773-12.1094L10.8008-5.53711Z"/>
  </g>
  <line id="" style="fill:none;stroke:#00AEEF;stroke-width:0.5;opacity:1.0;" x1="792.836" x2="792.836" y1="1919" y2="1933"/>
  <text style="stroke:none;fill:black;font-family:-apple-system,&quot;SF Pro Display&quot;,&quot;SF Pro Text&quot;,Helvetica,sans-serif;font-weight:bold;" transform="matrix(1 0 0 1 776 1953)">Margins</text>
  <text style="stroke:none;fill:black;font-family:-apple-system,&quot;SF Pro Display&quot;,&quot;SF Pro Text&quot;,Helvetica,sans-serif;" transform="matrix(1 0 0 1 776 1971)">Leading and trailing margins on the left and right side of each symbol</text>
  <text style="stroke:none;fill:black;font-family:-apple-system,&quot;SF Pro Display&quot;,&quot;SF Pro Text&quot;,Helvetica,sans-serif;" transform="matrix(1 0 0 1 776 1989)">can be adjusted by modifying the x-location of the margin guidelines.</text>
  <text style="stroke:none;fill:black;font-family:-apple-system,&quot;SF Pro Display&quot;,&quot;SF Pro Text&quot;,Helvetica,sans-serif;" transform="matrix(1 0 0 1 776 2007)">Modifications are automatically applied proportionally to all</text>
  <text style="stroke:none;fill:black;font-family:-apple-system,&quot;SF Pro Display&quot;,&quot;SF Pro Text&quot;,Helvetica,sans-serif;" transform="matrix(1 0 0 1 776 2025)">scales and weights.</text>
  <g id="" transform="matrix(1 0 0 1 1289 1933)">
   <path d="M2.8418 1.86523L4.54102 3.57422C5.40039 4.44336 6.38672 4.38477 7.31445 3.35938L17.4902-7.85156C17.7539-7.76367 18.0273-7.7832 18.3398-7.8418L19.4043-8.03711L20.0684-7.36328L20.0293-6.80664C19.9902-6.30859 20.1172-5.92773 20.6055-5.44922L21.3672-4.70703C21.8457-4.22852 22.4609-4.19922 22.9297-4.66797L25.8398-7.58789C26.3086-8.05664 26.2891-8.65234 25.8105-9.13086L25.0391-9.89258C24.5605-10.3711 24.1895-10.5273 23.7109-10.4883L23.1348-10.4395L22.4902-11.0742L22.7344-12.1973C22.8613-12.7637 22.7051-13.2031 22.1191-13.7891L19.9219-15.9766C16.582-19.2969 12.1484-19.2188 9.25781-16.3281C8.83789-15.918 8.80859-15.3418 9.04297-14.9512C9.27734-14.5898 9.73633-14.3555 10.3809-14.5215C11.8457-14.8633 13.3691-14.9219 14.7949-13.9844L14.209-12.5293C14.0137-12.0508 13.9844-11.6504 14.1113-11.2891L3.04688-0.898438C2.06055 0.0195312 1.98242 0.996094 2.8418 1.86523ZM10.752-15.957C13.1836-17.7344 16.4746-17.4316 18.7012-15.2051L21.1328-12.793C21.3672-12.5586 21.4062-12.373 21.3379-12.0312L21.0156-10.5469L22.5195-9.0625L23.5059-9.12109C23.7598-9.13086 23.8379-9.11133 24.0332-8.91602L24.6094-8.33984L22.168-5.89844L21.5918-6.47461C21.3965-6.66992 21.3672-6.74805 21.377-7.01172L21.4453-7.98828L19.9512-9.47266L18.4277-9.21875C18.1055-9.15039 17.959-9.17969 17.7148-9.41406L15.7129-11.416C15.459-11.6504 15.4297-11.8164 15.5859-12.1875L16.4648-14.2773C14.9023-15.7324 12.8711-16.3574 10.8398-15.7617C10.6836-15.7227 10.625-15.8496 10.752-15.957ZM5.27344 2.30469L4.10156 1.14258C3.63281 0.683594 3.74023 0.341797 4.14062-0.0195312L14.9512-10.1953L16.416-8.71094L6.42578 2.27539C6.07422 2.67578 5.74219 2.77344 5.27344 2.30469Z"/>
  </g>
  <text style="stroke:none;fill:black;font-family:-apple-system,&quot;SF Pro Display&quot;,&quot;SF Pro Text&quot;,Helvetica,sans-serif;font-weight:bold;" transform="matrix(1 0 0 1 1289 1953)">Exporting</text>
  <text style="stroke:none;fill:black;font-family:-apple-system,&quot;SF Pro Display&quot;,&quot;SF Pro Text&quot;,Helvetica,sans-serif;" transform="matrix(1 0 0 1 1289 1971)">Symbols should be outlined when exporting to ensure the</text>
  <text style="stroke:none;fill:black;font-family:-apple-system,&quot;SF Pro Display&quot;,&quot;SF Pro Text&quot;,Helvetica,sans-serif;" transform="matrix(1 0 0 1 1289 1989)">design is preserved when submitting to Xcode.</text>
  <text id="template-version" style="stroke:none;fill:black;font-family:-apple-system,&quot;SF Pro Display&quot;,&quot;SF Pro Text&quot;,Helvetica,sans-serif;text-anchor:end;" transform="matrix(1 0 0 1 3036 1933)">Template v.2.0</text>
  <text style="stroke:none;fill:black;font-family:-apple-system,&quot;SF Pro Display&quot;,&quot;SF Pro Text&quot;,Helvetica,sans-serif;text-anchor:end;" transform="matrix(1 0 0 1 3036 1951)">Requires Xcode 12 or greater</text>
  <text style="stroke:none;fill:black;font-family:-apple-system,&quot;SF Pro Display&quot;,&quot;SF Pro Text&quot;,Helvetica,sans-serif;text-anchor:end;" transform="matrix(1 0 0 1 3036 1969)">Generated from cloud.sun.fill</text>
  <text style="stroke:none;fill:black;font-family:-apple-system,&quot;SF Pro Display&quot;,&quot;SF Pro Text&quot;,Helvetica,sans-serif;text-anchor:end;" transform="matrix(1 0 0 1 3036 1987)">Typeset at 100 points</text>
  <text style="stroke:none;fill:black;font-family:-apple-system,&quot;SF Pro Display&quot;,&quot;SF Pro Text&quot;,Helvetica,sans-serif;" transform="matrix(1 0 0 1 263 726)">Small</text>
  <text style="stroke:none;fill:black;font-family:-apple-system,&quot;SF Pro Display&quot;,&quot;SF Pro Text&quot;,Helvetica,sans-serif;" transform="matrix(1 0 0 1 263 1156)">Medium</text>
  <text style="stroke:none;fill:black;font-family:-apple-system,&quot;SF Pro Display&quot;,&quot;SF Pro Text&quot;,Helvetica,sans-serif;" transform="matrix(1 0 0 1 263 1586)">Large</text>
 </g>
 <g id="Guides">
  <g id="H-reference" style="fill:#27AAE1;stroke:none;" transform="matrix(1 0 0 1 339 696)">
   <path d="M0.976562 0L3.66211 0L12.9883-24.4629L45.752-24.4629L55.127 0L57.7637 0L30.6152-70.459L28.125-70.459ZM29.3457-67.1387L29.4434-67.1387L44.873-26.709L13.8672-26.709Z"/>
  </g>
  <line id="Baseline-S" style="fill:none;stroke:#27AAE1;opacity:1;stroke-width:0.5;" x1="263" x2="3036" y1="696" y2="696"/>
  <line id="Capline-S" style="fill:none;stroke:#27AAE1;opacity:1;stroke-width:0.5;" x1="263" x2="3036" y1="625.541" y2="625.541"/>
  <g id="H-reference" style="fill:#27AAE1;stroke:none;" transform="matrix(1 0 0 1 339 1126)">
   <path d="M0.976562 0L3.66211 0L12.9883-24.4629L45.752-24.4629L55.127 0L57.7637 0L30.6152-70.459L28.125-70.459ZM29.3457-67.1387L29.4434-67.1387L44.873-26.709L13.8672-26.709Z"/>
  </g>
  <line id="Baseline-M" style="fill:none;stroke:#27AAE1;opacity:1;stroke-width:0.5;" x1="263" x2="3036" y1="1126" y2="1126"/>
  <line id="Capline-M" style="fill:none;stroke:#27AAE1;opacity:1;stroke-width:0.5;" x1="263" x2="3036" y1="1055.54" y2="1055.54"/>
  <g id="H-reference" style="fill:#27AAE1;stroke:none;" transform="matrix(1 0 0 1 339 1556)">
   <path d="M0.976562 0L3.66211 0L12.9883-24.4629L45.752-24.4629L55.127 0L57.7637 0L30.6152-70.459L28.125-70.459ZM29.3457-67.1387L29.4434-67.1387L44.873-26.709L13.8672-26.709Z"/>
  </g>
  <line id="Baseline-L" style="fill:none;stroke:#27AAE1;opacity:1;stroke-width:0.5;" x1="263" x2="3036" y1="1556" y2="1556"/>
  <line id="Capline-L" style="fill:none;stroke:#27AAE1;opacity:1;stroke-width:0.5;" x1="263" x2="3036" y1="1485.54" y2="1485.54"/>
  <line id="left-margin" style="fill:none;stroke:#00AEEF;stroke-width:0.5;opacity:1.0;" x1="1382.75" x2="1382.75" y1="1030.79" y2="1150.12"/>
  <line id="right-margin" style="fill:none;stroke:#FF3B30;stroke-width:0.5;opacity:1.0;" x1="1516.93" x2="1516.93" y1="1030.79" y2="1150.12"/>
 </g>
 <g id="Symbols">
  <g id="Black-L" transform="matrix(1 0 0 1 2842.24 1556)">
   <path d="M138.672-99.2676C142.773-99.2676 146.094-102.734 146.094-106.836L146.094-117.627C146.094-121.777 142.773-125.195 138.672-125.195C134.57-125.195 131.201-121.777 131.201-117.627L131.201-106.836C131.201-102.734 134.57-99.2676 138.672-99.2676ZM98.0469-86.9141C101.025-83.9844 105.811-83.9355 108.643-86.8164C111.523-89.6973 111.426-94.3848 108.545-97.4121L100.928-105.176C98.1445-108.105 93.2129-108.057 90.332-105.176C87.4512-102.295 87.5488-97.5098 90.4297-94.6289ZM168.701-86.7676C171.533-83.8867 176.416-83.9844 179.297-86.8652L187.012-94.5312C189.941-97.4121 189.941-102.246 187.061-105.127C184.18-108.008 179.395-107.91 176.465-104.98L168.75-97.4121C165.82-94.5312 165.82-89.6484 168.701-86.7676ZM157.861-30.2734C166.064-36.084 171.484-45.8984 171.484-56.8848C171.484-74.9512 156.836-89.5996 138.77-89.5996C127.002-89.5996 116.65-83.3984 111.377-74.8047C114.307-71.9727 116.797-68.6523 118.848-64.6484C138.477-63.5254 154.443-49.6582 157.861-30.2734ZM39.1113 12.8418L114.844 12.8418C133.301 12.8418 147.266-1.51367 147.266-20.5078C147.266-40.2344 132.422-54.7363 112.061-54.6387C105.615-66.7969 93.2617-77.5391 73.3398-77.5391C50.6836-77.5391 32.0801-60.791 30.2246-38.6719C18.7012-35.5957 11.2793-25.6836 11.2793-13.3789C11.2793 2.24609 22.5586 12.8418 39.1113 12.8418ZM188.574-49.4629L199.365-49.4629C203.516-49.4629 206.885-52.7344 206.885-56.8359C206.885-60.9375 203.516-64.3555 199.365-64.3555L188.574-64.3555C184.473-64.3555 181.006-60.9375 181.006-56.8359C181.006-52.7344 184.473-49.4629 188.574-49.4629ZM176.416-8.59375C179.346-5.66406 184.131-5.61523 187.012-8.49609C189.844-11.377 189.746-16.1133 186.865-19.0918L179.297-26.8066C176.465-29.7363 171.533-29.6875 168.652-26.8066C165.771-23.9258 165.869-19.1406 168.75-16.2598Z"/>
  </g>
  <g id="Heavy-L" transform="matrix(1 0 0 1 2546.7 1556)">
   <path d="M136.23-97.5098C139.941-97.5098 142.969-100.635 142.969-104.297L142.969-116.064C142.969-119.775 139.941-122.852 136.23-122.852C132.52-122.852 129.492-119.775 129.492-116.064L129.492-104.297C129.492-100.635 132.52-97.5098 136.23-97.5098ZM96.8262-85.2051C99.5117-82.5195 103.857-82.5195 106.445-85.1074C108.984-87.7441 108.936-91.9922 106.348-94.6777L98.0469-103.076C95.5078-105.713 91.0645-105.664 88.4766-103.076C85.8887-100.488 85.9375-96.1426 88.5742-93.5547ZM166.016-85.0586C168.604-82.4707 172.998-82.5195 175.635-85.1562L183.936-93.457C186.621-96.0938 186.572-100.439 183.984-103.027C181.396-105.615 177.1-105.615 174.463-102.93L166.064-94.6777C163.428-92.0898 163.477-87.6953 166.016-85.0586ZM154.492-28.6621C163.037-34.5215 168.555-44.2871 168.555-55.3711C168.555-73.2422 154.15-87.6465 136.279-87.6465C124.561-87.6465 114.258-81.3477 109.033-72.5098C111.914-69.6777 114.307-66.4551 116.357-62.5488C136.133-61.3281 151.416-47.7539 154.492-28.6621ZM38.5742 12.5L112.549 12.5C130.811 12.5 144.727-1.61133 144.727-20.166C144.727-39.2578 130.078-53.3691 110.156-53.3203C103.418-65.9668 90.918-76.123 72.1191-76.123C50.0977-76.123 31.7871-59.5703 29.9805-37.793C18.6035-34.7168 11.2793-25.0488 11.2793-13.0371C11.2793 2.14844 22.3633 12.5 38.5742 12.5ZM185.107-48.6816L196.826-48.6816C200.537-48.6816 203.613-51.6602 203.613-55.3223C203.613-59.0332 200.537-62.1094 196.826-62.1094L185.107-62.1094C181.396-62.1094 178.271-59.0332 178.271-55.3223C178.271-51.6602 181.396-48.6816 185.107-48.6816ZM174.414-7.66602C177.051-5.0293 181.348-4.98047 183.936-7.61719C186.523-10.2051 186.475-14.4531 183.838-17.1387L175.586-25.5371C173.047-28.125 168.604-28.125 166.016-25.5371C163.379-22.9492 163.477-18.6035 166.064-16.0156Z"/>
  </g>
  <g id="Bold-L" transform="matrix(1 0 0 1 2251.28 1556)">
   <path d="M133.496-95.5078C136.768-95.5078 139.453-98.291 139.453-101.514L139.453-114.258C139.453-117.578 136.768-120.264 133.496-120.264C130.225-120.264 127.539-117.578 127.539-114.258L127.539-101.514C127.539-98.291 130.225-95.5078 133.496-95.5078ZM95.459-83.3008C97.8516-80.9082 101.66-80.957 103.955-83.252C106.201-85.498 106.152-89.2578 103.857-91.6016L94.8242-100.732C92.5781-103.076 88.7207-103.027 86.4258-100.732C84.1309-98.4375 84.1797-94.6289 86.4746-92.334ZM163.086-83.2031C165.332-80.9082 169.189-80.9082 171.533-83.252L180.566-92.2852C182.861-94.5801 182.861-98.4375 180.566-100.684C178.271-102.979 174.512-102.979 172.168-100.635L163.086-91.6016C160.791-89.3066 160.791-85.498 163.086-83.2031ZM150.684-26.8066C159.57-32.7637 165.283-42.5293 165.283-53.7109C165.283-71.2891 151.123-85.498 133.545-85.498C121.777-85.498 111.572-79.1016 106.445-69.9707C109.229-67.1387 111.572-64.0137 113.574-60.2051C133.496-58.8379 148.047-45.6055 150.684-26.8066ZM37.9395 12.0605L110.01 12.0605C128.027 12.0605 141.846-1.75781 141.846-19.7754C141.846-38.1836 127.441-51.8555 107.959-51.8555C101.025-65.0879 88.3301-74.5605 70.8008-74.5605C49.3652-74.5605 31.4941-58.2031 29.6387-36.8164C18.457-33.6914 11.2793-24.2676 11.2793-12.6465C11.2793 2.00195 22.1191 12.0605 37.9395 12.0605ZM181.201-47.8027L193.994-47.8027C197.266-47.8027 199.951-50.3906 199.951-53.6621C199.951-56.9336 197.266-59.6191 193.994-59.6191L181.201-59.6191C177.979-59.6191 175.244-56.9336 175.244-53.6621C175.244-50.3906 177.979-47.8027 181.201-47.8027ZM172.168-6.64062C174.512-4.29688 178.271-4.29688 180.566-6.5918C182.812-8.88672 182.812-12.6465 180.469-14.9902L171.436-24.0723C169.189-26.3672 165.332-26.3672 163.037-24.0723C160.742-21.7773 160.791-17.9688 163.086-15.6738Z"/>
  </g>
  <g id="Semibold-L" transform="matrix(1 0 0 1 1955.47 1556)">
   <path d="M131.592-94.1406C134.57-94.1406 137.012-96.6797 137.012-99.5605L137.012-113.037C137.012-116.016 134.57-118.457 131.592-118.457C128.662-118.457 126.221-116.016 126.221-113.037L126.221-99.5605C126.221-96.6797 128.662-94.1406 131.592-94.1406ZM94.5312-81.9336C96.6797-79.834 100.195-79.834 102.197-81.9336C104.248-83.9844 104.248-87.4023 102.197-89.502L92.627-99.1211C90.5273-101.221 87.1094-101.172 85.0098-99.1211C82.959-97.0215 82.959-93.6035 85.0586-91.5039ZM161.035-81.8848C163.037-79.834 166.553-79.834 168.701-81.9336L178.223-91.4551C180.322-93.5547 180.273-97.0215 178.223-99.1211C176.123-101.172 172.754-101.172 170.654-99.0723L161.035-89.502C158.936-87.4512 158.984-83.9844 161.035-81.8848ZM148.096-25.5859C157.227-31.543 163.037-41.3086 163.037-52.5391C163.037-69.9707 149.023-83.9844 131.641-83.9844C119.873-83.9844 109.717-77.5391 104.639-68.2129C107.373-65.4297 109.668-62.3047 111.621-58.5938C131.689-57.1289 145.703-44.0918 148.096-25.5859ZM37.5 11.7676L108.252 11.7676C126.123 11.7676 139.893-1.85547 139.893-19.5312C139.893-37.4512 125.635-50.7812 106.494-50.8301C99.3164-64.4531 86.5723-73.4375 69.873-73.4375C48.877-73.4375 31.2988-57.2754 29.4434-36.1328C18.3594-33.0078 11.2793-23.7793 11.2793-12.4023C11.2793 1.95312 21.9238 11.7676 37.5 11.7676ZM178.564-47.168L192.041-47.168C194.971-47.168 197.412-49.5605 197.412-52.5391C197.412-55.5176 194.971-57.9102 192.041-57.9102L178.564-57.9102C175.635-57.9102 173.145-55.5176 173.145-52.5391C173.145-49.5605 175.635-47.168 178.564-47.168ZM170.605-5.9082C172.705-3.80859 176.123-3.85742 178.223-5.9082C180.273-8.00781 180.273-11.4258 178.174-13.5254L168.604-23.0957C166.553-25.1465 163.086-25.1465 160.986-23.0957C158.936-20.9961 158.984-17.5293 161.035-15.4785Z"/>
  </g>
  <g id="Medium-L" transform="matrix(1 0 0 1 1659.42 1556)">
   <path d="M130.176-93.1152C132.91-93.1152 135.156-95.459 135.156-98.0957L135.156-112.109C135.156-114.844 132.91-117.09 130.176-117.09C127.441-117.09 125.195-114.844 125.195-112.109L125.195-98.0957C125.195-95.459 127.441-93.1152 130.176-93.1152ZM93.8477-80.957C95.8008-79.0039 99.0234-79.0039 100.928-80.9082C102.783-82.8613 102.783-85.9863 100.879-87.8906L90.918-97.9004C89.0137-99.8535 85.8398-99.8047 83.9355-97.9004C82.0312-95.9961 82.0312-92.8223 83.9844-90.8691ZM159.473-80.9082C161.328-79.0039 164.6-79.0039 166.553-80.957L176.416-90.8691C178.369-92.7734 178.32-95.9961 176.416-97.9004C174.512-99.8047 171.387-99.8047 169.434-97.8516L159.473-87.8906C157.568-85.9863 157.617-82.8125 159.473-80.9082ZM146.143-24.6094C155.42-30.6641 161.328-40.3809 161.328-51.6602C161.328-68.9453 147.461-82.8613 130.225-82.8613C118.457-82.8613 108.301-76.3184 103.271-66.8457C106.006-64.0625 108.252-61.0352 110.156-57.373C130.322-55.8594 143.945-42.9688 146.143-24.6094ZM37.207 11.5723L106.934 11.5723C124.658 11.5723 138.379-1.9043 138.379-19.3359C138.379-36.8652 124.268-50 105.322-50.0488C98.0469-63.9648 85.2051-72.6074 69.1406-72.6074C48.5352-72.6074 31.1035-56.543 29.2969-35.5957C18.3105-32.5195 11.2793-23.3887 11.2793-12.207C11.2793 1.9043 21.8262 11.5723 37.207 11.5723ZM176.514-46.7285L190.527-46.7285C193.262-46.7285 195.459-48.9258 195.508-51.6602C195.508-54.3945 193.262-56.6406 190.527-56.6406L176.514-56.6406C173.828-56.6406 171.533-54.3945 171.533-51.6602C171.533-48.9258 173.828-46.7285 176.514-46.7285ZM169.434-5.37109C171.387-3.41797 174.512-3.4668 176.416-5.41992C178.32-7.32422 178.32-10.4492 176.416-12.4023L166.455-22.3145C164.551-24.2188 161.377-24.2188 159.473-22.3145C157.52-20.4102 157.568-17.2363 159.473-15.2832Z"/>
  </g>
  <g id="Regular-L" transform="matrix(1 0 0 1 1363.61 1556)">
   <path d="M128.32-91.7969C130.762-91.7969 132.764-93.8477 132.764-96.1914L132.764-110.889C132.764-113.33 130.762-115.332 128.32-115.332C125.879-115.332 123.877-113.33 123.877-110.889L123.877-96.1914C123.877-93.8477 125.879-91.7969 128.32-91.7969ZM92.9199-79.6387C94.6777-77.8809 97.5586-77.9297 99.2188-79.6387C100.879-81.3477 100.928-84.1309 99.2188-85.8398L88.7207-96.2891C87.0117-98.0469 84.2285-97.998 82.5684-96.2891C80.8594-94.5801 80.8105-91.7969 82.5684-90.0391ZM157.422-79.6387C159.082-77.9297 161.963-77.8809 163.721-79.6387L174.121-90.0391C175.83-91.7969 175.781-94.5801 174.121-96.2891C172.412-97.998 169.629-98.0469 167.92-96.2891L157.422-85.8398C155.762-84.1309 155.811-81.3477 157.422-79.6387ZM143.555-23.3887C153.076-29.4434 159.082-39.1602 159.082-50.5371C159.082-67.627 145.41-81.3477 128.32-81.3477C116.553-81.3477 106.445-74.8047 101.514-65.1367C104.15-62.3535 106.396-59.375 108.252-55.8105C128.564-54.1992 141.65-41.5039 143.555-23.3887ZM36.7676 11.2793L105.225 11.2793C122.754 11.2793 136.426-2.00195 136.426-19.043C136.426-36.1328 122.461-48.9746 103.857-49.0234C96.3867-63.3789 83.4473-71.5332 68.2617-71.5332C48.0469-71.5332 30.9082-55.6152 29.0527-34.9121C18.2129-31.8359 11.2793-22.9004 11.2793-11.9141C11.2793 1.80664 21.6797 11.2793 36.7676 11.2793ZM173.877-46.0938L188.574-46.0938C191.016-46.0938 192.969-48.0957 192.969-50.5371C193.018-52.9785 191.016-54.9316 188.574-54.9316L173.877-54.9316C171.484-54.9316 169.482-52.9785 169.482-50.5371C169.482-48.0957 171.484-46.0938 173.877-46.0938ZM167.92-4.6875C169.629-2.92969 172.412-3.02734 174.121-4.73633C175.781-6.39648 175.83-9.22852 174.121-10.8887L163.623-21.3379C161.914-22.998 159.131-23.0469 157.422-21.3379C155.762-19.6289 155.762-16.7969 157.422-15.0879Z"/>
  </g>
  <g id="Light-L" transform="matrix(1 0 0 1 1067.37 1556)">
   <path d="M127.832-92.9688C129.688-92.9688 131.201-94.5312 131.201-96.2891L131.201-112.451C131.201-114.258 129.688-115.771 127.832-115.771C126.025-115.771 124.512-114.258 124.512-112.451L124.512-96.2891C124.512-94.5312 126.025-92.9688 127.832-92.9688ZM93.9941-80.8105C95.3125-79.4922 97.5098-79.541 98.7305-80.8105C100-82.0801 100-84.1797 98.7305-85.498L87.2559-96.9727C85.9375-98.291 83.8867-98.2422 82.5684-96.9727C81.2988-95.7031 81.25-93.6035 82.5684-92.2852ZM156.982-80.8105C158.203-79.541 160.352-79.4922 161.67-80.8105L173.096-92.2852C174.414-93.6035 174.365-95.7031 173.096-96.9727C171.826-98.2422 169.775-98.291 168.457-96.9727L156.982-85.498C155.664-84.1797 155.713-82.0801 156.982-80.8105ZM141.748-24.3164C151.66-30.1758 158.057-39.9902 158.057-51.709C158.057-68.5059 144.629-81.9824 127.832-81.9824C115.576-81.9824 105.225-74.8047 100.684-64.4531C103.271-61.5723 105.469-58.5449 107.275-55.0781C126.904-53.5645 139.6-41.2598 141.748-24.3164ZM35.9375 10.1562L104.688 10.1562C121.826 10.1562 135.254-2.7832 135.254-19.3359C135.254-35.9375 121.533-48.4375 103.223-48.4375C95.6543-63.1348 82.9102-71.2891 67.7246-71.2891C47.9004-71.2891 31.1035-55.3711 29.3945-34.7168C18.3105-31.7383 11.2793-22.9492 11.2793-12.207C11.2793 0.976562 21.3379 10.1562 35.9375 10.1562ZM172.266-48.3887L188.477-48.3887C190.283-48.3887 191.748-49.9023 191.797-51.709C191.846-53.5156 190.283-55.0293 188.477-55.0293L172.266-55.0293C170.459-55.0293 168.994-53.5156 168.994-51.709C168.994-49.9023 170.459-48.3887 172.266-48.3887ZM168.457-6.34766C169.775-5.0293 171.826-5.12695 173.096-6.39648C174.365-7.66602 174.414-9.76562 173.096-11.0352L161.621-22.5098C160.352-23.7793 158.252-23.7793 156.982-22.5098C155.664-21.2402 155.664-19.0918 156.982-17.8223Z"/>
  </g>
  <g id="Thin-L" transform="matrix(1 0 0 1 771.266 1556)">
   <path d="M127.197-94.5312C128.223-94.5312 129.15-95.4102 129.15-96.3867L129.15-114.502C129.15-115.527 128.223-116.357 127.197-116.357C126.221-116.357 125.293-115.527 125.293-114.502L125.293-96.3867C125.293-95.4102 126.221-94.5312 127.197-94.5312ZM156.348-82.373C157.031-81.6895 158.252-81.6406 158.984-82.373L171.777-95.2148C172.559-95.9961 172.51-97.1191 171.777-97.8516C171.094-98.5352 169.971-98.6328 169.141-97.8516L156.348-85.0098C155.615-84.2773 155.615-83.1055 156.348-82.373ZM95.459-82.373C96.1914-81.6406 97.4121-81.6895 98.0957-82.373C98.8281-83.1055 98.8281-84.2773 98.0957-85.0098L85.2539-97.8516C84.4727-98.6328 83.3496-98.5352 82.666-97.8516C81.9336-97.1191 81.8359-95.9961 82.666-95.2148ZM139.355-25.5859C149.756-31.1035 156.689-41.1133 156.689-53.2715C156.689-69.6777 143.555-82.8125 127.197-82.8125C114.307-82.8125 103.613-74.8535 99.6094-63.5254C102.1-60.5469 104.297-57.4219 106.006-54.1504C124.707-52.7832 136.865-40.918 139.355-25.5859ZM34.8145 8.69141L104.004 8.69141C120.557 8.69141 133.691-3.80859 133.691-19.6777C133.691-35.7422 120.264-47.7539 102.344-47.7051C94.6289-62.8418 82.2266-70.9961 67.0898-70.9961C47.7539-70.9961 31.3965-55.0781 29.7852-34.4727C18.457-31.5918 11.2793-23.0957 11.2793-12.5977C11.2793-0.0976562 20.9473 8.69141 34.8145 8.69141ZM170.166-51.416L188.281-51.416C189.355-51.416 190.137-52.2461 190.186-53.2715C190.283-54.2969 189.355-55.127 188.281-55.127L170.166-55.127C169.141-55.127 168.311-54.2969 168.311-53.2715C168.311-52.2461 169.141-51.416 170.166-51.416ZM169.141-8.59375C169.971-7.8125 171.094-7.91016 171.777-8.64258C172.51-9.32617 172.559-10.4492 171.777-11.2305L158.936-24.0723C158.252-24.8047 157.031-24.8047 156.348-24.0723C155.615-23.3887 155.615-22.168 156.348-21.4355Z"/>
  </g>
  <g id="Ultralight-L" transform="matrix(1 0 0 1 474.848 1556)">
   <path d="M126.904-95.3125C127.49-95.3125 128.076-95.8984 128.076-96.4355L128.076-115.576C128.076-116.162 127.49-116.65 126.904-116.65C126.27-116.65 125.732-116.162 125.732-115.576L125.732-96.4355C125.732-95.8984 126.27-95.3125 126.904-95.3125ZM96.1914-83.2031C96.6309-82.7637 97.3633-82.7637 97.8027-83.2031C98.1934-83.5938 98.1934-84.3262 97.8027-84.7656L84.2773-98.291C83.7402-98.8281 83.1055-98.7305 82.666-98.291C82.2266-97.8516 82.1777-97.2168 82.666-96.7285ZM156.006-83.2031C156.445-82.7637 157.178-82.7637 157.568-83.2031L171.094-96.7285C171.631-97.2168 171.533-97.8516 171.094-98.291C170.703-98.7305 170.02-98.8281 169.531-98.291L156.006-84.7656C155.566-84.3262 155.566-83.5938 156.006-83.2031ZM138.135-26.2695C148.779-31.543 156.006-41.6504 156.006-54.0527C156.006-70.3125 143.018-83.252 126.904-83.252C113.623-83.252 102.783-74.8535 99.0234-63.0371C101.514-60.0098 103.662-56.8848 105.322-53.7109C123.633-52.3438 135.449-40.7227 138.135-26.2695ZM34.2285 7.95898L103.662 7.95898C119.922 7.95898 132.861-4.29688 132.861-19.8242C132.861-35.5957 119.58-47.4121 101.904-47.3145C94.0918-62.6953 81.8359-70.8008 66.748-70.8008C47.6562-70.8008 31.4941-54.8828 30.0293-34.3262C18.5547-31.543 11.2793-23.1445 11.2793-12.7441C11.2793-0.634766 20.7031 7.95898 34.2285 7.95898ZM169.043-52.9785L188.184-52.9785C188.916-52.9785 189.307-53.4668 189.404-54.0527C189.453-54.6875 188.916-55.1758 188.184-55.1758L169.043-55.1758C168.457-55.1758 167.969-54.6875 167.969-54.0527C167.969-53.4668 168.457-52.9785 169.043-52.9785ZM169.531-9.76562C170.02-9.27734 170.703-9.32617 171.094-9.76562C171.533-10.2051 171.631-10.8398 171.094-11.377L157.617-24.9023C157.178-25.293 156.445-25.293 156.006-24.9023C155.566-24.4629 155.566-23.7305 156.006-23.291Z"/>
  </g>
  <g id="Black-M" transform="matrix(1 0 0 1 2861.43 1126)">
   <path d="M110.498-87.8418C113.867-87.8418 116.65-90.7227 116.65-94.1406L116.65-102.051C116.65-105.518 113.867-108.35 110.498-108.35C107.129-108.35 104.346-105.518 104.346-102.051L104.346-94.1406C104.346-90.7227 107.129-87.8418 110.498-87.8418ZM78.2227-78.2715C80.6641-75.8301 84.5703-75.7324 86.9629-78.125C89.3555-80.5176 89.209-84.375 86.8652-86.9141L81.3477-92.627C79.0039-95.0684 74.8535-94.9707 72.5098-92.627C70.1172-90.2344 70.2148-86.2793 72.6074-83.8867ZM134.082-78.0762C136.475-75.6836 140.479-75.8301 142.822-78.1738L148.486-83.7891C150.928-86.1328 150.928-90.1855 148.535-92.5293C146.191-94.9219 142.236-94.873 139.795-92.4316L134.131-86.9141C131.689-84.5215 131.689-80.4688 134.082-78.0762ZM125.928-34.1309C132.08-38.3789 136.328-46.0449 136.328-54.6875C136.328-68.8477 124.756-80.3223 110.596-80.3223C101.27-80.3223 93.0176-75.293 89.0137-68.5547C91.3086-66.3086 93.3105-63.623 94.9707-60.4492C109.619-59.7656 122.656-48.877 125.928-34.1309ZM30.6152 1.95312L91.7969 1.95312C106.201 1.95312 116.943-9.375 116.943-24.4141C116.943-40.332 105.273-51.9043 89.1113-51.7578C84.3262-60.6445 75.0977-69.8242 58.2031-69.8242C40.0879-69.8242 25.3418-56.5918 23.9746-38.9648C14.7461-36.6699 8.74023-28.8086 8.74023-18.8965C8.74023-6.49414 17.5781 1.95312 30.6152 1.95312ZM149.951-48.5352L157.861-48.5352C161.328-48.5352 164.16-51.2207 164.16-54.5898C164.16-58.0078 161.328-60.791 157.861-60.791L149.951-60.791C146.533-60.791 143.652-58.0078 143.652-54.5898C143.652-51.2207 146.533-48.5352 149.951-48.5352ZM139.697-16.748C142.139-14.3066 146.094-14.209 148.486-16.6016C150.879-18.9941 150.732-22.8516 148.34-25.3906L142.822-31.1035C140.527-33.5449 136.377-33.4961 133.984-31.1035C131.641-28.7109 131.738-24.7559 134.131-22.3633Z"/>
  </g>
  <g id="Heavy-M" transform="matrix(1 0 0 1 2565.86 1126)">
   <path d="M107.959-85.6445C111.035-85.6445 113.574-88.2812 113.574-91.3574L113.574-99.9023C113.574-103.076 111.035-105.664 107.959-105.664C104.834-105.664 102.295-103.076 102.295-99.9023L102.295-91.3574C102.295-88.2812 104.834-85.6445 107.959-85.6445ZM76.5625-76.0742C78.8086-73.8281 82.4707-73.7793 84.668-75.9766C86.8164-78.1738 86.7188-81.7383 84.5703-84.0332L78.5645-90.1367C76.416-92.3828 72.6562-92.334 70.459-90.1367C68.2617-87.9395 68.3594-84.3262 70.5566-82.1289ZM131.299-75.9277C133.447-73.7305 137.158-73.8281 139.355-76.0254L145.41-82.0312C147.656-84.2285 147.656-87.8906 145.459-90.0879C143.262-92.2852 139.648-92.2363 137.402-89.9902L131.348-84.0332C129.102-81.8359 129.102-78.125 131.299-75.9277ZM122.705-32.0801C129.102-36.4746 133.35-44.1406 133.35-52.7344C133.35-66.6992 122.021-78.0273 108.057-78.0273C98.7793-78.0273 90.6738-73.0957 86.6699-66.2598C88.916-64.0625 90.8691-61.4746 92.4805-58.3496C107.471-57.5195 119.873-46.8262 122.705-32.0801ZM30.2246 1.80664L89.4531 1.80664C103.711 1.80664 114.453-9.27734 114.453-23.9746C114.453-39.3066 102.979-50.5371 87.1582-50.4883C82.1777-59.8145 72.7051-68.3105 57.0312-68.3105C39.4043-68.3105 25-55.3223 23.584-38.0371C14.5508-35.6934 8.74023-28.0273 8.74023-18.457C8.74023-6.39648 17.4316 1.80664 30.2246 1.80664ZM146.582-47.0703L155.127-47.0703C158.252-47.0703 160.84-49.5605 160.84-52.6855C160.84-55.8105 158.252-58.3496 155.127-58.3496L146.582-58.3496C143.457-58.3496 140.82-55.8105 140.82-52.6855C140.82-49.5605 143.457-47.0703 146.582-47.0703ZM137.354-15.2832C139.6-13.0371 143.213-12.9883 145.41-15.1855C147.607-17.3828 147.51-20.9473 145.312-23.2422L139.307-29.3457C137.158-31.5918 133.398-31.543 131.25-29.3457C129.053-27.1973 129.15-23.5352 131.348-21.3867Z"/>
  </g>
  <g id="Bold-M" transform="matrix(1 0 0 1 2270.45 1126)">
   <path d="M105.078-83.1055C107.91-83.1055 110.205-85.498 110.205-88.2812L110.205-97.5098C110.205-100.391 107.91-102.686 105.078-102.686C102.295-102.686 100-100.391 100-97.5098L100-88.2812C100-85.498 102.295-83.1055 105.078-83.1055ZM74.7559-73.6328C76.8066-71.582 80.0781-71.582 82.0312-73.5352C83.9844-75.5371 83.9355-78.7598 81.9824-80.7617L75.4395-87.4023C73.4863-89.4043 70.166-89.3555 68.2129-87.4023C66.2109-85.4492 66.3086-82.1777 68.2617-80.1758ZM128.174-73.5352C130.078-71.5332 133.447-71.582 135.449-73.584L141.992-80.127C143.994-82.0801 143.994-85.4004 141.992-87.3535C140.039-89.3555 136.768-89.3066 134.766-87.3047L128.174-80.7617C126.172-78.8086 126.221-75.4883 128.174-73.5352ZM119.092-29.7852C125.732-34.375 130.078-41.9434 130.078-50.5371C130.078-64.3555 118.945-75.4883 105.127-75.4883C96.0449-75.4883 88.0859-70.6055 84.082-63.6719C86.2793-61.5234 88.1348-59.0332 89.6973-56.0059C105.078-55.0293 116.797-44.5312 119.092-29.7852ZM29.7852 1.70898L86.8164 1.70898C100.928 1.70898 111.67-9.17969 111.67-23.4863C111.67-38.1836 100.391-49.0234 85.0098-49.0234C79.7363-58.8867 70.0195-66.6504 55.6641-66.6504C38.6719-66.6504 24.6094-53.8574 23.1445-37.0605C14.4043-34.668 8.74023-27.1973 8.74023-17.9688C8.74023-6.29883 17.2852 1.70898 29.7852 1.70898ZM142.773-45.459L152.051-45.459C154.834-45.459 157.178-47.7051 157.178-50.4883C157.178-53.3203 154.834-55.6152 152.051-55.6152L142.773-55.6152C139.99-55.6152 137.646-53.3203 137.646-50.4883C137.646-47.7051 139.99-45.459 142.773-45.459ZM134.766-13.6719C136.768-11.6699 139.99-11.6699 141.992-13.623C143.945-15.5762 143.896-18.8477 141.895-20.8496L135.4-27.4414C133.447-29.3945 130.078-29.3945 128.125-27.4414C126.172-25.4883 126.221-22.2168 128.174-20.2148Z"/>
  </g>
  <g id="Semibold-M" transform="matrix(1 0 0 1 1974.61 1126)">
   <path d="M103.125-81.3965C105.713-81.3965 107.861-83.5938 107.861-86.1328L107.861-95.8984C107.861-98.4863 105.713-100.635 103.125-100.635C100.537-100.635 98.3887-98.4863 98.3887-95.8984L98.3887-86.1328C98.3887-83.5938 100.537-81.3965 103.125-81.3965ZM73.5352-71.9238C75.3906-70.0684 78.4668-70.0684 80.2734-71.875C82.0312-73.6816 82.0312-76.6602 80.2246-78.5645L73.3398-85.498C71.4844-87.3535 68.457-87.3047 66.6504-85.498C64.7949-83.6914 64.8438-80.6641 66.6992-78.8086ZM126.025-71.875C127.783-70.0195 130.859-70.0684 132.715-71.9238L139.6-78.8086C141.455-80.6152 141.455-83.6426 139.6-85.498C137.793-87.3047 134.814-87.3047 132.959-85.4492L126.025-78.5645C124.17-76.709 124.219-73.6816 126.025-71.875ZM116.602-28.2227C123.438-32.9102 127.783-40.4297 127.783-49.0234C127.783-62.6953 116.797-73.6816 103.174-73.6816C94.1406-73.6816 86.2793-68.8965 82.2754-61.9141C84.4238-59.7656 86.2305-57.3242 87.793-54.3945C103.418-53.2715 114.648-42.9688 116.602-28.2227ZM29.4922 1.61133L85.0098 1.61133C99.0234 1.61133 109.766-9.13086 109.766-23.1445C109.766-37.4023 98.584-47.998 83.4961-47.998C78.0762-58.252 68.2129-65.5273 54.7852-65.5273C38.1836-65.5273 24.3164-52.8809 22.8516-36.3281C14.2578-33.9355 8.74023-26.6113 8.74023-17.627C8.74023-6.20117 17.1875 1.61133 29.4922 1.61133ZM140.186-44.3359L149.902-44.3359C152.49-44.3359 154.639-46.4355 154.639-49.0234C154.639-51.6113 152.49-53.7598 149.902-53.7598L140.186-53.7598C137.598-53.7598 135.4-51.6113 135.4-49.0234C135.4-46.4355 137.598-44.3359 140.186-44.3359ZM132.959-12.5488C134.766-10.6934 137.793-10.6934 139.6-12.5488C141.406-14.3555 141.406-17.334 139.551-19.1895L132.666-26.123C130.859-27.9297 127.783-27.9297 125.977-26.123C124.17-24.2676 124.219-21.2402 126.025-19.4336Z"/>
  </g>
  <g id="Medium-M" transform="matrix(1 0 0 1 1678.59 1126)">
   <path d="M101.611-80.0781C104.053-80.0781 106.055-82.1289 106.055-84.5215L106.055-94.6289C106.055-97.0703 104.053-99.0723 101.611-99.0723C99.1699-99.0723 97.168-97.0703 97.168-94.6289L97.168-84.5215C97.168-82.1289 99.1699-80.0781 101.611-80.0781ZM72.6074-70.6543C74.3652-68.8965 77.2461-68.8965 78.9062-70.6055C80.5664-72.3145 80.5664-75.0977 78.8574-76.8555L71.6797-84.0332C69.9707-85.791 67.1387-85.7422 65.4785-84.0332C63.7695-82.373 63.7695-79.541 65.4785-77.7832ZM124.365-70.6055C126.025-68.8965 128.955-68.8965 130.664-70.6543L137.793-77.7832C139.502-79.4922 139.502-82.3242 137.793-84.0332C136.084-85.7422 133.301-85.7422 131.592-84.0332L124.365-76.8555C122.656-75.1465 122.705-72.3145 124.365-70.6055ZM114.697-27.0508C121.68-31.7871 126.074-39.3066 126.074-47.9004C126.074-61.4746 115.186-72.3633 101.66-72.3633C92.7246-72.3633 84.9609-67.5781 80.9082-60.5469C83.0078-58.4473 84.8145-56.0547 86.3281-53.1738C102.148-52.002 113.037-41.7969 114.697-27.0508ZM29.2969 1.51367L83.6426 1.51367C97.5586 1.51367 108.301-9.08203 108.301-22.9004C108.301-36.7676 97.2168-47.2168 82.3242-47.2656C76.8066-57.7637 66.7969-64.6484 54.0527-64.6484C37.793-64.6484 24.1211-52.1484 22.6562-35.791C14.1602-33.3496 8.74023-26.1719 8.74023-17.334C8.74023-6.15234 17.0898 1.51367 29.2969 1.51367ZM138.184-43.457L148.291-43.457C150.732-43.457 152.686-45.459 152.686-47.9004C152.734-50.3418 150.732-52.3438 148.291-52.3438L138.184-52.3438C135.791-52.3438 133.74-50.3418 133.74-47.9004C133.74-45.459 135.791-43.457 138.184-43.457ZM131.543-11.6699C133.301-9.96094 136.084-10.0098 137.793-11.7188C139.502-13.4277 139.502-16.2109 137.793-17.9199L130.615-25.0977C128.906-26.7578 126.074-26.8066 124.365-25.0977C122.656-23.3887 122.656-20.5566 124.365-18.8477Z"/>
  </g>
  <g id="Regular-M" transform="matrix(1 0 0 1 1382.75 1126)">
   <path d="M99.6582-78.3691C101.904-78.3691 103.76-80.2734 103.76-82.4219L103.76-92.9688C103.76-95.2148 101.904-97.0215 99.6582-97.0215C97.4609-97.0215 95.6055-95.2148 95.6055-92.9688L95.6055-82.4219C95.6055-80.2734 97.4609-78.3691 99.6582-78.3691ZM71.3379-68.9941C72.9492-67.3828 75.5859-67.4316 77.0996-68.9941C78.6133-70.5078 78.6621-73.0957 77.0996-74.6582L69.5801-82.1777C68.0176-83.7402 65.4785-83.7402 63.916-82.1777C62.3535-80.6152 62.3535-78.0273 63.916-76.4648ZM122.266-68.9941C123.73-67.4316 126.416-67.3828 128.027-68.9941L135.449-76.4648C137.012-78.0273 137.012-80.6152 135.449-82.1777C133.887-83.7402 131.348-83.7402 129.785-82.1777L122.266-74.6582C120.703-73.0957 120.752-70.5078 122.266-68.9941ZM112.207-25.4883C119.434-30.3711 123.828-37.793 123.828-46.3867C123.828-59.8633 113.086-70.6055 99.6582-70.6055C90.8203-70.6055 83.1543-65.8691 79.1016-58.7891C81.2012-56.6895 82.9102-54.3945 84.4238-51.5625C100.488-50.293 110.938-40.2344 112.207-25.4883ZM29.0039 1.46484L81.8359 1.46484C95.6543 1.46484 106.396-9.0332 106.396-22.5586C106.396-36.0352 95.459-46.1426 80.8594-46.2402C75.1465-57.1777 64.9902-63.5254 53.1738-63.5254C37.3047-63.5254 23.8281-51.1719 22.3633-35.1074C14.0625-32.6172 8.74023-25.5859 8.74023-16.9922C8.74023-6.05469 16.9922 1.46484 29.0039 1.46484ZM135.645-42.3828L146.191-42.3828C148.389-42.3828 150.195-44.1895 150.195-46.3867C150.195-48.6328 148.389-50.4395 146.191-50.4395L135.645-50.4395C133.447-50.4395 131.592-48.6328 131.592-46.3867C131.592-44.1895 133.447-42.3828 135.645-42.3828ZM129.785-10.5957C131.348-8.98438 133.887-9.08203 135.449-10.6445C137.012-12.207 137.012-14.7949 135.449-16.3086L127.93-23.7793C126.367-25.293 123.779-25.3418 122.266-23.7793C120.703-22.2168 120.703-19.6289 122.266-18.0664Z"/>
  </g>
  <g id="Light-M" transform="matrix(1 0 0 1 1086.46 1126)">
   <path d="M99.2676-79.4434C100.977-79.4434 102.344-80.8594 102.344-82.5195L102.344-94.3848C102.344-96.0449 100.977-97.4121 99.2676-97.4121C97.5586-97.4121 96.1914-96.0449 96.1914-94.3848L96.1914-82.5195C96.1914-80.8594 97.5586-79.4434 99.2676-79.4434ZM72.3633-70.0195C73.5352-68.7988 75.5371-68.8477 76.709-70.0195C77.832-71.1914 77.8809-73.1445 76.709-74.3164L68.2617-82.7637C67.041-83.9844 65.1367-83.9355 63.9648-82.7637C62.793-81.5918 62.7441-79.6387 63.9648-78.4668ZM121.826-70.0195C122.949-68.8477 125-68.7988 126.172-70.0195L134.57-78.4668C135.791-79.6387 135.742-81.5918 134.57-82.7637C133.398-83.9355 131.494-83.9844 130.273-82.7637L121.826-74.3164C120.654-73.1445 120.703-71.1914 121.826-70.0195ZM110.645-26.3672C118.164-31.0059 122.9-38.5254 122.9-47.4609C122.9-60.6445 112.402-71.1914 99.2676-71.1914C89.9902-71.1914 82.0801-65.8691 78.3691-58.1543C80.4199-56.0059 82.1289-53.6621 83.5449-50.9277C99.0723-49.707 109.082-39.9902 110.645-26.3672ZM28.2227 0.439453L81.3477 0.439453C94.8242 0.439453 105.322-9.7168 105.322-22.8027C105.322-35.8398 94.5801-45.7031 80.2734-45.752C74.4629-56.9824 64.502-63.2812 52.7344-63.2812C37.207-63.2812 24.0234-50.9277 22.6562-34.9121C14.1602-32.5684 8.74023-25.6836 8.74023-17.2852C8.74023-6.78711 16.6992 0.439453 28.2227 0.439453ZM134.18-44.4336L146.094-44.4336C147.754-44.4336 149.121-45.8008 149.121-47.4609C149.17-49.1699 147.754-50.5371 146.094-50.5371L134.18-50.5371C132.568-50.5371 131.152-49.1699 131.152-47.4609C131.152-45.8008 132.568-44.4336 134.18-44.4336ZM130.273-12.1094C131.494-10.8887 133.398-10.9375 134.57-12.1582C135.742-13.3301 135.791-15.2344 134.57-16.4062L126.123-24.8535C124.951-25.9766 122.998-26.0254 121.826-24.8535C120.654-23.6816 120.654-21.6797 121.826-20.5078Z"/>
  </g>
  <g id="Thin-M" transform="matrix(1 0 0 1 790.285 1126)">
   <path d="M98.7305-80.8594C99.707-80.8594 100.488-81.6895 100.488-82.5684L100.488-96.2402C100.488-97.168 99.707-97.9492 98.7305-97.9492C97.7539-97.9492 96.9238-97.168 96.9238-96.2402L96.9238-82.5684C96.9238-81.6895 97.7539-80.8594 98.7305-80.8594ZM73.6816-71.4355C74.3652-70.752 75.4883-70.752 76.1719-71.4355C76.8066-72.1191 76.8555-73.2422 76.1719-73.9258L66.5039-83.5449C65.7715-84.2773 64.6973-84.2285 64.0137-83.5449C63.3789-82.9102 63.2812-81.7871 64.0137-81.0547ZM121.289-71.4355C121.924-70.752 123.096-70.752 123.779-71.4355L133.398-81.0547C134.131-81.7871 134.082-82.9102 133.398-83.5449C132.715-84.2285 131.641-84.2773 130.957-83.5449L121.289-73.9258C120.605-73.2422 120.605-72.1191 121.289-71.4355ZM108.496-27.4902C116.455-31.8359 121.729-39.5508 121.729-48.877C121.729-61.6699 111.475-71.9238 98.7305-71.9238C88.8184-71.9238 80.6152-65.918 77.3926-57.3242C79.3945-55.0781 81.0547-52.6855 82.4219-50.0977C97.1191-49.0234 106.641-39.6973 108.496-27.4902ZM27.1973-0.878906L80.7617-0.878906C93.7012-0.878906 103.955-10.6445 103.955-23.0957C103.955-35.6445 93.457-45.0684 79.4922-45.0684C73.5352-56.6895 63.8672-62.9883 52.1484-62.9883C37.0117-62.9883 24.2676-50.6836 22.998-34.668C14.2578-32.4219 8.74023-25.7812 8.74023-17.5781C8.74023-7.76367 16.3086-0.878906 27.1973-0.878906ZM132.324-47.1191L145.947-47.1191C146.973-47.1191 147.705-47.9004 147.754-48.877C147.803-49.8535 146.973-50.6348 145.947-50.6348L132.324-50.6348C131.348-50.6348 130.566-49.8535 130.566-48.877C130.566-47.9004 131.348-47.1191 132.324-47.1191ZM130.957-14.1113C131.641-13.3789 132.715-13.4766 133.398-14.1113C134.082-14.7949 134.131-15.8691 133.398-16.6016L123.779-26.2695C123.096-26.9043 121.973-26.9043 121.289-26.2695C120.605-25.5859 120.605-24.4141 121.289-23.7793Z"/>
  </g>
  <g id="Ultralight-M" transform="matrix(1 0 0 1 493.866 1126)">
   <path d="M98.4375-81.543C99.0234-81.543 99.5605-82.0801 99.5605-82.6172L99.5605-97.168C99.5605-97.7539 99.0234-98.2422 98.4375-98.2422C97.8516-98.2422 97.3145-97.7539 97.3145-97.168L97.3145-82.6172C97.3145-82.0801 97.8516-81.543 98.4375-81.543ZM74.3164-72.168C74.7559-71.7285 75.4395-71.7285 75.8789-72.168C76.3184-72.5586 76.2695-73.291 75.8789-73.6816L65.625-83.9844C65.1367-84.4238 64.502-84.375 64.0625-83.9844C63.623-83.5449 63.5742-82.9102 64.0625-82.4219ZM120.996-72.168C121.436-71.7285 122.119-71.7285 122.559-72.168L132.812-82.4219C133.301-82.9102 133.252-83.5449 132.812-83.9844C132.422-84.375 131.738-84.4238 131.25-83.9844L120.996-73.6816C120.605-73.291 120.605-72.5586 120.996-72.168ZM107.422-28.0762C115.576-32.2266 121.094-40.0391 121.094-49.6094C121.094-62.207 111.035-72.3145 98.4375-72.3145C88.2324-72.3145 79.8828-65.918 76.9043-56.9336C78.8574-54.5898 80.5176-52.1484 81.8359-49.707C96.1426-48.6328 105.42-39.5508 107.422-28.0762ZM26.709-1.51367L80.4199-1.51367C93.1152-1.51367 103.223-11.1328 103.223-23.2422C103.223-35.5469 92.8711-44.7754 79.1016-44.7266C73.0469-56.543 63.5254-62.8418 51.8066-62.8418C36.9629-62.8418 24.3652-50.5371 23.1934-34.5703C14.3555-32.373 8.74023-25.8301 8.74023-17.7734C8.74023-8.25195 16.1133-1.51367 26.709-1.51367ZM131.348-48.5352L145.898-48.5352C146.533-48.5352 146.973-48.9746 147.021-49.6094C147.07-50.1953 146.533-50.6348 145.898-50.6348L131.348-50.6348C130.762-50.6348 130.273-50.1953 130.273-49.6094C130.273-48.9746 130.762-48.5352 131.348-48.5352ZM131.25-15.1367C131.738-14.6973 132.422-14.7461 132.812-15.1367C133.252-15.5762 133.301-16.2109 132.812-16.6992L122.559-26.9531C122.119-27.3926 121.436-27.3926 120.996-26.9531C120.605-26.5625 120.605-25.8301 120.996-25.4395Z"/>
  </g>
  <g id="Black-S" transform="matrix(1 0 0 1 2877.1 696)">
   <path d="M86.377-76.2695C89.0137-76.2695 91.1621-78.5156 91.1621-81.1523L91.1621-87.4023C91.1621-90.0879 89.0137-92.2852 86.377-92.2852C83.7402-92.2852 81.5918-90.0879 81.5918-87.4023L81.5918-81.1523C81.5918-78.5156 83.7402-76.2695 86.377-76.2695ZM61.1328-68.75C63.0371-66.8457 66.1133-66.7969 67.9688-68.6523C69.8242-70.5078 69.7266-73.5352 67.8711-75.4883L63.5254-79.9805C61.7188-81.8848 58.4961-81.8359 56.6406-79.9805C54.7852-78.125 54.8828-75.0488 56.7383-73.1934ZM104.834-68.6035C106.689-66.748 109.814-66.8457 111.67-68.7012L116.113-73.0957C118.018-74.9512 118.018-78.0762 116.162-79.9316C114.307-81.7871 111.23-81.7383 109.326-79.834L104.883-75.4883C102.979-73.6328 102.979-70.459 104.834-68.6035ZM98.4375-34.1797C103.271-37.5488 106.592-43.5547 106.592-50.293C106.592-61.377 97.5586-70.3613 86.4746-70.3613C79.1504-70.3613 72.7051-66.4551 69.5801-61.1816C71.3867-59.4238 72.9492-57.3242 74.2188-54.834C85.7422-54.2969 95.8984-45.752 98.4375-34.1797ZM23.9746-6.10352L71.7285-6.10352C83.0078-6.10352 91.4551-14.9414 91.4551-26.709C91.4551-39.1602 82.3242-48.1934 69.6777-48.0957C65.918-55.0781 58.6426-62.207 45.5078-62.207C31.3477-62.207 19.8242-51.8555 18.75-38.0859C11.5234-36.2793 6.83594-30.127 6.83594-22.4121C6.83594-12.6953 13.7695-6.10352 23.9746-6.10352ZM117.236-45.5078L123.486-45.5078C126.172-45.5078 128.369-47.6074 128.369-50.2441C128.369-52.8809 126.172-55.0781 123.486-55.0781L117.236-55.0781C114.6-55.0781 112.354-52.8809 112.354-50.2441C112.354-47.6074 114.6-45.5078 117.236-45.5078ZM109.277-20.6055C111.182-18.7012 114.258-18.6523 116.113-20.5078C117.969-22.3633 117.871-25.3906 116.016-27.3438L111.67-31.8359C109.863-33.7402 106.641-33.6914 104.785-31.8359C102.93-29.9805 103.027-26.9043 104.883-25.0488Z"/>
  </g>
  <g id="Heavy-S" transform="matrix(1 0 0 1 2581.22 696)">
   <path d="M84.4727-74.4629C86.9629-74.4629 88.9648-76.5625 88.9648-79.0527L88.9648-85.5957C88.9648-88.1348 86.9629-90.1855 84.4727-90.1855C81.9824-90.1855 79.9316-88.1348 79.9316-85.5957L79.9316-79.0527C79.9316-76.5625 81.9824-74.4629 84.4727-74.4629ZM59.7656-66.9434C61.5723-65.1367 64.502-65.1367 66.2109-66.8945C67.9688-68.6523 67.9199-71.4844 66.1621-73.291L61.5234-78.0273C59.8145-79.834 56.8359-79.7852 55.0781-78.0273C53.3203-76.2695 53.418-73.3887 55.127-71.6309ZM102.734-66.8457C104.492-65.0879 107.422-65.1367 109.18-66.9434L113.867-71.5332C115.625-73.291 115.625-76.2695 113.867-77.9785C112.109-79.7363 109.229-79.6875 107.471-77.9297L102.783-73.291C100.977-71.582 100.977-68.6035 102.734-66.8457ZM96.1426-32.5195C101.123-36.0352 104.443-41.9922 104.443-48.6816C104.443-59.668 95.5078-68.5547 84.5215-68.5547C77.3438-68.5547 71.0449-64.7461 67.8711-59.4727C69.6289-57.7637 71.1426-55.7617 72.4121-53.3203C84.2285-52.6367 93.9941-44.2383 96.1426-32.5195ZM23.7793-6.10352L69.9707-6.10352C81.2012-6.10352 89.6484-14.7949 89.6484-26.3672C89.6484-38.3789 80.6641-47.2168 68.2617-47.168C64.3555-54.4922 56.8848-61.084 44.6289-61.084C30.8594-61.084 19.5312-50.8789 18.4082-37.4023C11.377-35.5469 6.83594-29.541 6.83594-22.0215C6.83594-12.5488 13.6719-6.10352 23.7793-6.10352ZM114.795-44.1895L121.387-44.1895C123.877-44.1895 125.977-46.1426 125.977-48.6328C125.977-51.123 123.877-53.2227 121.387-53.2227L114.795-53.2227C112.305-53.2227 110.205-51.123 110.205-48.6328C110.205-46.1426 112.305-44.1895 114.795-44.1895ZM107.422-19.3359C109.18-17.5293 112.109-17.5293 113.867-19.2383C115.576-20.9961 115.527-23.877 113.77-25.6836L109.18-30.4199C107.471-32.1777 104.443-32.1289 102.686-30.4199C100.928-28.6621 101.025-25.7324 102.783-23.9746Z"/>
  </g>
  <g id="Bold-S" transform="matrix(1 0 0 1 2285.44 696)">
   <path d="M82.3242-72.4121C84.668-72.4121 86.5723-74.3652 86.5723-76.6602L86.5723-83.5938C86.5723-85.9375 84.668-87.8906 82.3242-87.8906C80.0293-87.8906 78.125-85.9375 78.125-83.5938L78.125-76.6602C78.125-74.3652 80.0293-72.4121 82.3242-72.4121ZM58.3008-64.9414C59.9609-63.2812 62.6953-63.2812 64.3066-64.8926C65.918-66.5527 65.8691-69.1895 64.2578-70.8984L59.3262-75.8301C57.7148-77.4902 54.9805-77.4902 53.3691-75.8301C51.709-74.2188 51.7578-71.5332 53.418-69.873ZM100.391-64.8926C102.002-63.2324 104.785-63.2812 106.445-64.9414L111.328-69.8242C112.988-71.4844 112.988-74.2188 111.377-75.8301C109.717-77.4414 107.031-77.4414 105.371-75.7812L100.439-70.8984C98.7793-69.2383 98.7793-66.5039 100.391-64.8926ZM93.5547-30.6641C98.7305-34.3262 102.051-40.2344 102.051-46.875C102.051-57.7637 93.2617-66.5039 82.373-66.5039C75.3906-66.5039 69.1895-62.8418 65.9668-57.6172C67.6758-55.9082 69.1406-53.9551 70.4102-51.6113C82.6172-50.7812 91.8457-42.5293 93.5547-30.6641ZM23.5352-6.05469L68.0176-6.05469C79.1992-6.05469 87.6465-14.6484 87.6465-25.9277C87.6465-37.5488 78.7598-46.0938 66.6504-46.0938C62.5488-53.8086 54.8828-59.8633 43.7012-59.8633C30.3223-59.8633 19.1895-49.8535 18.0664-36.6699C11.2305-34.7656 6.83594-28.9062 6.83594-21.6309C6.83594-12.3535 13.623-6.05469 23.5352-6.05469ZM112.109-42.6758L119.043-42.6758C121.387-42.6758 123.291-44.5312 123.291-46.875C123.291-49.1699 121.387-51.123 119.043-51.123L112.109-51.123C109.814-51.123 107.812-49.1699 107.812-46.875C107.812-44.5312 109.814-42.6758 112.109-42.6758ZM105.371-17.8711C107.031-16.2598 109.717-16.2598 111.328-17.8711C112.939-19.4824 112.939-22.168 111.279-23.8281L106.396-28.8086C104.785-30.4199 102.002-30.4199 100.391-28.8086C98.7305-27.1484 98.7793-24.4629 100.439-22.8027Z"/>
  </g>
  <g id="Semibold-S" transform="matrix(1 0 0 1 1989.38 696)">
   <path d="M80.8594-70.9961C83.1055-70.9961 84.9121-72.8516 84.9121-75.0488L84.9121-82.2266C84.9121-84.4727 83.1055-86.2793 80.8594-86.2793C78.6621-86.2793 76.8555-84.4727 76.8555-82.2266L76.8555-75.0488C76.8555-72.8516 78.6621-70.9961 80.8594-70.9961ZM57.2266-63.5742C58.8379-61.9629 61.4746-62.0117 62.9883-63.5254C64.502-65.0879 64.502-67.627 62.9395-69.1895L57.8125-74.3652C56.2988-75.9277 53.7109-75.8789 52.1484-74.3652C50.5859-72.8027 50.6348-70.2148 52.1973-68.6523ZM98.7793-63.5254C100.342-61.9629 102.93-61.9629 104.541-63.5742L109.619-68.6523C111.182-70.2148 111.182-72.8027 109.619-74.3164C108.057-75.8789 105.518-75.8789 103.955-74.3164L98.8281-69.1895C97.2656-67.627 97.2656-65.0879 98.7793-63.5254ZM91.7969-29.3945C97.0703-33.1543 100.391-39.0137 100.391-45.6543C100.391-56.4453 91.6992-65.1367 80.9082-65.1367C74.0234-65.1367 67.9199-61.5234 64.6484-56.2988C66.3574-54.6387 67.7734-52.7344 68.9941-50.3906C81.4453-49.5117 90.3809-41.3086 91.7969-29.3945ZM23.3398-6.05469L66.6992-6.05469C77.7832-6.05469 86.2793-14.5508 86.2793-25.6836C86.2793-36.9629 77.4902-45.3613 65.5762-45.3613C61.3281-53.3203 53.5156-58.9844 43.0176-58.9844C29.9316-58.9844 18.9941-49.1211 17.8223-36.1328C11.1328-34.2285 6.83594-28.418 6.83594-21.3379C6.83594-12.2559 13.5254-6.05469 23.3398-6.05469ZM110.254-41.6504L117.432-41.6504C119.629-41.6504 121.436-43.4082 121.436-45.6055C121.436-47.8516 119.629-49.6582 117.432-49.6582L110.254-49.6582C108.057-49.6582 106.201-47.8516 106.201-45.6055C106.201-43.4082 108.057-41.6504 110.254-41.6504ZM103.955-16.8945C105.518-15.332 108.057-15.332 109.619-16.8945C111.133-18.457 111.133-20.9961 109.57-22.5586L104.443-27.6855C102.93-29.1992 100.342-29.248 98.7793-27.6855C97.2168-26.123 97.2656-23.584 98.8281-22.0215Z"/>
  </g>
  <g id="Medium-S" transform="matrix(1 0 0 1 1693.16 696)">
   <path d="M79.7852-69.9219C81.8848-69.9219 83.6426-71.7285 83.6426-73.7793L83.6426-81.1523C83.6426-83.3008 81.8848-85.0586 79.7852-85.0586C77.6367-85.0586 75.9277-83.3008 75.9277-81.1523L75.9277-73.7793C75.9277-71.7285 77.6367-69.9219 79.7852-69.9219ZM56.4453-62.5C58.0078-60.9863 60.498-61.0352 61.9629-62.5C63.4277-63.9648 63.4277-66.4062 61.9629-67.9199L56.6895-73.1934C55.2246-74.707 52.7344-74.707 51.2695-73.1934C49.7559-71.7285 49.8047-69.2383 51.2695-67.7734ZM97.6074-62.5C99.0234-60.9863 101.562-60.9863 103.076-62.5L108.301-67.7246C109.766-69.2383 109.766-71.7285 108.301-73.1934C106.787-74.707 104.395-74.6582 102.881-73.1934L97.6074-67.9199C96.0938-66.4551 96.1426-63.9648 97.6074-62.5ZM90.4785-28.4668C95.8496-32.2754 99.1211-38.0859 99.1211-44.7266C99.1211-55.4199 90.5273-64.0625 79.7852-64.0625C72.9492-64.0625 66.9922-60.5469 63.6719-55.2734C65.332-53.6621 66.748-51.8066 67.9688-49.5117C80.6152-48.5352 89.2578-40.4297 90.4785-28.4668ZM23.2422-6.00586L65.6738-6.00586C76.7578-6.00586 85.2539-14.4531 85.2539-25.4395C85.2539-36.4746 76.4648-44.7754 64.6973-44.8242C60.4004-52.9785 52.4902-58.3496 42.5293-58.3496C29.6387-58.3496 18.7988-48.5352 17.627-35.7422C11.0352-33.7891 6.83594-28.0762 6.83594-21.1426C6.83594-12.1582 13.4766-6.00586 23.2422-6.00586ZM108.838-40.8203L116.211-40.8203C118.311-40.8203 120.02-42.5781 120.02-44.6777C120.02-46.8262 118.311-48.584 116.211-48.584L108.838-48.584C106.738-48.584 104.932-46.8262 104.932-44.6777C104.932-42.5781 106.738-40.8203 108.838-40.8203ZM102.881-16.1621C104.346-14.6484 106.787-14.6973 108.301-16.1621C109.766-17.6758 109.766-20.1172 108.252-21.582L103.027-26.8555C101.514-28.3203 99.0723-28.3203 97.5586-26.8555C96.0938-25.3418 96.0938-22.9004 97.6074-21.3867Z"/>
  </g>
  <g id="Regular-S" transform="matrix(1 0 0 1 1397.09 696)">
   <path d="M78.3203-68.5059C80.3223-68.5059 81.9824-70.2148 81.9824-72.168L81.9824-79.7852C81.9824-81.8359 80.3223-83.4473 78.3203-83.4473C76.3184-83.4473 74.6582-81.8359 74.6582-79.7852L74.6582-72.168C74.6582-70.2148 76.3184-68.5059 78.3203-68.5059ZM95.9961-61.1328C97.3633-59.7656 99.7559-59.7168 101.221-61.1328L106.592-66.5527C108.008-67.9688 107.959-70.3125 106.592-71.7285C105.176-73.1445 102.881-73.1445 101.465-71.7285L95.9961-66.2598C94.5801-64.8438 94.6289-62.5488 95.9961-61.1328ZM55.4688-61.1328C56.8848-59.7168 59.2773-59.7656 60.6445-61.1328C62.0117-62.5488 62.0605-64.8438 60.6445-66.2598L55.1758-71.7285C53.7598-73.1445 51.4648-73.1445 50.0977-71.7285C48.6816-70.3125 48.6816-67.9688 50.0977-66.5527ZM88.7207-27.1973C94.1895-31.1035 97.5098-36.8652 97.5098-43.457C97.5098-54.1504 88.9648-62.6953 78.3203-62.6953C71.6309-62.6953 65.7227-59.2285 62.3535-54.0039C64.0137-52.3926 65.3809-50.6348 66.6016-48.3398C79.4922-47.2656 87.8418-39.2578 88.7207-27.1973ZM23.0957-6.00586L64.3555-6.00586C75.3418-6.00586 83.8867-14.3555 83.8867-25.1953C83.8867-35.9375 75.1953-44.043 63.623-44.0918C59.2285-52.4902 51.123-57.4707 41.8945-57.4707C29.2969-57.4707 18.6035-47.8027 17.3828-35.2051C10.9375-33.252 6.83594-27.6367 6.83594-20.8496C6.83594-12.0117 13.4277-6.00586 23.0957-6.00586ZM106.982-39.8438L114.6-39.8438C116.602-39.8438 118.213-41.4551 118.213-43.457C118.213-45.5078 116.602-47.1191 114.6-47.1191L106.982-47.1191C105.029-47.1191 103.32-45.5078 103.32-43.457C103.32-41.4551 105.029-39.8438 106.982-39.8438ZM101.465-15.1855C102.881-13.7695 105.176-13.8184 106.592-15.2344C107.959-16.6504 108.008-18.9941 106.592-20.3125L101.123-25.7324C99.707-27.0996 97.4121-27.1484 95.9961-25.7324C94.5801-24.3652 94.5801-22.0215 95.9961-20.6055Z"/>
  </g>
  <g id="Light-S" transform="matrix(1 0 0 1 1100.74 696)">
   <path d="M77.9297-69.4824C79.4922-69.4824 80.7617-70.752 80.7617-72.2168L80.7617-81.0547C80.7617-82.5684 79.4922-83.7891 77.9297-83.7891C76.416-83.7891 75.1465-82.5684 75.1465-81.0547L75.1465-72.2168C75.1465-70.752 76.416-69.4824 77.9297-69.4824ZM56.2988-62.1094C57.4219-60.9863 59.2285-61.0352 60.2539-62.1094C61.3281-63.1348 61.3281-64.8926 60.2539-65.9668L54.0039-72.2656C52.9297-73.3398 51.1719-73.3398 50.0977-72.2656C49.0234-71.1914 49.0234-69.4336 50.0977-68.3105ZM95.6055-62.1094C96.6797-61.0352 98.4863-60.9863 99.5605-62.1094L105.762-68.3105C106.885-69.4336 106.836-71.1914 105.762-72.2656C104.736-73.3398 102.979-73.3398 101.904-72.2656L95.6055-65.9668C94.5312-64.8926 94.5801-63.1348 95.6055-62.1094ZM87.3047-27.9297C93.0664-31.6406 96.6797-37.5488 96.6797-44.4336C96.6797-54.834 88.3301-63.1836 77.9297-63.1836C70.8496-63.1836 64.7461-59.2285 61.7188-53.4668C63.3301-51.7578 64.6484-49.9512 65.8203-47.8027C78.1738-46.7773 86.1816-39.0625 87.3047-27.9297ZM22.4121-6.88477L63.916-6.88477C74.6094-6.88477 82.9102-14.9902 82.9102-25.3906C82.9102-35.791 74.4629-43.6035 63.1348-43.6523C58.5938-52.3438 50.7324-57.2754 41.4551-57.2754C29.1992-57.2754 18.75-47.6074 17.627-35.0586C11.0352-33.1543 6.83594-27.7344 6.83594-21.0449C6.83594-12.6953 13.1836-6.88477 22.4121-6.88477ZM105.713-41.6504L114.502-41.6504C116.016-41.6504 117.236-42.8711 117.285-44.4336C117.285-45.9473 116.016-47.168 114.502-47.168L105.713-47.168C104.199-47.168 102.93-45.9473 102.93-44.4336C102.93-42.8711 104.199-41.6504 105.713-41.6504ZM101.904-16.5039C102.979-15.4297 104.736-15.4785 105.762-16.5527C106.836-17.627 106.885-19.3848 105.762-20.459L99.5117-26.709C98.4375-27.7344 96.6797-27.7344 95.6055-26.709C94.5312-25.6348 94.5312-23.8281 95.6055-22.7539Z"/>
  </g>
  <g id="Thin-S" transform="matrix(1 0 0 1 804.494 696)">
   <path d="M77.4414-70.7031C78.3203-70.7031 79.1016-71.4844 79.1016-72.3145L79.1016-82.666C79.1016-83.5449 78.3203-84.2773 77.4414-84.2773C76.5625-84.2773 75.7812-83.5449 75.7812-82.666L75.7812-72.3145C75.7812-71.4844 76.5625-70.7031 77.4414-70.7031ZM95.1172-63.3301C95.752-62.6953 96.7773-62.6953 97.4121-63.3301L104.736-70.6543C105.42-71.2891 105.371-72.3145 104.736-72.9492C104.102-73.584 103.125-73.584 102.441-72.9492L95.1172-65.625C94.4824-64.9902 94.5312-63.9648 95.1172-63.3301ZM57.4707-63.3301C58.1055-62.6953 59.1797-62.6953 59.7656-63.3301C60.4004-63.9648 60.4004-64.9902 59.7656-65.625L52.4414-72.9492C51.7578-73.584 50.7812-73.584 50.1465-72.9492C49.5117-72.3145 49.5117-71.2891 50.1465-70.6543ZM85.4004-28.9551C91.5527-32.373 95.6055-38.4277 95.6055-45.6543C95.6055-55.7617 87.5-63.8184 77.4414-63.8184C69.8242-63.8184 63.4277-59.2773 60.8398-52.7344C62.4023-50.9766 63.7207-49.0723 64.7949-47.0703C76.4648-46.1426 84.0332-38.8184 85.4004-28.9551ZM21.5332-8.05664L63.3789-8.05664C73.6328-8.05664 81.6895-15.7715 81.6895-25.6348C81.6895-35.5957 73.4375-43.0664 62.4512-43.0664C57.8125-52.0996 50.1465-57.0312 40.9668-57.0312C29.0527-57.0312 18.9453-47.3633 17.9688-34.8633C11.1328-33.0566 6.83594-27.832 6.83594-21.3379C6.83594-13.5254 12.8418-8.05664 21.5332-8.05664ZM104.004-44.043L114.355-44.043C115.283-44.043 115.967-44.7754 116.016-45.6543C116.064-46.5332 115.283-47.2656 114.355-47.2656L104.004-47.2656C103.125-47.2656 102.393-46.5332 102.393-45.6543C102.393-44.7754 103.125-44.043 104.004-44.043ZM102.441-18.3105C103.125-17.627 104.102-17.6758 104.736-18.3105C105.371-18.9453 105.42-19.9707 104.736-20.6055L97.4121-27.9297C96.7773-28.5156 95.752-28.5645 95.1172-27.9297C94.4824-27.2949 94.4824-26.2695 95.1172-25.6348Z"/>
  </g>
  <g id="Ultralight-S" transform="matrix(1 0 0 1 508.051 696)">
   <path d="M77.1973-71.3379C77.7344-71.3379 78.2715-71.8262 78.2715-72.3633L78.2715-83.4961C78.2715-84.082 77.7344-84.5215 77.1973-84.5215C76.6113-84.5215 76.123-84.082 76.123-83.4961L76.123-72.3633C76.123-71.8262 76.6113-71.3379 77.1973-71.3379ZM58.0566-63.9648C58.4473-63.5742 59.1309-63.5742 59.5215-63.9648C59.9121-64.3555 59.9121-65.0391 59.5215-65.4297L51.6113-73.291C51.1719-73.7305 50.5859-73.6816 50.1953-73.291C49.7559-72.9004 49.7559-72.2656 50.1953-71.8262ZM94.873-63.9648C95.2637-63.5742 95.9473-63.5742 96.3379-63.9648L104.199-71.8262C104.639-72.2656 104.59-72.9004 104.199-73.291C103.809-73.6816 103.174-73.7305 102.734-73.291L94.873-65.4297C94.4824-65.0391 94.4824-64.3555 94.873-63.9648ZM84.4238-29.4922C90.7715-32.7637 95.0195-38.8672 95.0195-46.2891C95.0195-56.25 87.1094-64.1602 77.1973-64.1602C69.2871-64.1602 62.793-59.2773 60.4004-52.3438C61.9141-50.5371 63.2324-48.6328 64.2578-46.6797C75.5859-45.8496 82.9102-38.6719 84.4238-29.4922ZM21.0449-8.64258L63.0859-8.64258C73.0957-8.64258 81.0547-16.2109 81.0547-25.7812C81.0547-35.498 72.9004-42.7734 62.1094-42.7246C57.373-52.002 49.8535-56.9336 40.6738-56.9336C28.9551-56.9336 19.043-47.2656 18.1152-34.7656C11.2305-33.0078 6.83594-27.8809 6.83594-21.4844C6.83594-13.9648 12.6953-8.64258 21.0449-8.64258ZM103.174-45.2637L114.307-45.2637C114.893-45.2637 115.332-45.7031 115.381-46.2891C115.43-46.875 114.893-47.3145 114.307-47.3145L103.174-47.3145C102.588-47.3145 102.148-46.875 102.148-46.2891C102.148-45.7031 102.588-45.2637 103.174-45.2637ZM102.734-19.2383C103.174-18.7988 103.809-18.8477 104.199-19.2383C104.59-19.6289 104.639-20.2637 104.199-20.7031L96.3379-28.5645C95.9473-28.9551 95.2637-28.9551 94.873-28.5645C94.4824-28.1738 94.4824-27.4902 94.873-27.0996Z"/>
  </g>
 </g>
</svg>
